<?xml version="1.0" encoding="UTF-8" standalone="no"?>
<svg
   version="1.1"
   id="svg874"
   width="513.01624"
   height="517.63733"
   viewBox="0 0 513.01624 517.63733"
   sodipodi:docname="logo.svg"
   inkscape:version="1.2.2 (732a01da63, 2022-12-09)"
   xmlns:inkscape="http://www.inkscape.org/namespaces/inkscape"
   xmlns:sodipodi="http://sodipodi.sourceforge.net/DTD/sodipodi-0.dtd"
   xmlns="http://www.w3.org/2000/svg"
   xmlns:svg="http://www.w3.org/2000/svg"
   xmlns:rdf="http://www.w3.org/1999/02/22-rdf-syntax-ns#"
   xmlns:cc="http://creativecommons.org/ns#"
   xmlns:dc="http://purl.org/dc/elements/1.1/">
  <metadata
     id="metadata880">
    <rdf:RDF>
      <cc:Work
         rdf:about="">
        <dc:format>image/svg+xml</dc:format>
        <dc:type
           rdf:resource="http://purl.org/dc/dcmitype/StillImage" />
      </cc:Work>
    </rdf:RDF>
  </metadata>
  <defs
     id="defs878">
    <rect
       x="-355.35077"
       y="-47.497379"
       width="1645.6963"
       height="1243.7277"
       id="rect49" />
    <rect
       x="-228.69109"
       y="58.052353"
       width="1312.335"
       height="1073.089"
       id="rect43" />
  </defs>
  <sodipodi:namedview
     pagecolor="#ffffff"
     bordercolor="#000000"
     borderopacity="1"
     objecttolerance="10"
     gridtolerance="10"
     guidetolerance="10"
     inkscape:pageopacity="0"
     inkscape:pageshadow="2"
     inkscape:window-width="1920"
     inkscape:window-height="992"
     id="namedview876"
     showgrid="false"
     inkscape:zoom="1.1369048"
     inkscape:cx="257.71727"
     inkscape:cy="241.44502"
     inkscape:window-x="-8"
     inkscape:window-y="-8"
     inkscape:window-maximized="1"
     inkscape:document-rotation="0"
     inkscape:pagecheckerboard="true"
     fit-margin-top="0"
     fit-margin-left="0"
     fit-margin-right="0"
     fit-margin-bottom="0"
     inkscape:showpageshadow="2"
     inkscape:deskcolor="#d1d1d1"
     inkscape:current-layer="g39" />
  <g
     inkscape:groupmode="layer"
     inkscape:label="Image"
     id="g128">
    <g
       id="g39"
       transform="matrix(1.12202,0,0,1.12202,-357.998,-48.056271)">
      <path
         style="fill:#00b2fd;stroke-width:0.645083"
         d="m 435.78981,503.47663 c -0.23704,-0.38354 -1.10724,-0.52762 -1.93378,-0.32018 -0.82654,0.20745 -1.69016,0.074 -1.91916,-0.29651 -0.229,-0.37053 -0.97251,-0.49718 -1.65225,-0.28144 -0.72215,0.22921 -1.23587,0.088 -1.23587,-0.33977 0,-0.43846 -0.51739,-0.56781 -1.29017,-0.32254 -0.72345,0.22961 -1.29016,0.11592 -1.29016,-0.25883 0,-0.36757 -0.43543,-0.50121 -0.96763,-0.29699 -0.53219,0.20422 -0.96762,0.0328 -0.96762,-0.38086 0,-0.41369 -0.27023,-0.58516 -0.60051,-0.38104 -0.33028,0.20413 -0.78577,0.0714 -1.0122,-0.29499 -0.22643,-0.36637 -0.68192,-0.49912 -1.0122,-0.29499 -0.33027,0.20413 -0.60051,0.0466 -0.60051,-0.35009 0,-0.39668 -0.29028,-0.54182 -0.64508,-0.32254 -0.3548,0.21927 -0.64508,0.0741 -0.64508,-0.32254 0,-0.39668 -0.29029,-0.54182 -0.64509,-0.32255 -0.35479,0.21928 -0.64508,0.0741 -0.64508,-0.32254 0,-0.39667 -0.29029,-0.54181 -0.64508,-0.32254 -0.3548,0.21928 -0.64508,0.0741 -0.64508,-0.32254 0,-0.39667 -0.29029,-0.54182 -0.64509,-0.32254 -0.35479,0.21928 -0.64508,0.0741 -0.64508,-0.32254 0,-0.39668 -0.27244,-0.55284 -0.60544,-0.34704 -0.33299,0.20579 -0.90473,-0.13994 -1.27054,-0.76829 -0.36582,-0.62836 -0.67839,-0.85218 -0.69461,-0.49738 -0.0162,0.3548 -0.30475,0.20965 -0.64117,-0.32254 -0.33643,-0.53219 -0.87983,-0.96763 -1.20757,-0.96763 -0.32774,0 -1.23131,-0.72571 -2.00793,-1.6127 -0.77661,-0.88699 -1.20174,-1.20795 -0.94471,-0.71323 0.25702,0.49471 -1.66712,-1.24701 -4.27586,-3.8705 -2.60874,-2.62349 -4.75636,-5.00427 -4.77248,-5.29063 -0.0161,-0.28637 -0.75502,-1.10985 -1.64201,-1.82996 -0.88699,-0.72011 -1.17728,-1.11743 -0.64508,-0.88294 0.53219,0.23449 0.38705,-0.0431 -0.32255,-0.61687 -0.70959,-0.57378 -1.29016,-1.33162 -1.29016,-1.68408 0,-0.35246 -0.43543,-0.91609 -0.96763,-1.25251 -0.53219,-0.33643 -0.67733,-0.62495 -0.32254,-0.64118 0.3548,-0.0162 0.13098,-0.32879 -0.49737,-0.6946 -0.62836,-0.36582 -0.97409,-0.93756 -0.76829,-1.27055 0.2058,-0.33299 0.0496,-0.60544 -0.34704,-0.60544 -0.39668,0 -0.54182,-0.29029 -0.32255,-0.64508 0.21928,-0.3548 0.0913,-0.64508 -0.28446,-0.64508 -0.37574,0 -0.68316,-0.43544 -0.68316,-0.96763 0,-0.53219 -0.30742,-0.96762 -0.68316,-0.96762 -0.37573,0 -0.50374,-0.29029 -0.28446,-0.64509 0.21927,-0.35479 0.0741,-0.64508 -0.32255,-0.64508 -0.39667,0 -0.54181,-0.29029 -0.32254,-0.64508 0.21928,-0.3548 0.0741,-0.64509 -0.32254,-0.64509 -0.39667,0 -0.54182,-0.29028 -0.32254,-0.64508 0.21928,-0.35479 0.0741,-0.64508 -0.32254,-0.64508 -0.39668,0 -0.54182,-0.29029 -0.32254,-0.64508 0.21927,-0.3548 0.10037,-0.64509 -0.26423,-0.64509 -0.3646,0 -0.49582,-0.43543 -0.2916,-0.96762 0.20423,-0.53219 0.0328,-0.96763 -0.38085,-0.96763 -0.41369,0 -0.57276,-0.29028 -0.35349,-0.64508 0.21928,-0.35479 0.0741,-0.64508 -0.32254,-0.64508 -0.39667,0 -0.54182,-0.29029 -0.32254,-0.64508 0.21928,-0.3548 0.10037,-0.64509 -0.26423,-0.64509 -0.3646,0 -0.49581,-0.43543 -0.29159,-0.96762 0.20422,-0.53219 0.0328,-0.96763 -0.38086,-0.96763 -0.41369,0 -0.58516,-0.27023 -0.38104,-0.6005 0.20413,-0.33029 0.0714,-0.78577 -0.29499,-1.0122 -0.36637,-0.22643 -0.49912,-0.68192 -0.29499,-1.0122 0.20413,-0.33028 0.0728,-0.60051 -0.29178,-0.60051 -0.3646,0 -0.49581,-0.43543 -0.29159,-0.96762 0.20422,-0.5322 0.0591,-0.96763 -0.32254,-0.96763 -0.38162,0 -0.52677,-0.43543 -0.32255,-0.96762 0.2044,-0.53264 0.0193,-0.96763 -0.4118,-0.96763 -0.43071,0 -0.61959,-0.42613 -0.41973,-0.94696 0.19986,-0.52083 0.081,-1.12147 -0.26405,-1.33474 -0.34509,-0.21328 -0.47281,-0.63795 -0.28384,-0.94371 0.18897,-0.30576 0.0612,-0.73044 -0.28384,-0.94371 -0.3451,-0.21327 -0.47519,-0.78455 -0.28909,-1.26949 0.18609,-0.48494 0.041,-1.06552 -0.32254,-1.29016 -0.36349,-0.22465 -0.50864,-0.80523 -0.32254,-1.29017 0.18608,-0.48495 0.041,-1.06552 -0.32255,-1.29016 -0.36349,-0.22465 -0.50863,-0.80523 -0.32254,-1.29017 0.18609,-0.48495 0.0164,-1.08066 -0.37695,-1.3238 -0.39342,-0.24315 -0.54655,-0.97379 -0.34028,-1.62367 0.20626,-0.64987 0.0719,-1.36895 -0.29867,-1.59795 -0.37053,-0.229 -0.49602,-1.12429 -0.27885,-1.98954 0.25254,-1.00619 0.11867,-1.57317 -0.37143,-1.57317 -0.51023,0 -0.62875,-0.62612 -0.35471,-1.87384 0.24542,-1.1174 0.12067,-2.05362 -0.30905,-2.3192 -0.42772,-0.26435 -0.55474,-1.20059 -0.31251,-2.30346 0.22446,-1.02196 0.16888,-2.22804 -0.1235,-2.68019 -0.66444,-1.0275 -0.79608,-4.39325 -0.85214,-21.78729 -0.0586,-18.16977 -0.11139,-47.46032 -0.0907,-50.29397 0.009,-1.22941 -0.28167,-2.59435 -0.64587,-3.03319 -0.36421,-0.43884 -0.48126,-1.36797 -0.26012,-2.06473 0.22115,-0.69675 0.0882,-1.46083 -0.29548,-1.69795 -0.38366,-0.23711 -0.52881,-0.96283 -0.32254,-1.6127 0.20626,-0.64988 0.0856,-1.36046 -0.26813,-1.57908 -0.35373,-0.21862 -0.4909,-0.79426 -0.3048,-1.2792 0.18608,-0.48495 0.041,-1.06552 -0.32255,-1.29017 -0.36349,-0.22465 -0.49736,-0.83459 -0.2975,-1.35542 0.19987,-0.52083 0.0512,-0.94696 -0.33047,-0.94696 -0.38162,0 -0.52676,-0.43543 -0.32254,-0.96763 0.20422,-0.53219 0.0591,-0.96762 -0.32254,-0.96762 -0.38162,0 -0.52677,-0.43543 -0.32254,-0.96763 0.20422,-0.53219 0.0328,-0.96762 -0.38086,-0.96762 -0.41369,0 -0.58516,-0.27023 -0.38104,-0.60051 0.20413,-0.33028 0.0714,-0.78577 -0.29499,-1.0122 -0.36637,-0.22643 -0.49912,-0.68191 -0.29499,-1.0122 0.20412,-0.33027 0.0466,-0.6005 -0.35009,-0.6005 -0.39668,0 -0.54182,-0.29029 -0.32254,-0.64509 0.21927,-0.35479 0.10037,-0.64508 -0.26423,-0.64508 -0.3646,0 -0.51018,-0.398 -0.32351,-0.88445 0.18666,-0.48644 -0.0989,-1.32275 -0.63461,-1.85845 -0.5357,-0.5357 -0.79431,-1.15371 -0.57467,-1.37334 0.21963,-0.21964 0.0435,-0.39934 -0.39133,-0.39934 -0.43487,0 -0.61126,-0.29029 -0.39199,-0.64508 0.21928,-0.3548 0.0741,-0.64509 -0.32254,-0.64509 -0.39667,0 -0.54181,-0.29028 -0.32254,-0.64508 0.21928,-0.35479 0.0913,-0.64508 -0.28447,-0.64508 -0.37573,0 -0.68315,-0.43543 -0.68315,-0.96763 0,-0.53219 -0.30742,-0.96762 -0.68316,-0.96762 -0.37573,0 -0.50374,-0.29029 -0.28447,-0.64508 0.21928,-0.3548 0.0741,-0.64509 -0.32254,-0.64509 -0.39667,0 -0.54182,-0.29028 -0.32254,-0.64508 0.21928,-0.35479 0.0741,-0.64508 -0.32254,-0.64508 -0.39668,0 -0.54055,-0.29234 -0.31972,-0.64964 0.22081,-0.3573 -0.0506,-0.82315 -0.60331,-1.03522 -0.55265,-0.21207 -0.8442,-0.64545 -0.6479,-0.96306 0.1963,-0.31762 0.0324,-0.5775 -0.36432,-0.5775 -0.39667,0 -0.54055,-0.29233 -0.31972,-0.64963 0.22082,-0.35731 -0.0506,-0.82315 -0.60331,-1.03523 -0.55265,-0.21206 -0.863,-0.61502 -0.68968,-0.89547 0.17332,-0.28044 -0.13703,-0.6834 -0.68967,-0.89547 -0.55265,-0.21207 -0.84293,-0.6475 -0.64509,-0.96762 0.19786,-0.32013 -0.0924,-0.75556 -0.64508,-0.96763 -0.55264,-0.21207 -0.82413,-0.67792 -0.60331,-1.03522 0.22083,-0.3573 0.0941,-0.64964 -0.28165,-0.64964 -0.37573,0 -0.61058,-0.2698 -0.52188,-0.59955 0.0887,-0.32975 -0.41931,-1.077 -1.1289,-1.66055 -0.70959,-0.58354 -0.85473,-0.86912 -0.32254,-0.63463 0.53219,0.23449 0.24191,-0.2046 -0.64508,-0.97577 -0.88699,-0.77116 -1.17728,-1.20659 -0.64508,-0.96762 0.53219,0.23897 0.2419,-0.19646 -0.64509,-0.96762 -0.88699,-0.77117 -1.17727,-1.2066 -0.64508,-0.96763 0.53219,0.23897 0.24191,-0.19646 -0.64508,-0.96762 -0.88699,-0.77117 -1.17728,-1.2066 -0.64509,-0.96763 0.5322,0.23897 0.24191,-0.16481 -0.64508,-0.8973 -0.88699,-0.73249 -1.32242,-1.34708 -0.96762,-1.36576 0.35479,-0.0187 0.13097,-0.33326 -0.49738,-0.69907 -0.62836,-0.36582 -0.99288,-0.90715 -0.81006,-1.20296 0.18282,-0.29581 -0.11976,-0.71135 -0.67241,-0.92342 -0.55264,-0.21207 -0.84293,-0.6475 -0.64508,-0.96762 0.19785,-0.32013 -0.0924,-0.75556 -0.64508,-0.96763 -0.55264,-0.21207 -0.84293,-0.6475 -0.64509,-0.96762 0.19786,-0.32013 -0.0924,-0.75556 -0.64508,-0.96762 -0.55264,-0.21208 -0.82412,-0.67792 -0.60331,-1.03523 0.22083,-0.3573 0.077,-0.64963 -0.31972,-0.64963 -0.39667,0 -0.54054,-0.29234 -0.31972,-0.64964 0.22082,-0.35731 -0.0506,-0.82315 -0.60331,-1.03522 -0.55265,-0.21207 -0.84293,-0.6475 -0.64508,-0.96763 0.19785,-0.32012 -0.0924,-0.75555 -0.64508,-0.96762 -0.55265,-0.21207 -0.8442,-0.64545 -0.64791,-0.96307 0.1963,-0.31762 0.0324,-0.57749 -0.36431,-0.57749 -0.39668,0 -0.54055,-0.29234 -0.31972,-0.64963 0.22081,-0.35731 -0.0506,-0.82316 -0.60331,-1.03523 -0.55265,-0.21206 -0.863,-0.61503 -0.68968,-0.89547 0.17332,-0.28044 -0.13703,-0.68341 -0.68967,-0.89547 -0.55265,-0.21207 -0.82414,-0.67792 -0.60331,-1.03522 0.22082,-0.3573 0.077,-0.64964 -0.31973,-0.64964 -0.39667,0 -0.54181,-0.29029 -0.32254,-0.64508 0.21928,-0.3548 0.0741,-0.64509 -0.32254,-0.64509 -0.39667,0 -0.56062,-0.25987 -0.36432,-0.57749 0.1963,-0.31761 -0.0952,-0.751 -0.6479,-0.96306 -0.55264,-0.21207 -0.82413,-0.67792 -0.6033,-1.03522 0.22082,-0.3573 0.077,-0.64964 -0.31973,-0.64964 -0.39667,0 -0.54182,-0.29029 -0.32254,-0.64508 0.21928,-0.3548 0.0741,-0.64509 -0.32254,-0.64509 -0.39667,0 -0.54182,-0.29028 -0.32254,-0.64508 0.21927,-0.3548 0.0741,-0.64508 -0.32254,-0.64508 -0.39668,0 -0.54182,-0.29029 -0.32255,-0.64509 0.21928,-0.35479 0.0741,-0.64508 -0.32254,-0.64508 -0.39667,0 -0.54181,-0.29029 -0.32254,-0.64508 0.21928,-0.3548 0.0741,-0.64508 -0.32254,-0.64508 -0.39667,0 -0.54182,-0.29029 -0.32254,-0.64509 0.21927,-0.35479 0.0741,-0.64508 -0.32254,-0.64508 -0.39668,0 -0.54182,-0.29029 -0.32254,-0.64508 0.21927,-0.3548 0.0741,-0.64509 -0.32255,-0.64509 -0.39667,0 -0.54181,-0.29028 -0.32254,-0.64508 0.21928,-0.35479 0.0741,-0.64508 -0.32254,-0.64508 -0.39667,0 -0.54182,-0.29029 -0.32254,-0.64508 0.21928,-0.3548 0.0741,-0.64509 -0.32254,-0.64509 -0.39668,0 -0.54182,-0.29028 -0.32254,-0.64508 0.21927,-0.3548 0.15304,-0.64508 -0.1472,-0.64508 -0.30023,0 -0.59475,-0.64885 -0.65449,-1.44189 -0.0597,-0.79303 -0.41361,-1.54354 -0.78638,-1.6678 -0.37277,-0.12426 -0.51368,-0.49142 -0.31313,-0.81591 0.20055,-0.32449 0.0663,-0.58998 -0.29828,-0.58998 -0.3646,0 -0.49581,-0.43543 -0.29159,-0.96763 0.20422,-0.53219 0.0328,-0.96762 -0.38086,-0.96762 -0.41369,0 -0.57276,-0.29029 -0.35349,-0.64508 0.21928,-0.3548 0.10038,-0.64509 -0.26422,-0.64509 -0.3646,0 -0.49582,-0.43543 -0.2916,-0.96762 0.20422,-0.5322 0.0328,-0.96763 -0.38086,-0.96763 -0.41369,0 -0.58516,-0.27023 -0.38103,-0.6005 0.20412,-0.33029 0.0714,-0.78577 -0.29499,-1.0122 -0.36637,-0.22643 -0.51152,-0.66187 -0.32255,-0.96763 0.18898,-0.30576 0.0438,-0.74119 -0.32254,-0.96762 -0.36637,-0.22643 -0.51151,-0.66186 -0.32254,-0.96763 0.18897,-0.30576 0.0612,-0.73043 -0.28384,-0.94371 -0.34509,-0.21327 -0.46391,-0.81391 -0.26405,-1.33474 0.19986,-0.52083 0.0512,-0.94696 -0.33047,-0.94696 -0.38162,0 -0.52676,-0.43543 -0.32254,-0.96763 0.20422,-0.53219 0.0304,-0.96762 -0.38626,-0.96762 -0.46401,0 -0.59889,-0.49995 -0.34809,-1.29017 0.25081,-0.79022 0.11592,-1.29016 -0.34808,-1.29016 -0.41667,0 -0.59405,-0.42614 -0.39419,-0.94696 0.19986,-0.52084 0.074,-1.12584 -0.27977,-1.34446 -0.35373,-0.21862 -0.46663,-0.95363 -0.25089,-1.63337 0.2292,-0.72216 0.088,-1.23587 -0.33977,-1.23587 -0.42775,0 -0.56898,-0.51372 -0.33978,-1.23588 0.21574,-0.67974 0.0784,-1.42988 -0.30531,-1.667 -0.38366,-0.23711 -0.51663,-1.00119 -0.29548,-1.69795 0.22114,-0.69676 0.0638,-1.67441 -0.3496,-2.17254 -0.41342,-0.49814 -0.56381,-1.49762 -0.3342,-2.22106 0.22961,-0.72345 0.19068,-1.68081 -0.0865,-2.12748 -0.71169,-1.14682 -0.7303,-19.99584 -0.0207,-20.96276 0.32216,-0.43897 0.40311,-1.27405 0.1799,-1.85573 -0.22321,-0.58169 -0.0781,-1.45255 0.32254,-1.93525 0.40061,-0.48271 0.56344,-1.30748 0.36185,-1.83283 -0.2016,-0.52535 -0.0691,-1.13898 0.29435,-1.36363 0.36348,-0.22465 0.50863,-0.80522 0.32254,-1.29017 -0.18609,-0.48494 -0.056,-1.05621 0.28908,-1.26948 0.34509,-0.21328 0.47282,-0.63795 0.28385,-0.94372 -0.18898,-0.30576 -0.0438,-0.74119 0.32254,-0.96762 0.36637,-0.22643 0.51151,-0.66186 0.32254,-0.96762 -0.18897,-0.30577 -0.0438,-0.7412 0.32254,-0.96763 0.36637,-0.22643 0.49912,-0.68192 0.29499,-1.0122 -0.20412,-0.33027 -0.0326,-0.60051 0.38104,-0.60051 0.41369,0 0.58508,-0.43543 0.38086,-0.96762 -0.20422,-0.53219 -0.073,-0.96762 0.29159,-0.96762 0.3646,0 0.4835,-0.29029 0.26423,-0.64509 -0.21928,-0.35479 -0.0741,-0.64508 0.32254,-0.64508 0.39667,0 0.54182,-0.29029 0.32254,-0.64508 -0.21927,-0.3548 -0.0741,-0.64509 0.32254,-0.64509 0.39668,0 0.54182,-0.29028 0.32254,-0.64508 -0.21927,-0.35479 -0.0741,-0.64508 0.32255,-0.64508 0.39667,0 0.56061,-0.25987 0.36431,-0.57749 -0.1963,-0.31762 0.0953,-0.751 0.6479,-0.96307 0.55265,-0.21207 0.82413,-0.67791 0.60331,-1.03522 -0.22083,-0.3573 -0.0941,-0.64964 0.28165,-0.64964 0.37574,0 0.61059,-0.2698 0.52189,-0.59955 -0.0887,-0.32975 0.4193,-1.077 1.12889,-1.66055 0.70959,-0.58354 0.85474,-0.85605 0.32254,-0.60556 -0.53219,0.25049 0.0484,-0.47359 1.29017,-1.60905 1.24178,-1.13546 1.82236,-1.85808 1.29016,-1.60582 -0.53219,0.25226 0.4729,-1.03415 2.23354,-2.8587 3.2784,-3.39738 3.96,-3.92631 3.2357,-2.51099 -0.22696,0.4435 0.30662,0.0266 1.18574,-0.92646 0.87912,-0.95304 1.74989,-1.58133 1.93503,-1.39618 0.18514,0.18514 0.665,-0.27694 1.06634,-1.02686 0.40134,-0.74992 1.00544,-1.19308 1.34243,-0.9848 0.337,0.20827 0.61272,0.0713 0.61272,-0.30448 0,-0.37573 0.43543,-0.68315 0.96762,-0.68315 0.53219,0 0.96763,-0.30742 0.96763,-0.68316 0,-0.37573 0.29028,-0.50374 0.64508,-0.28447 0.35479,0.21928 0.64508,0.0741 0.64508,-0.32254 0,-0.39667 0.29029,-0.54182 0.64508,-0.32254 0.3548,0.21928 0.64509,0.0741 0.64509,-0.32254 0,-0.39667 0.29028,-0.54182 0.64508,-0.32254 0.3548,0.21928 0.64508,0.0741 0.64508,-0.32254 0,-0.39668 0.29029,-0.54182 0.64509,-0.32254 0.35479,0.21927 0.64508,0.0741 0.64508,-0.32255 0,-0.39667 0.29029,-0.54181 0.64508,-0.32254 0.3548,0.21928 0.64508,0.10038 0.64508,-0.26422 0,-0.3646 0.43544,-0.49582 0.96763,-0.2916 0.53219,0.20423 0.96762,0.0591 0.96762,-0.32254 0,-0.38162 0.43543,-0.52676 0.96763,-0.32254 0.53219,0.20422 0.96762,0.0328 0.96762,-0.38086 0,-0.41369 0.27023,-0.58516 0.60051,-0.38104 0.33028,0.20413 0.77501,0.0888 0.98829,-0.25629 0.21327,-0.34509 0.8139,-0.46391 1.33474,-0.26405 0.52082,0.19987 0.94696,0.011 0.94696,-0.41973 0,-0.43072 0.42613,-0.6196 0.94696,-0.41973 0.52083,0.19986 1.1107,0.0984 1.31083,-0.22535 0.20012,-0.32381 0.76063,-0.43649 1.24557,-0.25039 0.48495,0.18609 1.05651,0.0555 1.27016,-0.29016 0.21363,-0.34567 0.96871,-0.47675 1.67795,-0.29128 0.73029,0.19098 1.28952,0.0195 1.28952,-0.39539 0,-0.45042 0.59409,-0.5835 1.54234,-0.34551 0.85964,0.21576 1.74028,0.0668 1.98953,-0.33649 0.24596,-0.39798 1.01728,-0.54266 1.71404,-0.32152 0.69676,0.22114 1.67441,0.0638 2.17255,-0.34959 0.49814,-0.41343 1.49761,-0.56381 2.22106,-0.3342 0.72344,0.22961 1.6808,0.18102 2.12747,-0.10798 2.01747,-1.30532 31.21932,-1.29897 33.24329,0.007 0.45215,0.2918 1.69776,0.33822 2.76802,0.10315 1.1612,-0.25504 2.313,-0.12276 2.85618,0.32804 0.50063,0.41549 1.51868,0.56233 2.26232,0.3263 0.74365,-0.23602 1.75965,-0.0909 2.25779,0.32254 0.49814,0.41343 1.47579,0.57074 2.17255,0.3496 0.69675,-0.22114 1.46083,-0.0882 1.69795,0.29549 0.23711,0.38366 0.96283,0.5288 1.61271,0.32254 0.64987,-0.20627 1.37559,-0.0611 1.6127,0.32254 0.23712,0.38366 0.96283,0.52881 1.61271,0.32254 0.64988,-0.20626 1.37559,-0.0612 1.61271,0.32254 0.23711,0.38367 0.98726,0.52106 1.66699,0.30531 0.72216,-0.22921 1.23588,-0.088 1.23588,0.33977 0,0.42774 0.51372,0.56898 1.23588,0.33977 0.67973,-0.21574 1.43481,-0.0704 1.67795,0.32305 0.24315,0.39341 0.83886,0.56304 1.3238,0.37696 0.48494,-0.1861 1.04545,-0.0734 1.24557,0.25039 0.20013,0.3238 0.79,0.42521 1.31083,0.22535 0.52083,-0.19987 0.94696,-0.011 0.94696,0.41973 0,0.43071 0.42614,0.61959 0.94697,0.41973 0.52083,-0.19986 1.13077,-0.066 1.35542,0.2975 0.22464,0.36349 0.81451,0.50507 1.31082,0.31462 0.49631,-0.19046 0.90237,-0.0341 0.90237,0.34757 0,0.38163 0.42614,0.53034 0.94697,0.33047 0.52083,-0.19986 1.12147,-0.081 1.33474,0.26406 0.21328,0.34508 0.63795,0.47281 0.94371,0.28384 0.30576,-0.18897 0.73043,-0.0612 0.94371,0.28384 0.21327,0.3451 0.81391,0.46391 1.33474,0.26405 0.52083,-0.19986 0.94696,-0.011 0.94696,0.41973 0,0.43108 0.43499,0.6162 0.96763,0.4118 0.53219,-0.20422 0.96762,-0.0591 0.96762,0.32255 0,0.38162 0.43543,0.52676 0.96763,0.32254 0.53219,-0.20422 0.96762,-0.073 0.96762,0.29159 0,0.36461 0.27023,0.49591 0.60051,0.29178 0.33028,-0.20413 0.78577,-0.0714 1.0122,0.29499 0.22643,0.36637 0.68192,0.49912 1.0122,0.29499 0.33027,-0.20412 0.60051,-0.0326 0.60051,0.38104 0,0.41369 0.43543,0.58508 0.96762,0.38086 0.53219,-0.20422 0.96762,-0.073 0.96762,0.29159 0,0.3646 0.27024,0.4959 0.60051,0.29178 0.33028,-0.20413 0.78577,-0.0714 1.0122,0.29499 0.22643,0.36637 0.68192,0.49912 1.0122,0.29499 0.33028,-0.20412 0.60051,-0.0466 0.60051,0.35009 0,0.39668 0.27023,0.55422 0.60051,0.3501 0.33028,-0.20413 0.78577,-0.0714 1.0122,0.29499 0.22643,0.36636 0.68191,0.49912 1.0122,0.29499 0.33027,-0.20413 0.6005,-0.0466 0.6005,0.35009 0,0.39667 0.27023,0.55422 0.60051,0.35009 0.33028,-0.20413 0.78577,-0.0714 1.0122,0.29499 0.22643,0.36637 0.68192,0.49912 1.0122,0.29499 0.33028,-0.20412 0.60051,-0.0466 0.60051,0.35009 0,0.39668 0.29028,0.54182 0.64508,0.32255 0.3548,-0.21928 0.64508,-0.0741 0.64508,0.32254 0,0.39667 0.29029,0.54182 0.64509,0.32254 0.35479,-0.21928 0.64508,-0.0741 0.64508,0.32254 0,0.39667 0.27023,0.55422 0.60051,0.35009 0.33028,-0.20413 0.78577,-0.0714 1.0122,0.29499 0.22643,0.36637 0.68191,0.49912 1.0122,0.29499 0.33027,-0.20412 0.6005,-0.0466 0.6005,0.3501 0,0.39667 0.29029,0.54181 0.64509,0.32254 0.35479,-0.21928 0.64508,-0.0741 0.64508,0.32254 0,0.39667 0.29029,0.54182 0.64508,0.32254 0.3548,-0.21928 0.64509,-0.0741 0.64509,0.32254 0,0.39668 0.29028,0.54182 0.64508,0.32254 0.35479,-0.21927 0.64508,-0.0741 0.64508,0.32255 0,0.39667 0.29029,0.54181 0.64508,0.32254 0.3548,-0.21928 0.64509,-0.0741 0.64509,0.32254 0,0.39667 0.29028,0.54182 0.64508,0.32254 0.3548,-0.21928 0.64508,-0.0741 0.64508,0.32254 0,0.39668 0.29029,0.54182 0.64509,0.32254 0.35479,-0.21927 0.64508,-0.0741 0.64508,0.32254 0,0.39668 0.25987,0.56062 0.57749,0.36432 0.31761,-0.1963 0.751,0.0952 0.96306,0.6479 0.21207,0.55265 0.67792,0.82413 1.03523,0.60331 0.35729,-0.22082 0.64963,-0.077 0.64963,0.31972 0,0.39668 0.29029,0.54182 0.64509,0.32254 0.35479,-0.21927 0.64508,-0.0741 0.64508,0.32255 0,0.39667 0.29029,0.54181 0.64508,0.32254 0.3548,-0.21928 0.64508,-0.0741 0.64508,0.32254 0,0.39667 0.25988,0.56061 0.5775,0.36432 0.31761,-0.1963 0.75099,0.0952 0.96306,0.6479 0.21207,0.55264 0.67792,0.82412 1.03522,0.6033 0.3573,-0.22082 0.64964,-0.0769 0.64964,0.31973 0,0.39667 0.25987,0.56061 0.57749,0.36431 0.31761,-0.19629 0.751,0.0953 0.96306,0.64791 0.21207,0.55264 0.67792,0.82412 1.03523,0.6033 0.35729,-0.22082 0.64963,-0.0769 0.64963,0.31973 0,0.39667 0.29234,0.54054 0.64964,0.31972 0.35731,-0.22082 0.82315,0.0506 1.03522,0.60331 0.21207,0.55264 0.61503,0.86299 0.89547,0.68967 0.28045,-0.17332 0.68341,0.13703 0.89548,0.68968 0.21207,0.55264 0.6475,0.84293 0.96762,0.64508 0.32013,-0.19785 0.75556,0.0924 0.96763,0.64509 0.21207,0.55264 0.6475,0.84293 0.96762,0.64508 0.32013,-0.19785 0.74953,0.0767 0.95423,0.61018 0.20471,0.53344 0.65006,0.89464 0.98969,0.80265 0.33963,-0.092 1.09495,0.41331 1.6785,1.12291 0.58354,0.70959 0.87279,0.85473 0.64277,0.32254 -0.23002,-0.5322 0.0512,-0.38705 0.62502,0.32254 0.57377,0.70959 1.28829,1.29016 1.58782,1.29016 0.29953,0 1.18001,0.72572 1.95663,1.61271 0.77661,0.88699 1.21958,1.17728 0.98436,0.64508 -0.23521,-0.53219 0.16152,-0.2419 0.88163,0.64509 0.72011,0.88699 1.55541,1.6127 1.85623,1.6127 0.30081,0 1.5164,1.01601 2.70131,2.25779 1.18491,1.24179 1.78146,1.67722 1.32566,0.96763 -0.45579,-0.70959 0.65493,0.30641 2.46828,2.25779 1.81334,1.95138 3.30955,3.2698 3.32491,2.92983 0.0154,-0.33996 1.32164,0.65155 2.90283,2.20338 1.5812,1.55183 2.74171,3.03702 2.57891,3.30042 -0.16279,0.26341 1.22866,1.83788 3.09212,3.49883 1.86346,1.66095 2.95267,2.82536 2.42048,2.58759 -0.53219,-0.23777 -0.0968,0.36889 0.96762,1.34814 1.06439,0.97925 1.86557,2.01001 1.7804,2.29058 -0.0852,0.28056 0.43097,0.82363 1.14696,1.20682 0.716,0.38319 1.14041,0.95787 0.94314,1.27706 -0.19727,0.3192 0.23816,0.89977 0.96763,1.29017 0.72946,0.3904 1.15462,0.98759 0.9448,1.32709 -0.20982,0.3395 0.0707,0.79078 0.62331,1.00285 0.55265,0.21206 0.84293,0.6475 0.64508,0.96762 -0.19785,0.32013 0.0924,0.75556 0.64508,0.96763 0.55265,0.21206 0.85523,0.62761 0.67241,0.92342 -0.18282,0.29581 0.1817,0.83714 0.81006,1.20295 0.62835,0.36582 0.86926,0.67395 0.53535,0.68473 -0.3339,0.0108 -0.0436,0.47658 0.64509,1.03508 0.6887,0.5585 0.81675,0.82726 0.28456,0.59725 -0.64566,-0.27907 -0.59533,-0.11278 0.15125,0.49976 0.61537,0.50488 0.92985,1.10698 0.69884,1.338 -0.23102,0.23101 -0.0643,0.42003 0.37063,0.42003 0.43487,0 0.60999,0.29234 0.38917,0.64963 -0.22082,0.35731 0.0506,0.82316 0.60331,1.03523 0.55265,0.21206 0.8442,0.64545 0.6479,0.96306 -0.1963,0.31762 -0.0324,0.57749 0.36432,0.57749 0.39667,0 0.54181,0.29029 0.32254,0.64508 -0.21928,0.3548 -0.0741,0.64509 0.32254,0.64509 0.39667,0 0.54182,0.29028 0.32254,0.64508 -0.21928,0.3548 -0.0741,0.64508 0.32254,0.64508 0.39668,0 0.54182,0.29029 0.32254,0.64509 -0.21927,0.35479 -0.0741,0.64508 0.32254,0.64508 0.39668,0 0.55422,0.27023 0.3501,0.60051 -0.20413,0.33028 -0.0714,0.78577 0.29499,1.0122 0.36637,0.22643 0.49912,0.68191 0.29499,1.0122 -0.20413,0.33027 -0.0466,0.6005 0.35009,0.6005 0.39667,0 0.54182,0.29029 0.32254,0.64509 -0.21927,0.35479 -0.0741,0.64508 0.32254,0.64508 0.39668,0 0.55422,0.27023 0.3501,0.60051 -0.20413,0.33028 -0.0714,0.78577 0.29499,1.0122 0.36636,0.22643 0.49912,0.68191 0.29499,1.0122 -0.20413,0.33027 -0.0728,0.6005 0.29177,0.6005 0.3646,0 0.49582,0.43543 0.2916,0.96763 -0.20423,0.53219 -0.0591,0.96762 0.32254,0.96762 0.38162,0 0.52676,0.43543 0.32254,0.96763 -0.20422,0.53219 -0.0591,0.96762 0.32254,0.96762 0.38162,0 0.52677,0.43543 0.32255,0.96762 -0.20423,0.5322 -0.0591,0.96763 0.32254,0.96763 0.38162,0 0.53803,0.40607 0.34757,0.90237 -0.19044,0.49631 -0.0489,1.08618 0.31462,1.31082 0.36349,0.22465 0.49736,0.83459 0.2975,1.35543 -0.19986,0.52082 -0.0225,0.94696 0.39419,0.94696 0.45291,0 0.59982,0.497 0.36532,1.23588 -0.21575,0.67973 -0.11742,1.40573 0.2185,1.61335 0.33592,0.2076 0.45902,0.95775 0.27355,1.66699 -0.19098,0.73029 -0.0195,1.28953 0.39539,1.28953 0.45042,0 0.58351,0.59408 0.34551,1.54233 -0.2129,0.84828 -0.0828,1.7304 0.28912,1.96026 0.37193,0.22986 0.51135,1.24233 0.30983,2.24993 -0.20699,1.03493 -0.0568,2.02331 0.34506,2.27171 0.43672,0.26991 0.55953,1.38987 0.31804,2.90009 -0.21638,1.35321 -0.14444,2.61426 0.15988,2.80233 0.30431,0.18807 0.45596,7.40914 0.33698,16.04682 -0.26957,19.57023 -0.37039,21.88068 -1.01614,23.28604 -0.28567,0.62168 -0.33044,1.88317 -0.0995,2.8033 0.23771,0.9471 0.0967,2.0624 -0.32501,2.57052 -0.40969,0.49365 -0.56626,1.60923 -0.34795,2.47909 0.2227,0.88728 0.0842,1.77483 -0.31549,2.02186 -0.40289,0.249 -0.55324,1.2363 -0.34604,2.27231 0.20152,1.0076 0.0621,2.02007 -0.30982,2.24993 -0.37192,0.22986 -0.50649,1.09419 -0.29905,1.92073 0.20745,0.82654 0.0623,1.6974 -0.32254,1.93525 -0.38484,0.23784 -0.52999,1.10871 -0.32254,1.93525 0.20745,0.82653 0.074,1.69016 -0.29651,1.91916 -0.37053,0.22899 -0.50494,0.94807 -0.29867,1.59795 0.20626,0.64988 0.0611,1.37559 -0.32254,1.61271 -0.38367,0.23711 -0.52881,0.96283 -0.32254,1.6127 0.20626,0.64988 0.0611,1.3756 -0.32255,1.61271 -0.38366,0.23711 -0.5288,0.96283 -0.32254,1.61271 0.20627,0.64987 0.0611,1.37559 -0.32254,1.61271 -0.38366,0.23711 -0.52105,0.98726 -0.30531,1.66699 0.22921,0.72216 0.088,1.23588 -0.33977,1.23588 -0.42774,0 -0.56898,0.51372 -0.33977,1.23587 0.21574,0.67974 0.0854,1.42551 -0.28959,1.65729 -0.37502,0.23177 -0.50698,0.70434 -0.29325,1.05017 0.21373,0.34582 0.0483,1.03877 -0.36756,1.53987 -0.41588,0.50111 -0.58128,1.19406 -0.36755,1.53988 0.21373,0.34582 0.0738,0.82333 -0.31098,1.06113 -0.38478,0.2378 -0.54733,0.82914 -0.36124,1.31409 0.18609,0.48494 0.0734,1.04544 -0.25039,1.24557 -0.32381,0.20012 -0.42522,0.78999 -0.22536,1.31082 0.19987,0.52083 0.0225,0.94697 -0.39418,0.94697 -0.46401,0 -0.5989,0.49994 -0.34809,1.29016 0.25081,0.79022 0.11592,1.29017 -0.34808,1.29017 -0.41667,0 -0.59405,0.42613 -0.39419,0.94696 0.19986,0.52083 0.0985,1.1107 -0.22535,1.31083 -0.32381,0.20012 -0.42521,0.78999 -0.22535,1.31083 0.19986,0.52082 0.011,0.94696 -0.41973,0.94696 -0.43108,0 -0.6162,0.43498 -0.41181,0.96762 0.20422,0.5322 0.0591,0.96763 -0.32254,0.96763 -0.38162,0 -0.53033,0.42613 -0.33047,0.94696 0.19986,0.52083 0.0985,1.1107 -0.22535,1.31083 -0.32381,0.20012 -0.42521,0.78999 -0.22535,1.31082 0.19986,0.52083 0.011,0.94697 -0.41973,0.94697 -0.43108,0 -0.6162,0.43498 -0.4118,0.96762 0.20422,0.53219 0.0591,0.96763 -0.32255,0.96763 -0.38162,0 -0.52676,0.43543 -0.32254,0.96762 0.20422,0.53219 0.0591,0.96762 -0.32254,0.96762 -0.38162,0 -0.52677,0.43544 -0.32254,0.96763 0.20422,0.53219 0.0591,0.96762 -0.32254,0.96762 -0.38163,0 -0.52677,0.43543 -0.32254,0.96763 0.20422,0.53219 0.0591,0.96762 -0.32254,0.96762 -0.38163,0 -0.52677,0.43543 -0.32255,0.96763 0.20422,0.53219 0.0591,0.96762 -0.32254,0.96762 -0.38162,0 -0.52677,0.43543 -0.32254,0.96762 0.20422,0.5322 0.0591,0.96763 -0.32254,0.96763 -0.38162,0 -0.52677,0.43543 -0.32254,0.96762 0.20422,0.5322 0.0992,0.96763 -0.23328,0.96763 -0.33253,0 -0.4375,0.43543 -0.23328,0.96762 0.20422,0.5322 0.0328,0.96763 -0.38086,0.96763 -0.41369,0 -0.58516,0.27023 -0.38104,0.6005 0.20413,0.33029 0.0714,0.78577 -0.29499,1.0122 -0.36637,0.22643 -0.49912,0.68192 -0.29499,1.0122 0.20412,0.33028 0.0326,0.60051 -0.38104,0.60051 -0.41369,0 -0.58508,0.43543 -0.38085,0.96763 0.20422,0.53219 0.073,0.96762 -0.2916,0.96762 -0.3646,0 -0.4835,0.29029 -0.26423,0.64508 0.21928,0.3548 0.0602,0.64509 -0.35348,0.64509 -0.41369,0 -0.58509,0.43543 -0.38086,0.96762 0.20422,0.53219 0.073,0.96762 -0.2916,0.96762 -0.3646,0 -0.4835,0.29029 -0.26422,0.64509 0.21927,0.35479 0.0602,0.64508 -0.35349,0.64508 -0.41369,0 -0.58508,0.43543 -0.38085,0.96762 0.20422,0.5322 0.073,0.96763 -0.2916,0.96763 -0.3646,0 -0.4959,0.27023 -0.29178,0.60051 0.20413,0.33028 0.0714,0.78577 -0.29499,1.0122 -0.36637,0.22643 -0.49912,0.68191 -0.29499,1.0122 0.20412,0.33027 0.0466,0.6005 -0.35009,0.6005 -0.39668,0 -0.54182,0.29029 -0.32254,0.64509 0.21927,0.35479 0.0741,0.64508 -0.32254,0.64508 -0.39668,0 -0.54182,0.29029 -0.32255,0.64508 0.21928,0.3548 0.0602,0.64508 -0.35348,0.64508 -0.41369,0 -0.58509,0.43544 -0.38086,0.96763 0.20422,0.53219 0.073,0.96762 -0.2916,0.96762 -0.3646,0 -0.4835,0.29029 -0.26422,0.64509 0.21927,0.35479 0.0741,0.64508 -0.32254,0.64508 -0.39668,0 -0.55714,0.2655 -0.3566,0.58999 0.20055,0.32449 0.0597,0.69165 -0.31313,0.8159 -0.37277,0.12426 -0.72664,0.87477 -0.78638,1.66781 -0.0597,0.79303 -0.35425,1.44188 -0.65449,1.44188 -0.30023,0 -0.36647,0.29029 -0.14719,0.64508 0.21927,0.3548 0.0741,0.64509 -0.32254,0.64509 -0.39668,0 -0.54182,0.29028 -0.32255,0.64508 0.21928,0.35479 0.0741,0.64508 -0.32254,0.64508 -0.39667,0 -0.54182,0.29029 -0.32254,0.64508 0.21928,0.3548 0.0741,0.64509 -0.32254,0.64509 -0.39668,0 -0.54182,0.29028 -0.32254,0.64508 0.21927,0.3548 0.0741,0.64508 -0.32254,0.64508 -0.39668,0 -0.54182,0.29029 -0.32255,0.64509 0.21928,0.35479 0.0741,0.64508 -0.32254,0.64508 -0.39667,0 -0.54181,0.29029 -0.32254,0.64508 0.21928,0.3548 0.0741,0.64508 -0.32254,0.64508 -0.39667,0 -0.54182,0.29029 -0.32254,0.64509 0.21928,0.35479 0.0741,0.64508 -0.32254,0.64508 -0.39668,0 -0.54182,0.29029 -0.32254,0.64508 0.21927,0.3548 0.0741,0.64509 -0.32255,0.64509 -0.39667,0 -0.54181,0.29028 -0.32254,0.64508 0.21928,0.35479 0.0741,0.64508 -0.32254,0.64508 -0.39667,0 -0.54182,0.29029 -0.32254,0.64508 0.21928,0.3548 0.0741,0.64509 -0.32254,0.64509 -0.39668,0 -0.54182,0.29028 -0.32254,0.64508 0.21927,0.3548 0.0741,0.64508 -0.32254,0.64508 -0.39668,0 -0.54182,0.29029 -0.32255,0.64509 0.21928,0.35479 0.0741,0.64508 -0.32254,0.64508 -0.39667,0 -0.56061,0.25987 -0.36431,0.57749 0.19629,0.31761 -0.0953,0.751 -0.64791,0.96306 -0.55264,0.21207 -0.82412,0.67792 -0.6033,1.03523 0.22082,0.35729 0.077,0.64963 -0.31973,0.64963 -0.39667,0 -0.54181,0.29029 -0.32254,0.64509 0.21928,0.35479 0.0741,0.64508 -0.32254,0.64508 -0.39667,0 -0.54182,0.29029 -0.32254,0.64508 0.21928,0.3548 0.0741,0.64508 -0.32254,0.64508 -0.39668,0 -0.54055,0.29234 -0.31972,0.64964 0.22081,0.35731 -0.0506,0.82315 -0.60331,1.03522 -0.55265,0.21207 -0.8442,0.64546 -0.6479,0.96307 0.1963,0.31762 0.0323,0.57749 -0.36432,0.57749 -0.39667,0 -0.54055,0.29234 -0.31972,0.64964 0.22082,0.3573 -0.0506,0.82315 -0.60331,1.03522 -0.55265,0.21206 -0.8442,0.64545 -0.6479,0.96306 0.1963,0.31762 0.0495,0.57749 -0.32625,0.57749 -0.37573,0 -0.68315,0.43543 -0.68315,0.96763 0,0.53219 -0.30742,0.96762 -0.68316,0.96762 -0.37573,0 -0.52254,0.25987 -0.32624,0.57749 0.1963,0.31762 -0.0952,0.751 -0.6479,0.96307 -0.55265,0.21207 -0.84293,0.6475 -0.64509,0.96762 0.19786,0.32013 -0.0924,0.75556 -0.64508,0.96763 -0.55264,0.21207 -0.84293,0.6475 -0.64508,0.96762 0.19785,0.32013 -0.0924,0.75556 -0.64508,0.96762 -0.55265,0.21208 -0.84293,0.64751 -0.64509,0.96763 0.19786,0.32013 -0.0924,0.75556 -0.64508,0.96762 -0.55264,0.21207 -0.84293,0.6475 -0.64508,0.96763 0.19785,0.32013 -0.0924,0.75556 -0.64509,0.96762 -0.55264,0.21207 -0.83313,0.66335 -0.6233,1.00285 0.20982,0.3395 -0.21534,0.9367 -0.94481,1.32709 -0.72947,0.3904 -1.1649,0.97098 -0.96762,1.29017 0.19727,0.31919 -0.22714,0.89387 -0.94314,1.27706 -0.716,0.38319 -1.23213,0.93995 -1.14696,1.23723 0.0852,0.29729 -0.57087,1.1816 -1.45786,1.96514 -0.88699,0.78354 -1.17728,1.22835 -0.64508,0.98847 0.53219,-0.23988 -0.19353,0.6299 -1.61271,1.93285 -1.41918,1.30294 -2.1449,2.17558 -1.61271,1.9392 0.5322,-0.23639 -0.26758,0.63875 -1.77728,1.94475 -1.5097,1.306 -2.61225,2.58918 -2.45012,2.85152 0.16214,0.26234 -1.64364,2.34161 -4.01283,4.6206 -2.36918,2.27899 -3.73407,3.39649 -3.03308,2.48334 0.70099,-0.91315 -0.28391,-0.0423 -2.18866,1.93525 -1.90475,1.97754 -3.2615,3.1601 -3.01499,2.62791 0.2465,-0.5322 -0.18723,-0.24191 -0.96385,0.64508 -0.77662,0.88699 -1.68019,1.61271 -2.00792,1.61271 -0.32774,0 -0.865,0.43543 -1.19392,0.96762 -0.32891,0.53219 -0.8864,0.96762 -1.23887,0.96762 -0.35246,0 -1.1103,0.58058 -1.68407,1.29017 -0.57378,0.70959 -0.85503,0.85474 -0.62501,0.32254 0.27906,-0.64566 0.11277,-0.59533 -0.49976,0.15125 -0.50489,0.61537 -1.10016,0.93668 -1.32282,0.71402 -0.22267,-0.22266 -0.58724,0.0705 -0.81017,0.65141 -0.22292,0.58093 -0.66519,0.89564 -0.9828,0.69934 -0.31762,-0.1963 -0.57749,-0.0324 -0.57749,0.36431 0,0.39668 -0.29234,0.54055 -0.64964,0.31973 -0.35731,-0.22082 -0.82315,0.0506 -1.03522,0.6033 -0.21207,0.55265 -0.64545,0.8442 -0.96307,0.6479 -0.31762,-0.19629 -0.57749,-0.0324 -0.57749,0.36432 0,0.39668 -0.29029,0.54182 -0.64508,0.32254 -0.3548,-0.21927 -0.64508,-0.0741 -0.64508,0.32254 0,0.39668 -0.29029,0.54182 -0.64509,0.32255 -0.35479,-0.21928 -0.64508,-0.0741 -0.64508,0.32254 0,0.39667 -0.29029,0.54182 -0.64508,0.32254 -0.3548,-0.21928 -0.64509,-0.15304 -0.64509,0.14719 0,0.30024 -0.62702,0.59311 -1.39339,0.65084 -0.76637,0.0577 -1.63278,0.48236 -1.92537,0.94363 -0.29259,0.46127 -0.53643,0.58541 -0.54186,0.27587 -0.005,-0.30954 -0.39944,-0.23948 -0.87558,0.15568 -0.47614,0.39515 -1.05671,0.52746 -1.29017,0.29401 -0.23345,-0.23345 -0.42445,-0.0949 -0.42445,0.30789 0,0.40279 -0.43544,0.56526 -0.96763,0.36104 -0.53264,-0.20439 -0.96762,-0.0193 -0.96762,0.41181 0,0.43071 -0.42614,0.61959 -0.94697,0.41972 -0.52083,-0.19985 -1.12147,-0.081 -1.33474,0.26406 -0.21327,0.34508 -0.67071,0.45255 -1.01654,0.23883 -0.34582,-0.21373 -1.01469,-0.0683 -1.48637,0.32314 -0.47168,0.39147 -1.30046,0.54181 -1.84174,0.3341 -0.54128,-0.20771 -1.1699,-0.0771 -1.39694,0.29029 -0.22704,0.36736 -1.2372,0.50305 -2.2448,0.30153 -1.03339,-0.20668 -2.02331,-0.0568 -2.27086,0.34367 -0.58069,0.93958 -11.10405,0.95103 -11.68396,0.0127 z m 62.60535,-28.33138 c 0.64217,-0.70959 1.02244,-1.29017 0.84504,-1.29017 -0.17739,0 -0.84795,0.58058 -1.49012,1.29017 -0.64218,0.70959 -1.02245,1.29017 -0.84505,1.29017 0.1774,0 0.84796,-0.58058 1.49013,-1.29017 z m -17.65749,-8.86989 c 0.8024,-1.02314 0.77958,-1.04596 -0.24356,-0.24356 -0.62089,0.48694 -1.1289,0.99495 -1.1289,1.1289 0,0.53093 0.52974,0.18921 1.37246,-0.88534 z M 395.9451,384.71269 c -0.20592,-0.5146 -0.35878,-0.36175 -0.38973,0.38974 -0.028,0.68002 0.12445,1.06103 0.33881,0.84667 0.21435,-0.21435 0.23727,-0.77074 0.0509,-1.23641 z m 150.93596,-90.35192 c -0.17895,-0.4435 -0.32537,-0.0806 -0.32537,0.80635 0,0.88699 0.14642,1.24985 0.32537,0.80636 0.17895,-0.4435 0.17895,-1.16922 0,-1.61271 z m 0.0348,-7.41845 c -0.1478,-0.97569 -0.26873,-0.1774 -0.26873,1.77397 0,1.95138 0.12093,2.74967 0.26873,1.77398 0.14781,-0.97569 0.14781,-2.57227 0,-3.54795 z M 337.8742,212.43524 c -0.17895,-0.44349 -0.32537,-0.0806 -0.32537,0.80636 0,0.88698 0.14642,1.24984 0.32537,0.80635 0.17896,-0.4435 0.17896,-1.16921 0,-1.61271 z m 0,-3.8705 c -0.17895,-0.44349 -0.32537,-0.0806 -0.32537,0.80636 0,0.88699 0.14642,1.24985 0.32537,0.80635 0.17896,-0.44349 0.17896,-1.16921 0,-1.61271 z m 195.03289,-1.96559 c 0,-0.1054 -1.23372,-1.33912 -2.7416,-2.74161 l -2.7416,-2.54998 2.54998,2.7416 c 2.37145,2.54967 2.93322,3.03804 2.93322,2.54999 z m 93.16184,292.97407 c -0.25935,-0.41962 -1.49165,-0.52318 -3.19185,-0.26822 -1.78354,0.26745 -2.92964,0.15604 -3.21952,-0.313 -0.24756,-0.40057 -1.12637,-0.55857 -1.95291,-0.35113 -0.82654,0.20745 -1.6974,0.0623 -1.93525,-0.32254 -0.23784,-0.38484 -1.1265,-0.52552 -1.97478,-0.31262 -0.94824,0.238 -1.54233,0.10491 -1.54233,-0.34551 0,-0.41489 -0.55924,-0.58636 -1.28952,-0.39539 -0.70924,0.18547 -1.46432,0.0544 -1.67796,-0.29128 -0.21364,-0.34568 -0.78521,-0.47624 -1.27015,-0.29016 -0.48495,0.1861 -1.04545,0.0734 -1.24558,-0.25039 -0.20012,-0.3238 -0.78999,-0.42521 -1.31082,-0.22535 -0.52083,0.19987 -0.94697,0.011 -0.94697,-0.41973 0,-0.43071 -0.42613,-0.61959 -0.94696,-0.41973 -0.52083,0.19986 -1.1107,0.0984 -1.31083,-0.22535 -0.20012,-0.32381 -0.78999,-0.42521 -1.31082,-0.22535 -0.52083,0.19986 -0.94697,0.0249 -0.94697,-0.38879 0,-0.41369 -0.27023,-0.58516 -0.6005,-0.38104 -0.33029,0.20413 -0.78577,0.0714 -1.0122,-0.29499 -0.22643,-0.36637 -0.68192,-0.49912 -1.0122,-0.29499 -0.33028,0.20413 -0.60051,0.0326 -0.60051,-0.38103 0,-0.4137 -0.43543,-0.58509 -0.96762,-0.38086 -0.5322,0.20422 -0.96763,0.073 -0.96763,-0.2916 0,-0.3646 -0.29029,-0.4835 -0.64508,-0.26422 -0.3548,0.21927 -0.64508,0.0741 -0.64508,-0.32255 0,-0.39667 -0.29029,-0.54181 -0.64509,-0.32254 -0.35479,0.21928 -0.64508,0.0741 -0.64508,-0.32254 0,-0.39667 -0.29029,-0.54182 -0.64508,-0.32254 -0.3548,0.21928 -0.64509,0.0741 -0.64509,-0.32254 0,-0.39668 -0.29028,-0.54182 -0.64508,-0.32254 -0.35479,0.21927 -0.64508,0.0741 -0.64508,-0.32254 0,-0.39668 -0.29029,-0.54182 -0.64509,-0.32255 -0.35479,0.21928 -0.64508,0.0741 -0.64508,-0.32254 0,-0.39667 -0.29029,-0.54181 -0.64508,-0.32254 -0.3548,0.21928 -0.64508,0.0741 -0.64508,-0.32254 0,-0.39667 -0.25988,-0.56062 -0.57749,-0.36432 -0.31762,0.1963 -0.751,-0.0953 -0.96307,-0.6479 -0.21207,-0.55264 -0.67792,-0.82412 -1.03522,-0.60331 -0.3573,0.22083 -0.64964,0.077 -0.64964,-0.31972 0,-0.39667 -0.27572,-0.55082 -0.61272,-0.34254 -0.33699,0.20827 -0.92623,-0.20714 -1.30942,-0.92314 -0.38319,-0.71599 -0.93995,-1.23212 -1.23724,-1.14696 -0.29728,0.0852 -1.18159,-0.57087 -1.96513,-1.45786 -0.78354,-0.88698 -1.23291,-1.17727 -0.99861,-0.64508 0.2343,0.53219 -0.42522,-0.0199 -1.46561,-1.22684 -1.04039,-1.20696 -2.87912,-3.0457 -4.08608,-4.08609 -1.20696,-1.04038 -1.75904,-1.69991 -1.22685,-1.46561 0.5322,0.2343 0.24191,-0.21507 -0.64508,-0.9986 -0.88699,-0.78354 -1.53744,-1.6846 -1.44545,-2.00235 0.092,-0.31775 -0.2692,-0.74522 -0.80265,-0.94992 -0.53344,-0.20471 -0.8093,-0.63206 -0.613,-0.94967 0.1963,-0.31762 0.0495,-0.57749 -0.32624,-0.57749 -0.37574,0 -0.68316,-0.43543 -0.68316,-0.96763 0,-0.53219 -0.30742,-0.96762 -0.68315,-0.96762 -0.37574,0 -0.50375,-0.29029 -0.28447,-0.64509 0.21928,-0.35479 0.15304,-0.64508 -0.1472,-0.64508 -0.30023,0 -0.5931,-0.62703 -0.65083,-1.39339 -0.0577,-0.76637 -0.48236,-1.63278 -0.94364,-1.92537 -0.46126,-0.29259 -0.5854,-0.53643 -0.27587,-0.54186 0.30955,-0.005 0.20143,-0.44531 -0.24025,-0.9775 -0.44168,-0.53219 -0.58683,-0.96762 -0.32254,-0.96762 0.26428,0 0.1572,-0.38957 -0.23796,-0.86571 -0.39516,-0.47614 -0.53448,-1.0497 -0.3096,-1.27458 0.22487,-0.22488 0.0797,-0.80545 -0.32254,-1.29016 -0.40228,-0.48472 -0.55293,-1.05979 -0.33478,-1.27794 0.21815,-0.21815 0.1788,-0.91716 -0.0874,-1.55335 -0.66724,-1.5944 -0.76688,-14.42773 -0.11514,-14.83041 0.29028,-0.17935 0.35785,-0.76895 0.15014,-1.31023 -0.2077,-0.54127 -0.0573,-1.37006 0.3341,-1.84174 0.39146,-0.47168 0.53688,-1.14055 0.32315,-1.48637 -0.21373,-0.34582 -0.10626,-0.80326 0.23883,-1.01654 0.34509,-0.21327 0.46391,-0.81391 0.26405,-1.33474 -0.19987,-0.52083 -0.0512,-0.94696 0.33047,-0.94696 0.38162,0 0.52676,-0.43544 0.32254,-0.96763 -0.20423,-0.53219 -0.0328,-0.96762 0.38086,-0.96762 0.41369,0 0.57276,-0.29029 0.35348,-0.64509 -0.21927,-0.35479 -0.0602,-0.64508 0.35349,-0.64508 0.41369,0 0.58508,-0.43543 0.38086,-0.96762 -0.20422,-0.5322 -0.073,-0.96763 0.29159,-0.96763 0.3646,0 0.48351,-0.29028 0.26423,-0.64508 -0.21928,-0.3548 -0.0741,-0.64508 0.32254,-0.64508 0.39668,0 0.54182,-0.29029 0.32254,-0.64509 -0.21927,-0.35479 -0.0741,-0.64508 0.32254,-0.64508 0.39668,0 0.56062,-0.25987 0.36432,-0.57749 -0.1963,-0.31761 0.0952,-0.751 0.6479,-0.96306 0.55265,-0.21207 0.82413,-0.67792 0.60331,-1.03523 -0.22082,-0.35729 -0.0941,-0.64963 0.28165,-0.64963 0.37573,0 0.61058,-0.2698 0.52188,-0.59956 -0.0887,-0.32975 0.41931,-1.07699 1.1289,-1.66054 0.70959,-0.58354 0.85473,-0.86247 0.32254,-0.61982 -0.53219,0.24265 -0.0968,-0.3374 0.96763,-1.28899 1.06438,-0.95159 1.49981,-1.54299 0.96762,-1.31421 -0.53219,0.22877 0.16043,-0.58163 1.53915,-1.80088 1.37873,-1.21925 3.50434,-3.34487 4.72359,-4.7236 1.21925,-1.37872 2.02853,-2.07134 1.7984,-1.53914 -0.23014,0.53219 0.22263,0.2419 1.00617,-0.64509 0.78354,-0.88699 1.6846,-1.53744 2.00235,-1.44545 0.31775,0.092 0.74521,-0.2692 0.94992,-0.80265 0.2047,-0.53344 0.6341,-0.80803 0.95423,-0.61018 0.32012,0.19785 0.75555,-0.0924 0.96762,-0.64508 0.21207,-0.55265 0.6475,-0.84293 0.96763,-0.64508 0.32012,0.19785 0.75555,-0.0924 0.96762,-0.64508 0.21207,-0.55265 0.64545,-0.8442 0.96307,-0.64791 0.31762,0.1963 0.57749,0.0324 0.57749,-0.36431 0,-0.39668 0.29029,-0.54182 0.64508,-0.32254 0.3548,0.21927 0.64508,0.0741 0.64508,-0.32255 0,-0.39667 0.29029,-0.54181 0.64509,-0.32254 0.35479,0.21928 0.64508,0.0741 0.64508,-0.32254 0,-0.39667 0.29029,-0.54182 0.64508,-0.32254 0.3548,0.21928 0.64509,0.0741 0.64509,-0.32254 0,-0.39668 0.29028,-0.54182 0.64508,-0.32254 0.35479,0.21927 0.64508,0.0741 0.64508,-0.32254 0,-0.39668 0.29029,-0.54182 0.64508,-0.32255 0.3548,0.21928 0.64509,0.10038 0.64509,-0.26422 0,-0.3646 0.43543,-0.49582 0.96762,-0.2916 0.53219,0.20423 0.96763,0.0328 0.96763,-0.38086 0,-0.41369 0.27023,-0.58516 0.6005,-0.38103 0.33029,0.20413 0.78577,0.0714 1.0122,-0.29499 0.22643,-0.36637 0.66186,-0.51152 0.96763,-0.32254 0.30576,0.18897 0.74119,0.0438 0.96762,-0.32255 0.22643,-0.36636 0.66186,-0.51151 0.96763,-0.32254 0.30576,0.18897 0.73043,0.0612 0.94371,-0.28384 0.21327,-0.34509 0.8139,-0.46391 1.33474,-0.26405 0.52082,0.19986 0.94696,0.0225 0.94696,-0.39419 0,-0.45291 0.497,-0.59982 1.23588,-0.36531 0.67973,0.21574 1.41475,0.10283 1.63336,-0.2509 0.21862,-0.35373 0.82732,-0.47821 1.35267,-0.27661 0.52535,0.20159 1.35012,0.0388 1.83283,-0.36185 0.4827,-0.40061 1.34987,-0.54717 1.92703,-0.32569 0.57716,0.22148 1.55739,0.19164 2.17829,-0.0663 0.62089,-0.25796 5.04777,-0.41729 9.83751,-0.35407 10.94674,0.14448 12.38954,0.23981 13.38547,0.88439 0.44349,0.28703 1.10936,0.33461 1.47969,0.10573 0.37034,-0.22888 1.08335,-0.0759 1.58445,0.34001 0.50111,0.41588 1.19406,0.58128 1.53988,0.36755 0.34582,-0.21373 0.82333,-0.0738 1.06113,0.31098 0.2378,0.38477 0.83843,0.54376 1.33474,0.35331 0.49631,-0.19045 0.90238,-0.0341 0.90238,0.34758 0,0.38163 0.42613,0.53034 0.94696,0.33047 0.52083,-0.19986 1.12147,-0.081 1.33474,0.26405 0.21328,0.34509 0.63795,0.47282 0.94371,0.28385 0.30576,-0.18898 0.74119,-0.0438 0.96762,0.32254 0.22643,0.36637 0.68192,0.49912 1.0122,0.29499 0.33028,-0.20413 0.60051,-0.0326 0.60051,0.38103 0,0.4137 0.43543,0.58509 0.96763,0.38086 0.53219,-0.20422 0.96762,-0.073 0.96762,0.2916 0,0.3646 0.29029,0.4835 0.64508,0.26422 0.3548,-0.21927 0.64509,-0.0741 0.64509,0.32255 0,0.39667 0.27023,0.55421 0.6005,0.35009 0.33029,-0.20413 0.78577,-0.0714 1.0122,0.29499 0.22643,0.36637 0.68192,0.49912 1.0122,0.29499 0.33028,-0.20413 0.60051,-0.0466 0.60051,0.35009 0,0.39668 0.29029,0.54182 0.64508,0.32254 0.3548,-0.21927 0.64509,-0.0741 0.64509,0.32254 0,0.39668 0.29028,0.54182 0.64508,0.32255 0.35479,-0.21928 0.64508,-0.0913 0.64508,0.28446 0,0.37574 0.43543,0.68316 0.96763,0.68316 0.53219,0 0.96762,0.30742 0.96762,0.68316 0,0.37573 0.29029,0.50374 0.64508,0.28446 0.3548,-0.21927 0.64509,-0.0741 0.64509,0.32255 0,0.39667 0.29233,0.54054 0.64963,0.31972 0.35731,-0.22082 0.82315,0.0506 1.03523,0.60331 0.21206,0.55264 0.61502,0.86299 0.89547,0.68967 0.28044,-0.17332 0.6834,0.13703 0.89547,0.68968 0.21207,0.55264 0.66335,0.83313 1.00285,0.62331 0.3395,-0.20982 0.9308,0.20432 1.31398,0.92032 0.3832,0.71599 0.90758,1.23212 1.16532,1.14696 0.25773,-0.0852 1.59992,1.0063 2.98263,2.42548 1.38272,1.41918 1.98905,1.92718 1.34741,1.12889 -1.95754,-2.43544 -0.75413,-1.6222 2.2857,1.54462 1.58176,1.64783 2.44049,2.78428 1.9083,2.52544 -0.5322,-0.25884 0.0484,0.4857 1.29016,1.65453 1.24179,1.16883 2.25779,2.34218 2.25779,2.60745 0,0.26527 0.58058,0.92101 1.29017,1.45719 0.70959,0.53618 1.01696,0.98411 0.68306,0.9954 -0.33391,0.0113 -0.0436,0.47747 0.64508,1.03598 0.6887,0.5585 0.81676,0.82726 0.28456,0.59724 -0.64565,-0.27906 -0.59533,-0.11277 0.15125,0.49976 0.61538,0.50489 0.92986,1.10699 0.69884,1.338 -0.23102,0.23101 -0.0814,0.42003 0.33256,0.42003 0.41393,0 0.7526,0.43543 0.7526,0.96762 0,0.5322 0.30742,0.96763 0.68316,0.96763 0.37573,0 0.50374,0.29029 0.28447,0.64508 -0.21928,0.3548 -0.0741,0.64508 0.32254,0.64508 0.39667,0 0.55422,0.27024 0.35009,0.60051 -0.20413,0.33028 -0.0714,0.78577 0.29499,1.0122 0.36637,0.22643 0.49912,0.68192 0.29499,1.0122 -0.20412,0.33028 -0.0466,0.60051 0.35009,0.60051 0.39668,0 0.54182,0.29029 0.32255,0.64508 -0.21928,0.3548 -0.0602,0.64508 0.35348,0.64508 0.41369,0 0.58509,0.43544 0.38086,0.96763 -0.20422,0.53219 -0.0591,0.96762 0.32254,0.96762 0.38163,0 0.52677,0.43543 0.32254,0.96763 -0.20422,0.53219 -0.0706,0.96762 0.297,0.96762 0.37475,0 0.48844,0.56672 0.25882,1.29017 -0.2508,0.79022 -0.11592,1.29016 0.34809,1.29016 0.42748,0 0.58605,0.44699 0.36392,1.02584 -0.2165,0.56422 -0.17499,1.36251 0.0923,1.77398 0.26724,0.41148 0.55326,1.76414 0.63559,3.00593 0.0823,1.24178 0.32747,3.93671 0.54477,5.98874 0.26118,2.46642 0.13645,4.04258 -0.36802,4.65042 -0.46042,0.55478 -0.5922,1.69758 -0.33225,2.88116 0.29262,1.33227 0.18331,1.96167 -0.34072,1.96167 -0.45384,0 -0.63271,0.53101 -0.43435,1.28952 0.18547,0.70924 0.0869,1.44426 -0.21913,1.63337 -0.30599,0.18911 -0.39283,0.76998 -0.19297,1.29081 0.19987,0.52083 0.011,0.94696 -0.41973,0.94696 -0.43107,0 -0.61619,0.43499 -0.4118,0.96763 0.20422,0.53219 0.073,0.96762 -0.2916,0.96762 -0.3646,0 -0.4959,0.27023 -0.29177,0.60051 0.20413,0.33028 0.0714,0.78577 -0.29499,1.0122 -0.36637,0.22643 -0.49912,0.68191 -0.29499,1.0122 0.20412,0.33027 0.0466,0.60051 -0.3501,0.60051 -0.39667,0 -0.54181,0.29028 -0.32254,0.64508 0.21928,0.35479 0.0741,0.64508 -0.32254,0.64508 -0.39667,0 -0.54182,0.29029 -0.32254,0.64508 0.21928,0.3548 0.0741,0.64509 -0.32254,0.64509 -0.39668,0 -0.55284,0.27244 -0.34704,0.60543 0.20579,0.33299 -0.13993,0.90474 -0.76829,1.27055 -0.62836,0.36582 -0.85217,0.6804 -0.49738,0.69908 0.3548,0.0186 -0.0806,0.63327 -0.96762,1.36575 -0.88699,0.7325 -1.17728,1.12928 -0.64509,0.88175 0.5322,-0.24753 -0.40108,0.75718 -2.07394,2.23271 -1.67286,1.47552 -3.80694,3.61229 -4.74239,4.74838 -0.93547,1.1361 -1.50408,1.6302 -1.2636,1.098 0.24048,-0.53219 -0.12942,-0.32682 -0.822,0.45639 -0.69258,0.7832 -1.43358,1.24965 -1.64667,1.03656 -0.21309,-0.21309 -0.56983,0.0879 -0.79276,0.66881 -0.22292,0.58094 -0.63477,0.91444 -0.91521,0.74112 -0.28044,-0.17332 -0.68341,0.13703 -0.89547,0.68967 -0.21207,0.55265 -0.67792,0.82413 -1.03522,0.60331 -0.3573,-0.22082 -0.64964,-0.077 -0.64964,0.31972 0,0.39668 -0.29029,0.54182 -0.64509,0.32255 -0.35479,-0.21928 -0.64508,-0.0741 -0.64508,0.32254 0,0.39667 -0.29029,0.54182 -0.64508,0.32254 -0.3548,-0.21928 -0.64508,-0.0741 -0.64508,0.32254 0,0.39667 -0.27024,0.55422 -0.60051,0.35009 -0.33028,-0.20413 -0.78577,-0.0714 -1.0122,0.29499 -0.22643,0.36637 -0.68192,0.49912 -1.0122,0.29499 -0.33028,-0.20412 -0.60051,-0.0466 -0.60051,0.3501 0,0.39667 -0.27023,0.55421 -0.60051,0.35009 -0.33028,-0.20413 -0.78576,-0.0714 -1.0122,0.29499 -0.22643,0.36637 -0.68191,0.49912 -1.01219,0.29499 -0.33028,-0.20412 -0.60051,-0.0326 -0.60051,0.38104 0,0.41369 -0.43543,0.58508 -0.96763,0.38085 -0.53219,-0.20422 -0.96762,-0.0706 -0.96762,0.297 0,0.37475 -0.56672,0.48844 -1.29017,0.25883 -0.77277,-0.24527 -1.29016,-0.11593 -1.29016,0.32254 0,0.43846 -0.51739,0.56781 -1.29017,0.32254 -0.77278,-0.24527 -1.29016,-0.11592 -1.29016,0.32254 0,0.42774 -0.51372,0.56898 -1.23588,0.33977 -0.67974,-0.21574 -1.42325,-0.0891 -1.65224,0.28144 -0.229,0.37053 -1.1078,0.50015 -1.95288,0.28805 -0.84507,-0.2121 -1.91587,-0.14965 -2.37952,0.13878 -1.75176,1.08971 -22.20654,1.80835 -22.82848,0.80203 z m 65.8511,-117.97625 c -1.06439,-0.34248 -3.38669,-0.6159 -5.16067,-0.60761 -4.73382,0.0221 -7.88939,-0.28525 -8.42662,-0.82082 -0.26044,-0.25964 -1.15615,-0.30074 -1.99047,-0.0913 -0.97003,0.24346 -1.51694,0.0977 -1.51694,-0.40422 0,-0.51516 -0.55429,-0.64583 -1.61271,-0.38018 -0.97899,0.24571 -1.61271,0.12937 -1.61271,-0.29608 0,-0.39702 -0.53576,-0.5308 -1.23587,-0.30859 -0.67974,0.21574 -1.41475,0.10283 -1.63337,-0.2509 -0.21862,-0.35373 -0.82362,-0.47963 -1.34446,-0.27977 -0.52082,0.19987 -0.94696,0.0225 -0.94696,-0.39418 0,-0.46401 -0.49994,-0.5989 -1.29016,-0.34809 -0.72345,0.22961 -1.29017,0.11592 -1.29017,-0.25883 0,-0.36756 -0.43543,-0.50121 -0.96762,-0.29699 -0.53264,0.20439 -0.96763,0.0193 -0.96763,-0.4118 0,-0.43108 -0.43498,-0.6162 -0.96762,-0.4118 -0.5322,0.20422 -0.96763,0.0992 -0.96763,-0.23329 0,-0.33252 -0.43543,-0.4375 -0.96762,-0.23328 -0.53219,0.20423 -0.96763,0.0328 -0.96763,-0.38085 0,-0.4137 -0.27023,-0.58517 -0.6005,-0.38104 -0.33029,0.20413 -0.78577,0.0714 -1.0122,-0.29499 -0.22643,-0.36637 -0.68192,-0.49912 -1.0122,-0.29499 -0.33028,0.20412 -0.60051,0.0466 -0.60051,-0.35009 0,-0.39668 -0.27023,-0.55422 -0.60051,-0.3501 -0.33028,0.20413 -0.78577,0.0714 -1.0122,-0.29499 -0.22643,-0.36637 -0.68191,-0.49912 -1.0122,-0.29499 -0.33027,0.20413 -0.6005,0.0466 -0.6005,-0.35009 0,-0.39667 -0.29029,-0.54182 -0.64509,-0.32254 -0.35479,0.21927 -0.64508,0.0741 -0.64508,-0.32254 0,-0.39668 -0.29029,-0.54182 -0.64508,-0.32254 -0.3548,0.21927 -0.64509,0.0741 -0.64509,-0.32255 0,-0.39667 -0.29028,-0.54181 -0.64508,-0.32254 -0.35479,0.21928 -0.64508,0.0741 -0.64508,-0.32254 0,-0.39667 -0.29029,-0.54182 -0.64508,-0.32254 -0.3548,0.21928 -0.64509,0.0741 -0.64509,-0.32254 0,-0.39668 -0.29029,-0.54182 -0.64508,-0.32254 -0.3548,0.21927 -0.64508,0.0741 -0.64508,-0.32254 0,-0.39668 -0.25988,-0.56062 -0.57749,-0.36432 -0.31762,0.1963 -0.751,-0.0953 -0.96307,-0.6479 -0.21207,-0.55265 -0.67792,-0.82413 -1.03522,-0.60331 -0.3573,0.22082 -0.64964,0.077 -0.64964,-0.31972 0,-0.39668 -0.29234,-0.54055 -0.64964,-0.31973 -0.3573,0.22082 -0.82315,-0.0506 -1.03522,-0.6033 -0.21206,-0.55265 -0.61503,-0.863 -0.89547,-0.68968 -0.28044,0.17332 -0.68341,-0.13703 -0.89547,-0.68968 -0.21207,-0.55264 -0.66335,-0.83313 -1.00285,-0.6233 -0.3395,0.20982 -0.9308,-0.20433 -1.31399,-0.92032 -0.38319,-0.716 -0.91577,-1.23213 -1.18352,-1.14697 -0.26775,0.0852 -1.4581,-0.86115 -2.6452,-2.10294 -1.18712,-1.24178 -1.7947,-1.74978 -1.35019,-1.12889 1.43161,1.99968 0.34842,1.20759 -2.60215,-1.90281 -1.58175,-1.66745 -2.29534,-2.64559 -1.58575,-2.17366 0.7096,0.47193 0.27416,-0.11323 -0.96762,-1.30034 -1.24178,-1.18711 -2.18811,-2.37745 -2.10294,-2.6452 0.0852,-0.26775 -0.43097,-0.80034 -1.14696,-1.18353 -0.716,-0.38319 -1.15021,-0.94201 -0.96491,-1.24183 0.18529,-0.29981 -0.11526,-0.71863 -0.66791,-0.9307 -0.55264,-0.21207 -0.82412,-0.67792 -0.6033,-1.03522 0.22082,-0.3573 0.077,-0.64964 -0.31973,-0.64964 -0.39667,0 -0.54181,-0.29029 -0.32254,-0.64508 0.21928,-0.3548 0.0741,-0.64508 -0.32254,-0.64508 -0.39667,0 -0.54182,-0.29029 -0.32254,-0.64509 0.21928,-0.35479 0.0741,-0.64508 -0.32254,-0.64508 -0.39668,0 -0.54182,-0.29029 -0.32254,-0.64508 0.21927,-0.3548 0.0741,-0.64509 -0.32254,-0.64509 -0.39668,0 -0.54182,-0.29028 -0.32255,-0.64508 0.21928,-0.35479 0.0741,-0.64508 -0.32254,-0.64508 -0.39667,0 -0.54182,-0.29029 -0.32254,-0.64508 0.21928,-0.3548 0.0602,-0.64509 -0.35349,-0.64509 -0.41369,0 -0.58508,-0.43543 -0.38085,-0.96762 0.20422,-0.5322 0.0992,-0.96763 -0.23328,-0.96763 -0.33253,0 -0.43751,-0.43543 -0.23328,-0.96762 0.20439,-0.53264 0.0193,-0.96762 -0.41181,-0.96762 -0.43071,0 -0.61959,-0.42614 -0.41973,-0.94697 0.19986,-0.52083 0.066,-1.13077 -0.2975,-1.35542 -0.36349,-0.22464 -0.49501,-0.84071 -0.29228,-1.36903 0.20274,-0.52833 0.17952,-1.26655 -0.0516,-1.64049 -0.56877,-0.92027 -0.53715,-14.31039 0.036,-15.23771 0.2509,-0.40597 0.26892,-1.04112 0.0401,-1.41146 -0.22888,-0.37034 -0.0759,-1.08334 0.34001,-1.58445 0.41588,-0.50111 0.58128,-1.19406 0.36755,-1.53988 -0.21373,-0.34582 -0.10626,-0.80326 0.23883,-1.01654 0.34509,-0.21327 0.46391,-0.81391 0.26405,-1.33474 -0.19986,-0.52083 -0.0249,-0.94696 0.38879,-0.94696 0.41369,0 0.57276,-0.29029 0.35348,-0.64509 -0.21927,-0.35479 -0.0602,-0.64508 0.35349,-0.64508 0.41369,0 0.58508,-0.43543 0.38086,-0.96762 -0.20422,-0.5322 -0.073,-0.96763 0.29159,-0.96763 0.3646,0 0.48351,-0.29028 0.26423,-0.64508 -0.21928,-0.3548 -0.0741,-0.64508 0.32254,-0.64508 0.39668,0 0.54182,-0.29029 0.32254,-0.64509 -0.21927,-0.35479 -0.0741,-0.64508 0.32254,-0.64508 0.39668,0 0.54182,-0.29029 0.32255,-0.64508 -0.21928,-0.3548 -0.0741,-0.64508 0.32254,-0.64508 0.39667,0 0.54181,-0.29029 0.32254,-0.64509 -0.21928,-0.35479 -0.0741,-0.64508 0.32254,-0.64508 0.39667,0 0.56062,-0.25987 0.36432,-0.57749 -0.1963,-0.31761 0.0953,-0.751 0.6479,-0.96306 0.55264,-0.21208 0.84293,-0.64751 0.64508,-0.96763 -0.19785,-0.32013 0.0924,-0.75556 0.64508,-0.96762 0.55265,-0.21207 0.84293,-0.64751 0.64509,-0.96763 -0.19786,-0.32013 0.0767,-0.74953 0.61017,-0.95423 0.53345,-0.2047 0.89464,-0.61849 0.80266,-0.91951 -0.092,-0.30103 0.7036,-1.34854 1.76799,-2.32779 1.06438,-0.97924 1.49981,-1.57051 0.96762,-1.31393 -0.53219,0.25658 0.4729,-1.02629 2.23354,-2.85084 3.27631,-3.39521 4.34744,-4.19384 2.93518,-2.18845 -0.43725,0.6209 0.43167,-0.17739 1.93095,-1.77397 1.49927,-1.59659 2.52508,-2.46745 2.27957,-1.93525 -0.2455,0.53219 0.12028,0.32682 0.81286,-0.45639 0.69258,-0.7832 1.41689,-1.26634 1.60959,-1.07364 0.19269,0.1927 0.67873,-0.26321 1.08007,-1.01312 0.40134,-0.74992 1.00544,-1.19308 1.34243,-0.98481 0.33697,0.20828 0.61269,0.0541 0.61269,-0.34254 0,-0.39668 0.29234,-0.54055 0.64964,-0.31972 0.3573,0.22082 0.82315,-0.0506 1.03522,-0.60331 0.21207,-0.55265 0.64545,-0.8442 0.96307,-0.6479 0.31761,0.1963 0.57749,0.0324 0.57749,-0.36432 0,-0.39667 0.29234,-0.54055 0.64963,-0.31972 0.35731,0.22082 0.82316,-0.0506 1.03523,-0.60331 0.21206,-0.55265 0.64545,-0.8442 0.96306,-0.6479 0.31762,0.1963 0.57749,0.0324 0.57749,-0.36432 0,-0.39667 0.29029,-0.54182 0.64508,-0.32254 0.3548,0.21928 0.64509,0.0741 0.64509,-0.32254 0,-0.39668 0.29028,-0.54182 0.64508,-0.32254 0.3548,0.21927 0.64508,0.0741 0.64508,-0.32254 0,-0.39668 0.29029,-0.54182 0.64509,-0.32255 0.35479,0.21928 0.64508,0.10038 0.64508,-0.26422 0,-0.3646 0.43543,-0.49582 0.96762,-0.2916 0.5322,0.20423 0.96763,0.0328 0.96763,-0.38086 0,-0.41369 0.29028,-0.57276 0.64508,-0.35348 0.3548,0.21928 0.64508,0.0741 0.64508,-0.32254 0,-0.39668 0.27023,-0.55422 0.60051,-0.3501 0.33028,0.20413 0.78577,0.0714 1.0122,-0.29499 0.22643,-0.36636 0.68192,-0.49912 1.0122,-0.29499 0.33028,0.20413 0.60051,0.0728 0.60051,-0.29177 0,-0.3646 0.43543,-0.49582 0.96762,-0.2916 0.53219,0.20423 0.96763,0.0591 0.96763,-0.32254 0,-0.38162 0.43543,-0.52676 0.96762,-0.32254 0.53219,0.20422 0.96762,0.0591 0.96762,-0.32254 0,-0.38162 0.43544,-0.52677 0.96763,-0.32255 0.53264,0.2044 0.96762,0.0193 0.96762,-0.4118 0,-0.43071 0.42614,-0.61959 0.94697,-0.41973 0.52083,0.19986 1.1107,0.0985 1.31082,-0.22535 0.20013,-0.32381 0.76063,-0.43648 1.24557,-0.25039 0.48495,0.18609 1.07629,0.0236 1.31409,-0.36124 0.2378,-0.38477 0.71531,-0.52471 1.06113,-0.31098 0.34582,0.21373 1.03877,0.0483 1.53988,-0.36756 0.5011,-0.41588 1.22682,-0.56102 1.6127,-0.32254 0.38589,0.23849 1.08752,0.11333 1.55921,-0.27813 0.47168,-0.39146 1.31592,-0.53588 1.87609,-0.32092 0.56018,0.21496 1.39526,0.15424 1.85574,-0.13493 1.04001,-0.65309 1.99722,-0.71104 16.21977,-0.98197 6.33161,-0.12061 11.66259,0.0245 11.84664,0.32245 0.18404,0.29796 1.29474,0.36162 2.46823,0.14147 1.28981,-0.24197 2.30889,-0.11665 2.57682,0.31688 0.24378,0.39443 1.11949,0.54742 1.94603,0.33997 0.82653,-0.20745 1.69016,-0.074 1.91916,0.29652 0.22899,0.37052 0.9725,0.49717 1.65224,0.28143 0.72216,-0.2292 1.23588,-0.088 1.23588,0.33977 0,0.42775 0.51371,0.56898 1.23587,0.33978 0.67974,-0.21575 1.41475,-0.10284 1.63337,0.25089 0.21862,0.35374 0.82362,0.47963 1.34446,0.27977 0.52082,-0.19987 0.94696,-0.011 0.94696,0.41973 0,0.43072 0.42613,0.6196 0.94696,0.41973 0.52083,-0.19986 1.11071,-0.0985 1.31083,0.22535 0.20012,0.32381 0.78999,0.42522 1.31083,0.22536 0.52082,-0.19987 0.94696,-0.0512 0.94696,0.33047 0,0.38161 0.43543,0.52676 0.96762,0.32254 0.5322,-0.20423 0.96763,-0.0328 0.96763,0.38085 0,0.4137 0.27023,0.58517 0.60051,0.38104 0.33028,-0.20413 0.78576,-0.0714 1.0122,0.29499 0.22643,0.36637 0.68191,0.49912 1.01219,0.29499 0.33028,-0.20412 0.60051,-0.0466 0.60051,0.35009 0,0.39668 0.27023,0.55422 0.60051,0.3501 0.33028,-0.20413 0.78577,-0.0714 1.0122,0.29499 0.22643,0.36637 0.68192,0.49912 1.0122,0.29499 0.33028,-0.20413 0.60051,-0.0466 0.60051,0.35009 0,0.39667 0.29028,0.54182 0.64508,0.32254 0.3548,-0.21927 0.64508,-0.0741 0.64508,0.32254 0,0.39668 0.29029,0.54182 0.64509,0.32254 0.35479,-0.21927 0.64508,-0.0741 0.64508,0.32255 0,0.39667 0.29029,0.54181 0.64508,0.32254 0.3548,-0.21928 0.64508,-0.0741 0.64508,0.32254 0,0.39667 0.29029,0.54182 0.64509,0.32254 0.35479,-0.21928 0.64508,-0.0741 0.64508,0.32254 0,0.39668 0.29029,0.54182 0.64508,0.32254 0.3548,-0.21927 0.64509,-0.0741 0.64509,0.32254 0,0.39668 0.29028,0.54182 0.64508,0.32255 0.35479,-0.21928 0.64508,-0.0741 0.64508,0.32254 0,0.39667 0.29234,0.54054 0.64964,0.31972 0.3573,-0.22082 0.82315,0.0506 1.03522,0.60331 0.21207,0.55265 0.61503,0.863 0.89547,0.68967 0.28045,-0.17332 0.68341,0.13703 0.89548,0.68968 0.21207,0.55264 0.6475,0.84293 0.96762,0.64509 0.32013,-0.19786 0.75556,0.0924 0.96762,0.64508 0.21207,0.55264 0.64751,0.84293 0.96763,0.64508 0.32013,-0.19785 0.74953,0.0767 0.95423,0.61018 0.2047,0.53344 0.61849,0.89464 0.91951,0.80265 0.30103,-0.092 1.34854,0.7036 2.32779,1.76799 0.97924,1.06439 1.55628,1.49982 1.2823,0.96763 -0.27398,-0.5322 1.37073,0.91924 3.65493,3.22541 2.2842,2.30617 4.15409,4.42734 4.15534,4.7137 10e-4,0.28636 0.72797,1.10984 1.61496,1.82996 0.88699,0.72011 1.17727,1.11684 0.64508,0.88162 -0.53219,-0.23521 -0.32682,0.13899 0.45638,0.83157 0.7832,0.69258 1.24966,1.43358 1.03657,1.64667 -0.21309,0.21309 0.0879,0.56983 0.66881,0.79276 0.58093,0.22292 0.89564,0.66519 0.69934,0.9828 -0.1963,0.31762 -0.0324,0.57749 0.36431,0.57749 0.39668,0 0.54182,0.29029 0.32255,0.64509 -0.21928,0.35479 -0.0913,0.64508 0.28446,0.64508 0.37574,0 0.68316,0.54503 0.68316,1.21118 0,0.66615 0.43224,1.5699 0.96052,2.00834 0.52829,0.43844 0.80145,1.05456 0.60701,1.36915 -0.19443,0.3146 -0.029,0.57199 0.36772,0.57199 0.39667,0 0.55422,0.27024 0.35009,0.60051 -0.20413,0.33028 -0.0714,0.78577 0.29499,1.0122 0.36637,0.22643 0.49912,0.68192 0.29499,1.0122 -0.20412,0.33028 -0.0326,0.60051 0.38104,0.60051 0.41369,0 0.58865,0.42613 0.38878,0.94696 -0.19986,0.52083 -0.081,1.12147 0.26406,1.33474 0.34508,0.21328 0.45255,0.67072 0.23883,1.01654 -0.21373,0.34582 -0.0483,1.03877 0.36755,1.53988 0.41589,0.50111 0.56889,1.21411 0.34,1.58445 -0.22888,0.37034 -0.20921,1.00817 0.0437,1.4174 0.60109,0.97258 0.59799,13.67137 -0.004,14.64472 -0.25488,0.41241 -0.27998,1.32781 -0.0558,2.03423 0.24387,0.76739 0.1133,1.28439 -0.32407,1.28439 -0.43846,0 -0.56781,0.51739 -0.32254,1.29017 0.25081,0.79022 0.11592,1.29017 -0.34809,1.29017 -0.41666,0 -0.59048,0.43543 -0.38625,0.96762 0.20422,0.53219 0.0591,0.96762 -0.32255,0.96762 -0.38162,0 -0.52676,0.43543 -0.32254,0.96763 0.20422,0.53219 0.0591,0.96762 -0.32254,0.96762 -0.38162,0 -0.52677,0.43543 -0.32254,0.96763 0.20422,0.53219 0.073,0.96762 -0.2916,0.96762 -0.3646,0 -0.4835,0.29029 -0.26422,0.64508 0.21927,0.3548 0.0741,0.64509 -0.32254,0.64509 -0.39668,0 -0.54182,0.29028 -0.32255,0.64508 0.21928,0.3548 0.0741,0.64508 -0.32254,0.64508 -0.39667,0 -0.54181,0.29029 -0.32254,0.64509 0.21928,0.35479 0.0741,0.64508 -0.32254,0.64508 -0.39667,0 -0.54182,0.29029 -0.32254,0.64508 0.21928,0.3548 0.0741,0.64508 -0.32254,0.64508 -0.39668,0 -0.55285,0.27245 -0.34704,0.60544 0.20579,0.33299 -0.13994,0.90474 -0.76829,1.27055 -0.62836,0.36581 -0.85218,0.67839 -0.49738,0.69461 0.3548,0.0162 0.20965,0.30475 -0.32254,0.64117 -0.53219,0.33642 -0.96763,0.87983 -0.96763,1.20757 0,0.32773 -0.72571,1.2313 -1.6127,2.00792 -0.88699,0.77662 -1.17728,1.21116 -0.64509,0.96566 0.5322,-0.24551 -0.28452,0.67581 -1.81492,2.04737 -1.5304,1.37156 -3.80115,3.6549 -5.04613,5.07408 -1.24498,1.41918 -2.0753,2.1449 -1.84517,1.61271 0.23014,-0.5322 -0.22263,-0.24191 -1.00617,0.64508 -0.78354,0.88699 -1.68459,1.53744 -2.00235,1.44545 -0.31775,-0.092 -0.74521,0.26921 -0.94992,0.80265 -0.2047,0.53345 -0.6341,0.80803 -0.95423,0.61018 -0.32012,-0.19785 -0.75555,0.0924 -0.96762,0.64508 -0.21207,0.55265 -0.6475,0.84294 -0.96763,0.64508 -0.32012,-0.19784 -0.75555,0.0924 -0.96762,0.64509 -0.21207,0.55265 -0.64545,0.8442 -0.96307,0.6479 -0.31762,-0.1963 -0.57749,-0.0324 -0.57749,0.36432 0,0.39667 -0.29028,0.54181 -0.64508,0.32254 -0.3548,-0.21928 -0.64508,-0.0913 -0.64508,0.28447 0,0.37573 -0.21772,0.64528 -0.48381,0.59901 -0.86502,-0.15044 -4.67686,1.64175 -4.67686,2.19888 0,0.29796 -0.29028,0.36233 -0.64508,0.14305 -0.35479,-0.21928 -0.64508,-0.0741 -0.64508,0.32254 0,0.39668 -0.29029,0.54182 -0.64508,0.32254 -0.3548,-0.21927 -0.64509,-0.0741 -0.64509,0.32255 0,0.39667 -0.27023,0.55421 -0.6005,0.35009 -0.33029,-0.20413 -0.78577,-0.0714 -1.0122,0.29499 -0.22644,0.36637 -0.68192,0.49912 -1.0122,0.29499 -0.33028,-0.20413 -0.60051,-0.0728 -0.60051,0.29178 0,0.3646 -0.43543,0.49581 -0.96763,0.29159 -0.53219,-0.20422 -0.96762,-0.0591 -0.96762,0.32254 0,0.38162 -0.43543,0.52677 -0.96762,0.32255 -0.5322,-0.20423 -0.96763,-0.0591 -0.96763,0.32254 0,0.38162 -0.43543,0.52676 -0.96762,0.32254 -0.5322,-0.20423 -0.96763,-0.0591 -0.96763,0.32254 0,0.38162 -0.40606,0.53803 -0.90237,0.34758 -0.49631,-0.19045 -1.08618,-0.0489 -1.31082,0.31461 -0.22465,0.36349 -0.83459,0.49737 -1.35543,0.29751 -0.52082,-0.19987 -0.94696,-0.0225 -0.94696,0.39418 0,0.46401 -0.49994,0.5989 -1.29016,0.34809 -0.74976,-0.23797 -1.29017,-0.11592 -1.29017,0.29136 0,0.42545 -0.63371,0.54179 -1.61271,0.29608 -1.03532,-0.25985 -1.6127,-0.13321 -1.6127,0.35372 0,0.46379 -0.49903,0.6001 -1.2844,0.35084 -0.70641,-0.22421 -1.64985,-0.1712 -2.09652,0.11779 -0.83269,0.53877 -1.84395,0.66952 -8.55312,1.1059 -2.12877,0.13846 -5.90251,0.4198 -8.38608,0.62518 -2.48356,0.20539 -5.38644,0.0932 -6.45082,-0.24926 z m -59.22314,-59.8079 c -0.16355,-0.62765 -0.30813,-0.27031 -0.32127,0.79408 -0.0132,1.06438 0.12067,1.57791 0.29737,1.14117 0.17671,-0.43674 0.18746,-1.30761 0.0239,-1.93525 z m 64.54507,-41.27581 c -0.97569,-0.14781 -2.57227,-0.14781 -3.54796,0 -0.97568,0.1478 -0.17739,0.26873 1.77398,0.26873 1.95138,0 2.74967,-0.12093 1.77398,-0.26873 z m -69.84114,-34.39011 c -0.28476,-0.46073 -1.27042,-0.59112 -2.59299,-0.34301 -1.28981,0.24198 -2.30889,0.11665 -2.57682,-0.31687 -0.24551,-0.39724 -1.13125,-0.54447 -1.98556,-0.33005 -0.91751,0.23028 -1.54233,0.10318 -1.54233,-0.31375 0,-0.40728 -0.54041,-0.52932 -1.29017,-0.29135 -0.79022,0.2508 -1.29016,0.11592 -1.29016,-0.34809 0,-0.41667 -0.42614,-0.59405 -0.94697,-0.39419 -0.52083,0.19986 -1.1107,0.0985 -1.31082,-0.22535 -0.20013,-0.3238 -0.79,-0.42521 -1.31083,-0.22535 -0.52083,0.19986 -0.94696,0.0249 -0.94696,-0.38879 0,-0.41369 -0.27024,-0.58516 -0.60051,-0.38103 -0.33028,0.20413 -0.78577,0.0714 -1.0122,-0.29499 -0.22643,-0.36637 -0.68192,-0.49912 -1.0122,-0.29499 -0.33028,0.20412 -0.60051,0.0466 -0.60051,-0.3501 0,-0.39667 -0.29029,-0.54181 -0.64508,-0.32254 -0.3548,0.21928 -0.64508,0.15491 -0.64508,-0.14305 0,-0.55713 -3.81184,-2.34932 -4.67686,-2.19888 -0.26609,0.0463 -0.48381,-0.25453 -0.48381,-0.66846 0,-0.41392 -0.18901,-0.56358 -0.42002,-0.33256 -0.23102,0.23101 -0.83312,-0.0835 -1.33801,-0.69884 -0.61253,-0.74658 -0.77882,-0.7969 -0.49976,-0.15125 0.23002,0.5322 -0.0512,0.38705 -0.62501,-0.32254 -0.57378,-0.70959 -1.2883,-1.29016 -1.58783,-1.29016 -0.29952,0 -1.18,-0.72572 -1.95662,-1.61271 -0.77662,-0.88699 -1.20386,-1.17728 -0.94942,-0.64508 0.25444,0.53219 -1.17489,-0.61905 -3.17627,-2.5583 -3.71555,-3.60021 -4.25685,-4.2808 -2.83253,-3.5614 0.4435,0.224 -0.0645,-0.3713 -1.12889,-1.32289 -1.06439,-0.95159 -1.49982,-1.53164 -0.96763,-1.28899 0.62792,0.28629 0.57482,0.11889 -0.15124,-0.4768 -0.61538,-0.50489 -0.93669,-1.10016 -0.71403,-1.32282 0.22267,-0.22267 -0.0705,-0.58724 -0.6514,-0.81017 -0.58094,-0.22292 -0.89564,-0.66519 -0.69934,-0.9828 0.1963,-0.31762 0.0324,-0.57749 -0.36432,-0.57749 -0.39667,0 -0.54182,-0.29029 -0.32254,-0.64509 0.21928,-0.35479 0.0741,-0.64508 -0.32254,-0.64508 -0.39668,0 -0.54182,-0.29029 -0.32254,-0.64508 0.21927,-0.3548 0.0741,-0.64508 -0.32254,-0.64508 -0.39668,0 -0.54182,-0.29029 -0.32255,-0.64509 0.21928,-0.35479 0.0741,-0.64508 -0.32254,-0.64508 -0.39667,0 -0.54181,-0.29029 -0.32254,-0.64508 0.21928,-0.3548 0.10038,-0.64509 -0.26422,-0.64509 -0.36461,0 -0.49582,-0.43543 -0.2916,-0.96762 0.20423,-0.53219 0.0591,-0.96762 -0.32254,-0.96762 -0.38162,0 -0.52676,-0.43544 -0.32254,-0.96763 0.20422,-0.53219 0.0591,-0.96762 -0.32255,-0.96762 -0.38161,0 -0.52676,-0.43543 -0.32254,-0.96763 0.20423,-0.53219 0.0304,-0.96762 -0.38625,-0.96762 -0.45292,0 -0.59983,-0.49701 -0.36532,-1.23588 0.21574,-0.67973 0.0891,-1.42324 -0.28144,-1.65224 -0.37053,-0.229 -0.50396,-1.09262 -0.29651,-1.91916 0.20745,-0.82654 0.13594,-1.65188 -0.1589,-1.83409 -0.67876,-0.41945 -0.64001,-12.14428 0.0438,-13.25068 0.28007,-0.45316 0.33568,-1.51536 0.12358,-2.36044 -0.2121,-0.84508 -0.0825,-1.72387 0.28805,-1.95287 0.37053,-0.229 0.49718,-0.97251 0.28144,-1.65225 -0.22922,-0.72215 -0.088,-1.23587 0.33975,-1.23587 0.43846,0 0.56781,-0.51739 0.32254,-1.29017 -0.25081,-0.79022 -0.11592,-1.29016 0.34809,-1.29016 0.41667,0 0.59405,-0.42614 0.39418,-0.94697 -0.19986,-0.52083 -0.081,-1.12147 0.26406,-1.33474 0.34508,-0.21328 0.47281,-0.63795 0.28384,-0.94371 -0.18897,-0.30576 -0.0438,-0.74119 0.32254,-0.96762 0.36637,-0.22643 0.49912,-0.68192 0.29499,-1.0122 -0.20412,-0.33028 -0.0326,-0.60051 0.38104,-0.60051 0.41369,0 0.58508,-0.43543 0.38085,-0.96762 -0.20422,-0.5322 -0.073,-0.96763 0.2916,-0.96763 0.3646,0 0.4835,-0.29029 0.26423,-0.64508 -0.21928,-0.3548 -0.0741,-0.64508 0.32254,-0.64508 0.39667,0 0.55422,-0.27024 0.35009,-0.60051 -0.20413,-0.33029 -0.0714,-0.78577 0.29499,-1.0122 0.36637,-0.22643 0.49912,-0.68192 0.29499,-1.0122 -0.20412,-0.33028 -0.0466,-0.60051 0.35009,-0.60051 0.39668,0 0.54182,-0.29029 0.32255,-0.64508 -0.21928,-0.3548 -0.0741,-0.64509 0.32254,-0.64509 0.39667,0 0.54182,-0.29028 0.32254,-0.64508 -0.21928,-0.35479 -0.0741,-0.64508 0.32254,-0.64508 0.39667,0 0.56062,-0.25987 0.36432,-0.57749 -0.1963,-0.31762 0.0952,-0.751 0.6479,-0.96307 0.55264,-0.21207 0.82413,-0.67791 0.60331,-1.03522 -0.22083,-0.3573 -0.077,-0.64964 0.31972,-0.64964 0.39667,0 0.56061,-0.25987 0.36432,-0.57749 -0.1963,-0.31761 0.0952,-0.751 0.6479,-0.96306 0.55264,-0.21207 0.82412,-0.67792 0.60331,-1.03522 -0.22083,-0.3573 -0.077,-0.64964 0.31972,-0.64964 0.39667,0 0.54055,-0.29234 0.31972,-0.64964 -0.22082,-0.3573 0.0506,-0.82315 0.60331,-1.03522 0.55265,-0.21206 0.8532,-0.63088 0.6679,-0.9307 -0.1853,-0.29981 0.25993,-0.86454 0.9894,-1.25494 0.72947,-0.39039 1.1649,-0.97097 0.96762,-1.29016 -0.19727,-0.3192 0.22714,-0.89388 0.94314,-1.27706 0.716,-0.38319 1.23213,-0.91578 1.14696,-1.18353 -0.0852,-0.26775 0.86116,-1.44493 2.10294,-2.61596 1.24179,-1.17104 1.82236,-1.91957 1.29017,-1.66342 -0.5322,0.25615 1.20227,-1.75116 3.85435,-4.46069 4.87172,-4.97724 5.58502,-5.58373 4.84559,-4.12006 -0.22404,0.44349 0.65869,-0.3548 1.96163,-1.77398 1.30295,-1.41918 2.17273,-2.1449 1.93285,-1.61271 -0.23988,0.5322 0.20493,0.24191 0.98847,-0.64508 0.78354,-0.88699 1.66785,-1.54303 1.96513,-1.45785 0.29729,0.0852 0.85405,-0.43097 1.23724,-1.14697 0.38319,-0.716 0.97448,-1.13014 1.31398,-0.92032 0.3395,0.20983 0.79079,-0.0707 1.00286,-0.6233 0.21206,-0.55265 0.64749,-0.84294 0.96762,-0.64509 0.32012,0.19785 0.75555,-0.0924 0.96762,-0.64508 0.21207,-0.55265 0.6475,-0.84294 0.96763,-0.64508 0.32012,0.19784 0.75555,-0.0924 0.96762,-0.64509 0.21207,-0.55264 0.64545,-0.8442 0.96307,-0.6479 0.31762,0.1963 0.57749,0.0324 0.57749,-0.36431 0,-0.39668 0.29234,-0.54055 0.64964,-0.31973 0.3573,0.22082 0.82315,-0.0506 1.03522,-0.6033 0.21206,-0.55265 0.64545,-0.8442 0.96306,-0.64791 0.31762,0.1963 0.57749,0.0324 0.57749,-0.36431 0,-0.39668 0.29029,-0.54182 0.64509,-0.32254 0.35479,0.21927 0.64508,0.0741 0.64508,-0.32255 0,-0.39667 0.29029,-0.54181 0.64508,-0.32254 0.3548,0.21928 0.64508,0.11433 0.64508,-0.23321 0,-0.34755 0.87087,-0.82318 1.93525,-1.05695 1.06439,-0.23378 1.93525,-0.70941 1.93525,-1.05695 0,-0.34755 0.29029,-0.4525 0.64508,-0.23322 0.3548,0.21928 0.64509,0.0741 0.64509,-0.32254 0,-0.39667 0.29028,-0.54182 0.64508,-0.32254 0.3548,0.21927 0.64508,0.0741 0.64508,-0.32254 0,-0.39668 0.29029,-0.54182 0.64509,-0.32254 0.35479,0.21927 0.64508,0.0741 0.64508,-0.32255 0,-0.39667 0.27023,-0.55421 0.60051,-0.35009 0.33028,0.20413 0.78577,0.0714 1.0122,-0.29499 0.22643,-0.36637 0.68191,-0.49912 1.0122,-0.29499 0.33027,0.20412 0.6005,0.0466 0.6005,-0.35009 0,-0.39668 0.27024,-0.55422 0.60051,-0.35009 0.33028,0.20413 0.78577,0.0714 1.0122,-0.29499 0.22643,-0.36637 0.66186,-0.51152 0.96762,-0.32255 0.30577,0.18897 0.7412,0.0438 0.96763,-0.32254 0.22643,-0.36637 0.68192,-0.49912 1.0122,-0.29499 0.33027,0.20413 0.60051,0.0326 0.60051,-0.38104 0,-0.41369 0.42613,-0.58865 0.94696,-0.38878 0.52083,0.19986 1.1107,0.0984 1.31083,-0.22535 0.20012,-0.32381 0.78999,-0.42522 1.31082,-0.22536 0.52083,0.19987 0.94697,0.0512 0.94697,-0.33047 0,-0.38161 0.40606,-0.53803 0.90237,-0.34757 0.49631,0.19044 1.09694,0.0315 1.33474,-0.35332 0.2378,-0.38477 0.71531,-0.52471 1.06113,-0.31098 0.34582,0.21373 1.03877,0.0483 1.53988,-0.36755 0.50111,-0.41589 1.22682,-0.56103 1.61271,-0.32254 0.38588,0.23848 1.08752,0.11332 1.5592,-0.27814 0.47168,-0.39146 1.31592,-0.53587 1.87609,-0.32091 0.56018,0.21496 1.39527,0.14739 1.85575,-0.15015 1.12297,-0.72559 3.98861,-0.94257 12.44874,-0.94257 8.4059,0 11.32659,0.21721 12.41784,0.92349 0.4435,0.28703 1.10936,0.33461 1.47969,0.10573 0.37034,-0.22888 1.08335,-0.0759 1.58445,0.34 0.50111,0.41589 1.19406,0.58129 1.53988,0.36756 0.34582,-0.21373 0.82333,-0.0738 1.06113,0.31098 0.2378,0.38477 0.83843,0.54376 1.33474,0.35331 0.49631,-0.19045 0.90238,-0.0341 0.90238,0.34758 0,0.38163 0.43543,0.52677 0.96762,0.32254 0.53219,-0.20422 0.96762,-0.0591 0.96762,0.32254 0,0.38163 0.43544,0.52677 0.96763,0.32255 0.53219,-0.20423 0.96762,-0.0591 0.96762,0.32254 0,0.38162 0.43543,0.52676 0.96763,0.32254 0.53219,-0.20422 0.96762,-0.073 0.96762,0.29159 0,0.36461 0.29029,0.48351 0.64509,0.26423 0.35479,-0.21928 0.64508,-0.0741 0.64508,0.32254 0,0.39668 0.29029,0.54182 0.64508,0.32254 0.3548,-0.21927 0.64508,-0.0741 0.64508,0.32255 0,0.39667 0.29029,0.54181 0.64509,0.32254 0.35479,-0.21928 0.64508,-0.0741 0.64508,0.32254 0,0.39667 0.29029,0.54182 0.64508,0.32254 0.3548,-0.21928 0.64509,-0.0741 0.64509,0.32254 0,0.39668 0.29028,0.54182 0.64508,0.32254 0.35479,-0.21927 0.64508,-0.0741 0.64508,0.32254 0,0.39668 0.29234,0.54055 0.64964,0.31973 0.3573,-0.22082 0.82315,0.0506 1.03522,0.6033 0.21207,0.55265 0.63089,0.8532 0.9307,0.66791 0.29982,-0.1853 0.85864,0.24891 1.24183,0.96491 0.38319,0.71599 0.90576,1.24941 1.16127,1.18536 0.6315,-0.15831 9.45195,8.70925 9.29005,9.33967 -0.0709,0.27597 0.30761,0.66925 0.84105,0.87395 0.53344,0.2047 0.80803,0.6341 0.61018,0.95423 -0.19785,0.32013 0.0924,0.75556 0.64508,0.96763 0.55265,0.21206 0.8442,0.64545 0.6479,0.96306 -0.1963,0.31762 -0.0324,0.57749 0.36432,0.57749 0.39667,0 0.54055,0.29234 0.31972,0.64964 -0.22082,0.3573 0.0506,0.82315 0.60331,1.03522 0.55265,0.21207 0.8442,0.64545 0.6479,0.96307 -0.1963,0.31761 -0.0586,0.57749 0.306,0.57749 0.3646,0 0.49582,0.43543 0.2916,0.96762 -0.20423,0.53219 -0.0328,0.96762 0.38086,0.96762 0.41369,0 0.57276,0.29029 0.35348,0.64509 -0.21927,0.35479 -0.10037,0.64508 0.26423,0.64508 0.3646,0 0.49582,0.43543 0.29159,0.96763 -0.20422,0.53219 -0.0591,0.96762 0.32255,0.96762 0.38161,0 0.52676,0.43543 0.32254,0.96762 -0.20423,0.5322 -0.0328,0.96763 0.38085,0.96763 0.4137,0 0.56491,0.303 0.33603,0.67334 -0.22888,0.37034 -0.0759,1.08334 0.34,1.58445 0.41589,0.50111 0.56889,1.21411 0.34001,1.58445 -0.22889,0.37034 -0.18815,1.0362 0.0905,1.47969 1.27752,2.03313 1.28953,17.06103 0.0152,19.02995 -0.28703,0.44349 -0.33461,1.10935 -0.10573,1.47969 0.22888,0.37034 0.0959,1.05926 -0.2956,1.53095 -0.39146,0.47168 -0.53054,1.32982 -0.30906,1.90699 0.23559,0.61399 0.0778,1.04938 -0.38044,1.04938 -0.43072,0 -0.6196,0.42614 -0.41973,0.94697 0.19986,0.52083 0.081,1.12147 -0.26405,1.33474 -0.34509,0.21327 -0.47282,0.63795 -0.28384,0.94371 0.18897,0.30576 0.0438,0.74119 -0.32255,0.96762 -0.36636,0.22643 -0.51151,0.66186 -0.32254,0.96763 0.18897,0.30576 0.0438,0.74119 -0.32254,0.96762 -0.36637,0.22643 -0.49912,0.68192 -0.29499,1.0122 0.20412,0.33028 0.0466,0.60051 -0.35009,0.60051 -0.39668,0 -0.55422,0.27023 -0.3501,0.60051 0.20413,0.33028 0.0714,0.78577 -0.29499,1.0122 -0.36636,0.22643 -0.49912,0.68191 -0.29499,1.0122 0.20413,0.33027 0.0466,0.6005 -0.35009,0.6005 -0.39667,0 -0.54182,0.29029 -0.32254,0.64509 0.21928,0.35479 0.0741,0.64508 -0.32254,0.64508 -0.39668,0 -0.54182,0.29029 -0.32254,0.64508 0.21927,0.3548 0.0741,0.64508 -0.32254,0.64508 -0.39668,0 -0.54182,0.29029 -0.32255,0.64509 0.21928,0.35479 0.0741,0.64508 -0.32254,0.64508 -0.39667,0 -0.54181,0.29029 -0.32254,0.64508 0.21928,0.3548 0.0741,0.64509 -0.32254,0.64509 -0.39667,0 -0.54182,0.29028 -0.32254,0.64508 0.21928,0.35479 0.0741,0.64508 -0.32254,0.64508 -0.39668,0 -0.56062,0.25987 -0.36432,0.57749 0.1963,0.31762 -0.0952,0.751 -0.6479,0.96307 -0.55264,0.21207 -0.82413,0.67791 -0.60331,1.03522 0.22083,0.3573 0.077,0.64964 -0.31972,0.64964 -0.39668,0 -0.55284,0.27244 -0.34704,0.60543 0.20579,0.33299 -0.13993,0.90474 -0.76829,1.27055 -0.62836,0.36581 -0.85217,0.6804 -0.49738,0.69908 0.3548,0.0187 -0.0806,0.63327 -0.96762,1.36575 -0.88699,0.7325 -1.17728,1.13994 -0.64509,0.90545 0.5322,-0.23449 0.38705,0.0431 -0.32254,0.61687 -0.70959,0.57378 -1.29016,1.2883 -1.29016,1.58783 0,0.29952 -0.72572,1.18 -1.61271,1.95663 -0.88699,0.77661 -1.17728,1.22083 -0.64508,0.98716 0.53219,-0.23368 -0.33867,0.75155 -1.93525,2.18939 -1.59658,1.43785 -2.62472,2.62293 -2.28475,2.63351 0.33997,0.0106 -0.65155,1.31296 -2.20338,2.89416 -1.55183,1.58119 -3.03839,2.74085 -3.30348,2.57702 -0.26508,-0.16383 -1.55051,0.93733 -2.85651,2.44703 -1.306,1.5097 -2.18005,2.30948 -1.94235,1.77729 0.23771,-0.5322 -0.20323,-0.24191 -0.97984,0.64508 -0.77663,0.88699 -1.68019,1.61271 -2.00793,1.61271 -0.32774,0 -0.865,0.43543 -1.19392,0.96762 -0.32891,0.53219 -0.8864,0.96763 -1.23887,0.96763 -0.35246,0 -1.11029,0.58057 -1.68407,1.29016 -0.57377,0.70959 -0.85503,0.85474 -0.62501,0.32254 0.23001,-0.53219 -0.0592,-0.38705 -0.64278,0.32254 -0.58354,0.70959 -1.33079,1.2176 -1.66054,1.1289 -0.32976,-0.0887 -0.59956,0.14615 -0.59956,0.52188 0,0.37574 -0.29233,0.50248 -0.64963,0.28165 -0.35731,-0.22081 -0.82315,0.0506 -1.03523,0.60331 -0.21206,0.55265 -0.64545,0.8442 -0.96306,0.6479 -0.31762,-0.1963 -0.57749,-0.0323 -0.57749,0.36432 0,0.39667 -0.29234,0.54055 -0.64964,0.31972 -0.3573,-0.22082 -0.82315,0.0506 -1.03522,0.60331 -0.21206,0.55265 -0.64545,0.8442 -0.96306,0.6479 -0.31762,-0.1963 -0.57749,-0.0324 -0.57749,0.36432 0,0.39667 -0.29029,0.54182 -0.64509,0.32254 -0.35479,-0.21928 -0.64508,-0.0741 -0.64508,0.32254 0,0.39668 -0.29029,0.54182 -0.64508,0.32254 -0.3548,-0.21927 -0.64509,-0.0741 -0.64509,0.32254 0,0.39668 -0.29028,0.54182 -0.64508,0.32255 -0.35479,-0.21928 -0.64508,-0.0741 -0.64508,0.32254 0,0.39667 -0.29029,0.54182 -0.64508,0.32254 -0.3548,-0.21928 -0.64509,-0.0741 -0.64509,0.32254 0,0.39667 -0.29028,0.54182 -0.64508,0.32254 -0.3548,-0.21928 -0.64508,-0.0741 -0.64508,0.32254 0,0.39668 -0.29029,0.54182 -0.64509,0.32254 -0.35479,-0.21927 -0.64508,-0.0741 -0.64508,0.32255 0,0.39667 -0.29029,0.54181 -0.64508,0.32254 -0.3548,-0.21928 -0.64509,-0.0602 -0.64509,0.35348 0,0.41369 -0.43543,0.58509 -0.96762,0.38086 -0.53219,-0.20422 -0.96762,-0.073 -0.96762,0.2916 0,0.3646 -0.29029,0.4835 -0.64509,0.26422 -0.35479,-0.21927 -0.64508,-0.10037 -0.64508,0.26423 0,0.3646 -0.43543,0.49582 -0.96762,0.2916 -0.5322,-0.20423 -0.96763,-0.0591 -0.96763,0.32254 0,0.38162 -0.43543,0.52676 -0.96762,0.32254 -0.5322,-0.20423 -0.96763,-0.0328 -0.96763,0.38086 0,0.41369 -0.27023,0.58516 -0.6005,0.38103 -0.33029,-0.20413 -0.77501,-0.0888 -0.98829,0.25629 -0.21327,0.3451 -0.81391,0.46392 -1.33474,0.26406 -0.52083,-0.19987 -0.94696,-0.0512 -0.94696,0.33047 0,0.38161 -0.43544,0.52676 -0.96763,0.32254 -0.53264,-0.2044 -0.96762,-0.0193 -0.96762,0.4118 0,0.43071 -0.42614,0.61959 -0.94697,0.41973 -0.52083,-0.19986 -1.12583,-0.074 -1.34445,0.27976 -0.21862,0.35374 -0.95363,0.46664 -1.63337,0.2509 -0.72216,-0.2292 -1.23588,-0.088 -1.23588,0.33977 0,0.42775 -0.51371,0.56898 -1.23587,0.33978 -0.67974,-0.21575 -1.42989,-0.0784 -1.667,0.30531 -0.23711,0.38366 -0.98467,0.52187 -1.66122,0.30714 -0.67656,-0.21473 -1.59556,-0.15397 -2.04223,0.13503 -0.91115,0.58952 -2.37997,0.73754 -12.1994,1.22939 -4.82394,0.24163 -7.00858,0.12271 -7.33105,-0.39907 z m 78.06595,-30.94631 c 1.38579,-1.41918 2.37448,-2.58033 2.19708,-2.58033 -0.17739,0 -1.45637,1.16115 -2.84217,2.58033 -1.38579,1.41919 -2.37448,2.58034 -2.19708,2.58034 0.17739,0 1.45637,-1.16115 2.84217,-2.58034 z m -13.2242,-13.22419 c 1.20358,-1.24179 2.04319,-2.25779 1.86579,-2.25779 -0.1774,0 -1.30729,1.016 -2.51088,2.25779 -1.20358,1.24178 -2.04319,2.25779 -1.86579,2.25779 0.1774,0 1.30729,-1.01601 2.51088,-2.25779 z m 12.25657,-60.53782 c 0,-0.12241 -0.65314,-0.77555 -1.45143,-1.45143 l -1.45144,-1.22888 1.22888,1.45144 c 1.15484,1.36399 1.67399,1.7451 1.67399,1.22887 z m -190.738,21.32279 c -0.17331,-0.28053 -0.84682,-0.3413 -1.4967,-0.13503 -0.64987,0.20626 -1.36046,0.0856 -1.57908,-0.26813 -0.21862,-0.35373 -0.82362,-0.47963 -1.34445,-0.27977 -0.52083,0.19987 -0.94697,0.011 -0.94697,-0.41973 0,-0.43107 -0.43498,-0.61619 -0.96762,-0.4118 -0.53219,0.20422 -0.96763,0.0591 -0.96763,-0.32254 0,-0.38162 -0.43543,-0.52677 -0.96762,-0.32254 -0.53219,0.20422 -0.96762,0.073 -0.96762,-0.2916 0,-0.3646 -0.29029,-0.4835 -0.64509,-0.26422 -0.35479,0.21927 -0.64508,0.0741 -0.64508,-0.32254 0,-0.39668 -0.29029,-0.54182 -0.64508,-0.32255 -0.3548,0.21928 -0.64509,0.0741 -0.64509,-0.32254 0,-0.39667 -0.29028,-0.54182 -0.64508,-0.32254 -0.35479,0.21928 -0.64508,0.0741 -0.64508,-0.32254 0,-0.39667 -0.29029,-0.54182 -0.64508,-0.32254 -0.3548,0.21928 -0.64509,0.0741 -0.64509,-0.32254 0,-0.39668 -0.25987,-0.56062 -0.57749,-0.36432 -0.31761,0.1963 -0.751,-0.0952 -0.96306,-0.6479 -0.21207,-0.55264 -0.66335,-0.83313 -1.00285,-0.62331 -0.3395,0.20982 -0.9308,-0.20432 -1.31399,-0.92032 -0.38319,-0.71599 -0.90576,-1.23707 -1.16126,-1.15793 -0.60653,0.18785 -7.58249,-6.78811 -7.39464,-7.39464 0.0791,-0.2555 -0.44194,-0.77807 -1.15793,-1.16127 -0.716,-0.38318 -1.13014,-0.97448 -0.92033,-1.31398 0.20983,-0.3395 -0.0707,-0.79078 -0.6233,-1.00285 -0.55265,-0.21206 -0.84294,-0.6475 -0.64508,-0.96762 0.19784,-0.32013 -0.0924,-0.75556 -0.64509,-0.96763 -0.55264,-0.21206 -0.8442,-0.64545 -0.6479,-0.96306 0.1963,-0.31762 0.0495,-0.57749 -0.32624,-0.57749 -0.37574,0 -0.61835,-0.21772 -0.53914,-0.48382 0.22387,-0.75205 -1.68515,-4.67685 -2.27481,-4.67685 -0.28913,0 -0.34627,-0.29028 -0.127,-0.64508 0.21928,-0.3548 0.0741,-0.64508 -0.32254,-0.64508 -0.39667,0 -0.54182,-0.29029 -0.32254,-0.64509 0.21928,-0.35479 0.0602,-0.64508 -0.35349,-0.64508 -0.41369,0 -0.58508,-0.43543 -0.38085,-0.96762 0.20422,-0.5322 0.0992,-0.96763 -0.23329,-0.96763 -0.33252,0 -0.4375,-0.43543 -0.23328,-0.96762 0.20423,-0.53219 0.0591,-0.96763 -0.32254,-0.96763 -0.38162,0 -0.53803,-0.40606 -0.34758,-0.90237 0.19045,-0.49631 0.0315,-1.09694 -0.35331,-1.33474 -0.38477,-0.2378 -0.52471,-0.71531 -0.31098,-1.06113 0.21373,-0.34582 0.0683,-1.01469 -0.32315,-1.48637 -0.39146,-0.47168 -0.53587,-1.31593 -0.32091,-1.8761 0.21496,-0.56018 0.1816,-1.35703 -0.0741,-1.7708 -0.62294,-1.00794 -0.66857,-14.95442 -0.0522,-15.95174 0.26735,-0.43259 0.30265,-1.3645 0.0785,-2.07092 -0.24358,-0.76739 -0.11301,-1.28439 0.32436,-1.28439 0.42774,0 0.56897,-0.513718 0.33977,-1.235876 -0.21574,-0.679736 -0.10283,-1.41475 0.2509,-1.633369 0.35373,-0.218618 0.47962,-0.823622 0.27976,-1.344456 -0.19986,-0.520827 -0.011,-0.946962 0.41973,-0.946962 0.43108,0 0.6162,-0.434986 0.4118,-0.967624 -0.20422,-0.532194 -0.0992,-0.967625 0.23328,-0.967625 0.33253,0 0.43751,-0.435431 0.23329,-0.967624 -0.20423,-0.532194 -0.0328,-0.967625 0.38085,-0.967625 0.41369,0 0.57277,-0.290287 0.35349,-0.645082 -0.21928,-0.354796 -0.0602,-0.645083 0.35349,-0.645083 0.41369,0 0.58508,-0.435431 0.38085,-0.967625 -0.20422,-0.532193 -0.073,-0.967624 0.2916,-0.967624 0.3646,0 0.4835,-0.290287 0.26423,-0.645083 -0.21928,-0.354795 -0.0741,-0.645083 0.32254,-0.645083 0.39667,0 0.54181,-0.290287 0.32254,-0.645083 -0.21928,-0.354795 -0.0741,-0.645083 0.32254,-0.645083 0.39667,0 0.54182,-0.290287 0.32254,-0.645082 -0.21928,-0.354796 -0.0741,-0.645083 0.32254,-0.645083 0.39668,0 0.56062,-0.259872 0.36432,-0.577491 -0.1963,-0.317613 0.0952,-0.750999 0.6479,-0.963064 0.55264,-0.212071 0.82413,-0.677918 0.60331,-1.035223 -0.22083,-0.357298 -0.077,-0.649637 0.31972,-0.649637 0.39668,0 0.56062,-0.259871 0.36432,-0.577491 -0.1963,-0.317613 0.0795,-0.744969 0.61299,-0.949672 0.53345,-0.204702 0.89464,-0.650061 0.80266,-0.989687 -0.092,-0.339626 0.41331,-1.094949 1.1229,-1.678495 0.7096,-0.583546 0.85474,-0.869133 0.32255,-0.634636 -0.5322,0.234497 -0.24191,-0.162825 0.64508,-0.882937 0.88699,-0.720112 1.62876,-1.543593 1.64839,-1.829957 0.0196,-0.286364 2.3276,-2.842959 5.12884,-5.681324 2.80123,-2.838365 4.86764,-4.725232 4.59201,-4.193039 -0.27562,0.532194 0.13995,0.241906 0.92348,-0.645083 0.78354,-0.886989 1.66785,-1.543024 1.96514,-1.457856 0.29729,0.08517 0.85404,-0.430966 1.23724,-1.146963 0.38318,-0.715997 0.97448,-1.13014 1.31398,-0.920317 0.3395,0.209822 0.79078,-0.07067 1.00285,-0.62331 0.21206,-0.552644 0.61503,-0.862998 0.89547,-0.689675 0.28045,0.173322 0.68341,-0.137031 0.89547,-0.689675 0.21207,-0.552643 0.67792,-0.824132 1.03523,-0.603307 0.35729,0.220824 0.64963,0.07695 0.64963,-0.319726 0,-0.396673 0.29029,-0.541817 0.64509,-0.322541 0.35479,0.219276 0.64508,0.09126 0.64508,-0.284471 0,-0.375734 0.43543,-0.683153 0.96762,-0.683153 0.5322,0 0.96763,-0.30742 0.96763,-0.683154 0,-0.375734 0.29029,-0.503747 0.64508,-0.284471 0.3548,0.219276 0.64508,0.07413 0.64508,-0.322541 0,-0.396674 0.29029,-0.541818 0.64509,-0.322542 0.35479,0.219276 0.64508,0.07413 0.64508,-0.322541 0,-0.396674 0.29029,-0.541817 0.64508,-0.322542 0.3548,0.219276 0.64509,0.07413 0.64509,-0.322541 0,-0.396674 0.29028,-0.541817 0.64508,-0.322541 0.35479,0.219276 0.64508,0.07413 0.64508,-0.322542 0,-0.396674 0.29029,-0.541817 0.64508,-0.322541 0.3548,0.219276 0.64509,0.100374 0.64509,-0.264225 0,-0.3646 0.43543,-0.495818 0.96762,-0.291595 0.53219,0.204221 0.96763,0.03283 0.96763,-0.380859 0,-0.413693 0.29028,-0.572763 0.64508,-0.353487 0.35479,0.219276 0.64508,0.07413 0.64508,-0.322542 0,-0.396673 0.27023,-0.554213 0.60051,-0.350089 0.33028,0.204124 0.78577,0.07138 1.0122,-0.294993 0.22643,-0.366371 0.68192,-0.499118 1.0122,-0.294994 0.33027,0.204125 0.60051,0.03266 0.60051,-0.381035 0,-0.413694 0.43543,-0.58508 0.96762,-0.380858 0.53219,0.204222 0.96762,0.09925 0.96762,-0.233279 0,-0.332526 0.43544,-0.437501 0.96763,-0.233279 0.53264,0.204393 0.96762,0.01928 0.96762,-0.411804 0,-0.431076 0.43499,-0.616197 0.96763,-0.411804 0.53219,0.204222 0.96762,0.05908 0.96762,-0.322542 0,-0.381619 0.42614,-0.53033 0.94696,-0.330469 0.52084,0.199862 1.11071,0.09845 1.31083,-0.225351 0.20013,-0.323805 0.76063,-0.43648 1.24557,-0.25039 0.48495,0.18609 1.07629,0.02353 1.31409,-0.361237 0.2378,-0.384771 0.71531,-0.524714 1.06113,-0.310985 0.34582,0.21373 1.01469,0.06831 1.48637,-0.323148 0.47168,-0.391462 1.30046,-0.541806 1.84174,-0.334099 0.54128,0.207707 1.17643,0.06651 1.41146,-0.31378 0.23503,-0.380285 1.11876,-0.51789 1.96384,-0.305788 0.84508,0.212101 1.91587,0.140595 2.37952,-0.158904 2.06805,-1.335842 20.11446,-1.287996 23.22876,0.06159 0.60391,0.261701 1.41491,0.279963 1.80224,0.04058 0.38733,-0.239382 1.11423,-0.09497 1.61534,0.320913 0.50111,0.415885 1.19405,0.581284 1.53988,0.367555 0.34582,-0.21373 0.82333,-0.07379 1.06112,0.310984 0.23781,0.38477 0.83844,0.543759 1.33475,0.353309 0.4963,-0.19045 0.90237,-0.03404 0.90237,0.347581 0,0.381619 0.43543,0.526763 0.96762,0.322541 0.5322,-0.204222 0.96763,-0.05908 0.96763,0.322542 0,0.381619 0.43543,0.526763 0.96762,0.322541 0.5322,-0.204222 0.96763,-0.073 0.96763,0.291596 0,0.364599 0.26549,0.498824 0.58998,0.298276 0.32449,-0.200547 0.69166,-0.05964 0.81591,0.313133 0.12426,0.372771 0.8672,0.726071 1.65098,0.785111 0.78378,0.05904 1.57572,0.499973 1.75987,0.979849 0.18415,0.479876 0.62714,0.691828 0.98445,0.471003 0.3573,-0.220824 0.64964,-0.07695 0.64964,0.319725 0,0.396674 0.25987,0.560617 0.57749,0.364318 0.31761,-0.196299 0.75988,0.118404 0.9828,0.699342 0.22293,0.580936 0.57967,0.881901 0.79276,0.668809 0.21309,-0.213091 0.95409,0.253363 1.64667,1.036566 0.69258,0.783202 1.0342,0.988573 0.75916,0.45638 -0.27505,-0.532193 1.07418,0.628956 2.99826,2.580332 1.92409,1.951375 3.43619,3.757004 3.36023,4.012507 -0.076,0.255503 0.44769,0.778071 1.16369,1.161261 0.716,0.38319 1.13141,0.972432 0.92313,1.309426 -0.20827,0.336995 -0.0541,0.612717 0.34255,0.612717 0.39667,0 0.54054,0.292338 0.31972,0.649639 -0.22082,0.357302 0.0506,0.823151 0.60331,1.03522 0.55265,0.212069 0.8442,0.645449 0.6479,0.963068 -0.1963,0.317618 -0.0324,0.577488 0.36432,0.577488 0.39667,0 0.55421,0.270229 0.35009,0.600509 -0.20413,0.33028 -0.0714,0.785769 0.29499,1.012198 0.36637,0.226429 0.49912,0.681918 0.29499,1.012198 -0.20413,0.33028 -0.0466,0.600509 0.35009,0.600509 0.39668,0 0.55422,0.270229 0.35009,0.600509 -0.20413,0.33028 -0.0714,0.785769 0.29499,1.012198 0.36637,0.22643 0.49912,0.681919 0.29499,1.012199 -0.20412,0.33028 -0.0442,0.600509 0.3555,0.600509 0.43306,0 0.56119,0.521235 0.31714,1.290165 -0.24527,0.772776 -0.11592,1.290166 0.32254,1.290166 0.42774,0 0.56898,0.513716 0.33977,1.235878 -0.21574,0.679733 -0.14152,1.390835 0.16492,1.580228 0.69211,0.427743 0.62163,14.621136 -0.0781,15.735801 -0.28041,0.446668 -0.32639,1.390102 -0.10219,2.096519 0.24357,0.767391 0.113,1.284393 -0.32437,1.284393 -0.43846,0 -0.56781,0.517388 -0.32254,1.290165 0.25081,0.79022 0.11592,1.290166 -0.34809,1.290166 -0.41666,0 -0.59048,0.435432 -0.38625,0.967622 0.20422,0.53219 0.0591,0.96763 -0.32255,0.96763 -0.38162,0 -0.52676,0.43543 -0.32254,0.96762 0.20422,0.53219 0.0993,0.96762 -0.23328,0.96762 -0.33253,0 -0.4375,0.43544 -0.23328,0.96763 0.20423,0.53219 0.0328,0.96762 -0.38086,0.96762 -0.41369,0 -0.57276,0.29029 -0.35348,0.64509 0.21927,0.35479 0.0741,0.64508 -0.32254,0.64508 -0.39668,0 -0.55714,0.2655 -0.3566,0.58999 0.20055,0.32448 0.0597,0.69165 -0.31313,0.8159 -0.37277,0.12426 -0.72664,0.87477 -0.78638,1.66781 -0.0597,0.79303 -0.33713,1.44188 -0.61642,1.44188 -0.27929,0 -0.50781,0.43543 -0.50781,0.96762 0,0.5322 -0.30742,0.96763 -0.68315,0.96763 -0.37574,0 -0.50375,0.29029 -0.28447,0.64508 0.21928,0.3548 0.0741,0.64508 -0.32254,0.64508 -0.39668,0 -0.56062,0.25988 -0.36432,0.57749 0.1963,0.31762 -0.1184,0.75989 -0.69934,0.98281 -0.58094,0.22293 -0.87407,0.5875 -0.6514,0.81016 0.22266,0.22267 -0.0987,0.81794 -0.71403,1.32282 -0.7396,0.60681 -0.79086,0.77345 -0.15124,0.49162 0.53219,-0.23449 0.2419,0.17295 -0.64509,0.90545 -0.88699,0.73248 -1.36283,1.33825 -1.05743,1.34614 0.30541,0.008 -0.13002,0.61703 -0.96762,1.35366 -0.8376,0.73662 -1.08747,1.14761 -0.55528,0.91331 0.5322,-0.23431 -0.0484,0.49374 -1.29016,1.61787 -1.24179,1.12413 -1.82236,1.84331 -1.29017,1.59818 0.53219,-0.24514 -0.59401,0.971 -2.50268,2.70253 -1.90867,1.73153 -5.06897,4.8831 -7.02288,7.00348 -1.95391,2.1204 -3.18635,3.27468 -2.73876,2.56509 0.4476,-0.70959 0.003,-0.4193 -0.98717,0.64508 -0.99053,1.06439 -2.05934,1.93525 -2.37513,1.93525 -0.31578,0 -1.16333,0.72572 -1.88344,1.61271 -0.72012,0.88699 -1.11744,1.17728 -0.88294,0.64508 0.23449,-0.53219 -0.0431,-0.38705 -0.61688,0.32255 -0.57377,0.70959 -1.33161,1.29016 -1.68407,1.29016 -0.35247,0 -0.91609,0.43543 -1.25252,0.96763 -0.33642,0.53219 -0.62535,0.67733 -0.64207,0.32254 -0.0167,-0.3548 -0.45659,-0.0816 -0.9775,0.6071 -0.52091,0.68871 -0.94711,0.99608 -0.94711,0.68306 0,-0.31302 -0.45696,-0.006 -1.01546,0.68306 -0.5585,0.6887 -0.82726,0.81676 -0.59725,0.28457 0.27907,-0.64566 0.11278,-0.59534 -0.49975,0.15124 -0.50489,0.61538 -1.10016,0.93669 -1.32282,0.71403 -0.22267,-0.22267 -0.58724,0.0705 -0.81017,0.6514 -0.22292,0.58094 -0.66519,0.89564 -0.9828,0.69934 -0.31762,-0.1963 -0.5775,-0.0324 -0.5775,0.36432 0,0.39667 -0.29028,0.54182 -0.64508,0.32254 -0.35479,-0.21928 -0.64508,-0.0741 -0.64508,0.32254 0,0.39668 -0.29029,0.54182 -0.64508,0.32254 -0.3548,-0.21927 -0.64509,-0.0913 -0.64509,0.28447 0,0.37574 -0.21771,0.64365 -0.48381,0.59537 -0.90351,-0.16395 -5.96702,2.21552 -5.96702,2.80404 0,0.32192 -0.29028,0.4059 -0.64508,0.18662 -0.35479,-0.21928 -0.64508,-0.0741 -0.64508,0.32254 0,0.39668 -0.29029,0.54182 -0.64508,0.32254 -0.3548,-0.21927 -0.64509,-0.0741 -0.64509,0.32254 0,0.39668 -0.27023,0.55422 -0.6005,0.3501 -0.33029,-0.20413 -0.78577,-0.0714 -1.0122,0.29499 -0.22643,0.36637 -0.68192,0.49912 -1.0122,0.29499 -0.33028,-0.20413 -0.60051,-0.0466 -0.60051,0.35009 0,0.39667 -0.27023,0.55422 -0.60051,0.35009 -0.33028,-0.20413 -0.78577,-0.0714 -1.0122,0.29499 -0.22643,0.36637 -0.66186,0.51152 -0.96762,0.32254 -0.30577,-0.18897 -0.7412,-0.0438 -0.96763,0.32255 -0.22643,0.36636 -0.68191,0.49912 -1.0122,0.29499 -0.33027,-0.20413 -0.6005,-0.0326 -0.6005,0.38103 0,0.4137 -0.42614,0.58865 -0.94697,0.38879 -0.52083,-0.19986 -1.1107,-0.0985 -1.31082,0.22535 -0.20013,0.32381 -0.76063,0.43648 -1.24558,0.25039 -0.48494,-0.18609 -1.07628,-0.0235 -1.31408,0.36124 -0.2378,0.38477 -0.71531,0.52471 -1.06113,0.31098 -0.34582,-0.21373 -1.01469,-0.0683 -1.48637,0.32315 -0.47168,0.39146 -1.31593,0.53588 -1.8761,0.32092 -0.56018,-0.21497 -1.37699,-0.16928 -1.81513,0.10151 -1.06392,0.65754 -14.7842,0.72941 -15.18569,0.0795 z m 202.63145,-36.0984 -1.89466,-2.09652 2.09652,1.89466 c 1.15308,1.04207 2.09652,1.98551 2.09652,2.09652 0,0.49837 -0.53228,0.0596 -2.29838,-1.89466 z"
         id="path890" />
      <path
         style="fill:#4d4d4d;stroke-width:0.645083"
         d="m 434.20941,503.08211 c -29.09004,-4.89004 -48.84972,-31.2888 -55.91753,-74.70537 -1.00908,-6.19867 -1.15641,-11.58212 -1.16516,-42.57547 -0.01,-34.644 -0.045,-35.63807 -1.49638,-42.21011 -3.06882,-13.89638 -7.43949,-22.66648 -23.00741,-46.16625 -11.65913,-17.59946 -14.6025,-22.43092 -18.98313,-31.16035 -15.71225,-31.31031 -18.83676,-62.28021 -8.44861,-83.74209 6.37921,-13.17944 17.38426,-22.53261 32.42421,-27.55728 33.53835,-11.20478 82.69593,-4.99945 124.65269,15.73532 19.80337,9.78671 33.41857,19.45146 48.07515,34.12615 23.51637,23.54545 33.06085,44.76388 34.79709,77.35783 2.23579,41.97163 -10.88515,98.18206 -33.38452,143.0202 -22.48041,44.80033 -50.84725,72.28846 -79.81178,77.33944 -5.23167,0.91233 -13.93674,1.17639 -17.73462,0.53798 z m 16.42362,-19.23405 c 5.63155,-1.19294 16.04264,-6.29446 21.95881,-10.75999 36.88893,-27.84383 69.9176,-104.33412 73.89734,-171.13698 1.41721,-23.78907 -1.46911,-41.9283 -9.09131,-57.13481 -23.56267,-47.00815 -97.11256,-82.71735 -156.08921,-75.78283 -21.16338,2.4884 -33.33134,9.06404 -39.00613,21.07914 -3.50506,7.42117 -4.42454,11.92572 -4.39199,21.5163 0.0317,9.34062 1.4133,17.38496 4.8036,27.96879 4.40451,13.74997 9.23112,22.83618 24.37852,45.8932 15.80261,24.05437 19.68505,31.10503 23.5705,42.80495 4.94218,14.88198 5.53579,21.6812 5.3304,61.0534 -0.14513,27.82056 -0.0244,32.72059 0.93811,38.05989 3.87176,21.47864 10.45534,36.39212 20.50559,46.45029 9.83577,9.84353 19.76979,12.83269 33.19577,9.98865 z m 172.90821,15.36309 c -1.41918,-0.1267 -5.70249,-0.81268 -9.51846,-1.52441 -27.62205,-5.15187 -47.06128,-20.1722 -51.72703,-39.96851 -1.42017,-6.02568 -1.29365,-16.07253 0.27991,-22.22506 5.00362,-19.56398 21.28584,-34.76292 43.73812,-40.82817 5.77318,-1.55956 7.26637,-1.6915 19.16271,-1.69325 12.00208,-0.002 13.33753,0.11841 19.15285,1.72368 13.54317,3.73847 24.66227,9.96664 33.53974,18.78671 7.86178,7.81096 12.59869,15.78047 15.50284,26.08249 1.81298,6.43129 1.96483,18.37584 0.31289,24.61421 -4.14672,15.65978 -16.45477,27.30074 -34.10839,32.25974 -9.56572,2.68707 -24.51541,3.82781 -36.33518,2.77257 z m 28.06111,-19.84967 c 15.1751,-3.56492 23.94814,-12.06349 24.96421,-24.18319 1.67418,-19.96953 -16.15753,-38.83998 -40.87631,-43.25747 -2.89489,-0.51735 -7.69267,-0.69961 -13.18779,-0.50101 -7.52906,0.27213 -9.42388,0.57795 -14.76575,2.38318 -11.76669,3.97644 -20.22452,10.92382 -24.96035,20.50281 -2.4165,4.88774 -2.45567,5.08605 -2.45567,12.43093 0,7.12489 0.0957,7.65863 2.10793,11.74904 2.43666,4.95331 7.41115,9.89592 13.61497,13.52772 5.19564,3.0416 16.18083,6.66816 23.94969,7.90655 8.21008,1.30873 24.91716,1.0135 31.60907,-0.55856 z m 33.86685,-98.45917 c -30.82436,-2.80596 -57.32767,-18.08709 -67.02369,-38.64414 -3.26348,-6.91908 -4.25948,-11.45003 -4.24844,-19.32674 0.0112,-7.94648 1.09995,-13.15995 4.10815,-19.67079 9.42634,-20.40209 31.02396,-34.95781 58.95523,-39.73289 8.51012,-1.45488 24.35817,-1.74644 32.7219,-0.602 28.20687,3.85967 51.80771,18.79897 61.52368,38.9444 7.76156,16.09311 5.6685,35.96869 -5.3166,50.48605 -15.59561,20.61038 -46.77368,31.63628 -80.72023,28.54611 z m 29.95436,-19.92818 c 18.9781,-3.86748 33.35712,-13.2429 39.20884,-25.56495 2.15842,-4.54502 2.43369,-5.71589 2.65826,-11.30695 0.20725,-5.15993 0.006,-6.97314 -1.16835,-10.50056 -9.82625,-29.52787 -61.89148,-42.69459 -97.74659,-24.71903 -17.85298,8.95038 -27.71205,23.60382 -25.44194,37.81408 1.57796,9.87767 8.27231,18.34713 19.93885,25.22598 8.15242,4.80683 21.0851,8.88475 32.59657,10.2783 7.66078,0.92739 22.3319,0.32649 29.95436,-1.22687 z M 623.59591,245.47122 c -22.22425,-3.49917 -37.62258,-15.99233 -43.69978,-35.45504 -2.11103,-6.76076 -2.13561,-20.98133 -0.0496,-28.72194 4.74094,-17.59255 15.63127,-33.63763 31.39886,-46.26101 34.65199,-27.74202 79.57257,-31.66287 103.6165,-9.04406 19.58424,18.42345 20.38096,47.52649 2.05093,74.91699 -7.03508,10.51249 -20.97502,23.50888 -32.85173,30.6281 -9.46843,5.67564 -21.24775,10.3468 -32.13617,12.7438 -6.69524,1.47391 -22.35644,2.13352 -28.32898,1.19316 z M 645.548,226.43486 c 29.35729,-5.11948 56.14976,-27.31487 64.20471,-53.1884 1.95664,-6.28498 2.11171,-16.61824 0.32684,-21.77976 -6.78447,-19.61949 -32.11108,-26.84322 -60.03525,-17.12346 -13.03004,4.53546 -23.81341,11.32039 -33.59897,21.1406 -12.85643,12.90194 -19.67503,26.98936 -19.67503,40.64916 0,16.02891 10.07488,27.12475 27.78287,30.59833 4.67179,0.91641 14.86507,0.77247 20.99483,-0.29647 z M 510.32919,161.91171 c -1.95137,-0.51068 -6.0118,-2.1364 -9.02316,-3.61269 -12.04694,-5.90595 -22.34154,-20.22625 -25.59535,-35.60444 -1.22969,-5.81176 -0.85441,-19.65991 0.68159,-25.151284 5.30278,-18.958128 18.94471,-34.527809 38.77504,-44.25438 21.89602,-10.739767 45.89321,-13.192942 64.09036,-6.551802 24.54677,8.958464 33.97889,34.24602 22.67858,60.801376 -4.40784,10.35826 -14.96281,23.60243 -25.73395,32.29046 -13.19917,10.64647 -30.40115,19.37811 -43.51121,22.08606 -6.0601,1.25176 -17.57268,1.25005 -22.3619,-0.003 z m 25.48078,-20.24491 c 15.92622,-5.69374 32.81487,-17.78255 42.29149,-30.27203 6.67704,-8.79984 10.84485,-20.305496 10.01239,-27.640244 -1.30906,-11.534193 -8.52908,-18.723174 -21.23538,-21.144075 -14.73235,-2.806919 -32.21094,0.821565 -48.6456,10.098629 -7.27243,4.105149 -16.48198,13.429402 -19.97577,20.224557 -1.45937,2.838364 -3.1139,6.944291 -3.67674,9.124273 -1.15822,4.4861 -1.3266,13.92865 -0.32618,18.29175 1.72773,7.53501 7.97535,16.83197 13.77737,20.50181 4.44028,2.80854 7.15447,3.37858 14.87676,3.12445 5.99009,-0.19713 8.00067,-0.55698 12.90166,-2.30912 z"
         id="path888" />
    </g>
    <text
       xml:space="preserve"
       id="text41"
       style="font-style:normal;font-weight:normal;font-size:40px;line-height:1.25;font-family:sans-serif;white-space:pre;shape-inside:url(#rect43);display:inline;fill:#000000;fill-opacity:1;stroke:none" />
    <text
       xml:space="preserve"
       id="text47"
       style="font-style:normal;font-weight:normal;font-size:40px;line-height:1.25;font-family:sans-serif;white-space:pre;shape-inside:url(#rect49);display:inline;fill:#000000;fill-opacity:1;stroke:none" />
    <path
       style="fill:#000000;fill-opacity:0;stroke-width:0.879581"
       d="m 124.46073,514.99372 c -7.55617,-2.0734 -18.38144,-7.80373 -24.411,-12.92192 C 85.094425,489.377 74.76159,469.31455 68.425827,440.67014 66.24806,430.82431 66.171628,429.34871 65.55554,385.25653 L 64.922599,339.9581 62.624201,332.04187 C 59.318767,320.65716 52.352779,307.37722 38.632247,286.30366 23.388833,262.89108 17.465746,252.60999 12.462597,240.87931 4.0595536,221.17703 0.91934144,207.00834 0.98893549,189.10994 1.0460235,174.4279 2.6668555,166.74709 8.0422063,155.68586 12.673818,146.15507 23.614876,135.44017 33.863873,130.39794 c 15.542537,-7.64651 31.703737,-10.34726 57.857254,-9.66872 13.588623,0.35256 19.935133,0.94361 29.293083,2.72809 48.73495,9.29335 91.96926,32.31653 121.21662,64.55041 25.90185,28.54676 34.58182,54.29221 33.24697,98.61301 -2.16041,71.73195 -34.94187,157.0198 -76.60344,199.29989 -13.78315,13.9878 -30.1666,24.46268 -44.06808,28.17526 -7.72585,2.06329 -24.31002,2.55397 -30.34555,0.89784 z m 23.74869,-19.84923 c 10.51981,-2.38204 27.07517,-12.82641 37.03287,-23.36313 30.17277,-31.92725 56.60284,-90.75788 66.24065,-147.44487 3.56802,-20.9862 4.29544,-30.74162 3.76785,-50.53102 -0.61129,-22.92889 -2.6664,-32.64302 -10.00954,-47.31333 -17.86431,-35.68973 -62.72221,-67.47242 -113.49938,-80.41649 -31.10358,-7.92889 -65.749904,-7.52756 -86.29354,0.9996 -24.018981,9.9697 -31.065366,37.92189 -18.911311,75.01898 4.893736,14.93687 8.25247,21.15217 28.696033,53.10176 19.172583,29.96327 23.833069,39.4774 28.061332,57.28567 1.607552,6.77057 1.835232,11.75322 2.411525,52.77487 0.695955,49.53949 0.690435,49.48412 6.796163,68.16754 6.802602,20.81585 19.394898,36.17615 33.787398,41.21446 4.48202,1.56901 16.04641,1.83593 21.91995,0.50596 z"
       id="path2385" />
    <path
       style="fill:#000000;fill-opacity:0;stroke-width:0.879581"
       d="m 124.46073,514.99372 c -7.55617,-2.0734 -18.38144,-7.80373 -24.411,-12.92192 C 85.094425,489.377 74.76159,469.31455 68.425827,440.67014 66.24806,430.82431 66.171628,429.34871 65.55554,385.25653 L 64.922599,339.9581 62.624201,332.04187 C 59.318767,320.65716 52.352779,307.37722 38.632247,286.30366 23.388833,262.89108 17.465746,252.60999 12.462597,240.87931 4.0595536,221.17703 0.91934144,207.00834 0.98893549,189.10994 1.0460235,174.4279 2.6668555,166.74709 8.0422063,155.68586 12.673818,146.15507 23.614876,135.44017 33.863873,130.39794 c 15.542537,-7.64651 31.703737,-10.34726 57.857254,-9.66872 13.588623,0.35256 19.935133,0.94361 29.293083,2.72809 48.73495,9.29335 91.96926,32.31653 121.21662,64.55041 25.90185,28.54676 34.58182,54.29221 33.24697,98.61301 -2.16041,71.73195 -34.94187,157.0198 -76.60344,199.29989 -13.78315,13.9878 -30.1666,24.46268 -44.06808,28.17526 -7.72585,2.06329 -24.31002,2.55397 -30.34555,0.89784 z m 23.74869,-19.84923 c 10.51981,-2.38204 27.07517,-12.82641 37.03287,-23.36313 30.17277,-31.92725 56.60284,-90.75788 66.24065,-147.44487 3.56802,-20.9862 4.29544,-30.74162 3.76785,-50.53102 -0.61129,-22.92889 -2.6664,-32.64302 -10.00954,-47.31333 -17.86431,-35.68973 -62.72221,-67.47242 -113.49938,-80.41649 -31.10358,-7.92889 -65.749904,-7.52756 -86.29354,0.9996 -24.018981,9.9697 -31.065366,37.92189 -18.911311,75.01898 4.893736,14.93687 8.25247,21.15217 28.696033,53.10176 19.172583,29.96327 23.833069,39.4774 28.061332,57.28567 1.607552,6.77057 1.835232,11.75322 2.411525,52.77487 0.695955,49.53949 0.690435,49.48412 6.796163,68.16754 6.802602,20.81585 19.394898,36.17615 33.787398,41.21446 4.48202,1.56901 16.04641,1.83593 21.91995,0.50596 z"
       id="path2387" />
  </g>
</svg>
