<?xml version="1.0" encoding="UTF-8" standalone="no"?>
<svg
   version="1.1"
   id="svg874"
   width="513.01624"
   height="517.63733"
   viewBox="0 0 513.01624 517.63733"
   sodipodi:docname="logo-dark.svg"
   inkscape:version="1.2.2 (732a01da63, 2022-12-09)"
   xmlns:inkscape="http://www.inkscape.org/namespaces/inkscape"
   xmlns:sodipodi="http://sodipodi.sourceforge.net/DTD/sodipodi-0.dtd"
   xmlns="http://www.w3.org/2000/svg"
   xmlns:svg="http://www.w3.org/2000/svg"
   xmlns:rdf="http://www.w3.org/1999/02/22-rdf-syntax-ns#"
   xmlns:cc="http://creativecommons.org/ns#"
   xmlns:dc="http://purl.org/dc/elements/1.1/">
  <metadata
     id="metadata880">
    <rdf:RDF>
      <cc:Work
         rdf:about="">
        <dc:format>image/svg+xml</dc:format>
        <dc:type
           rdf:resource="http://purl.org/dc/dcmitype/StillImage" />
      </cc:Work>
    </rdf:RDF>
  </metadata>
  <defs
     id="defs878">
    <rect
       x="-355.35077"
       y="-47.497379"
       width="1645.6963"
       height="1243.7277"
       id="rect49" />
    <rect
       x="-228.69109"
       y="58.052353"
       width="1312.335"
       height="1073.089"
       id="rect43" />
  </defs>
  <sodipodi:namedview
     pagecolor="#ffffff"
     bordercolor="#666666"
     borderopacity="1"
     objecttolerance="10"
     gridtolerance="10"
     guidetolerance="10"
     inkscape:pageopacity="0"
     inkscape:pageshadow="2"
     inkscape:window-width="1920"
     inkscape:window-height="992"
     id="namedview876"
     showgrid="false"
     inkscape:zoom="1.1369048"
     inkscape:cx="138.97382"
     inkscape:cy="283.66491"
     inkscape:window-x="-8"
     inkscape:window-y="-8"
     inkscape:window-maximized="1"
     inkscape:document-rotation="0"
     inkscape:pagecheckerboard="true"
     fit-margin-top="0"
     fit-margin-left="0"
     fit-margin-right="0"
     fit-margin-bottom="0"
     inkscape:showpageshadow="2"
     inkscape:deskcolor="#d1d1d1"
     inkscape:current-layer="g128" />
  <g
     inkscape:groupmode="layer"
     inkscape:label="Image"
     id="g128">
    <path
       style="fill:#00b2fd;stroke-width:0.723796"
       d="m 130.96688,516.85458 c -0.26596,-0.43034 -1.24234,-0.592 -2.16974,-0.35925 -0.92739,0.23276 -1.89639,0.083 -2.15333,-0.33269 -0.25695,-0.41574 -1.09118,-0.55785 -1.85386,-0.31578 -0.81027,0.25718 -1.38667,0.0987 -1.38667,-0.38123 0,-0.49196 -0.58052,-0.6371 -1.4476,-0.3619 -0.81172,0.25763 -1.44758,0.13007 -1.44758,-0.29041 0,-0.41242 -0.48856,-0.56237 -1.0857,-0.33323 -0.59713,0.22914 -1.08569,0.0368 -1.08569,-0.42733 0,-0.46417 -0.30321,-0.65656 -0.67379,-0.42754 -0.37058,0.22904 -0.88165,0.0801 -1.13571,-0.33098 -0.25405,-0.41107 -0.76512,-0.56002 -1.1357,-0.33099 -0.37057,0.22904 -0.67379,0.0523 -0.67379,-0.3928 0,-0.44509 -0.3257,-0.60794 -0.72379,-0.3619 -0.39809,0.24603 -0.72379,0.0831 -0.72379,-0.3619 0,-0.44508 -0.32571,-0.60793 -0.72381,-0.3619 -0.39808,0.24603 -0.72379,0.0831 -0.72379,-0.3619 0,-0.44507 -0.32571,-0.60792 -0.72379,-0.3619 -0.3981,0.24604 -0.7238,0.0832 -0.7238,-0.36189 0,-0.44507 -0.32571,-0.60794 -0.7238,-0.3619 -0.39808,0.24604 -0.72379,0.0831 -0.72379,-0.36189 0,-0.44509 -0.30569,-0.6203 -0.67932,-0.38939 -0.37362,0.2309 -1.01512,-0.15702 -1.42557,-0.86204 -0.41046,-0.70503 -0.76117,-0.95616 -0.77937,-0.55807 -0.0182,0.39809 -0.34193,0.23523 -0.7194,-0.36189 -0.37748,-0.59713 -0.98719,-1.0857 -1.35492,-1.0857 -0.36773,0 -1.38155,-0.81427 -2.25294,-1.80949 -0.87137,-0.99522 -1.34837,-1.35534 -1.05998,-0.80025 0.28838,0.55507 -1.870542,-1.39917 -4.7976,-4.34278 -2.927059,-2.94361 -5.336731,-5.61489 -5.354818,-5.9362 -0.01807,-0.32131 -0.847148,-1.24527 -1.842368,-2.05325 -0.995221,-0.80797 -1.320932,-1.25378 -0.723793,-0.99067 0.597128,0.2631 0.434278,-0.0484 -0.361908,-0.69214 -0.796174,-0.6438 -1.447585,-1.49411 -1.447585,-1.88958 0,-0.39546 -0.488561,-1.02787 -1.0857,-1.40534 -0.597128,-0.37748 -0.759978,-0.7012 -0.361896,-0.71941 0.398092,-0.0182 0.146962,-0.36891 -0.55806,-0.77936 -0.705032,-0.41046 -1.092948,-1.05196 -0.862036,-1.42558 0.230911,-0.37362 0.05565,-0.67932 -0.389386,-0.67932 -0.445083,0 -0.607933,-0.32571 -0.361908,-0.72379 0.246037,-0.39809 0.102441,-0.72379 -0.319169,-0.72379 -0.421588,0 -0.76652,-0.48857 -0.76652,-1.0857 0,-0.59713 -0.344931,-1.08569 -0.766519,-1.08569 -0.421576,0 -0.565206,-0.32571 -0.31917,-0.72381 0.246026,-0.39808 0.08314,-0.72379 -0.361907,-0.72379 -0.445072,0 -0.607922,-0.32571 -0.361897,-0.72379 0.246037,-0.39809 0.08314,-0.7238 -0.361896,-0.7238 -0.445072,0 -0.607933,-0.3257 -0.361896,-0.7238 0.246036,-0.39808 0.08314,-0.72379 -0.361897,-0.72379 -0.445082,0 -0.607932,-0.32571 -0.361896,-0.72379 0.246025,-0.3981 0.112617,-0.72381 -0.296471,-0.72381 -0.409089,0 -0.55632,-0.48856 -0.327181,-1.08569 0.22915,-0.59712 0.0368,-1.0857 -0.427322,-1.0857 -0.464168,0 -0.642648,-0.3257 -0.396622,-0.72379 0.246036,-0.39808 0.08314,-0.72379 -0.361897,-0.72379 -0.445071,0 -0.607933,-0.32571 -0.361896,-0.72379 0.246037,-0.3981 0.112617,-0.72381 -0.296471,-0.72381 -0.409089,0 -0.556309,-0.48856 -0.32717,-1.08569 0.229139,-0.59712 0.0368,-1.0857 -0.427333,-1.0857 -0.464168,0 -0.656561,-0.3032 -0.427534,-0.67377 0.229038,-0.37059 0.08011,-0.88165 -0.330985,-1.13571 -0.411074,-0.25406 -0.560023,-0.76513 -0.330985,-1.13571 0.229038,-0.37058 0.08168,-0.67378 -0.327383,-0.67378 -0.409088,0 -0.556308,-0.48856 -0.327169,-1.08569 0.229139,-0.59714 0.06631,-1.0857 -0.361897,-1.0857 -0.428185,0 -0.591046,-0.48856 -0.361907,-1.08569 0.229341,-0.59763 0.02165,-1.0857 -0.462048,-1.0857 -0.483265,0 -0.695192,-0.47813 -0.470946,-1.06251 0.224247,-0.58438 0.09088,-1.25831 -0.296269,-1.4976 -0.387198,-0.23931 -0.530502,-0.7158 -0.318474,-1.05886 0.212028,-0.34307 0.06867,-0.81957 -0.318474,-1.05887 -0.387209,-0.23929 -0.533173,-0.88028 -0.324365,-1.42439 0.208797,-0.54411 0.046,-1.19553 -0.361896,-1.44758 -0.407843,-0.25207 -0.570705,-0.90349 -0.361897,-1.4476 0.208786,-0.54412 0.046,-1.19554 -0.361907,-1.44759 -0.407843,-0.25206 -0.570693,-0.90348 -0.361897,-1.44759 0.208797,-0.54413 0.0184,-1.21252 -0.422945,-1.48533 -0.441425,-0.27282 -0.61324,-1.09261 -0.381801,-1.82179 0.231428,-0.72917 0.08067,-1.53599 -0.335114,-1.79293 -0.415742,-0.25695 -0.556544,-1.26148 -0.312875,-2.23231 0.283355,-1.12896 0.13315,-1.76513 -0.416752,-1.76513 -0.572488,0 -0.70547,-0.70252 -0.397992,-2.10248 0.275367,-1.25375 0.135395,-2.30421 -0.34676,-2.60219 -0.47991,-0.29661 -0.622429,-1.34709 -0.350642,-2.58453 0.251848,-1.14666 0.189486,-2.4999 -0.13857,-3.00723 -0.745515,-1.15287 -0.893217,-4.92931 -0.956118,-24.44577 -0.06575,-20.38685 -0.124982,-53.25143 -0.101767,-56.43084 0.0101,-1.37942 -0.31604,-2.91091 -0.724679,-3.4033 -0.408651,-0.49239 -0.539984,-1.53489 -0.29186,-2.31667 0.248135,-0.78177 0.09896,-1.63908 -0.331535,-1.90513 -0.430474,-0.26605 -0.593335,-1.08032 -0.361896,-1.80949 0.231428,-0.72917 0.09605,-1.52646 -0.300847,-1.77175 -0.396892,-0.2453 -0.5508,-0.89118 -0.341992,-1.43529 0.208786,-0.54413 0.046,-1.19554 -0.361907,-1.4476 -0.407843,-0.25206 -0.558048,-0.93643 -0.333801,-1.52081 0.224258,-0.58438 0.05745,-1.06251 -0.370794,-1.06251 -0.428185,0 -0.591035,-0.48856 -0.361897,-1.0857 0.229139,-0.59712 0.06631,-1.08568 -0.361896,-1.08568 -0.428185,0 -0.591046,-0.48857 -0.361896,-1.0857 0.229139,-0.59713 0.0368,-1.08569 -0.427333,-1.08569 -0.464168,0 -0.656561,-0.30321 -0.427534,-0.67379 0.229038,-0.37058 0.08011,-0.88165 -0.330985,-1.13571 -0.411074,-0.25406 -0.560023,-0.76511 -0.330985,-1.13571 0.229027,-0.37056 0.05229,-0.67377 -0.392808,-0.67377 -0.445082,0 -0.607932,-0.32571 -0.361896,-0.7238 0.246025,-0.39808 0.112617,-0.72379 -0.296471,-0.72379 -0.409089,0 -0.572432,-0.44657 -0.362985,-0.99238 0.209436,-0.54579 -0.110968,-1.48415 -0.712045,-2.08521 -0.601066,-0.60107 -0.891232,-1.29449 -0.644791,-1.54092 0.246429,-0.24644 0.04881,-0.44807 -0.43908,-0.44807 -0.487933,0 -0.685846,-0.32571 -0.439821,-0.72379 0.246037,-0.39809 0.08314,-0.7238 -0.361896,-0.7238 -0.445072,0 -0.607922,-0.3257 -0.361897,-0.7238 0.246037,-0.39808 0.102441,-0.72379 -0.319181,-0.72379 -0.421576,0 -0.766508,-0.48856 -0.766508,-1.0857 0,-0.59713 -0.344931,-1.08569 -0.766519,-1.08569 -0.421576,0 -0.565206,-0.32571 -0.319181,-0.72379 0.246037,-0.39809 0.08314,-0.7238 -0.361896,-0.7238 -0.445072,0 -0.607933,-0.3257 -0.361897,-0.7238 0.246037,-0.39808 0.08314,-0.72379 -0.361896,-0.72379 -0.445083,0 -0.606508,-0.32801 -0.358732,-0.72891 0.247753,-0.4009 -0.05677,-0.92359 -0.676926,-1.16154 -0.620084,-0.23794 -0.947209,-0.7242 -0.726957,-1.08057 0.220253,-0.35637 0.03635,-0.64796 -0.408774,-0.64796 -0.445072,0 -0.606508,-0.328 -0.358732,-0.7289 0.247764,-0.40091 -0.05678,-0.92359 -0.676926,-1.16155 -0.620085,-0.23794 -0.968303,-0.69007 -0.773835,-1.00474 0.194469,-0.31466 -0.15375,-0.76679 -0.773823,-1.00473 -0.620085,-0.23795 -0.945785,-0.72651 -0.723804,-1.08569 0.222003,-0.35919 -0.103675,-0.84775 -0.723793,-1.0857 -0.620073,-0.23795 -0.92469,-0.76064 -0.676926,-1.16154 0.247776,-0.4009 0.105582,-0.72891 -0.316017,-0.72891 -0.421576,0 -0.685083,-0.30272 -0.58556,-0.6727 0.09952,-0.36999 -0.470474,-1.20842 -1.266648,-1.86318 -0.796174,-0.65474 -0.959024,-0.97517 -0.361896,-0.71206 0.597127,0.2631 0.271428,-0.22957 -0.723793,-1.09484 -0.995221,-0.86525 -1.320932,-1.35381 -0.723793,-1.08569 0.597128,0.26813 0.271417,-0.22043 -0.723804,-1.08568 -0.99522,-0.86527 -1.32092,-1.35383 -0.723792,-1.0857 0.597128,0.26812 0.271428,-0.22044 -0.723793,-1.08569 -0.99522,-0.86527 -1.320932,-1.35383 -0.723804,-1.0857 0.597139,0.26813 0.271428,-0.18492 -0.723792,-1.00679 -0.995221,-0.82187 -1.483782,-1.51145 -1.085689,-1.53241 0.398081,-0.021 0.146951,-0.37393 -0.558071,-0.78437 -0.705032,-0.41046 -1.114031,-1.01784 -0.908903,-1.34975 0.205127,-0.3319 -0.134373,-0.79815 -0.754458,-1.03609 -0.620073,-0.23795 -0.945784,-0.72651 -0.723792,-1.08569 0.221991,-0.35919 -0.103675,-0.84776 -0.723793,-1.0857 -0.620073,-0.23795 -0.945784,-0.72651 -0.723804,-1.08569 0.222003,-0.35919 -0.103675,-0.84776 -0.723793,-1.08569 -0.620073,-0.23796 -0.924679,-0.76064 -0.676925,-1.16155 0.247775,-0.4009 0.08639,-0.7289 -0.358733,-0.7289 -0.445071,0 -0.606496,-0.32801 -0.358732,-0.72891 0.247765,-0.40091 -0.05677,-0.92359 -0.676926,-1.16153 -0.620084,-0.23795 -0.945784,-0.72651 -0.723792,-1.0857 0.221991,-0.35919 -0.103675,-0.84775 -0.723793,-1.08569 -0.620084,-0.23795 -0.947209,-0.72421 -0.726968,-1.08059 0.220252,-0.35637 0.03635,-0.64795 -0.408763,-0.64795 -0.445083,0 -0.606508,-0.32801 -0.358732,-0.7289 0.247753,-0.40091 -0.05678,-0.9236 -0.676926,-1.16155 -0.620085,-0.23793 -0.968304,-0.69007 -0.773835,-1.00473 0.194468,-0.31466 -0.15375,-0.7668 -0.773824,-1.00474 -0.620084,-0.23795 -0.924701,-0.76064 -0.676926,-1.16154 0.247765,-0.40089 0.0864,-0.72891 -0.358743,-0.72891 -0.445072,0 -0.607922,-0.32571 -0.361896,-0.72379 0.246036,-0.39809 0.08314,-0.7238 -0.361897,-0.7238 -0.445071,0 -0.629026,-0.29158 -0.408774,-0.64796 0.220253,-0.35636 -0.106816,-0.84263 -0.726957,-1.08057 -0.620073,-0.23795 -0.92469,-0.76064 -0.676914,-1.16154 0.247764,-0.4009 0.08639,-0.72891 -0.358744,-0.72891 -0.445071,0 -0.607933,-0.32571 -0.361896,-0.72379 0.246036,-0.39809 0.08314,-0.7238 -0.361896,-0.7238 -0.445072,0 -0.607933,-0.3257 -0.361897,-0.7238 0.246026,-0.39809 0.08314,-0.72379 -0.361896,-0.72379 -0.445083,0 -0.607933,-0.32571 -0.361908,-0.7238 0.246037,-0.39808 0.08314,-0.7238 -0.361896,-0.7238 -0.445072,0 -0.607922,-0.32571 -0.361896,-0.72379 0.246036,-0.39809 0.08314,-0.72379 -0.361897,-0.72379 -0.445071,0 -0.607933,-0.32571 -0.361896,-0.7238 0.246025,-0.39809 0.08314,-0.7238 -0.361896,-0.7238 -0.445083,0 -0.607933,-0.32571 -0.361897,-0.72379 0.246026,-0.39809 0.08314,-0.7238 -0.361907,-0.7238 -0.445072,0 -0.607922,-0.3257 -0.361897,-0.7238 0.246037,-0.39808 0.08314,-0.72379 -0.361896,-0.72379 -0.445072,0 -0.607933,-0.32571 -0.361896,-0.72379 0.246036,-0.39809 0.08314,-0.72381 -0.361897,-0.72381 -0.445082,0 -0.607932,-0.3257 -0.361896,-0.72379 0.246025,-0.39809 0.171714,-0.72379 -0.165161,-0.72379 -0.336864,0 -0.667322,-0.72802 -0.734351,-1.61783 -0.06698,-0.8898 -0.464079,-1.73188 -0.882334,-1.87131 -0.418256,-0.13942 -0.576359,-0.55138 -0.351338,-0.91546 0.225021,-0.36409 0.07439,-0.66197 -0.334676,-0.66197 -0.409089,0 -0.556309,-0.48856 -0.32717,-1.0857 0.229139,-0.59713 0.0368,-1.08569 -0.4273328,-1.08569 -0.4641684,0 -0.6426482,-0.32571 -0.3966228,-0.72379 0.2460365,-0.3981 0.1126283,-0.72381 -0.2964602,-0.72381 -0.4090885,0 -0.5563199,-0.48856 -0.327181,-1.08569 0.2291389,-0.59714 0.036802,-1.0857 -0.4273325,-1.0857 -0.4641685,0 -0.6565613,-0.3032 -0.4275233,-0.67377 0.2290267,-0.37059 0.080112,-0.88165 -0.3309847,-1.13571 -0.4110745,-0.25406 -0.5739357,-0.74263 -0.3619075,-1.0857 0.2120393,-0.34307 0.049144,-0.83163 -0.3618964,-1.08569 -0.4110744,-0.25406 -0.5739244,-0.74262 -0.3618963,-1.0857 0.2120281,-0.34307 0.068668,-0.81956 -0.3184742,-1.05886 -0.3871978,-0.23929 -0.5205163,-0.91322 -0.2962693,-1.4976 0.2242469,-0.58439 0.057447,-1.06251 -0.370794,-1.06251 -0.4281853,0 -0.5910352,-0.48856 -0.3618963,-1.0857 0.2291389,-0.59713 0.034109,-1.08569 -0.4333915,-1.08569 -0.5206285,0 -0.6719665,-0.56096 -0.3905639,-1.4476 0.2814138,-0.88664 0.1300646,-1.44758 -0.3905527,-1.44758 -0.4675121,0 -0.666536,-0.47814 -0.4422891,-1.06251 0.2242469,-0.58439 0.08303,-1.26322 -0.3139075,-1.50851 -0.3968922,-0.2453 -0.5235682,-1.06999 -0.2815036,-1.83268 0.257167,-0.81027 0.098738,-1.38667 -0.3812288,-1.38667 -0.479944,0 -0.6384069,-0.5764 -0.3812399,-1.38668 0.2420646,-0.76268 0.087966,-1.60435 -0.3425639,-1.87041 -0.4304742,-0.26604 -0.5796692,-1.12335 -0.3315345,-1.90513 0.2481235,-0.78178 0.071585,-1.87872 -0.3922582,-2.43763 -0.46386551,-0.55893 -0.6326061,-1.68036 -0.37497909,-2.49208 0.25762701,-0.81172 0.21394677,-1.8859 -0.0970547,-2.38707 -0.79853041,-1.28676 -0.81941121,-22.43574 -0.0232258,-23.52064 0.36146996,-0.49253 0.45229739,-1.42951 0.20185139,-2.08217 -0.25044608,-0.65266 -0.0876298,-1.62979 0.3618963,-2.17138 0.4494924,-0.54161 0.6321909,-1.46702 0.4060029,-2.05648 -0.2261992,-0.58945 -0.077532,-1.27795 0.3302666,-1.53002 0.4078318,-0.25206 0.5706931,-0.90347 0.3618964,-1.44759 -0.2087968,-0.54412 -0.062833,-1.18509 0.3243535,-1.42438 0.3871979,-0.23931 0.5305135,-0.7158 0.3184854,-1.05888 -0.2120394,-0.34307 -0.049145,-0.83163 0.3618963,-1.08569 0.4110745,-0.25406 0.5739245,-0.74262 0.3618963,-1.08569 -0.2120281,-0.34308 -0.049144,-0.83164 0.3618964,-1.0857 0.4110744,-0.25405 0.5600226,-0.76512 0.3309846,-1.1357 -0.2290267,-0.37057 -0.036578,-0.67379 0.4275345,-0.67379 0.4641685,0 0.6564715,-0.48856 0.4273326,-1.08569 -0.2291389,-0.59713 -0.081907,-1.08569 0.3271698,-1.08569 0.4090885,0 0.5424967,-0.32571 0.2964713,-0.7238 -0.2460365,-0.39808 -0.083142,-0.72379 0.3618964,-0.72379 0.4450716,0 0.6079328,-0.32571 0.3618963,-0.7238 -0.2460253,-0.39809 -0.083142,-0.7238 0.3618963,-0.7238 0.4450829,0 0.6079329,-0.3257 0.3618964,-0.72379 -0.2460254,-0.39808 -0.083142,-0.7238 0.3619075,-0.7238 0.4450717,0 0.6290156,-0.29157 0.4087631,-0.64795 -0.2202525,-0.35638 0.1069285,-0.84264 0.7269568,-1.08058 0.6200843,-0.23795 0.9246903,-0.76063 0.6769259,-1.16154 -0.2477757,-0.4009 -0.1055821,-0.72891 0.3160169,-0.72891 0.4215876,0 0.6850946,-0.30272 0.5855706,-0.67271 -0.09952,-0.36998 0.470463,-1.20841 1.266638,-1.86317 0.796174,-0.65474 0.959035,-0.9605 0.361896,-0.67945 -0.597128,0.28106 0.05431,-0.53138 1.447596,-1.80538 1.393302,-1.27401 2.044725,-2.08481 1.447586,-1.80177 -0.597128,0.28304 0.530603,-1.16033 2.506076,-3.20752 3.678431,-3.81192 4.4432,-4.40539 3.63052,-2.81738 -0.254653,0.49762 0.344034,0.0299 1.330424,-1.0395 0.986391,-1.06933 1.963412,-1.77429 2.171143,-1.56655 0.207731,0.20774 0.746143,-0.31073 1.196455,-1.15215 0.450311,-0.84143 1.128123,-1.33866 1.506233,-1.10497 0.378121,0.23369 0.687484,0.08 0.687484,-0.34163 0,-0.42158 0.488561,-0.76651 1.085689,-0.76651 0.597128,0 1.0857,-0.34493 1.0857,-0.76652 0,-0.42157 0.3257,-0.5652 0.723793,-0.31918 0.398081,0.24604 0.723793,0.0831 0.723793,-0.3619 0,-0.44507 0.325711,-0.60793 0.723792,-0.36189 0.398093,0.24604 0.723804,0.0831 0.723804,-0.3619 0,-0.44507 0.3257,-0.60793 0.723793,-0.36189 0.398092,0.24603 0.723792,0.0831 0.723792,-0.3619 0,-0.44508 0.325712,-0.60793 0.723804,-0.3619 0.398082,0.24603 0.723793,0.0831 0.723793,-0.3619 0,-0.44508 0.325711,-0.60793 0.723793,-0.3619 0.398092,0.24604 0.723792,0.11263 0.723792,-0.29646 0,-0.40909 0.488573,-0.55632 1.0857,-0.32718 0.597128,0.22915 1.085689,0.0663 1.085689,-0.3619 0,-0.42818 0.488562,-0.59103 1.085701,-0.36189 0.597127,0.22913 1.085689,0.0368 1.085689,-0.42734 0,-0.46417 0.303203,-0.65656 0.673784,-0.42753 0.370581,0.22904 0.869577,0.0996 1.108881,-0.28756 0.239293,-0.3872 0.913212,-0.52052 1.497605,-0.29627 0.58437,0.22425 1.062508,0.0123 1.062508,-0.47095 0,-0.48328 0.478126,-0.6952 1.062508,-0.47094 0.584382,0.22424 1.246228,0.1104 1.470778,-0.25285 0.224538,-0.36332 0.853442,-0.48975 1.397554,-0.28094 0.544124,0.20879 1.185425,0.0623 1.425145,-0.32557 0.239697,-0.38785 1.086912,-0.53492 1.882693,-0.32682 0.8194,0.21428 1.446868,0.0219 1.446868,-0.44364 0,-0.50538 0.666581,-0.6547 1.730536,-0.38767 0.964533,0.24209 1.952629,0.075 2.232292,-0.37754 0.275972,-0.44655 1.141409,-0.60888 1.923188,-0.36076 0.781778,0.24813 1.878721,0.0716 2.437644,-0.39224 0.558923,-0.46388 1.680349,-0.63261 2.492074,-0.37498 0.811714,0.25762 1.885891,0.20311 2.387064,-0.12116 2.263641,-1.46459 35.028699,-1.45747 37.299639,0.008 0.50732,0.3274 1.90492,0.37949 3.10577,0.11573 1.30289,-0.28616 2.59523,-0.13774 3.20469,0.36807 0.56172,0.46619 1.70399,0.63095 2.53837,0.36611 0.83439,-0.26481 1.97436,-0.10199 2.53329,0.3619 0.55892,0.46388 1.65586,0.64038 2.43764,0.39226 0.78177,-0.24812 1.63908,-0.099 1.90513,0.33155 0.26605,0.43047 1.08032,0.59332 1.8095,0.36189 0.72916,-0.23144 1.54344,-0.0686 1.80948,0.3619 0.26605,0.43047 1.08031,0.59333 1.80949,0.36189 0.72918,-0.23142 1.54344,-0.0687 1.80949,0.3619 0.26605,0.43049 1.10773,0.58464 1.8704,0.34256 0.81028,-0.25717 1.38668,-0.0987 1.38668,0.38123 0,0.47994 0.57641,0.63841 1.38668,0.38123 0.76268,-0.24206 1.60989,-0.079 1.8827,0.36247 0.27282,0.44141 0.94122,0.63174 1.48533,0.42296 0.54411,-0.20881 1.17301,-0.0824 1.39755,0.28094 0.22455,0.36331 0.8864,0.47709 1.47078,0.25285 0.58438,-0.22426 1.06251,-0.0123 1.06251,0.47094 0,0.48327 0.47814,0.69519 1.06252,0.47095 0.58438,-0.22425 1.26874,-0.0741 1.52081,0.3338 0.25205,0.40784 0.91389,0.5667 1.47076,0.35301 0.55687,-0.2137 1.01248,-0.0383 1.01248,0.38998 0,0.4282 0.47814,0.59505 1.06252,0.37079 0.58438,-0.22424 1.25831,-0.0909 1.4976,0.29628 0.23931,0.38719 0.7158,0.53051 1.05887,0.31848 0.34306,-0.21203 0.81955,-0.0687 1.05886,0.31847 0.23929,0.38721 0.91322,0.52052 1.4976,0.29627 0.58438,-0.22425 1.06251,-0.0123 1.06251,0.47095 0,0.48368 0.48807,0.69139 1.0857,0.46204 0.59713,-0.22913 1.08569,-0.0663 1.08569,0.36191 0,0.42819 0.48856,0.59104 1.0857,0.3619 0.59713,-0.22914 1.08569,-0.0819 1.08569,0.32717 0,0.4091 0.3032,0.55642 0.67378,0.32738 0.37058,-0.22904 0.88165,-0.0801 1.13571,0.33099 0.25406,0.41107 0.76513,0.56002 1.13571,0.33098 0.37057,-0.22903 0.67378,-0.0366 0.67378,0.42754 0,0.46416 0.48856,0.65647 1.08569,0.42733 0.59713,-0.22914 1.08569,-0.0819 1.08569,0.32717 0,0.40909 0.30322,0.55641 0.67379,0.32738 0.37058,-0.22904 0.88165,-0.0801 1.1357,0.33099 0.25406,0.41107 0.76513,0.56002 1.13571,0.33098 0.37058,-0.22903 0.67379,-0.0523 0.67379,0.39281 0,0.44508 0.3032,0.62184 0.67378,0.39282 0.37058,-0.22904 0.88165,-0.0801 1.13571,0.33098 0.25406,0.41107 0.76512,0.56002 1.13571,0.33099 0.37057,-0.22904 0.67377,-0.0523 0.67377,0.3928 0,0.44508 0.30321,0.62185 0.67379,0.39281 0.37058,-0.22904 0.88165,-0.0801 1.1357,0.33099 0.25406,0.41107 0.76513,0.56002 1.13571,0.33098 0.37058,-0.22902 0.67379,-0.0523 0.67379,0.39281 0,0.44508 0.3257,0.60793 0.72379,0.36191 0.39809,-0.24604 0.72379,-0.0831 0.72379,0.36189 0,0.44508 0.32571,0.60794 0.72381,0.3619 0.39808,-0.24604 0.72379,-0.0831 0.72379,0.3619 0,0.44507 0.3032,0.62184 0.67378,0.3928 0.37058,-0.22903 0.88165,-0.0801 1.13571,0.33099 0.25406,0.41107 0.76512,0.56002 1.13571,0.33098 0.37057,-0.22902 0.67377,-0.0523 0.67377,0.39282 0,0.44507 0.32572,0.60792 0.72381,0.3619 0.39808,-0.24604 0.72379,-0.0831 0.72379,0.3619 0,0.44507 0.32571,0.60793 0.72379,0.36189 0.3981,-0.24603 0.72381,-0.0831 0.72381,0.3619 0,0.44508 0.3257,0.60793 0.72379,0.36189 0.39808,-0.24602 0.72379,-0.0831 0.72379,0.36191 0,0.44507 0.32571,0.60792 0.7238,0.3619 0.39809,-0.24604 0.7238,-0.0831 0.7238,0.36189 0,0.44508 0.3257,0.60794 0.72379,0.3619 0.39809,-0.24604 0.72379,-0.0831 0.72379,0.3619 0,0.44508 0.32572,0.60793 0.72381,0.36189 0.39808,-0.24602 0.72379,-0.0831 0.72379,0.3619 0,0.44508 0.29158,0.62903 0.64796,0.40877 0.35636,-0.22025 0.84263,0.10682 1.08057,0.72696 0.23795,0.62009 0.76064,0.92469 1.16155,0.67693 0.40088,-0.24777 0.7289,-0.0864 0.7289,0.35873 0,0.44508 0.32571,0.60793 0.7238,0.3619 0.39808,-0.24603 0.72379,-0.0831 0.72379,0.3619 0,0.44507 0.32571,0.60792 0.72379,0.3619 0.3981,-0.24604 0.7238,-0.0831 0.7238,0.3619 0,0.44507 0.29159,0.62901 0.64796,0.40877 0.35637,-0.22025 0.84263,0.10682 1.08058,0.72696 0.23794,0.62007 0.76064,0.92468 1.16153,0.67691 0.4009,-0.24776 0.72891,-0.0863 0.72891,0.35875 0,0.44507 0.29158,0.62901 0.64796,0.40876 0.35636,-0.22024 0.84264,0.10693 1.08057,0.72697 0.23795,0.62007 0.76064,0.92468 1.16155,0.67691 0.40089,-0.24776 0.7289,-0.0863 0.7289,0.35874 0,0.44508 0.32801,0.6065 0.72891,0.35874 0.40091,-0.24777 0.92359,0.0568 1.16153,0.67692 0.23795,0.62008 0.69008,0.96829 1.00474,0.77383 0.31467,-0.19447 0.7668,0.15375 1.00475,0.77383 0.23794,0.62007 0.7265,0.94578 1.08568,0.72379 0.3592,-0.22199 0.84776,0.10368 1.08571,0.72381 0.23794,0.62007 0.7265,0.94578 1.08568,0.72379 0.3592,-0.22199 0.84099,0.0861 1.07067,0.68463 0.22969,0.59853 0.72938,1.00381 1.11045,0.90059 0.38107,-0.10322 1.22856,0.46375 1.88331,1.25993 0.65475,0.79618 0.97929,0.95903 0.7212,0.3619 -0.25808,-0.59714 0.0575,-0.43428 0.70129,0.36189 0.64378,0.79618 1.44548,1.44759 1.78156,1.44759 0.33608,0 1.324,0.81427 2.19538,1.80949 0.87137,0.99522 1.36839,1.32093 1.10447,0.72379 -0.26391,-0.59712 0.18123,-0.27141 0.98921,0.72381 0.80798,0.99522 1.7452,1.80948 2.08273,1.80948 0.33751,0 1.70143,1.13998 3.03092,2.53329 1.32949,1.39331 1.99883,1.88187 1.48742,1.0857 -0.51141,-0.79618 0.73484,0.34379 2.76946,2.53328 2.0346,2.18949 3.71338,3.66878 3.73061,3.28733 0.0173,-0.38144 1.48291,0.73105 3.25704,2.47224 1.77413,1.74118 3.07625,3.40759 2.89358,3.70313 -0.18265,0.29555 1.37859,2.06214 3.46942,3.92576 2.09084,1.86362 3.31296,3.17011 2.71583,2.90333 -0.59713,-0.26678 -0.10861,0.4139 1.08569,1.51264 1.19427,1.09874 2.09321,2.25527 1.99765,2.57007 -0.0956,0.3148 0.48355,0.92413 1.28691,1.35408 0.80336,0.42995 1.27956,1.07475 1.05822,1.43289 -0.22134,0.35815 0.26722,1.00956 1.0857,1.44759 0.81847,0.43804 1.29551,1.1081 1.06008,1.48903 -0.23542,0.38092 0.0793,0.88727 0.69937,1.12521 0.62008,0.23794 0.94578,0.72651 0.72379,1.08569 -0.22199,0.35919 0.10368,0.84776 0.7238,1.0857 0.62008,0.23794 0.95958,0.70419 0.75445,1.0361 -0.20512,0.3319 0.20387,0.93929 0.90891,1.34973 0.70502,0.41046 0.97532,0.75619 0.60067,0.76828 -0.37464,0.0121 -0.0489,0.53474 0.7238,1.16138 0.77274,0.62665 0.91641,0.92821 0.31929,0.67013 -0.72445,-0.31312 -0.66798,-0.12654 0.1697,0.56074 0.69046,0.56649 1.04331,1.24205 0.78411,1.50126 -0.25921,0.2592 -0.0721,0.47129 0.41586,0.47129 0.48793,0 0.68442,0.32801 0.43665,0.72889 -0.24776,0.40091 0.0568,0.92361 0.67693,1.16155 0.62008,0.23794 0.94721,0.72421 0.72696,1.08057 -0.22026,0.35638 -0.0364,0.64796 0.40877,0.64796 0.44507,0 0.60792,0.32571 0.3619,0.72379 -0.24604,0.3981 -0.0831,0.72381 0.36189,0.72381 0.44508,0 0.60794,0.3257 0.3619,0.72379 -0.24604,0.39809 -0.0831,0.72379 0.3619,0.72379 0.44508,0 0.60793,0.32571 0.36189,0.72381 -0.24602,0.39808 -0.0831,0.72379 0.3619,0.72379 0.44508,0 0.62185,0.3032 0.39282,0.67378 -0.22904,0.37058 -0.0801,0.88165 0.33098,1.13571 0.41108,0.25406 0.56003,0.76512 0.33099,1.13571 -0.22904,0.37057 -0.0523,0.67377 0.39281,0.67377 0.44507,0 0.60793,0.32571 0.36189,0.72381 -0.24602,0.39808 -0.0831,0.72379 0.3619,0.72379 0.44508,0 0.62184,0.3032 0.39282,0.67378 -0.22904,0.37058 -0.0801,0.88165 0.33098,1.13571 0.41107,0.25406 0.56003,0.76512 0.33099,1.13571 -0.22904,0.37057 -0.0817,0.67377 0.32737,0.67377 0.40909,0 0.55632,0.48856 0.32718,1.0857 -0.22915,0.59713 -0.0663,1.08569 0.3619,1.08569 0.42818,0 0.59103,0.48856 0.36189,1.0857 -0.22914,0.59713 -0.0663,1.08569 0.3619,1.08569 0.42818,0 0.59105,0.48856 0.36191,1.08569 -0.22915,0.59714 -0.0663,1.0857 0.36189,1.0857 0.42819,0 0.60368,0.45562 0.38998,1.01248 -0.21367,0.55687 -0.0549,1.21871 0.35301,1.47076 0.40785,0.25207 0.55805,0.93643 0.3338,1.52082 -0.22424,0.58437 -0.0252,1.06251 0.44229,1.06251 0.50818,0 0.67301,0.55765 0.4099,1.38668 -0.24208,0.76268 -0.13175,1.57726 0.24516,1.81022 0.37691,0.23293 0.51503,1.07461 0.30693,1.87039 -0.21428,0.8194 -0.0219,1.44688 0.44364,1.44688 0.50538,0 0.65471,0.66657 0.38766,1.73053 -0.23887,0.95178 -0.0929,1.94154 0.3244,2.19945 0.41732,0.2579 0.57375,1.39392 0.34764,2.52446 -0.23225,1.16121 -0.0637,2.2702 0.38716,2.54891 0.49001,0.30284 0.62781,1.55946 0.35685,3.25396 -0.24278,1.51832 -0.16206,2.93325 0.17939,3.14427 0.34144,0.21101 0.51159,8.3132 0.3781,18.00485 -0.30247,21.95819 -0.41559,24.55056 -1.14013,26.1274 -0.32053,0.69754 -0.37076,2.11296 -0.11164,3.14536 0.26671,1.06267 0.1085,2.31405 -0.36467,2.88418 -0.45968,0.55388 -0.63536,1.80558 -0.39041,2.78158 0.24988,0.99555 0.0945,1.9914 -0.35398,2.26857 -0.45206,0.27938 -0.62075,1.38715 -0.38827,2.54958 0.22611,1.13055 0.0697,2.26656 -0.34762,2.52446 -0.4173,0.25791 -0.56829,1.22771 -0.33554,2.1551 0.23276,0.9274 0.0699,1.90452 -0.3619,2.17139 -0.4318,0.26686 -0.59466,1.244 -0.3619,2.17139 0.23277,0.92738 0.083,1.89639 -0.33269,2.15334 -0.41574,0.25693 -0.56655,1.06375 -0.33511,1.79293 0.23143,0.72918 0.0686,1.54344 -0.3619,1.80949 -0.43048,0.26604 -0.59333,1.08032 -0.36189,1.80948 0.23143,0.72918 0.0686,1.54345 -0.36191,1.8095 -0.43047,0.26604 -0.59332,1.08031 -0.3619,1.80949 0.23144,0.72917 0.0686,1.54344 -0.36189,1.80949 -0.43048,0.26604 -0.58463,1.10773 -0.34257,1.8704 0.25718,0.81028 0.0987,1.38668 -0.38122,1.38668 -0.47994,0 -0.63841,0.5764 -0.38123,1.38667 0.24206,0.76268 0.0958,1.59945 -0.32493,1.85951 -0.42078,0.26005 -0.56884,0.79029 -0.32903,1.17831 0.23981,0.38802 0.0542,1.16553 -0.41241,1.72777 -0.46663,0.56226 -0.65221,1.33976 -0.4124,1.72778 0.23981,0.38801 0.0828,0.92379 -0.34893,1.1906 -0.43173,0.26682 -0.61411,0.93032 -0.40531,1.47444 0.20879,0.54411 0.0824,1.173 -0.28095,1.39755 -0.36332,0.22454 -0.4771,0.88639 -0.25285,1.47077 0.22425,0.58438 0.0252,1.06252 -0.44228,1.06252 -0.52063,0 -0.67198,0.56094 -0.39057,1.44759 0.28142,0.88664 0.13007,1.44759 -0.39055,1.44759 -0.46751,0 -0.66654,0.47813 -0.44229,1.06251 0.22425,0.58438 0.11052,1.24623 -0.25285,1.47078 -0.36332,0.22454 -0.47709,0.88638 -0.25284,1.47078 0.22424,0.58437 0.0123,1.0625 -0.47095,1.0625 -0.48368,0 -0.69139,0.48806 -0.46206,1.08569 0.22914,0.59714 0.0663,1.0857 -0.36189,1.0857 -0.42819,0 -0.59504,0.47813 -0.3708,1.06251 0.22425,0.58438 0.11052,1.24623 -0.25284,1.47078 -0.36333,0.22454 -0.4771,0.88638 -0.25285,1.47076 0.22424,0.58439 0.0123,1.06252 -0.47095,1.06252 -0.48368,0 -0.69139,0.48806 -0.46205,1.08569 0.22914,0.59713 0.0663,1.0857 -0.3619,1.0857 -0.42819,0 -0.59104,0.48856 -0.3619,1.08569 0.22914,0.59713 0.0663,1.08569 -0.3619,1.08569 -0.42818,0 -0.59104,0.48857 -0.36189,1.0857 0.22914,0.59713 0.0663,1.08569 -0.3619,1.08569 -0.42819,0 -0.59104,0.48856 -0.36189,1.0857 0.22913,0.59713 0.0663,1.08569 -0.3619,1.08569 -0.4282,0 -0.59105,0.48856 -0.36191,1.0857 0.22914,0.59713 0.0663,1.08569 -0.36189,1.08569 -0.42819,0 -0.59105,0.48856 -0.3619,1.08569 0.22914,0.59714 0.0663,1.0857 -0.3619,1.0857 -0.42818,0 -0.59104,0.48856 -0.36189,1.08569 0.22914,0.59714 0.1113,1.0857 -0.26175,1.0857 -0.3731,0 -0.49088,0.48856 -0.26174,1.08569 0.22914,0.59713 0.0368,1.0857 -0.42734,1.0857 -0.46416,0 -0.65656,0.3032 -0.42753,0.67377 0.22904,0.37059 0.0801,0.88165 -0.33099,1.13571 -0.41107,0.25406 -0.56002,0.76513 -0.33098,1.13571 0.22903,0.37058 0.0366,0.67378 -0.42753,0.67378 -0.46417,0 -0.65648,0.48856 -0.42733,1.0857 0.22914,0.59713 0.0819,1.08569 -0.32718,1.08569 -0.40909,0 -0.54249,0.32571 -0.29647,0.72379 0.24604,0.39809 0.0675,0.72381 -0.39661,0.72381 -0.46417,0 -0.65648,0.48856 -0.42733,1.08569 0.22914,0.59712 0.0819,1.08568 -0.32718,1.08568 -0.40909,0 -0.5425,0.32572 -0.29646,0.72381 0.24602,0.39808 0.0675,0.72379 -0.39663,0.72379 -0.46416,0 -0.65647,0.48856 -0.42732,1.08569 0.22914,0.59714 0.0819,1.0857 -0.32718,1.0857 -0.40909,0 -0.55641,0.3032 -0.32738,0.67378 0.22904,0.37058 0.0801,0.88165 -0.33099,1.13571 -0.41107,0.25406 -0.56002,0.76512 -0.33098,1.13571 0.22903,0.37057 0.0523,0.67377 -0.39281,0.67377 -0.44508,0 -0.60793,0.32572 -0.3619,0.72381 0.24603,0.39808 0.0831,0.72379 -0.36189,0.72379 -0.44508,0 -0.60793,0.32571 -0.36191,0.72379 0.24604,0.3981 0.0676,0.7238 -0.39661,0.7238 -0.46417,0 -0.65648,0.48857 -0.42733,1.0857 0.22914,0.59712 0.0819,1.08569 -0.32718,1.08569 -0.40909,0 -0.5425,0.32571 -0.29646,0.7238 0.24602,0.39808 0.0831,0.72379 -0.3619,0.72379 -0.44508,0 -0.62512,0.2979 -0.40011,0.66198 0.22502,0.36409 0.067,0.77605 -0.35134,0.91546 -0.41826,0.13942 -0.81531,0.98151 -0.88234,1.87131 -0.067,0.8898 -0.39747,1.61782 -0.73435,1.61782 -0.33686,0 -0.41118,0.32571 -0.16515,0.7238 0.24603,0.39809 0.0832,0.7238 -0.36189,0.7238 -0.44509,0 -0.60794,0.3257 -0.36191,0.72379 0.24604,0.39808 0.0831,0.72379 -0.3619,0.72379 -0.44507,0 -0.60793,0.32572 -0.36189,0.7238 0.24603,0.39809 0.0831,0.7238 -0.3619,0.7238 -0.44508,0 -0.60793,0.3257 -0.3619,0.72379 0.24603,0.3981 0.0832,0.7238 -0.36189,0.7238 -0.44508,0 -0.60793,0.32571 -0.36191,0.7238 0.24604,0.39808 0.0831,0.72379 -0.3619,0.72379 -0.44507,0 -0.60792,0.32571 -0.36189,0.7238 0.24603,0.39809 0.0831,0.72379 -0.3619,0.72379 -0.44507,0 -0.60793,0.32571 -0.36189,0.7238 0.24603,0.39808 0.0831,0.7238 -0.3619,0.7238 -0.44508,0 -0.60793,0.32571 -0.3619,0.72379 0.24603,0.39809 0.0831,0.7238 -0.3619,0.7238 -0.44508,0 -0.60793,0.3257 -0.3619,0.72379 0.24604,0.39809 0.0831,0.7238 -0.3619,0.7238 -0.44507,0 -0.60793,0.32571 -0.36189,0.72379 0.24603,0.39809 0.0831,0.7238 -0.3619,0.7238 -0.44508,0 -0.60793,0.3257 -0.3619,0.7238 0.24603,0.39809 0.0831,0.72379 -0.36189,0.72379 -0.44509,0 -0.60794,0.32571 -0.36191,0.7238 0.24604,0.39808 0.0831,0.7238 -0.3619,0.7238 -0.44507,0 -0.62901,0.29157 -0.40876,0.64795 0.22024,0.35637 -0.10693,0.84264 -0.72697,1.08057 -0.62007,0.23795 -0.92468,0.76064 -0.67691,1.16155 0.24776,0.40089 0.0864,0.7289 -0.35875,0.7289 -0.44507,0 -0.60792,0.32571 -0.36189,0.7238 0.24603,0.39809 0.0831,0.7238 -0.3619,0.7238 -0.44507,0 -0.60793,0.32571 -0.36189,0.72379 0.24603,0.39809 0.0831,0.72379 -0.3619,0.72379 -0.44508,0 -0.60651,0.32801 -0.35873,0.72891 0.24775,0.40091 -0.0568,0.92359 -0.67693,1.16154 -0.62008,0.23795 -0.94721,0.72422 -0.72696,1.08058 0.22026,0.35638 0.0363,0.64796 -0.40877,0.64796 -0.44507,0 -0.60651,0.32801 -0.35873,0.72891 0.24776,0.40089 -0.0568,0.92359 -0.67693,1.16153 -0.62008,0.23794 -0.94721,0.72421 -0.72696,1.08058 0.22026,0.35637 0.0555,0.64795 -0.36605,0.64795 -0.42158,0 -0.76651,0.48856 -0.76651,1.0857 0,0.59713 -0.34493,1.08569 -0.76652,1.08569 -0.42158,0 -0.5863,0.29158 -0.36605,0.64796 0.22025,0.35637 -0.10682,0.84263 -0.72696,1.08058 -0.62008,0.23795 -0.94578,0.72651 -0.7238,1.08569 0.222,0.35919 -0.10367,0.84775 -0.72379,1.0857 -0.62008,0.23795 -0.94579,0.72651 -0.7238,1.08569 0.222,0.35919 -0.10367,0.84775 -0.72379,1.08569 -0.62008,0.23796 -0.94578,0.72652 -0.7238,1.0857 0.222,0.35919 -0.10368,0.84775 -0.72379,1.08569 -0.62008,0.23794 -0.94579,0.7265 -0.7238,1.0857 0.22199,0.35919 -0.10367,0.84775 -0.7238,1.08569 -0.62007,0.23794 -0.93479,0.74429 -0.69936,1.12521 0.23543,0.38093 -0.24161,1.051 -1.06009,1.48903 -0.81848,0.43803 -1.30704,1.08945 -1.08569,1.44759 0.22134,0.35814 -0.25486,1.00294 -1.05822,1.43289 -0.80337,0.42995 -1.38248,1.05464 -1.28691,1.3882 0.0956,0.33356 -0.64053,1.32577 -1.63575,2.20492 -0.99522,0.87915 -1.32093,1.37824 -0.7238,1.10909 0.59713,-0.26916 -0.21714,0.70676 -1.80949,2.16869 -1.59235,1.46193 -2.40662,2.44105 -1.80949,2.17582 0.59714,-0.26523 -0.30023,0.71669 -1.99414,2.18205 -1.69392,1.46536 -2.931,2.90511 -2.74909,3.19946 0.18193,0.29435 -1.8442,2.62734 -4.50247,5.18441 -2.65827,2.55707 -4.18971,3.81093 -3.40318,2.78636 0.78652,-1.02458 -0.31855,-0.0475 -2.45572,2.17139 -2.13717,2.21883 -3.65947,3.54569 -3.38288,2.94856 0.27658,-0.59714 -0.21008,-0.27142 -1.08146,0.7238 -0.87138,0.99522 -1.88521,1.80949 -2.25293,1.80949 -0.36773,0 -0.97054,0.48856 -1.3396,1.08569 -0.36904,0.59713 -0.99456,1.08569 -1.39003,1.08569 -0.39547,0 -1.24578,0.65142 -1.88956,1.44759 -0.6438,0.79618 -0.95937,0.95904 -0.70128,0.3619 0.31311,-0.72444 0.12653,-0.66797 -0.56074,0.1697 -0.5665,0.69046 -1.2344,1.05098 -1.48423,0.80115 -0.24984,-0.24983 -0.65889,0.0791 -0.90903,0.73089 -0.25012,0.65182 -0.74635,1.00493 -1.10272,0.78468 -0.35637,-0.22025 -0.64795,-0.0364 -0.64795,0.40876 0,0.44508 -0.32801,0.60651 -0.72891,0.35874 -0.40091,-0.24776 -0.92359,0.0568 -1.16154,0.67692 -0.23795,0.62008 -0.72421,0.94721 -1.08058,0.72696 -0.35638,-0.22025 -0.64796,-0.0364 -0.64796,0.40877 0,0.44508 -0.32571,0.60793 -0.72379,0.3619 -0.39809,-0.24603 -0.72379,-0.0831 -0.72379,0.36189 0,0.44509 -0.32572,0.60794 -0.72381,0.36191 -0.39808,-0.24604 -0.72379,-0.0831 -0.72379,0.3619 0,0.44507 -0.32571,0.60793 -0.72379,0.36189 -0.3981,-0.24603 -0.72381,-0.17171 -0.72381,0.16515 0,0.33688 -0.70353,0.66548 -1.56341,0.73026 -0.85988,0.0647 -1.83201,0.54122 -2.1603,1.05877 -0.32829,0.51755 -0.60189,0.65684 -0.60798,0.30953 -0.006,-0.34731 -0.44818,-0.2687 -0.98242,0.17468 -0.53424,0.44336 -1.18565,0.59182 -1.44759,0.32988 -0.26194,-0.26193 -0.47625,-0.10648 -0.47625,0.34546 0,0.45194 -0.48857,0.63424 -1.0857,0.4051 -0.59763,-0.22933 -1.08569,-0.0217 -1.08569,0.46206 0,0.48326 -0.47813,0.69519 -1.06251,0.47093 -0.58439,-0.22424 -1.25832,-0.0909 -1.49761,0.29628 -0.23929,0.38719 -0.75255,0.50777 -1.14058,0.26797 -0.38801,-0.23981 -1.1385,-0.0766 -1.66773,0.36257 -0.52924,0.43924 -1.45915,0.60792 -2.06647,0.37487 -0.60733,-0.23306 -1.31266,-0.0865 -1.5674,0.32571 -0.25474,0.41219 -1.38816,0.56443 -2.51871,0.33832 -1.15948,-0.2319 -2.27019,-0.0637 -2.54795,0.38561 -0.65155,1.05422 -12.45897,1.06707 -13.10964,0.0142 z m 70.24446,-31.78838 c 0.72053,-0.79617 1.1472,-1.44759 0.94815,-1.44759 -0.19904,0 -0.95142,0.65142 -1.67195,1.44759 -0.72053,0.79618 -1.1472,1.4476 -0.94816,1.4476 0.19905,0 0.95143,-0.65142 1.67196,-1.4476 z m -19.81206,-9.95219 c 0.90031,-1.14799 0.8747,-1.17359 -0.27328,-0.27328 -0.69665,0.54636 -1.26665,1.11635 -1.26665,1.26665 0,0.59571 0.59438,0.2123 1.53993,-0.99337 z M 86.260321,383.59906 c -0.231046,-0.57739 -0.402558,-0.40589 -0.437285,0.4373 -0.03142,0.76299 0.139636,1.19049 0.380152,0.94998 0.240505,-0.24051 0.266222,-0.86479 0.05711,-1.38728 z M 255.61349,282.2224 c -0.20079,-0.49762 -0.36507,-0.0904 -0.36507,0.90474 0,0.99522 0.16428,1.40236 0.36507,0.90475 0.20078,-0.49761 0.20078,-1.31189 0,-1.80949 z m 0.039,-8.32365 c -0.16583,-1.09474 -0.30152,-0.19905 -0.30152,1.99043 0,2.18949 0.13569,3.08519 0.30152,1.99044 0.16585,-1.09474 0.16585,-2.88614 0,-3.98087 z M 21.10361,190.30032 c -0.200786,-0.49761 -0.365072,-0.0904 -0.365072,0.90475 0,0.99521 0.164286,1.40234 0.365072,0.90474 0.200797,-0.49762 0.200797,-1.31188 0,-1.80949 z m 0,-4.34278 c -0.200786,-0.49761 -0.365072,-0.0904 -0.365072,0.90475 0,0.99522 0.164286,1.40236 0.365072,0.90474 0.200797,-0.4976 0.200797,-1.31188 0,-1.80949 z m 218.8308,-2.20543 c 0,-0.11826 -1.38426,-1.50252 -3.07613,-3.07614 l -3.07613,-2.86113 2.86113,3.07613 c 2.66082,2.86078 3.29113,3.40874 3.29113,2.86114 z m 104.52945,328.72276 c -0.291,-0.47082 -1.67366,-0.58702 -3.58132,-0.30094 -2.00117,0.30008 -3.28711,0.17508 -3.61236,-0.3512 -0.27777,-0.44944 -1.26381,-0.62672 -2.19121,-0.39397 -0.92739,0.23276 -1.90452,0.0699 -2.17139,-0.3619 -0.26686,-0.4318 -1.26395,-0.58964 -2.21574,-0.35076 -1.06394,0.26704 -1.73053,0.11771 -1.73053,-0.38767 0,-0.46552 -0.62747,-0.65791 -1.44686,-0.44364 -0.79578,0.2081 -1.643,0.061 -1.88271,-0.32682 -0.23971,-0.38786 -0.88102,-0.53435 -1.42513,-0.32557 -0.54412,0.20881 -1.17302,0.0824 -1.39757,-0.28094 -0.22454,-0.36331 -0.88638,-0.47709 -1.47076,-0.25285 -0.58438,0.22426 -1.06252,0.0124 -1.06252,-0.47094 0,-0.48327 -0.47813,-0.69519 -1.06251,-0.47095 -0.58438,0.22425 -1.24623,0.11041 -1.47078,-0.25284 -0.22454,-0.36333 -0.88638,-0.4771 -1.47076,-0.25285 -0.58439,0.22425 -1.06252,0.0279 -1.06252,-0.43623 0,-0.46417 -0.30321,-0.65656 -0.67378,-0.42754 -0.37059,0.22904 -0.88165,0.0801 -1.13571,-0.33098 -0.25405,-0.41108 -0.76512,-0.56002 -1.1357,-0.33099 -0.37058,0.22904 -0.67379,0.0366 -0.67379,-0.42752 0,-0.46418 -0.48856,-0.65648 -1.08569,-0.42733 -0.59714,0.22914 -1.0857,0.0819 -1.0857,-0.32718 0,-0.40909 -0.32571,-0.5425 -0.72379,-0.29646 -0.39809,0.24602 -0.72379,0.0831 -0.72379,-0.36191 0,-0.44507 -0.32571,-0.60792 -0.72381,-0.3619 -0.39808,0.24604 -0.72379,0.0831 -0.72379,-0.36189 0,-0.44507 -0.32571,-0.60794 -0.72379,-0.3619 -0.39809,0.24604 -0.72381,0.0831 -0.72381,-0.3619 0,-0.44508 -0.3257,-0.60793 -0.72379,-0.36189 -0.39808,0.24602 -0.72379,0.0831 -0.72379,-0.3619 0,-0.44508 -0.32571,-0.60793 -0.7238,-0.36191 -0.39809,0.24604 -0.7238,0.0831 -0.7238,-0.36189 0,-0.44507 -0.32571,-0.60792 -0.72379,-0.3619 -0.39809,0.24604 -0.72379,0.0831 -0.72379,-0.36189 0,-0.44508 -0.29159,-0.62903 -0.64796,-0.40878 -0.35637,0.22025 -0.84264,-0.10693 -1.08058,-0.72696 -0.23795,-0.62007 -0.76064,-0.92467 -1.16154,-0.67692 -0.4009,0.24777 -0.72891,0.0864 -0.72891,-0.35873 0,-0.44508 -0.30936,-0.61803 -0.68748,-0.38434 -0.37811,0.23368 -1.03925,-0.23242 -1.4692,-1.03578 -0.42994,-0.80336 -1.05464,-1.38247 -1.38821,-1.28691 -0.33355,0.0956 -1.32576,-0.64053 -2.20491,-1.63575 -0.87915,-0.99521 -1.38335,-1.32092 -1.12046,-0.72379 0.26289,0.59712 -0.47711,-0.0223 -1.64445,-1.37654 -1.16733,-1.35424 -3.23043,-3.41734 -4.58466,-4.58468 -1.35423,-1.16733 -1.97368,-1.90733 -1.37655,-1.64444 0.59714,0.26289 0.27143,-0.24131 -0.72379,-1.12045 -0.99522,-0.87915 -1.72504,-1.89016 -1.62183,-2.24668 0.10323,-0.35652 -0.30204,-0.83615 -0.90058,-1.06583 -0.59854,-0.22969 -0.90806,-0.70918 -0.6878,-1.06555 0.22025,-0.35637 0.0555,-0.64795 -0.36605,-0.64795 -0.42159,0 -0.76652,-0.48856 -0.76652,-1.0857 0,-0.59713 -0.34493,-1.08569 -0.76651,-1.08569 -0.42159,0 -0.56522,-0.32571 -0.31918,-0.7238 0.24604,-0.39809 0.17171,-0.7238 -0.16516,-0.7238 -0.33686,0 -0.66547,-0.70354 -0.73024,-1.56341 -0.0648,-0.85988 -0.54122,-1.83201 -1.05879,-2.1603 -0.51754,-0.32829 -0.65683,-0.60189 -0.30953,-0.60798 0.34732,-0.006 0.22601,-0.49965 -0.26956,-1.09677 -0.49558,-0.59713 -0.65844,-1.08569 -0.3619,-1.08569 0.29653,0 0.17638,-0.43711 -0.267,-0.97135 -0.44337,-0.53424 -0.59969,-1.17778 -0.34737,-1.4301 0.2523,-0.25232 0.0894,-0.90373 -0.3619,-1.44759 -0.45137,-0.54386 -0.6204,-1.1891 -0.37563,-1.43387 0.24477,-0.24477 0.20062,-1.02907 -0.0981,-1.74289 -0.74865,-1.78895 -0.86045,-16.1882 -0.12918,-16.64002 0.3257,-0.20123 0.40151,-0.86277 0.16846,-1.4701 -0.23305,-0.60732 -0.0643,-1.53724 0.37486,-2.06647 0.43923,-0.52924 0.60239,-1.27972 0.36258,-1.66774 -0.23981,-0.38801 -0.11922,-0.90127 0.26798,-1.14058 0.38719,-0.23929 0.52051,-0.91322 0.29626,-1.4976 -0.22425,-0.58438 -0.0574,-1.06251 0.3708,-1.06251 0.42818,0 0.59103,-0.48857 0.3619,-1.0857 -0.22916,-0.59713 -0.0368,-1.08569 0.42733,-1.08569 0.46417,0 0.64265,-0.32571 0.39661,-0.7238 -0.24603,-0.39808 -0.0676,-0.72379 0.39662,-0.72379 0.46417,0 0.65647,-0.48857 0.42733,-1.08569 -0.22913,-0.59714 -0.0819,-1.0857 0.32717,-1.0857 0.40909,0 0.54251,-0.3257 0.29648,-0.7238 -0.24604,-0.39809 -0.0831,-0.72379 0.36189,-0.72379 0.44508,0 0.60793,-0.32571 0.3619,-0.7238 -0.24603,-0.39808 -0.0831,-0.7238 0.36189,-0.7238 0.44509,0 0.62903,-0.29158 0.40878,-0.64795 -0.22025,-0.35637 0.10682,-0.84264 0.72696,-1.08057 0.62008,-0.23795 0.92469,-0.76064 0.67692,-1.16155 -0.24776,-0.40089 -0.10558,-0.7289 0.31602,-0.7289 0.42158,0 0.68508,-0.30272 0.58556,-0.67272 -0.0995,-0.36998 0.47047,-1.2084 1.26665,-1.86316 0.79617,-0.65474 0.95902,-0.96771 0.36189,-0.69545 -0.59712,0.27226 -0.10861,-0.37857 1.0857,-1.44627 1.19426,-1.0677 1.68282,-1.73127 1.08569,-1.47457 -0.59713,0.25668 0.18001,-0.6526 1.72696,-2.02062 1.54696,-1.36803 3.93194,-3.75302 5.29996,-5.29998 1.36802,-1.54695 2.27605,-2.32408 2.01784,-1.72694 -0.25822,0.59712 0.2498,0.27141 1.12895,-0.72381 0.87914,-0.99522 1.89015,-1.72504 2.24667,-1.62182 0.35652,0.10322 0.83614,-0.30205 1.06583,-0.90059 0.22968,-0.59853 0.71147,-0.90663 1.07067,-0.68463 0.35918,0.22199 0.84774,-0.10368 1.08569,-0.7238 0.23794,-0.62008 0.7265,-0.94578 1.0857,-0.72379 0.35918,0.22199 0.84774,-0.10367 1.08568,-0.72379 0.23795,-0.62009 0.72421,-0.94721 1.08059,-0.72697 0.35637,0.22025 0.64795,0.0363 0.64795,-0.40876 0,-0.44509 0.32572,-0.60794 0.7238,-0.3619 0.39809,0.24603 0.72379,0.0831 0.72379,-0.36191 0,-0.44507 0.32571,-0.60792 0.7238,-0.36189 0.39808,0.24603 0.7238,0.0831 0.7238,-0.3619 0,-0.44507 0.32571,-0.60793 0.72379,-0.3619 0.39809,0.24604 0.7238,0.0831 0.7238,-0.36189 0,-0.44509 0.3257,-0.60794 0.7238,-0.3619 0.39808,0.24603 0.72379,0.0831 0.72379,-0.3619 0,-0.44508 0.32571,-0.60793 0.72379,-0.3619 0.39809,0.24603 0.7238,0.11263 0.7238,-0.29646 0,-0.40909 0.48857,-0.55632 1.08569,-0.32718 0.59713,0.22915 1.0857,0.0368 1.0857,-0.42734 0,-0.46417 0.30321,-0.65656 0.67378,-0.42752 0.37059,0.22904 0.88165,0.0801 1.13571,-0.33099 0.25405,-0.41107 0.74262,-0.57393 1.0857,-0.36189 0.34306,0.21203 0.83163,0.0491 1.08568,-0.36191 0.25406,-0.41106 0.74262,-0.57392 1.0857,-0.3619 0.34307,0.21203 0.81956,0.0687 1.05887,-0.31847 0.23929,-0.3872 0.91321,-0.52052 1.4976,-0.29627 0.58437,0.22425 1.06251,0.0253 1.06251,-0.44229 0,-0.50817 0.55764,-0.67301 1.38668,-0.40988 0.76267,0.24206 1.58738,0.11537 1.83266,-0.28152 0.2453,-0.39689 0.92827,-0.53656 1.51773,-0.31036 0.58945,0.22619 1.51486,0.0435 2.05647,-0.406 0.5416,-0.4495 1.51458,-0.61394 2.16216,-0.36543 0.64759,0.2485 1.74743,0.21502 2.44409,-0.0744 0.69665,-0.28944 5.6637,-0.46821 11.03788,-0.39728 12.28246,0.16211 13.90131,0.26907 15.01877,0.99231 0.4976,0.32205 1.24472,0.37544 1.66024,0.11863 0.41553,-0.25681 1.21554,-0.0852 1.77778,0.3815 0.56226,0.46662 1.33976,0.6522 1.72778,0.41239 0.38802,-0.23981 0.92379,-0.0828 1.19061,0.34893 0.26682,0.43172 0.94073,0.61011 1.4976,0.39642 0.55687,-0.21369 1.01249,-0.0383 1.01249,0.38999 0,0.4282 0.47813,0.59505 1.06251,0.3708 0.58438,-0.22425 1.25831,-0.0909 1.49761,0.29627 0.2393,0.38719 0.71579,0.53051 1.05886,0.31848 0.34307,-0.21204 0.83163,-0.0491 1.08569,0.3619 0.25406,0.41107 0.76512,0.56002 1.1357,0.33098 0.37059,-0.22904 0.67379,-0.0366 0.67379,0.42753 0,0.46418 0.48856,0.65648 1.0857,0.42733 0.59713,-0.22914 1.08569,-0.0819 1.08569,0.32718 0,0.40909 0.32571,0.5425 0.72379,0.29646 0.39809,-0.24603 0.7238,-0.0831 0.7238,0.36191 0,0.44507 0.30321,0.62183 0.67378,0.3928 0.37059,-0.22903 0.88165,-0.0801 1.13571,0.33099 0.25406,0.41107 0.76512,0.56002 1.1357,0.33098 0.37059,-0.22903 0.67379,-0.0523 0.67379,0.39281 0,0.44508 0.32571,0.60793 0.72379,0.3619 0.39809,-0.24603 0.72381,-0.0831 0.72381,0.36189 0,0.44509 0.3257,0.60794 0.72379,0.36191 0.39808,-0.24603 0.72379,-0.10244 0.72379,0.31917 0,0.42159 0.48856,0.76652 1.0857,0.76652 0.59713,0 1.08569,0.34493 1.08569,0.76652 0,0.42158 0.32571,0.56521 0.72379,0.31917 0.3981,-0.24603 0.72381,-0.0831 0.72381,0.36191 0,0.44507 0.328,0.60649 0.72889,0.35873 0.40091,-0.24776 0.9236,0.0568 1.16155,0.67693 0.23794,0.62007 0.69007,0.96829 1.00474,0.77382 0.31466,-0.19447 0.76679,0.15375 1.00473,0.77383 0.23795,0.62008 0.7443,0.93479 1.12522,0.69937 0.38093,-0.23542 1.04438,0.22925 1.47431,1.03262 0.42996,0.80335 1.01833,1.38246 1.30752,1.28691 0.28917,-0.0956 1.79514,1.12909 3.34657,2.72144 1.55144,1.59235 2.23175,2.16233 1.51182,1.26663 -2.1964,-2.73261 -0.84615,-1.82014 2.5646,1.7331 1.77476,1.8489 2.73828,3.12402 2.14115,2.83359 -0.59714,-0.29042 0.0543,0.54497 1.44758,1.85642 1.39332,1.31145 2.53329,2.62797 2.53329,2.92561 0,0.29764 0.65142,1.03339 1.4476,1.635 0.79617,0.6016 1.14105,1.10419 0.7664,1.11685 -0.37465,0.0127 -0.0489,0.53574 0.7238,1.16239 0.77273,0.62665 0.91642,0.92821 0.31928,0.67012 -0.72443,-0.31311 -0.66797,-0.12653 0.1697,0.56074 0.69047,0.5665 1.04333,1.24207 0.78412,1.50126 -0.25921,0.2592 -0.0913,0.47129 0.37314,0.47129 0.46443,0 0.84443,0.48856 0.84443,1.08568 0,0.59714 0.34493,1.0857 0.76652,1.0857 0.42157,0 0.5652,0.32572 0.31918,0.7238 -0.24604,0.39809 -0.0831,0.72379 0.36189,0.72379 0.44508,0 0.62185,0.30321 0.39281,0.67378 -0.22904,0.37059 -0.0801,0.88165 0.33099,1.13571 0.41107,0.25406 0.56002,0.76513 0.33098,1.13571 -0.22903,0.37058 -0.0523,0.67379 0.39281,0.67379 0.44508,0 0.60793,0.32571 0.36191,0.72379 -0.24604,0.39809 -0.0676,0.72379 0.39661,0.72379 0.46417,0 0.65648,0.48857 0.42733,1.0857 -0.22914,0.59713 -0.0663,1.08569 0.3619,1.08569 0.42819,0 0.59104,0.48856 0.36189,1.0857 -0.22914,0.59713 -0.0792,1.08569 0.33324,1.08569 0.42048,0 0.54804,0.63587 0.2904,1.4476 -0.2814,0.88664 -0.13006,1.44758 0.39057,1.44758 0.47964,0 0.65756,0.50153 0.40832,1.15101 -0.24291,0.63307 -0.19634,1.52877 0.10357,1.99045 0.29985,0.46168 0.62077,1.9794 0.71314,3.37271 0.0923,1.3933 0.36743,4.41707 0.61124,6.71949 0.29305,2.76737 0.1531,4.53585 -0.41292,5.21786 -0.5166,0.62247 -0.66446,1.90472 -0.37279,3.23272 0.32832,1.49483 0.20567,2.20103 -0.3823,2.20103 -0.50921,0 -0.70991,0.59581 -0.48735,1.44687 0.2081,0.79578 0.0975,1.62049 -0.24586,1.83267 -0.34333,0.21219 -0.44077,0.86394 -0.21652,1.44832 0.22426,0.58438 0.0123,1.06251 -0.47095,1.06251 -0.48367,0 -0.69137,0.48806 -0.46204,1.0857 0.22913,0.59712 0.0819,1.08568 -0.32719,1.08568 -0.40908,0 -0.55641,0.30321 -0.32737,0.67379 0.22904,0.37058 0.0801,0.88165 -0.33098,1.13571 -0.41108,0.25406 -0.56002,0.76511 -0.33099,1.13571 0.22903,0.37057 0.0523,0.67378 -0.39282,0.67378 -0.44507,0 -0.60792,0.3257 -0.36189,0.72379 0.24603,0.39808 0.0831,0.7238 -0.3619,0.7238 -0.44507,0 -0.60793,0.32571 -0.36189,0.72379 0.24603,0.39809 0.0831,0.7238 -0.3619,0.7238 -0.44508,0 -0.6203,0.30569 -0.38939,0.67931 0.2309,0.37362 -0.157,1.01513 -0.86203,1.42558 -0.70504,0.41046 -0.95616,0.76342 -0.55807,0.78438 0.39809,0.0209 -0.0904,0.71054 -1.08569,1.5324 -0.99522,0.82188 -1.32093,1.26707 -0.72381,0.98934 0.59714,-0.27773 -0.45002,0.84957 -2.327,2.50515 -1.87698,1.65556 -4.27146,4.05306 -5.32106,5.32777 -1.04961,1.27473 -1.6876,1.82912 -1.41778,1.23198 0.26982,-0.59713 -0.14521,-0.3667 -0.9223,0.51208 -0.77709,0.87877 -1.60851,1.40213 -1.8476,1.16304 -0.23909,-0.23909 -0.63936,0.0986 -0.88949,0.75042 -0.25012,0.65183 -0.71222,1.02602 -1.02688,0.83155 -0.31466,-0.19447 -0.7668,0.15375 -1.00474,0.77382 -0.23795,0.62009 -0.76064,0.92469 -1.16154,0.67693 -0.40089,-0.24776 -0.72891,-0.0864 -0.72891,0.35873 0,0.44509 -0.32571,0.60794 -0.7238,0.36191 -0.39808,-0.24604 -0.72379,-0.0831 -0.72379,0.3619 0,0.44507 -0.32571,0.60793 -0.72379,0.36189 -0.3981,-0.24603 -0.7238,-0.0831 -0.7238,0.3619 0,0.44507 -0.30321,0.62185 -0.67378,0.39281 -0.37058,-0.22904 -0.88165,-0.0801 -1.13571,0.33098 -0.25406,0.41108 -0.76513,0.56002 -1.13571,0.33099 -0.37058,-0.22903 -0.67378,-0.0523 -0.67378,0.39282 0,0.44507 -0.30321,0.62183 -0.67379,0.3928 -0.37058,-0.22903 -0.88164,-0.0801 -1.13571,0.33099 -0.25405,0.41107 -0.76511,0.56002 -1.13569,0.33098 -0.37058,-0.22902 -0.67379,-0.0366 -0.67379,0.42754 0,0.46417 -0.48856,0.65647 -1.0857,0.42732 -0.59713,-0.22914 -1.08569,-0.0792 -1.08569,0.33324 0,0.42048 -0.63587,0.54804 -1.44759,0.29041 -0.86707,-0.2752 -1.44759,-0.13007 -1.44759,0.3619 0,0.49196 -0.58052,0.63709 -1.4476,0.36189 -0.86707,-0.27519 -1.44758,-0.13006 -1.44758,0.3619 0,0.47993 -0.5764,0.63841 -1.38668,0.38123 -0.76268,-0.24207 -1.59692,-0.1 -1.85385,0.31578 -0.25694,0.41574 -1.24297,0.56118 -2.19117,0.3232 -0.94818,-0.23798 -2.14964,-0.16791 -2.66987,0.15571 -1.96551,1.22268 -24.91618,2.02901 -25.61401,0.8999 z m 73.88625,-132.37171 c -1.19426,-0.38427 -3.79993,-0.69105 -5.79037,-0.68175 -5.31144,0.0248 -8.85206,-0.32006 -9.45484,-0.92098 -0.29222,-0.29132 -1.29722,-0.33743 -2.23335,-0.10244 -1.08839,0.27317 -1.70203,0.10963 -1.70203,-0.45354 0,-0.57802 -0.62193,-0.72463 -1.8095,-0.42657 -1.09844,0.27569 -1.80949,0.14516 -1.80949,-0.33221 0,-0.44546 -0.60113,-0.59556 -1.38667,-0.34624 -0.76268,0.24206 -1.58738,0.11538 -1.83267,-0.28152 -0.2453,-0.39689 -0.92412,-0.53815 -1.50851,-0.3139 -0.58438,0.22426 -1.06251,0.0252 -1.06251,-0.44228 0,-0.52063 -0.56095,-0.67198 -1.44759,-0.39056 -0.81172,0.25762 -1.44759,0.13006 -1.44759,-0.29042 0,-0.41241 -0.48857,-0.56236 -1.08569,-0.33323 -0.59764,0.22933 -1.0857,0.0217 -1.0857,-0.46204 0,-0.48368 -0.48806,-0.69139 -1.08569,-0.46205 -0.59714,0.22914 -1.0857,0.1113 -1.0857,-0.26176 0,-0.37309 -0.48856,-0.49088 -1.08569,-0.26174 -0.59713,0.22915 -1.0857,0.0368 -1.0857,-0.42732 0,-0.46418 -0.30321,-0.65658 -0.67378,-0.42754 -0.37059,0.22904 -0.88164,0.0801 -1.1357,-0.33098 -0.25406,-0.41108 -0.76513,-0.56003 -1.13571,-0.33099 -0.37058,0.22903 -0.67379,0.0523 -0.67379,-0.39281 0,-0.44508 -0.3032,-0.62184 -0.67378,-0.39281 -0.37058,0.22903 -0.88165,0.0801 -1.13571,-0.33099 -0.25406,-0.41107 -0.76512,-0.56002 -1.13571,-0.33098 -0.37057,0.22903 -0.67377,0.0523 -0.67377,-0.39281 0,-0.44507 -0.32571,-0.60793 -0.72381,-0.3619 -0.39808,0.24603 -0.72379,0.0831 -0.72379,-0.36189 0,-0.44509 -0.32571,-0.60794 -0.72379,-0.3619 -0.39809,0.24602 -0.7238,0.0831 -0.7238,-0.36191 0,-0.44507 -0.3257,-0.60792 -0.7238,-0.36189 -0.39808,0.24603 -0.72379,0.0831 -0.72379,-0.3619 0,-0.44507 -0.32571,-0.60793 -0.72379,-0.3619 -0.3981,0.24604 -0.72381,0.0831 -0.72381,-0.36189 0,-0.44509 -0.32571,-0.60794 -0.72379,-0.3619 -0.39809,0.24603 -0.72379,0.0831 -0.72379,-0.3619 0,-0.44508 -0.29159,-0.62902 -0.64796,-0.40877 -0.35637,0.22025 -0.84263,-0.10693 -1.08058,-0.72696 -0.23795,-0.62008 -0.76064,-0.92469 -1.16154,-0.67692 -0.4009,0.24776 -0.72891,0.0864 -0.72891,-0.35874 0,-0.44508 -0.32801,-0.6065 -0.72891,-0.35874 -0.40089,0.24777 -0.92359,-0.0568 -1.16153,-0.67691 -0.23794,-0.62009 -0.69008,-0.96831 -1.00474,-0.77384 -0.31466,0.19447 -0.7668,-0.15375 -1.00473,-0.77383 -0.23795,-0.62008 -0.7443,-0.93479 -1.12522,-0.69936 -0.38093,0.23542 -1.04438,-0.22926 -1.47433,-1.03262 -0.42994,-0.80336 -1.02751,-1.38247 -1.32793,-1.28692 -0.30042,0.0956 -1.63602,-0.96623 -2.96797,-2.35954 -1.33197,-1.3933 -2.01368,-1.96329 -1.51494,-1.26664 1.6063,2.24368 0.39094,1.35494 -2.91966,-2.13499 -1.77476,-1.87091 -2.57542,-2.9684 -1.77924,-2.43889 0.79618,0.52952 0.30761,-0.12704 -1.08569,-1.45901 -1.3933,-1.33196 -2.45511,-2.66754 -2.35954,-2.96796 0.0956,-0.30042 -0.48356,-0.898 -1.28692,-1.32795 -0.80336,-0.42994 -1.29055,-1.05695 -1.08264,-1.39336 0.2079,-0.33639 -0.12933,-0.80631 -0.74941,-1.04426 -0.62007,-0.23795 -0.92468,-0.76064 -0.67692,-1.16154 0.24777,-0.40089 0.0864,-0.72891 -0.35874,-0.72891 -0.44507,0 -0.60792,-0.32571 -0.3619,-0.72379 0.24604,-0.39809 0.0831,-0.72379 -0.36189,-0.72379 -0.44507,0 -0.60794,-0.32571 -0.3619,-0.72381 0.24604,-0.39808 0.0831,-0.72379 -0.3619,-0.72379 -0.44508,0 -0.60793,-0.32571 -0.36189,-0.72379 0.24602,-0.39809 0.0831,-0.7238 -0.3619,-0.7238 -0.44508,0 -0.60793,-0.3257 -0.36191,-0.7238 0.24604,-0.39808 0.0832,-0.72379 -0.36189,-0.72379 -0.44507,0 -0.60793,-0.32571 -0.3619,-0.72379 0.24604,-0.39809 0.0676,-0.72381 -0.39662,-0.72381 -0.46417,0 -0.65647,-0.48856 -0.42732,-1.08569 0.22914,-0.59713 0.1113,-1.0857 -0.26175,-1.0857 -0.3731,0 -0.49089,-0.48856 -0.26174,-1.08568 0.22933,-0.59764 0.0217,-1.08569 -0.46206,-1.08569 -0.48327,0 -0.69519,-0.47814 -0.47095,-1.06252 0.22425,-0.58438 0.0741,-1.26875 -0.3338,-1.52081 -0.40784,-0.25205 -0.55541,-0.94329 -0.32794,-1.53608 0.22748,-0.5928 0.20142,-1.42109 -0.0579,-1.84066 -0.63817,-1.03256 -0.60269,-16.05655 0.0404,-17.09702 0.28151,-0.4555 0.30173,-1.16816 0.045,-1.58368 -0.25681,-0.41553 -0.0852,-1.21553 0.3815,-1.77779 0.46662,-0.56225 0.6522,-1.33976 0.41239,-1.72778 -0.2398,-0.38801 -0.11922,-0.90127 0.26798,-1.14057 0.38719,-0.2393 0.52051,-0.91323 0.29627,-1.49761 -0.22425,-0.58438 -0.0279,-1.06251 0.43623,-1.06251 0.46416,0 0.64264,-0.32571 0.39661,-0.7238 -0.24603,-0.39808 -0.0675,-0.72379 0.39662,-0.72379 0.46417,0 0.65647,-0.48856 0.42733,-1.08569 -0.22914,-0.59714 -0.0819,-1.0857 0.32717,-1.0857 0.40909,0 0.54251,-0.3257 0.29647,-0.72379 -0.24603,-0.3981 -0.0831,-0.7238 0.3619,-0.7238 0.44508,0 0.60793,-0.32571 0.3619,-0.7238 -0.24603,-0.39808 -0.0831,-0.72379 0.36189,-0.72379 0.44509,0 0.60794,-0.32572 0.36191,-0.7238 -0.24604,-0.39809 -0.0831,-0.72379 0.3619,-0.72379 0.44507,0 0.60792,-0.32571 0.36189,-0.7238 -0.24603,-0.39808 -0.0831,-0.7238 0.3619,-0.7238 0.44507,0 0.62903,-0.29158 0.40877,-0.64795 -0.22025,-0.35637 0.10693,-0.84264 0.72696,-1.08057 0.62007,-0.23796 0.94579,-0.72652 0.72379,-1.0857 -0.22199,-0.3592 0.10368,-0.84776 0.7238,-1.08569 0.62008,-0.23795 0.94578,-0.72652 0.7238,-1.0857 -0.222,-0.3592 0.0861,-0.84099 0.68462,-1.07067 0.59854,-0.22968 1.00381,-0.69396 0.9006,-1.03171 -0.10322,-0.33776 0.78946,-1.51309 1.98372,-2.61182 1.19426,-1.09873 1.68282,-1.76215 1.08569,-1.47426 -0.59713,0.28789 0.53061,-1.15152 2.50608,-3.1987 3.67608,-3.80949 4.87791,-4.70557 3.29333,-2.45548 -0.4906,0.69666 0.48434,-0.19904 2.16656,-1.99043 1.68222,-1.79141 2.83319,-2.76853 2.55773,-2.17139 -0.27546,0.59713 0.13495,0.3667 0.91204,-0.51208 0.77709,-0.87877 1.58978,-1.42086 1.80599,-1.20465 0.21621,0.21622 0.76155,-0.29532 1.21187,-1.13674 0.45031,-0.84142 1.12812,-1.33866 1.50623,-1.10497 0.37809,0.23369 0.68745,0.0607 0.68745,-0.38434 0,-0.44508 0.32801,-0.60651 0.72891,-0.35873 0.4009,0.24776 0.92359,-0.0568 1.16154,-0.67693 0.23794,-0.62008 0.7242,-0.94721 1.08058,-0.72696 0.35636,0.22026 0.64795,0.0364 0.64795,-0.40877 0,-0.44507 0.32802,-0.60651 0.7289,-0.35873 0.40091,0.24776 0.9236,-0.0568 1.16155,-0.67693 0.23794,-0.62008 0.72421,-0.94721 1.08057,-0.72696 0.35638,0.22026 0.64796,0.0364 0.64796,-0.40877 0,-0.44507 0.32571,-0.60793 0.72379,-0.3619 0.39809,0.24604 0.72381,0.0831 0.72381,-0.36189 0,-0.44509 0.3257,-0.60794 0.72379,-0.3619 0.39809,0.24603 0.72379,0.0831 0.72379,-0.36189 0,-0.44509 0.32571,-0.60794 0.7238,-0.36191 0.39809,0.24603 0.7238,0.11263 0.7238,-0.29646 0,-0.40909 0.48856,-0.55632 1.08569,-0.32718 0.59714,0.22915 1.0857,0.0368 1.0857,-0.42734 0,-0.46416 0.3257,-0.64264 0.72379,-0.39661 0.39809,0.24604 0.72379,0.0831 0.72379,-0.36189 0,-0.44509 0.30321,-0.62185 0.67379,-0.39282 0.37058,0.22903 0.88165,0.0801 1.1357,-0.33099 0.25406,-0.41106 0.76513,-0.56002 1.13571,-0.33098 0.37058,0.22904 0.67379,0.0817 0.67379,-0.32737 0,-0.40909 0.48856,-0.55632 1.08569,-0.32719 0.59712,0.22915 1.0857,0.0663 1.0857,-0.36189 0,-0.42819 0.48856,-0.59104 1.08569,-0.3619 0.59712,0.22914 1.08568,0.0663 1.08568,-0.36189 0,-0.42819 0.48858,-0.59105 1.08571,-0.36191 0.59763,0.22934 1.08568,0.0216 1.08568,-0.46205 0,-0.48327 0.47814,-0.69519 1.06252,-0.47095 0.58439,0.22425 1.24623,0.11052 1.47077,-0.25284 0.22455,-0.36332 0.85344,-0.48974 1.39755,-0.28095 0.54413,0.2088 1.20762,0.0265 1.47444,-0.40531 0.26682,-0.43172 0.80259,-0.58874 1.19061,-0.34893 0.38802,0.23981 1.16552,0.0542 1.72777,-0.41241 0.56225,-0.46662 1.37652,-0.62947 1.80949,-0.3619 0.43297,0.2676 1.22022,0.12716 1.74946,-0.31206 0.52924,-0.43923 1.47649,-0.60127 2.10501,-0.36008 0.62853,0.24119 1.56551,0.17306 2.08218,-0.1514 1.16691,-0.73278 2.24092,-0.7978 18.19891,-1.10179 7.10419,-0.13532 13.08565,0.0275 13.29216,0.3618 0.2065,0.33432 1.45273,0.40574 2.76941,0.15873 1.44719,-0.27149 2.59062,-0.13088 2.89124,0.35555 0.27353,0.44256 1.25609,0.61421 2.18348,0.38145 0.92739,-0.23276 1.8964,-0.083 2.15334,0.3327 0.25693,0.41573 1.09116,0.55784 1.85385,0.31577 0.81027,-0.25716 1.38668,-0.0987 1.38668,0.38123 0,0.47995 0.57639,0.63841 1.38667,0.38124 0.76268,-0.24207 1.58738,-0.11539 1.83267,0.2815 0.2453,0.39691 0.92412,0.53816 1.50851,0.31391 0.58437,-0.22426 1.06251,-0.0123 1.06251,0.47095 0,0.48327 0.47813,0.6952 1.06251,0.47094 0.58438,-0.22424 1.24624,-0.11052 1.47078,0.25285 0.22454,0.36332 0.88638,0.47711 1.47078,0.25286 0.58437,-0.22426 1.0625,-0.0575 1.0625,0.37079 0,0.42818 0.48856,0.59104 1.08569,0.3619 0.59714,-0.22915 1.0857,-0.0368 1.0857,0.42732 0,0.46418 0.30321,0.65657 0.67379,0.42753 0.37058,-0.22903 0.88163,-0.0801 1.13571,0.33099 0.25405,0.41107 0.76511,0.56002 1.13569,0.33098 0.37058,-0.22902 0.67379,-0.0523 0.67379,0.39281 0,0.44508 0.3032,0.62185 0.67378,0.39282 0.37058,-0.22904 0.88165,-0.0801 1.13571,0.33099 0.25406,0.41107 0.76513,0.56002 1.13571,0.33098 0.37058,-0.22904 0.67378,-0.0523 0.67378,0.39281 0,0.44507 0.3257,0.60793 0.7238,0.36189 0.39809,-0.24602 0.72379,-0.0831 0.72379,0.3619 0,0.44508 0.32571,0.60793 0.7238,0.3619 0.39808,-0.24603 0.72379,-0.0831 0.72379,0.36191 0,0.44507 0.32572,0.60792 0.7238,0.36189 0.39809,-0.24604 0.72379,-0.0831 0.72379,0.3619 0,0.44507 0.32571,0.60793 0.7238,0.36189 0.39809,-0.24603 0.7238,-0.0831 0.7238,0.3619 0,0.44508 0.32571,0.60793 0.72379,0.3619 0.39809,-0.24603 0.7238,-0.0831 0.7238,0.36189 0,0.44509 0.3257,0.60794 0.7238,0.36191 0.39808,-0.24604 0.72379,-0.0831 0.72379,0.3619 0,0.44507 0.32801,0.60649 0.72891,0.35873 0.40089,-0.24777 0.92359,0.0568 1.16153,0.67693 0.23795,0.62008 0.69008,0.9683 1.00474,0.77382 0.31467,-0.19447 0.7668,0.15375 1.00475,0.77383 0.23794,0.62008 0.7265,0.94579 1.08569,0.72381 0.35919,-0.22201 0.84775,0.10367 1.08568,0.72379 0.23795,0.62007 0.72652,0.94578 1.0857,0.72379 0.3592,-0.22199 0.84099,0.0861 1.07067,0.68464 0.22968,0.59853 0.69396,1.0038 1.03171,0.90059 0.33776,-0.10323 1.51309,0.78945 2.61183,1.98372 1.09872,1.19426 1.74617,1.68282 1.43876,1.0857 -0.30741,-0.59714 1.53799,1.0314 4.10091,3.61897 2.56291,2.58757 4.66097,4.96757 4.66237,5.28887 0.001,0.3213 0.8168,1.24526 1.81202,2.05325 0.99522,0.80798 1.32092,1.25312 0.72379,0.98919 -0.59713,-0.26391 -0.3667,0.15595 0.51207,0.93304 0.87876,0.77709 1.40214,1.60851 1.16305,1.8476 -0.23909,0.23909 0.0986,0.63936 0.75042,0.88949 0.65181,0.25012 1.00492,0.74636 0.78467,1.10272 -0.22025,0.35638 -0.0363,0.64796 0.40877,0.64796 0.44508,0 0.60793,0.32571 0.3619,0.7238 -0.24603,0.39808 -0.10244,0.72379 0.31917,0.72379 0.42159,0 0.76652,0.61154 0.76652,1.35897 0,0.74744 0.48498,1.76146 1.07772,2.2534 0.59276,0.49194 0.89925,1.18324 0.68108,1.53621 -0.21815,0.35299 -0.0325,0.64179 0.41259,0.64179 0.44507,0 0.62185,0.30321 0.39281,0.67378 -0.22904,0.37058 -0.0801,0.88165 0.33098,1.13571 0.41108,0.25406 0.56003,0.76513 0.33099,1.13571 -0.22903,0.37058 -0.0366,0.67378 0.42753,0.67378 0.46417,0 0.66048,0.47813 0.43622,1.06251 -0.22425,0.58438 -0.0909,1.25831 0.29628,1.49761 0.38719,0.2393 0.50777,0.75256 0.26797,1.14057 -0.2398,0.38802 -0.0542,1.16553 0.4124,1.72778 0.46664,0.56226 0.63831,1.36226 0.38149,1.77779 -0.25681,0.41552 -0.23474,1.13118 0.049,1.59035 0.67444,1.09125 0.67096,15.33955 -0.004,16.43167 -0.28598,0.46273 -0.31414,1.48983 -0.0626,2.28244 0.27362,0.86103 0.12712,1.44111 -0.36362,1.44111 -0.49196,0 -0.63709,0.58053 -0.36189,1.4476 0.28141,0.88664 0.13006,1.4476 -0.39057,1.4476 -0.4675,0 -0.66253,0.48856 -0.43338,1.08569 0.22914,0.59712 0.0663,1.08568 -0.36191,1.08568 -0.42818,0 -0.59103,0.48857 -0.36189,1.0857 0.22914,0.59713 0.0663,1.08569 -0.3619,1.08569 -0.42818,0 -0.59104,0.48857 -0.36189,1.0857 0.22913,0.59713 0.0819,1.08569 -0.32719,1.08569 -0.40908,0 -0.54249,0.32571 -0.29646,0.7238 0.24603,0.39809 0.0831,0.7238 -0.36189,0.7238 -0.44509,0 -0.60794,0.3257 -0.36191,0.72379 0.24604,0.3981 0.0831,0.72379 -0.3619,0.72379 -0.44507,0 -0.60792,0.32572 -0.36189,0.72381 0.24603,0.39808 0.0831,0.72379 -0.3619,0.72379 -0.44507,0 -0.60793,0.32571 -0.3619,0.72379 0.24604,0.3981 0.0831,0.7238 -0.36189,0.7238 -0.44508,0 -0.62031,0.30569 -0.38939,0.67931 0.2309,0.37362 -0.15701,1.01514 -0.86203,1.42559 -0.70504,0.41044 -0.95617,0.76116 -0.55807,0.77936 0.39809,0.0182 0.23523,0.34194 -0.3619,0.71941 -0.59713,0.37747 -1.0857,0.98718 -1.0857,1.35491 0,0.36772 -0.81426,1.38155 -1.80948,2.25293 -0.99522,0.87138 -1.32093,1.35895 -0.72381,1.08349 0.59714,-0.27547 -0.31923,0.75827 -2.03637,2.29719 -1.71714,1.53892 -4.26497,4.10087 -5.66186,5.69322 -1.39689,1.59235 -2.32853,2.40662 -2.07032,1.80949 0.25822,-0.59714 -0.24979,-0.27142 -1.12894,0.7238 -0.87915,0.99522 -1.89015,1.72503 -2.24668,1.62182 -0.35652,-0.10323 -0.83614,0.30206 -1.06583,0.90059 -0.22968,0.59854 -0.71147,0.90662 -1.07066,0.68463 -0.35918,-0.22199 -0.84775,0.10368 -1.08569,0.7238 -0.23795,0.62008 -0.72651,0.94579 -1.0857,0.72379 -0.35918,-0.22198 -0.84774,0.10367 -1.08569,0.7238 -0.23795,0.62009 -0.72421,0.94721 -1.08059,0.72696 -0.35637,-0.22025 -0.64795,-0.0363 -0.64795,0.40877 0,0.44508 -0.3257,0.60793 -0.72379,0.3619 -0.3981,-0.24604 -0.7238,-0.10244 -0.7238,0.31918 0,0.42158 -0.24428,0.72402 -0.54284,0.6721 -0.97057,-0.16879 -5.24753,1.84208 -5.24753,2.46719 0,0.33432 -0.3257,0.40654 -0.72379,0.1605 -0.39809,-0.24603 -0.7238,-0.0831 -0.7238,0.3619 0,0.44508 -0.32571,0.60793 -0.72379,0.3619 -0.39809,-0.24603 -0.7238,-0.0831 -0.7238,0.3619 0,0.44508 -0.30321,0.62184 -0.67378,0.39281 -0.37059,-0.22904 -0.88165,-0.0801 -1.1357,0.33099 -0.25407,0.41107 -0.76513,0.56002 -1.13571,0.33098 -0.37058,-0.22904 -0.67379,-0.0817 -0.67379,0.32738 0,0.40909 -0.48856,0.55631 -1.0857,0.32717 -0.59713,-0.22913 -1.08569,-0.0663 -1.08569,0.3619 0,0.42819 -0.48856,0.59105 -1.08569,0.36191 -0.59713,-0.22915 -1.0857,-0.0663 -1.0857,0.36189 0,0.42819 -0.48856,0.59104 -1.08568,0.3619 -0.59714,-0.22915 -1.08571,-0.0663 -1.08571,0.3619 0,0.42818 -0.4556,0.60368 -1.01247,0.38999 -0.55687,-0.21369 -1.21872,-0.0549 -1.47077,0.353 -0.25206,0.40784 -0.93643,0.55806 -1.52082,0.33381 -0.58437,-0.22426 -1.06251,-0.0252 -1.06251,0.44228 0,0.52063 -0.56094,0.67198 -1.44758,0.39056 -0.84125,-0.26701 -1.4476,-0.13006 -1.4476,0.32691 0,0.47737 -0.71103,0.6079 -1.80949,0.33221 -1.16165,-0.29156 -1.80948,-0.14946 -1.80948,0.39688 0,0.52038 -0.55992,0.67333 -1.44112,0.39365 -0.79261,-0.25157 -1.85117,-0.19209 -2.35234,0.13216 -0.9343,0.60452 -2.06895,0.75122 -9.59677,1.24085 -2.38853,0.15535 -6.62274,0.47102 -9.40935,0.70146 -2.78661,0.23045 -6.0437,0.10457 -7.23795,-0.27967 z M 351.90056,312.9975 c -0.1835,-0.70423 -0.34572,-0.30329 -0.36047,0.89097 -0.0148,1.19426 0.1354,1.77045 0.33366,1.28042 0.19827,-0.49003 0.21033,-1.46716 0.0268,-2.17139 z m 72.42086,-46.31228 c -1.09474,-0.16585 -2.88613,-0.16585 -3.98088,0 -1.09473,0.16583 -0.19903,0.30152 1.99044,0.30152 2.18949,0 3.08519,-0.13569 1.99044,-0.30152 z m -78.36315,-38.58639 c -0.31951,-0.51695 -1.42544,-0.66325 -2.90939,-0.38487 -1.44719,0.27151 -2.59062,0.13089 -2.89124,-0.35553 -0.27547,-0.44571 -1.26929,-0.61091 -2.22784,-0.37033 -1.02946,0.25838 -1.73053,0.11577 -1.73053,-0.35203 0,-0.45698 -0.60635,-0.59391 -1.44759,-0.3269 -0.88664,0.2814 -1.44759,0.13006 -1.44759,-0.39056 0,-0.46752 -0.47813,-0.66654 -1.06252,-0.44229 -0.58438,0.22424 -1.24622,0.11052 -1.47076,-0.25285 -0.22455,-0.36331 -0.8864,-0.47709 -1.47078,-0.25285 -0.58438,0.22425 -1.06251,0.0279 -1.06251,-0.43623 0,-0.46417 -0.30321,-0.65656 -0.67378,-0.42752 -0.37058,0.22904 -0.88165,0.0801 -1.13571,-0.33099 -0.25406,-0.41107 -0.76513,-0.56002 -1.13571,-0.33098 -0.37058,0.22903 -0.67378,0.0523 -0.67378,-0.39282 0,-0.44507 -0.32572,-0.60792 -0.7238,-0.3619 -0.39809,0.24604 -0.72379,0.17382 -0.72379,-0.1605 0,-0.62511 -4.27696,-2.63598 -5.24753,-2.46719 -0.29856,0.052 -0.54284,-0.28559 -0.54284,-0.75002 0,-0.46443 -0.21208,-0.63235 -0.47128,-0.37314 -0.2592,0.2592 -0.93477,-0.0937 -1.50127,-0.78411 -0.68727,-0.83768 -0.87385,-0.89414 -0.56074,-0.16971 0.25809,0.59714 -0.0574,0.43428 -0.70127,-0.3619 -0.6438,-0.79617 -1.4455,-1.44758 -1.78158,-1.44758 -0.33607,0 -1.32398,-0.81427 -2.19537,-1.80949 -0.87138,-0.99523 -1.35075,-1.32094 -1.06527,-0.7238 0.28549,0.59713 -1.31825,-0.69458 -3.56383,-2.87046 -4.16893,-4.03951 -4.77627,-4.80314 -3.17816,-3.99596 0.49762,0.25133 -0.0724,-0.41661 -1.26664,-1.48431 -1.19426,-1.06771 -1.68282,-1.71853 -1.0857,-1.44627 0.70454,0.32122 0.64496,0.13339 -0.16969,-0.53498 -0.69047,-0.5665 -1.05099,-1.23441 -0.80116,-1.48423 0.24984,-0.24984 -0.0791,-0.6589 -0.73088,-0.90903 -0.65183,-0.25012 -1.00493,-0.74636 -0.78467,-1.10272 0.22025,-0.35638 0.0363,-0.64796 -0.40878,-0.64796 -0.44507,0 -0.60793,-0.32571 -0.36189,-0.7238 0.24603,-0.39808 0.0831,-0.72379 -0.3619,-0.72379 -0.44508,0 -0.60793,-0.32572 -0.3619,-0.7238 0.24603,-0.39809 0.0831,-0.72379 -0.36189,-0.72379 -0.44509,0 -0.60794,-0.32571 -0.36191,-0.7238 0.24604,-0.39809 0.0831,-0.7238 -0.3619,-0.7238 -0.44507,0 -0.60792,-0.32571 -0.36189,-0.72379 0.24603,-0.39809 0.11262,-0.7238 -0.29646,-0.7238 -0.4091,0 -0.55632,-0.48856 -0.32719,-1.08569 0.22915,-0.59713 0.0663,-1.08569 -0.36189,-1.08569 -0.42819,0 -0.59104,-0.48857 -0.3619,-1.0857 0.22914,-0.59713 0.0663,-1.08569 -0.36191,-1.08569 -0.42817,0 -0.59103,-0.48856 -0.36189,-1.0857 0.22915,-0.59713 0.0341,-1.08569 -0.43338,-1.08569 -0.50819,0 -0.67302,-0.55765 -0.4099,-1.38668 0.24207,-0.76267 0.1,-1.59691 -0.31578,-1.85385 -0.41574,-0.25694 -0.56545,-1.22594 -0.33269,-2.15333 0.23276,-0.9274 0.15253,-1.85345 -0.17829,-2.05789 -0.76158,-0.47063 -0.7181,-13.62612 0.0491,-14.86753 0.31424,-0.50845 0.37664,-1.70026 0.13865,-2.64846 -0.23798,-0.94819 -0.0926,-1.93421 0.3232,-2.19116 0.41574,-0.25694 0.55785,-1.09117 0.31578,-1.85385 -0.25719,-0.81027 -0.0987,-1.38668 0.38121,-1.38668 0.49196,0 0.63709,-0.58052 0.3619,-1.44759 -0.28142,-0.88664 -0.13007,-1.44759 0.39056,-1.44759 0.46751,0 0.66654,-0.47814 0.44228,-1.06252 -0.22425,-0.58438 -0.0909,-1.25831 0.29628,-1.4976 0.38719,-0.23931 0.5305,-0.71579 0.31847,-1.05886 -0.21202,-0.34307 -0.0491,-0.83163 0.3619,-1.08569 0.41107,-0.25406 0.56002,-0.76513 0.33098,-1.13571 -0.22902,-0.37058 -0.0366,-0.67379 0.42754,-0.67379 0.46417,0 0.65647,-0.48856 0.42732,-1.08568 -0.22914,-0.59714 -0.0819,-1.0857 0.32718,-1.0857 0.40909,0 0.5425,-0.32572 0.29647,-0.7238 -0.24603,-0.39809 -0.0831,-0.72379 0.3619,-0.72379 0.44507,0 0.62184,-0.30321 0.39281,-0.67378 -0.22904,-0.3706 -0.0801,-0.88165 0.33098,-1.13571 0.41108,-0.25406 0.56002,-0.76513 0.33099,-1.13571 -0.22903,-0.37058 -0.0523,-0.67379 0.3928,-0.67379 0.44509,0 0.60794,-0.32571 0.36191,-0.72379 -0.24603,-0.39809 -0.0831,-0.7238 0.3619,-0.7238 0.44507,0 0.60793,-0.3257 0.36189,-0.72379 -0.24603,-0.39809 -0.0831,-0.7238 0.3619,-0.7238 0.44507,0 0.62903,-0.29158 0.40877,-0.64795 -0.22025,-0.35638 0.10682,-0.84264 0.72696,-1.08059 0.62007,-0.23794 0.92469,-0.76063 0.67693,-1.16153 -0.24778,-0.4009 -0.0864,-0.72891 0.35873,-0.72891 0.44507,0 0.62902,-0.29158 0.40877,-0.64796 -0.22025,-0.35636 0.10682,-0.84264 0.72696,-1.08057 0.62007,-0.23795 0.92468,-0.76064 0.67693,-1.16154 -0.24778,-0.4009 -0.0864,-0.72891 0.35873,-0.72891 0.44507,0 0.60651,-0.32801 0.35873,-0.72891 -0.24776,-0.40089 0.0568,-0.92359 0.67693,-1.16153 0.62008,-0.23794 0.9573,-0.70786 0.74939,-1.04427 -0.20791,-0.33639 0.29165,-0.97003 1.11013,-1.40807 0.81848,-0.43802 1.30704,-1.08944 1.08569,-1.44758 -0.22134,-0.35815 0.25486,-1.00295 1.05822,-1.43289 0.80337,-0.42995 1.38248,-1.02752 1.28691,-1.32794 -0.0956,-0.30042 0.96624,-1.62124 2.35954,-2.93516 1.39332,-1.31393 2.04473,-2.1538 1.4476,-1.86639 -0.59714,0.2874 1.34897,-1.96484 4.32466,-5.00499 5.46617,-5.58456 6.2665,-6.26505 5.43685,-4.62279 -0.25138,0.49761 0.73906,-0.39809 2.20099,-1.99044 1.46193,-1.59235 2.43784,-2.40662 2.16869,-1.80949 -0.26915,0.59714 0.22994,0.27143 1.10909,-0.72379 0.87914,-0.99522 1.87136,-1.73131 2.20491,-1.63574 0.33357,0.0956 0.95826,-0.48356 1.38821,-1.286922 0.42995,-0.803367 1.09338,-1.26804 1.47431,-1.032618 0.38093,0.235434 0.88728,-0.07933 1.12523,-0.699355 0.23794,-0.620084 0.7265,-0.945795 1.08569,-0.723804 0.35918,0.221992 0.84774,-0.103674 1.08569,-0.723792 0.23794,-0.620085 0.72651,-0.945796 1.0857,-0.723793 0.35918,0.22198 0.84774,-0.103675 1.08569,-0.723804 0.23794,-0.620073 0.7242,-0.947209 1.08058,-0.726957 0.35638,0.220253 0.64796,0.03635 0.64796,-0.408763 0,-0.445083 0.32801,-0.606508 0.7289,-0.358743 0.4009,0.247764 0.9236,-0.05677 1.16154,-0.676915 0.23794,-0.620084 0.72421,-0.947209 1.08057,-0.726968 0.35638,0.220253 0.64796,0.03635 0.64796,-0.408763 0,-0.445083 0.32571,-0.607933 0.7238,-0.361896 0.39809,0.246025 0.7238,0.08314 0.7238,-0.361908 0,-0.445072 0.32571,-0.607922 0.72379,-0.361896 0.39809,0.246036 0.72379,0.12828 0.72379,-0.261667 0,-0.389958 0.97714,-0.923624 2.17139,-1.185919 1.19427,-0.262305 2.17139,-0.795972 2.17139,-1.185919 0,-0.389958 0.32571,-0.507714 0.72379,-0.261677 0.3981,0.246036 0.72381,0.08314 0.72381,-0.361896 0,-0.445072 0.3257,-0.607933 0.72379,-0.361897 0.39809,0.246026 0.72379,0.08314 0.72379,-0.361896 0,-0.445083 0.32571,-0.607933 0.72381,-0.361896 0.39808,0.246025 0.72379,0.08314 0.72379,-0.361908 0,-0.445072 0.3032,-0.621835 0.67378,-0.392808 0.37058,0.229038 0.88165,0.08011 1.13571,-0.330985 0.25406,-0.411074 0.76512,-0.560022 1.13571,-0.330984 0.37057,0.229026 0.67377,0.05229 0.67377,-0.392808 0,-0.445083 0.30322,-0.621846 0.67379,-0.392808 0.37058,0.229038 0.88165,0.08011 1.13571,-0.330985 0.25406,-0.411074 0.74262,-0.573936 1.08569,-0.361908 0.34308,0.212029 0.83164,0.04914 1.0857,-0.361896 0.25405,-0.411074 0.76512,-0.560023 1.1357,-0.330985 0.37057,0.229038 0.67379,0.03658 0.67379,-0.427534 0,-0.464169 0.47812,-0.660477 1.06251,-0.436219 0.58438,0.224247 1.24622,0.110407 1.47077,-0.252847 0.22454,-0.363322 0.88639,-0.477106 1.47077,-0.252859 0.58438,0.224258 1.06252,0.05745 1.06252,-0.370794 0,-0.428174 0.45561,-0.60368 1.01248,-0.38998 0.55687,0.213677 1.23079,0.03534 1.4976,-0.396432 0.26682,-0.43172 0.80259,-0.588735 1.19061,-0.348926 0.38802,0.239809 1.16552,0.05419 1.72778,-0.412398 0.56225,-0.466637 1.37651,-0.629487 1.80949,-0.361897 0.43296,0.26758 1.22022,0.127148 1.74945,-0.312078 0.52924,-0.439226 1.47649,-0.601257 2.10501,-0.360068 0.62854,0.24119 1.56552,0.165375 2.08219,-0.168471 1.26,-0.814127 4.4753,-1.057583 13.96774,-1.057583 9.43159,0 12.70866,0.243714 13.93306,1.036175 0.49762,0.322053 1.24473,0.375439 1.66024,0.118631 0.41553,-0.256808 1.21554,-0.08516 1.77779,0.381487 0.56225,0.466637 1.33976,0.652219 1.72778,0.412409 0.38801,-0.239809 0.92379,-0.08281 1.1906,0.348926 0.26682,0.43172 0.94074,0.61011 1.49761,0.396421 0.55687,-0.213689 1.01249,-0.03826 1.01249,0.389992 0,0.428196 0.48856,0.591046 1.08569,0.361896 0.59712,-0.229139 1.08569,-0.06631 1.08569,0.361896 0,0.428197 0.48857,0.591047 1.0857,0.361908 0.59712,-0.22915 1.08568,-0.06631 1.08568,0.361896 0,0.428186 0.48857,0.591036 1.0857,0.361897 0.59713,-0.229139 1.08569,-0.08191 1.08569,0.327169 0,0.4091 0.32572,0.542508 0.72381,0.296472 0.39808,-0.246037 0.72379,-0.08314 0.72379,0.361896 0,0.445083 0.32571,0.607933 0.72379,0.361896 0.3981,-0.246025 0.7238,-0.08314 0.7238,0.361908 0,0.445072 0.32571,0.607922 0.7238,0.361896 0.39808,-0.246036 0.72379,-0.08314 0.72379,0.361897 0,0.445071 0.32571,0.607933 0.7238,0.361896 0.39809,-0.246037 0.7238,-0.08314 0.7238,0.361896 0,0.445083 0.3257,0.607933 0.72379,0.361897 0.39808,-0.246026 0.72379,-0.08314 0.72379,0.361896 0,0.445083 0.32802,0.606508 0.72891,0.358743 0.4009,-0.247764 0.92359,0.05678 1.16154,0.676915 0.23795,0.620084 0.70787,0.957308 1.04426,0.749408 0.33641,-0.20791 0.96342,0.279282 1.39336,1.082649 0.42995,0.803355 1.01628,1.401863 1.30297,1.329997 0.70856,-0.177627 10.60528,9.771953 10.42362,10.4793 -0.0796,0.30964 0.34515,0.75091 0.94368,0.98059 0.59853,0.22967 0.90662,0.71147 0.68463,1.07066 -0.22199,0.35919 0.10368,0.84775 0.72379,1.0857 0.62009,0.23794 0.94721,0.72421 0.72696,1.08057 -0.22025,0.35638 -0.0363,0.64796 0.40878,0.64796 0.44507,0 0.6065,0.32801 0.35873,0.72891 -0.24777,0.4009 0.0568,0.92359 0.67692,1.16154 0.62009,0.23794 0.94721,0.7242 0.72696,1.08058 -0.22025,0.35636 -0.0658,0.64796 0.34334,0.64796 0.40909,0 0.55632,0.48856 0.32718,1.08568 -0.22915,0.59713 -0.0368,1.08569 0.42733,1.08569 0.46417,0 0.64265,0.32571 0.39661,0.72381 -0.24602,0.39808 -0.11261,0.72379 0.29648,0.72379 0.40908,0 0.55632,0.48856 0.32717,1.0857 -0.22914,0.59713 -0.0663,1.08569 0.3619,1.08569 0.42818,0 0.59104,0.48856 0.3619,1.08569 -0.22915,0.59714 -0.0368,1.0857 0.42732,1.0857 0.46418,0 0.63384,0.33997 0.37703,0.7555 -0.25681,0.41553 -0.0852,1.21553 0.38149,1.77778 0.46664,0.56226 0.63831,1.36226 0.3815,1.77779 -0.25682,0.41553 -0.21111,1.16264 0.10154,1.66024 1.4334,2.28121 1.44688,19.14282 0.0171,21.35198 -0.32206,0.49761 -0.37544,1.24472 -0.11864,1.66025 0.25681,0.41553 0.10761,1.18851 -0.33167,1.71775 -0.43922,0.52924 -0.59527,1.49209 -0.34677,2.13968 0.26434,0.68891 0.0873,1.17743 -0.42686,1.17743 -0.48327,0 -0.6952,0.47814 -0.47094,1.06252 0.22424,0.58438 0.0909,1.25831 -0.29627,1.4976 -0.3872,0.2393 -0.53052,0.7158 -0.31848,1.05886 0.21203,0.34307 0.0491,0.83163 -0.3619,1.08569 -0.41107,0.25406 -0.57393,0.74262 -0.3619,1.0857 0.21203,0.34307 0.0491,0.83163 -0.3619,1.08569 -0.41107,0.25406 -0.56002,0.76513 -0.33098,1.13571 0.22902,0.37058 0.0523,0.67379 -0.39281,0.67379 -0.44508,0 -0.62185,0.3032 -0.39282,0.67378 0.22904,0.37058 0.0801,0.88165 -0.33098,1.13571 -0.41107,0.25406 -0.56003,0.76512 -0.33099,1.13571 0.22904,0.37057 0.0523,0.67377 -0.39281,0.67377 -0.44507,0 -0.60793,0.32571 -0.36189,0.7238 0.24603,0.39809 0.0831,0.7238 -0.3619,0.7238 -0.44508,0 -0.60793,0.32571 -0.3619,0.72379 0.24603,0.39809 0.0831,0.72379 -0.36189,0.72379 -0.44508,0 -0.60793,0.32571 -0.36191,0.72381 0.24604,0.39808 0.0831,0.72379 -0.3619,0.72379 -0.44507,0 -0.60792,0.32571 -0.36189,0.72379 0.24603,0.39809 0.0831,0.72381 -0.3619,0.72381 -0.44507,0 -0.60793,0.3257 -0.36189,0.72379 0.24603,0.39808 0.0831,0.72379 -0.3619,0.72379 -0.44508,0 -0.62903,0.29158 -0.40878,0.64796 0.22026,0.35637 -0.10681,0.84263 -0.72695,1.08058 -0.62008,0.23795 -0.92469,0.76063 -0.67693,1.16154 0.24778,0.4009 0.0864,0.72891 -0.35873,0.72891 -0.44508,0 -0.6203,0.30568 -0.38939,0.6793 0.2309,0.37362 -0.157,1.01514 -0.86203,1.42558 -0.70504,0.41045 -0.95615,0.76343 -0.55807,0.78439 0.39809,0.021 -0.0904,0.71054 -1.08569,1.53239 -0.99522,0.82188 -1.32093,1.27904 -0.72381,1.01594 0.59714,-0.26311 0.43428,0.0484 -0.36189,0.69214 -0.79618,0.64379 -1.44759,1.4455 -1.44759,1.78157 0,0.33607 -0.81427,1.32399 -1.80949,2.19538 -0.99522,0.87137 -1.32093,1.3698 -0.72379,1.10762 0.59712,-0.2622 -0.38,0.84325 -2.17139,2.45654 -1.7914,1.61329 -2.94499,2.94298 -2.56354,2.95485 0.38146,0.0119 -0.73105,1.47316 -2.47223,3.2473 -1.74119,1.77413 -3.40914,3.07529 -3.70657,2.89147 -0.29743,-0.18382 -1.73971,1.0517 -3.20507,2.74562 -1.46535,1.69391 -2.44606,2.59128 -2.17935,1.99415 0.26671,-0.59714 -0.22803,-0.27143 -1.0994,0.72379 -0.8714,0.99522 -1.88521,1.8095 -2.25294,1.8095 -0.36773,0 -0.97055,0.48856 -1.3396,1.08569 -0.36904,0.59712 -0.99456,1.0857 -1.39004,1.0857 -0.39547,0 -1.24577,0.65141 -1.88956,1.44758 -0.64378,0.79618 -0.95936,0.95904 -0.70127,0.3619 0.25807,-0.59713 -0.0664,-0.43428 -0.72121,0.36189 -0.65475,0.79618 -1.49318,1.36618 -1.86316,1.26665 -0.37,-0.0995 -0.67272,0.16399 -0.67272,0.58556 0,0.42159 -0.328,0.56379 -0.7289,0.31602 -0.40091,-0.24775 -0.92359,0.0568 -1.16155,0.67692 -0.23793,0.62009 -0.72421,0.94721 -1.08057,0.72696 -0.35638,-0.22025 -0.64796,-0.0362 -0.64796,0.40878 0,0.44507 -0.32801,0.6065 -0.72891,0.35873 -0.40089,-0.24777 -0.92359,0.0568 -1.16153,0.67692 -0.23794,0.62009 -0.72421,0.94721 -1.08058,0.72696 -0.35637,-0.22025 -0.64795,-0.0363 -0.64795,0.40878 0,0.44507 -0.32571,0.60793 -0.7238,0.36189 -0.39809,-0.24604 -0.7238,-0.0831 -0.7238,0.3619 0,0.44508 -0.32571,0.60793 -0.72379,0.36189 -0.39809,-0.24602 -0.7238,-0.0831 -0.7238,0.3619 0,0.44508 -0.3257,0.60793 -0.7238,0.36191 -0.39808,-0.24604 -0.72379,-0.0831 -0.72379,0.36189 0,0.44508 -0.32571,0.60794 -0.72379,0.3619 -0.39809,-0.24604 -0.72381,-0.0831 -0.72381,0.3619 0,0.44507 -0.3257,0.60793 -0.72379,0.36189 -0.39809,-0.24603 -0.72379,-0.0831 -0.72379,0.3619 0,0.44508 -0.32571,0.60793 -0.7238,0.3619 -0.39809,-0.24603 -0.7238,-0.0831 -0.7238,0.3619 0,0.44508 -0.32571,0.60793 -0.72379,0.3619 -0.39809,-0.24604 -0.7238,-0.0676 -0.7238,0.39661 0,0.46417 -0.48857,0.65648 -1.08569,0.42733 -0.59713,-0.22913 -1.08569,-0.0819 -1.08569,0.32719 0,0.40908 -0.32571,0.54249 -0.72381,0.29646 -0.39808,-0.24603 -0.72379,-0.11262 -0.72379,0.29647 0,0.40909 -0.48856,0.55632 -1.08569,0.32718 -0.59714,-0.22915 -1.0857,-0.0663 -1.0857,0.36189 0,0.42819 -0.48856,0.59104 -1.08569,0.3619 -0.59714,-0.22915 -1.0857,-0.0368 -1.0857,0.42733 0,0.46417 -0.3032,0.65656 -0.67377,0.42753 -0.37059,-0.22904 -0.86958,-0.0996 -1.10888,0.28756 -0.23929,0.38721 -0.91322,0.52053 -1.49761,0.29628 -0.58438,-0.22426 -1.0625,-0.0574 -1.0625,0.37079 0,0.42818 -0.48858,0.59104 -1.0857,0.3619 -0.59764,-0.22934 -1.08569,-0.0217 -1.08569,0.46205 0,0.48326 -0.47814,0.69519 -1.06252,0.47094 -0.58438,-0.22424 -1.26321,-0.083 -1.5085,0.3139 -0.2453,0.3969 -1.06999,0.52358 -1.83268,0.28151 -0.81027,-0.25716 -1.38668,-0.0987 -1.38668,0.38123 0,0.47995 -0.57639,0.63841 -1.38667,0.38124 -0.76268,-0.24207 -1.60436,-0.088 -1.87041,0.34257 -0.26604,0.43047 -1.10482,0.58555 -1.86392,0.34461 -0.75911,-0.24093 -1.79025,-0.17275 -2.29142,0.15151 -1.02233,0.66145 -2.67038,0.82753 -13.68797,1.3794 -5.41256,0.27111 -7.86377,0.13768 -8.22559,-0.44776 z m 87.59156,-34.72238 c 1.55488,-1.59235 2.66421,-2.89518 2.46516,-2.89518 -0.19903,0 -1.63407,1.30283 -3.18897,2.89518 -1.55488,1.59236 -2.66421,2.89519 -2.46517,2.89519 0.19904,0 1.63408,-1.30283 3.18898,-2.89519 z m -14.83782,-14.83781 c 1.35044,-1.39331 2.2925,-2.53328 2.09345,-2.53328 -0.19904,0 -1.4668,1.13997 -2.81726,2.53328 -1.35044,1.3933 -2.2925,2.53329 -2.09345,2.53329 0.19905,0 1.46681,-1.13999 2.81726,-2.53329 z M 432.46413,110.614 c 0,-0.13735 -0.73284,-0.87019 -1.62854,-1.62854 l -1.62854,-1.37882 1.37882,1.62854 c 1.29576,1.53042 1.87826,1.95804 1.87826,1.37882 z m -214.01186,23.92459 c -0.19445,-0.31476 -0.95014,-0.38294 -1.67932,-0.1515 -0.72917,0.23142 -1.52647,0.096 -1.77176,-0.30085 -0.2453,-0.39689 -0.92412,-0.53815 -1.5085,-0.31391 -0.58438,0.22426 -1.06252,0.0123 -1.06252,-0.47094 0,-0.48367 -0.48806,-0.69138 -1.08569,-0.46205 -0.59713,0.22914 -1.0857,0.0663 -1.0857,-0.3619 0,-0.42818 -0.48856,-0.59104 -1.08569,-0.36189 -0.59713,0.22914 -1.08569,0.0819 -1.08569,-0.32718 0,-0.40909 -0.32571,-0.5425 -0.7238,-0.29646 -0.39808,0.24602 -0.7238,0.0831 -0.7238,-0.3619 0,-0.44508 -0.32571,-0.60793 -0.72379,-0.36191 -0.39809,0.24604 -0.7238,0.0831 -0.7238,-0.3619 0,-0.44507 -0.3257,-0.60793 -0.72379,-0.36189 -0.39809,0.24604 -0.7238,0.0831 -0.7238,-0.3619 0,-0.44507 -0.32571,-0.60793 -0.72379,-0.36189 -0.39809,0.24603 -0.7238,0.0831 -0.7238,-0.3619 0,-0.44508 -0.29158,-0.62903 -0.64796,-0.40877 -0.35636,0.22025 -0.84264,-0.10682 -1.08057,-0.72696 -0.23795,-0.62007 -0.74429,-0.93479 -1.12522,-0.69937 -0.38093,0.23542 -1.04438,-0.22925 -1.47432,-1.03262 -0.42995,-0.80335 -1.01628,-1.38801 -1.30296,-1.29922 -0.68054,0.21078 -8.5077,-7.61639 -8.29693,-8.29693 0.0888,-0.28668 -0.49587,-0.87301 -1.29922,-1.30297 -0.80337,-0.42993 -1.26804,-1.09338 -1.03263,-1.47431 0.23543,-0.38093 -0.0793,-0.88727 -0.69936,-1.12522 -0.62008,-0.23793 -0.94579,-0.72651 -0.72379,-1.08569 0.22198,-0.35919 -0.10367,-0.84775 -0.7238,-1.0857 -0.62008,-0.23793 -0.94721,-0.7242 -0.72696,-1.08057 0.22025,-0.35638 0.0555,-0.64795 -0.36605,-0.64795 -0.42159,0 -0.6938,-0.24429 -0.60492,-0.54286 0.25118,-0.84382 -1.89078,-5.24752 -2.55239,-5.24752 -0.32441,0 -0.38852,-0.3257 -0.14249,-0.72379 0.24603,-0.39809 0.0831,-0.72379 -0.3619,-0.72379 -0.44507,0 -0.60793,-0.32572 -0.3619,-0.72381 0.24604,-0.39808 0.0675,-0.72379 -0.39662,-0.72379 -0.46417,0 -0.65647,-0.488563 -0.42732,-1.08569 0.22914,-0.59714 0.1113,-1.085701 -0.26176,-1.085701 -0.37309,0 -0.49088,-0.488561 -0.26174,-1.085689 0.22915,-0.597127 0.0663,-1.0857 -0.3619,-1.0857 -0.42818,0 -0.60368,-0.455607 -0.38999,-1.012477 0.21369,-0.55687 0.0353,-1.230789 -0.39642,-1.497605 -0.43172,-0.266816 -0.58874,-0.802592 -0.34893,-1.190609 0.23981,-0.388017 0.0766,-1.138503 -0.36258,-1.667737 -0.43922,-0.529234 -0.60125,-1.4765 -0.36006,-2.105022 0.24119,-0.628533 0.20375,-1.522615 -0.0832,-1.986873 -0.69895,-1.130929 -0.75014,-16.779158 -0.0586,-17.898171 0.29998,-0.485375 0.33958,-1.530996 0.0881,-2.323614 -0.2733,-0.861027 -0.1268,-1.441111 0.36394,-1.441111 0.47993,0 0.6384,-0.576402 0.38123,-1.386678 -0.24206,-0.762677 -0.11538,-1.587377 0.28152,-1.832672 0.39689,-0.245294 0.53814,-0.924121 0.31389,-1.508507 -0.22425,-0.584378 -0.0123,-1.06251 0.47095,-1.06251 0.48368,0 0.69139,-0.488063 0.46204,-1.085694 -0.22913,-0.597132 -0.1113,-1.085694 0.26175,-1.085694 0.37311,0 0.49089,-0.488562 0.26176,-1.085694 -0.22915,-0.597132 -0.0368,-1.085694 0.42732,-1.085694 0.46417,0 0.64266,-0.325708 0.39662,-0.723795 -0.24604,-0.398088 -0.0676,-0.723796 0.39662,-0.723796 0.46417,0 0.65647,-0.488562 0.42732,-1.085695 -0.22913,-0.597131 -0.0819,-1.085693 0.32719,-1.085693 0.40908,0 0.54249,-0.325708 0.29647,-0.723796 -0.24604,-0.398087 -0.0831,-0.723796 0.36189,-0.723796 0.44507,0 0.60792,-0.325708 0.3619,-0.723796 -0.24604,-0.398087 -0.0831,-0.723796 0.3619,-0.723796 0.44507,0 0.60793,-0.325708 0.36189,-0.723795 -0.24603,-0.398088 -0.0831,-0.723796 0.3619,-0.723796 0.44508,0 0.62903,-0.291582 0.40877,-0.647957 -0.22025,-0.356368 0.10682,-0.842636 0.72696,-1.080577 0.62007,-0.237948 0.92469,-0.760637 0.67693,-1.161541 -0.24778,-0.400895 -0.0864,-0.728905 0.35873,-0.728905 0.44508,0 0.62902,-0.291581 0.40877,-0.647957 -0.22025,-0.356368 0.0892,-0.83587 0.68779,-1.065551 0.59854,-0.22968 1.0038,-0.729381 0.9006,-1.110448 -0.10323,-0.381068 0.46374,-1.228555 1.25992,-1.883305 0.79618,-0.654751 0.95903,-0.975185 0.3619,-0.712075 -0.59714,0.263111 -0.27142,-0.182693 0.7238,-0.990673 0.99522,-0.80798 1.8275,-1.731942 1.84952,-2.053248 0.022,-0.321306 2.61162,-3.189857 5.75466,-6.374559 3.14304,-3.184703 5.46159,-5.301805 5.15233,-4.704674 -0.30925,0.597132 0.15703,0.271424 1.03616,-0.723796 0.87915,-0.995219 1.87136,-1.731304 2.20493,-1.635743 0.33357,0.09556 0.95825,-0.483553 1.38821,-1.286916 0.42993,-0.803363 1.09338,-1.26804 1.47431,-1.032614 0.38093,0.235425 0.88727,-0.07929 1.12522,-0.699366 0.23793,-0.620078 0.69007,-0.968301 1.00473,-0.773829 0.31467,0.19447 0.7668,-0.153752 1.00474,-0.77383 0.23794,-0.620076 0.76064,-0.924692 1.16155,-0.676922 0.40088,0.247769 0.72889,0.08634 0.72889,-0.358739 0,-0.445075 0.32572,-0.60793 0.72381,-0.361897 0.39808,0.246032 0.72379,0.102395 0.72379,-0.319183 0,-0.421581 0.48856,-0.766511 1.08569,-0.766511 0.59714,0 1.0857,-0.344931 1.0857,-0.766512 0,-0.421581 0.32571,-0.565215 0.72379,-0.319183 0.3981,0.246033 0.7238,0.08318 0.7238,-0.361897 0,-0.445076 0.32571,-0.607931 0.7238,-0.361899 0.39808,0.246032 0.72379,0.08318 0.72379,-0.361897 0,-0.445076 0.32571,-0.60793 0.72379,-0.361899 0.3981,0.246032 0.72381,0.08318 0.72381,-0.361897 0,-0.445076 0.3257,-0.60793 0.72379,-0.361898 0.39808,0.246033 0.72379,0.08318 0.72379,-0.361898 0,-0.4450762 0.32572,-0.6079296 0.7238,-0.3618975 0.39809,0.2460325 0.7238,0.1126215 0.7238,-0.2964658 0,-0.4090885 0.48856,-0.5563177 1.08569,-0.3271754 0.59713,0.2291401 1.0857,0.036836 1.0857,-0.4273314 0,-0.4641718 0.3257,-0.6426515 0.72379,-0.3966195 0.39808,0.2460321 0.7238,0.083175 0.7238,-0.3618986 0,-0.445075 0.3032,-0.621838 0.67378,-0.3928068 0.37058,0.2290312 0.88165,0.08009 1.13571,-0.3309881 0.25406,-0.4110756 0.76513,-0.5600203 1.13571,-0.3309891 0.37057,0.2290323 0.67378,0.036645 0.67378,-0.4275289 0,-0.464173 0.48856,-0.6564715 1.08569,-0.4273303 0.59713,0.2291412 1.08569,0.1113605 1.08569,-0.2617437 0,-0.3731008 0.48857,-0.4908849 1.0857,-0.2617437 0.59763,0.229333 1.08569,0.021632 1.08569,-0.4620523 0,-0.4836759 0.48807,-0.6913854 1.0857,-0.4620524 0.59713,0.2291412 1.08569,0.066289 1.08569,-0.3618985 0,-0.4281842 0.47813,-0.5950409 1.06251,-0.3707929 0.58439,0.2242492 1.24623,0.1104629 1.47077,-0.2528483 0.22455,-0.3633157 0.85344,-0.4897393 1.39756,-0.2809426 0.54412,0.2087967 1.20762,0.026401 1.47443,-0.4053151 0.26682,-0.4317208 0.80259,-0.5887396 1.19061,-0.3489314 0.38802,0.2398093 1.1385,0.076645 1.66774,-0.3625785 0.52923,-0.4392282 1.45914,-0.6079172 2.06647,-0.3748658 0.60732,0.2330514 1.31998,0.074626 1.58368,-0.3520674 0.26371,-0.4266874 1.25528,-0.581083 2.20347,-0.3431003 0.9482,0.2379816 2.14965,0.1577504 2.66987,-0.1782935 2.32039,-1.49884139 22.56883,-1.44515722 26.06313,0.069105 0.6776,0.2936337 1.58756,0.314124 2.02215,0.045532 0.4346,-0.26859136 1.25019,-0.1065582 1.81245,0.3600708 0.56225,0.4666313 1.33975,0.6522123 1.72777,0.4124041 0.38802,-0.2398093 0.9238,-0.082794 1.1906,0.3489303 0.26683,0.4317196 0.94075,0.6101084 1.49762,0.3964197 0.55686,-0.2136887 1.01247,-0.038193 1.01247,0.3899929 0,0.4281841 0.48857,0.5910386 1.08569,0.3618974 0.59714,-0.2291412 1.0857,-0.066289 1.0857,0.3618986 0,0.4281841 0.48856,0.5910386 1.08569,0.3618974 0.59714,-0.2291411 1.0857,-0.081907 1.0857,0.3271766 0,0.4090874 0.29789,0.5596905 0.66197,0.3346716 0.36409,-0.2250177 0.77606,-0.066917 0.91547,0.3513415 0.13942,0.4182565 0.97302,0.8146662 1.85243,0.8809103 0.87942,0.066244 1.76799,0.5609797 1.97461,1.0994101 0.20662,0.5384305 0.70367,0.7762449 1.10457,0.5284748 0.4009,-0.2477689 0.72891,-0.086339 0.72891,0.3587379 0,0.4450761 0.29158,0.6290234 0.64796,0.408772 0.35636,-0.2202514 0.8526,0.1328517 1.10272,0.7846758 0.25013,0.6518218 0.6504,0.98951 0.88949,0.750417 0.23909,-0.2390923 1.07051,0.284278 1.8476,1.163048 0.77709,0.878768 1.16039,1.109198 0.85179,0.512067 -0.30861,-0.597131 1.20525,0.705701 3.36411,2.895184 2.15887,2.189482 3.85547,4.215434 3.77024,4.502113 -0.0853,0.28668 0.50232,0.873012 1.30569,1.302958 0.80336,0.429947 1.26946,1.091089 1.03577,1.469203 -0.23368,0.378115 -0.0607,0.68748 0.38435,0.68748 0.44507,0 0.60649,0.328009 0.35873,0.728908 -0.24777,0.4009 0.0568,0.923592 0.67692,1.161538 0.62009,0.237945 0.94721,0.724206 0.72696,1.080581 -0.22025,0.356374 -0.0363,0.647953 0.40878,0.647953 0.44507,0 0.62183,0.303203 0.3928,0.673784 -0.22903,0.37058 -0.0801,0.881648 0.33099,1.135706 0.41107,0.254058 0.56002,0.765126 0.33098,1.135706 -0.22903,0.370581 -0.0523,0.673783 0.39281,0.673783 0.44508,0 0.62185,0.303203 0.39281,0.673784 -0.22904,0.37058 -0.0801,0.881648 0.33098,1.135706 0.41108,0.254059 0.56003,0.765127 0.33099,1.135707 -0.22903,0.370581 -0.0496,0.673784 0.39888,0.673784 0.4859,0 0.62966,0.584836 0.35583,1.44759 -0.27519,0.867071 -0.13006,1.447593 0.3619,1.447593 0.47993,0 0.63841,0.576399 0.38123,1.386679 -0.24207,0.762674 -0.15879,1.560545 0.18504,1.773048 0.77656,0.479936 0.69748,16.405207 -0.0876,17.655883 -0.31462,0.501171 -0.36621,1.559722 -0.11466,2.352336 0.27329,0.861029 0.12679,1.441115 -0.36395,1.441115 -0.49196,0 -0.63709,0.58052 -0.36189,1.447591 0.28141,0.886643 0.13006,1.447592 -0.39057,1.447592 -0.4675,0 -0.66253,0.488564 -0.43338,1.085691 0.22914,0.597128 0.0663,1.085701 -0.3619,1.085701 -0.42819,0 -0.59104,0.488561 -0.3619,1.085689 0.22914,0.597127 0.11142,1.085689 -0.26175,1.085689 -0.3731,0 -0.49088,0.488572 -0.26174,1.0857 0.22915,0.597128 0.0368,1.085689 -0.42733,1.085689 -0.46417,0 -0.64265,0.325711 -0.39661,0.723804 0.24602,0.398081 0.0831,0.723792 -0.3619,0.723792 -0.44508,0 -0.62512,0.297897 -0.40011,0.661981 0.22502,0.364073 0.067,0.776045 -0.35134,0.915456 -0.41826,0.139422 -0.81531,0.981509 -0.88234,1.871316 -0.067,0.889796 -0.37826,1.617818 -0.69163,1.617818 -0.31337,0 -0.56977,0.488562 -0.56977,1.085689 0,0.597139 -0.34494,1.085701 -0.76651,1.085701 -0.42159,0 -0.56522,0.325711 -0.31918,0.723792 0.24603,0.398093 0.0831,0.723793 -0.3619,0.723793 -0.44508,0 -0.62903,0.29159 -0.40877,0.647955 0.22025,0.356376 -0.13285,0.852612 -0.78468,1.102733 -0.65182,0.250132 -0.98072,0.659186 -0.73088,0.909015 0.24983,0.249841 -0.11074,0.917745 -0.80116,1.484231 -0.82984,0.680853 -0.88736,0.867826 -0.16969,0.551607 0.59713,-0.263102 0.27142,0.194054 -0.7238,1.015933 -0.99523,0.821858 -1.52913,1.501544 -1.18646,1.510396 0.34267,0.009 -0.14589,0.69232 -1.08569,1.518834 -0.93981,0.826502 -1.22016,1.287641 -0.62304,1.024752 0.59714,-0.2629 -0.0543,0.553986 -1.44758,1.815283 -1.39332,1.261296 -2.04473,2.06823 -1.4476,1.79319 0.59713,-0.275052 -0.66649,1.089481 -2.80806,3.032292 -2.14156,1.942812 -5.68748,5.478932 -7.87981,7.858042 -2.19232,2.37913 -3.57515,3.67426 -3.07294,2.87809 0.50222,-0.79618 0.003,-0.47047 -1.10763,0.72379 -1.11139,1.19426 -2.31062,2.17139 -2.66494,2.17139 -0.35431,0 -1.30528,0.81427 -2.11326,1.80949 -0.80799,0.99522 -1.25379,1.32093 -0.99067,0.72379 0.2631,-0.59713 -0.0484,-0.43428 -0.69215,0.36191 -0.64379,0.79617 -1.4941,1.44759 -1.88956,1.44759 -0.39548,0 -1.02788,0.48856 -1.40536,1.0857 -0.37747,0.59712 -0.70165,0.75997 -0.72041,0.36189 -0.0187,-0.39809 -0.51231,-0.0915 -1.09678,0.68118 -0.58447,0.77275 -1.06267,1.11762 -1.06267,0.76641 0,-0.35122 -0.51272,-0.007 -1.13937,0.7664 -0.62665,0.77274 -0.9282,0.91643 -0.67013,0.3193 0.31313,-0.72445 0.12655,-0.66799 -0.56073,0.16969 -0.56649,0.69047 -1.2344,1.05099 -1.48423,0.80116 -0.24984,-0.24984 -0.65889,0.0791 -0.90902,0.73088 -0.25012,0.65183 -0.74636,1.00493 -1.10272,0.78468 -0.35638,-0.22026 -0.64797,-0.0364 -0.64797,0.40877 0,0.44507 -0.3257,0.60793 -0.72379,0.3619 -0.39808,-0.24604 -0.7238,-0.0832 -0.7238,0.36189 0,0.44508 -0.32571,0.60793 -0.72379,0.3619 -0.39809,-0.24603 -0.7238,-0.10244 -0.7238,0.31918 0,0.42159 -0.24428,0.72219 -0.54285,0.66802 -1.01375,-0.18396 -6.69511,2.48585 -6.69511,3.14619 0,0.3612 -0.3257,0.45542 -0.7238,0.20939 -0.39808,-0.24604 -0.72379,-0.0831 -0.72379,0.36189 0,0.44509 -0.32571,0.60794 -0.72379,0.3619 -0.39809,-0.24603 -0.7238,-0.0831 -0.7238,0.3619 0,0.44508 -0.30321,0.62184 -0.67378,0.39281 -0.37059,-0.22903 -0.88165,-0.0801 -1.13571,0.33099 -0.25406,0.41107 -0.76512,0.56002 -1.1357,0.33098 -0.37059,-0.22903 -0.67379,-0.0523 -0.67379,0.39281 0,0.44507 -0.3032,0.62185 -0.67378,0.39281 -0.37058,-0.22904 -0.88165,-0.0801 -1.13571,0.33098 -0.25406,0.41108 -0.74262,0.57394 -1.08569,0.3619 -0.34308,-0.21203 -0.83164,-0.0491 -1.0857,0.36191 -0.25406,0.41106 -0.76512,0.56002 -1.13571,0.33098 -0.37057,-0.22903 -0.67377,-0.0366 -0.67377,0.42753 0,0.46418 -0.47814,0.66047 -1.06252,0.43623 -0.58438,-0.22425 -1.24623,-0.11052 -1.47077,0.25284 -0.22455,0.36333 -0.85344,0.48974 -1.39756,0.28095 -0.54412,-0.2088 -1.20761,-0.0264 -1.47443,0.40532 -0.26681,0.43171 -0.80259,0.58873 -1.19061,0.34892 -0.38801,-0.23981 -1.1385,-0.0766 -1.66773,0.36258 -0.52924,0.43923 -1.4765,0.60127 -2.10503,0.36008 -0.62853,-0.2412 -1.54501,-0.18994 -2.03661,0.1139 -1.19374,0.73777 -16.58817,0.81841 -17.03865,0.0892 z m 227.35654,-40.503123 -2.12584,-2.352338 2.35233,2.125847 c 1.29378,1.169223 2.35234,2.227782 2.35234,2.352337 0,0.559181 -0.59723,0.06687 -2.57883,-2.125846 z"
       id="path890" />
    <path
       style="fill:#ececec;stroke-width:0.723796"
       d="M 129.19364,516.41192 C 96.554036,510.9252 74.383279,481.30526 66.453055,432.591 65.320847,425.63597 65.15554,419.59563 65.145722,384.82047 65.134502,345.94921 65.095231,344.83384 63.466754,337.45988 60.023477,321.86787 55.119498,312.02764 37.65198,285.66043 24.570203,265.91348 21.267683,260.49249 16.352528,250.69789 -1.2769303,215.5671 -4.7826931,180.81825 6.873019,156.73759 14.03062,141.95 26.378506,131.45555 43.253631,125.81777 c 37.6307,-12.57199 92.786489,-5.60948 139.862809,17.65535 22.21978,10.98088 37.49631,21.82492 53.94128,38.29022 26.38584,26.41846 37.09494,50.22597 39.04303,86.79703 2.5086,47.09301 -12.21335,110.16224 -37.4581,160.47153 -25.22347,50.26686 -57.05163,81.10909 -89.55041,86.77639 -5.87004,1.02366 -15.6373,1.31994 -19.8986,0.60363 z m 18.42763,-21.58099 c 6.31871,-1.3385 18.00017,-7.06251 24.63823,-12.07292 41.39011,-31.24134 78.44894,-117.06497 82.91429,-192.01912 1.59014,-26.69181 -1.64837,-47.04439 -10.20063,-64.1064 -26.43779,-52.74408 -108.96224,-92.81052 -175.135217,-85.02985 -23.745736,2.79204 -37.39843,10.17003 -43.765658,23.65122 -3.932748,8.3267 -4.964423,13.38089 -4.927901,24.14172 0.03557,10.48036 1.585751,19.50627 5.389735,31.38154 4.941949,15.42774 10.357502,25.62265 27.353187,51.49309 17.730845,26.98948 22.08702,34.90046 26.446573,48.02801 5.545225,16.69788 6.211267,24.32674 5.980815,68.50313 -0.162839,31.21523 -0.02738,36.71316 1.052578,42.70396 4.344193,24.09946 11.731101,40.83269 23.007678,52.11815 11.03594,11.04464 22.1821,14.39854 37.24632,11.20747 z m 194.00647,17.23769 c -1.59235,-0.14216 -6.39831,-0.91184 -10.6799,-1.71041 -30.99249,-5.78051 -52.8037,-22.63362 -58.03876,-44.84547 -1.59346,-6.76094 -1.4515,-18.0337 0.31406,-24.93696 5.61416,-21.95118 23.88314,-39.0047 49.07505,-45.81003 6.47762,-1.74986 8.15301,-1.89789 21.50094,-1.89986 13.46658,-0.002 14.96498,0.13286 21.48988,1.93401 15.19571,4.19463 27.67156,11.18276 37.63226,21.07906 8.82108,8.76405 14.13598,17.706 17.3945,29.26508 2.0342,7.21603 2.20458,20.61806 0.35107,27.61763 -4.65271,17.57059 -18.46258,30.63198 -38.2703,36.19607 -10.73293,3.01495 -27.50678,4.29488 -40.7688,3.11088 z m 31.48513,-22.27172 c 17.02676,-3.99991 26.87029,-13.53548 28.01034,-27.13403 1.87847,-22.40621 -18.12907,-43.57923 -45.86404,-48.53574 -3.24812,-0.58048 -8.63133,-0.78498 -14.79696,-0.56215 -8.44776,0.30534 -10.57378,0.64848 -16.56747,2.67398 -13.20246,4.46165 -22.69231,12.25674 -28.00601,23.00456 -2.71136,5.48414 -2.75531,5.70665 -2.75531,13.94775 0,7.99427 0.10738,8.59314 2.36514,13.18266 2.73398,5.55772 8.31546,11.10342 15.27627,15.17838 5.82961,3.41273 18.15521,7.4818 26.87203,8.8713 9.21187,1.46842 27.95755,1.13717 35.46601,-0.62671 z m 37.99928,-110.47316 c -34.58555,-3.14834 -64.32279,-20.29408 -75.20192,-43.3595 -3.66169,-7.76335 -4.77922,-12.84716 -4.76683,-21.68499 0.0126,-8.91611 1.23416,-14.76573 4.60942,-22.07102 10.57654,-22.89155 34.80951,-39.22336 66.14895,-44.58109 9.54852,-1.63241 27.33035,-1.95955 36.71463,-0.67546 31.64867,4.33063 58.12928,21.09282 69.0308,43.69639 8.70862,18.0568 6.36017,40.35759 -5.96534,56.64636 -17.49858,23.12526 -52.481,35.49654 -90.56971,32.02931 z m 33.60939,-22.35982 c 21.29381,-4.33939 37.42736,-14.8588 43.99311,-28.68438 2.42179,-5.09961 2.73064,-6.41335 2.98262,-12.68663 0.23253,-5.78954 0.007,-7.824 -1.31092,-11.78184 -11.02524,-33.13086 -69.44347,-47.90418 -109.67362,-27.73524 -20.03141,10.0425 -31.09348,26.48396 -28.54637,42.42815 1.7705,11.08295 9.2817,20.58585 22.37179,28.30406 9.14718,5.39336 23.6579,9.96886 36.574,11.53246 8.59555,1.04055 25.05684,0.36632 33.60939,-1.37658 z M 341.68908,227.36735 c -24.93605,-3.92614 -42.21328,-17.94372 -49.03202,-39.78127 -2.36862,-7.5857 -2.3962,-23.54147 -0.0557,-32.22659 5.31943,-19.73919 17.5386,-37.74209 35.23015,-51.90578 38.88023,-31.127098 89.28202,-35.52637 116.25979,-10.147612 21.97391,20.671482 22.86784,53.325672 2.30118,84.058362 -7.8935,11.79522 -23.53439,26.37743 -36.8603,34.36534 -10.62376,6.36818 -23.8404,11.60932 -36.05742,14.2988 -7.51219,1.65375 -25.08437,2.39385 -31.78568,1.33875 z m 24.63069,-21.35918 c 32.93946,-5.74416 63.00115,-30.64783 72.03897,-59.67845 2.19538,-7.05187 2.36938,-18.646 0.36672,-24.43732 -7.61231,-22.013464 -36.02928,-30.118634 -67.36075,-19.21287 -14.61997,5.08888 -26.71913,12.70171 -37.69872,23.72018 -14.42517,14.47623 -22.07578,30.2826 -22.07578,45.60917 0,17.98476 11.30422,30.43451 31.17294,34.33194 5.24184,1.02823 16.6789,0.86672 23.55662,-0.33265 z M 214.60156,133.61191 c -2.18948,-0.573 -6.74536,-2.39709 -10.12417,-4.05351 -13.51691,-6.6266 -25.06765,-22.69426 -28.71849,-39.948898 -1.37974,-6.520911 -0.95867,-22.058813 0.76475,-28.220244 5.94983,-21.271399 21.25635,-38.740892 43.50638,-49.654299 24.56777,-12.05023384 51.49309,-14.8027453 71.91066,-7.3512533 27.54197,10.0515753 38.125,38.4247193 25.44582,68.2203603 -4.94568,11.622174 -16.78857,26.482398 -28.87401,36.230544 -14.80973,11.94555 -34.11069,21.74262 -48.82044,24.781 -6.79956,1.4045 -19.7169,1.40258 -25.0905,-0.003 z m 28.58994,-22.7152 c 17.86954,-6.38849 36.81894,-19.952375 47.4519,-33.965821 7.49177,-9.873597 12.16814,-22.783173 11.2341,-31.012907 -1.46879,-12.941595 -9.5698,-21.007775 -23.82652,-23.724075 -16.52999,-3.149419 -36.14132,0.921813 -54.58134,11.330864 -8.15981,4.606059 -18.49311,15.068058 -22.41321,22.692357 -1.63744,3.184702 -3.49386,7.791634 -4.12537,10.237617 -1.29955,5.033494 -1.48848,15.628224 -0.36598,20.52371 1.93854,8.454431 8.9485,18.885805 15.45848,23.003445 4.98208,3.15123 8.02746,3.79083 16.69202,3.50569 6.721,-0.22118 8.97691,-0.62494 14.47592,-2.59088 z"
       id="path888" />
    <text
       xml:space="preserve"
       id="text41"
       style="font-style:normal;font-weight:normal;font-size:40px;line-height:1.25;font-family:sans-serif;white-space:pre;shape-inside:url(#rect43);fill:#000000;fill-opacity:1;stroke:none" />
    <text
       xml:space="preserve"
       id="text47"
       style="font-style:normal;font-weight:normal;font-size:40px;line-height:1.25;font-family:sans-serif;white-space:pre;shape-inside:url(#rect49);fill:#000000;fill-opacity:1;stroke:none" />
  </g>
</svg>
