<svg xmlns="http://www.w3.org/2000/svg" width="1012" height="850" xmlns:v="https://vecta.io/nano"><path d="M373.768 528.855c-.266-.43-1.242-.592-2.17-.359s-1.896.083-2.153-.333-1.091-.558-1.854-.316c-.81.257-1.387.099-1.387-.381 0-.492-.581-.637-1.448-.362-.812.258-1.448.13-1.448-.29 0-.412-.489-.562-1.086-.333s-1.086.037-1.086-.427-.303-.657-.674-.428-.882.08-1.136-.331-.765-.56-1.136-.331-.674.052-.674-.393-.326-.608-.724-.362-.724.083-.724-.362-.326-.608-.724-.362-.724.083-.724-.362-.326-.608-.724-.362-.724.083-.724-.362-.326-.608-.724-.362-.724.083-.724-.362-.306-.62-.679-.389-1.015-.157-1.426-.862-.761-.956-.779-.558-.342.235-.719-.362-.987-1.086-1.355-1.086-1.382-.814-2.253-1.809-1.348-1.355-1.06-.8-1.871-1.399-4.798-4.343l-5.355-5.936c-.018-.321-.847-1.245-1.842-2.053s-1.321-1.254-.724-.991.434-.048-.362-.692-1.448-1.494-1.448-1.89-.489-1.028-1.086-1.405-.76-.701-.362-.719.147-.369-.558-.779-1.093-1.052-.862-1.426.056-.679-.389-.679-.608-.326-.362-.724.102-.724-.319-.724-.767-.489-.767-1.086-.345-1.086-.767-1.086-.565-.326-.319-.724.083-.724-.362-.724-.608-.326-.362-.724.083-.724-.362-.724-.608-.326-.362-.724.083-.724-.362-.724-.608-.326-.362-.724.113-.724-.296-.724-.556-.489-.327-1.086.037-1.086-.427-1.086-.643-.326-.397-.724.083-.724-.362-.724-.608-.326-.362-.724.113-.724-.296-.724-.556-.489-.327-1.086.037-1.086-.427-1.086-.657-.303-.428-.674.08-.882-.331-1.136-.56-.765-.331-1.136.082-.674-.327-.674-.556-.489-.327-1.086.066-1.086-.362-1.086-.591-.489-.362-1.086.022-1.086-.462-1.086-.695-.478-.471-1.063.091-1.258-.296-1.498-.531-.716-.318-1.059.069-.82-.318-1.059-.533-.88-.324-1.424.046-1.196-.362-1.448-.571-.903-.362-1.448.046-1.196-.362-1.448-.571-.903-.362-1.448.018-1.213-.423-1.485-.613-1.093-.382-1.822.081-1.536-.335-1.793-.557-1.261-.313-2.232c.283-1.129.133-1.765-.417-1.765-.572 0-.705-.703-.398-2.102.275-1.254.135-2.304-.347-2.602s-.622-1.347-.351-2.585c.252-1.147.189-2.5-.139-3.007-.746-1.153-.893-4.929-.956-24.446l-.102-56.431c.01-1.379-.316-2.911-.725-3.403s-.54-1.535-.292-2.317.099-1.639-.332-1.905-.593-1.08-.362-1.809.096-1.526-.301-1.772-.551-.891-.342-1.435.046-1.196-.362-1.448-.558-.936-.334-1.521.057-1.063-.371-1.063-.591-.489-.362-1.086.066-1.086-.362-1.086-.591-.489-.362-1.086.037-1.086-.427-1.086-.657-.303-.428-.674.08-.882-.331-1.136-.56-.765-.331-1.136.052-.674-.393-.674-.608-.326-.362-.724.113-.724-.296-.724-.572-.447-.363-.992-.111-1.484-.712-2.085-.891-1.294-.645-1.541.049-.448-.439-.448-.686-.326-.44-.724.083-.724-.362-.724-.608-.326-.362-.724.102-.724-.319-.724-.767-.489-.767-1.086-.345-1.086-.767-1.086-.565-.326-.319-.724.083-.724-.362-.724-.608-.326-.362-.724.083-.724-.362-.724-.607-.328-.359-.729-.057-.924-.677-1.162-.947-.724-.727-1.081.036-.648-.409-.648-.607-.328-.359-.729-.057-.924-.677-1.162-.968-.69-.774-1.005-.154-.767-.774-1.005-.946-.727-.724-1.086-.104-.848-.724-1.086-.925-.761-.677-1.162.106-.729-.316-.729-.685-.303-.586-.673-.47-1.208-1.267-1.863-.959-.975-.362-.712.271-.23-.724-1.095-1.321-1.354-.724-1.086.271-.22-.724-1.086-1.321-1.354-.724-1.086.271-.22-.724-1.086-1.321-1.354-.724-1.086.271-.185-.724-1.007-1.484-1.511-1.086-1.532.147-.374-.558-.784-1.114-1.018-.909-1.35-.134-.798-.754-1.036-.946-.727-.724-1.086-.104-.848-.724-1.086-.946-.727-.724-1.086-.104-.848-.724-1.086-.925-.761-.677-1.162.086-.729-.359-.729-.606-.328-.359-.729-.057-.924-.677-1.162-.946-.727-.724-1.086-.104-.848-.724-1.086-.947-.724-.727-1.081.036-.648-.409-.648-.607-.328-.359-.729-.057-.924-.677-1.162-.968-.69-.774-1.005-.154-.767-.774-1.005-.925-.761-.677-1.162.086-.729-.359-.729-.608-.326-.362-.724.083-.724-.362-.724-.629-.292-.409-.648-.107-.843-.727-1.081-.925-.761-.677-1.162.086-.729-.359-.729-.608-.326-.362-.724.083-.724-.362-.724-.608-.326-.362-.724.083-.724-.362-.724-.608-.326-.362-.724.083-.724-.362-.724-.608-.326-.362-.724.083-.724-.362-.724-.608-.326-.362-.724.083-.724-.362-.724-.608-.326-.362-.724.083-.724-.362-.724-.608-.326-.362-.724.083-.724-.362-.724-.608-.326-.362-.724.083-.724-.362-.724-.608-.326-.362-.724.172-.724-.165-.724-.667-.728-.734-1.618-.464-1.732-.882-1.871-.576-.551-.351-.915.074-.662-.335-.662-.556-.489-.327-1.086.037-1.086-.427-1.086-.643-.326-.397-.724.113-.724-.296-.724-.556-.489-.327-1.086.037-1.086-.427-1.086-.657-.303-.428-.674.08-.882-.331-1.136-.574-.743-.362-1.086.049-.832-.362-1.086-.574-.743-.362-1.086.069-.82-.318-1.059-.521-.913-.296-1.498.057-1.063-.371-1.063-.591-.489-.362-1.086.034-1.086-.433-1.086c-.521 0-.672-.561-.391-1.448s.13-1.448-.391-1.448c-.468 0-.667-.478-.442-1.063s.083-1.263-.314-1.509-.524-1.07-.282-1.833c.257-.81.099-1.387-.381-1.387s-.638-.576-.381-1.387c.242-.763.088-1.604-.343-1.87s-.58-1.123-.332-1.905.072-1.879-.392-2.438-.633-1.68-.375-2.492.214-1.886-.097-2.387c-.799-1.287-.819-22.436-.023-23.521.361-.493.452-1.43.202-2.082s-.088-1.63.362-2.171.632-1.467.406-2.056-.078-1.278.33-1.53.571-.903.362-1.448-.063-1.185.324-1.424.531-.716.318-1.059-.049-.832.362-1.086.574-.743.362-1.086-.049-.832.362-1.086.56-.765.331-1.136-.037-.674.428-.674.656-.489.427-1.086-.082-1.086.327-1.086.542-.326.296-.724-.083-.724.362-.724.608-.326.362-.724-.083-.724.362-.724.608-.326.362-.724-.083-.724.362-.724.629-.292.409-.648.107-.843.727-1.081.925-.761.677-1.162-.106-.729.316-.729.685-.303.586-.673.47-1.208 1.267-1.863.959-.961.362-.679.054-.531 1.448-1.805 2.045-2.085 1.448-1.802.531-1.16 2.506-3.208c3.678-3.812 4.443-4.405 3.631-2.817-.255.498.344.03 1.33-1.04s1.963-1.774 2.171-1.567.746-.311 1.196-1.152 1.128-1.339 1.506-1.105.687.08.687-.342.489-.767 1.086-.767 1.086-.345 1.086-.767.326-.565.724-.319.724.083.724-.362.326-.608.724-.362.724.083.724-.362.326-.608.724-.362.724.083.724-.362.326-.608.724-.362.724.083.724-.362.326-.608.724-.362.724.113.724-.296.489-.556 1.086-.327 1.086.066 1.086-.362.489-.591 1.086-.362 1.086.037 1.086-.427.303-.657.674-.428.87.1 1.109-.288.913-.521 1.498-.296 1.063.012 1.063-.471.478-.695 1.063-.471 1.246.11 1.471-.253.853-.49 1.398-.281 1.185.062 1.425-.326 1.087-.535 1.883-.327c.819.214 1.447.022 1.447-.444 0-.505.667-.655 1.731-.388.965.242 1.953.075 2.232-.378.276-.447 1.141-.609 1.923-.361s1.879.072 2.438-.392 1.68-.633 2.492-.375 1.886.203 2.387-.121c2.264-1.465 35.029-1.457 37.3.008.507.327 1.905.379 3.106.116 1.303-.286 2.595-.138 3.205.368.562.466 1.704.631 2.538.366s1.974-.102 2.533.362 1.656.64 2.438.392 1.639-.099 1.905.332 1.08.593 1.809.362 1.543-.069 1.809.362 1.08.593 1.809.362 1.543-.069 1.809.362 1.108.585 1.87.343c.81-.257 1.387-.099 1.387.381s.576.638 1.387.381c.763-.242 1.61-.079 1.883.362s.941.632 1.485.423 1.173-.082 1.398.281.886.477 1.471.253 1.063-.012 1.063.471.478.695 1.063.471 1.269-.074 1.521.334.914.567 1.471.353 1.012-.038 1.012.39.478.595 1.063.371 1.258-.091 1.498.296.716.531 1.059.318.82-.069 1.059.318.913.521 1.498.296 1.063-.012 1.063.471.488.691 1.086.462 1.086-.066 1.086.362.489.591 1.086.362 1.086-.082 1.086.327.303.556.674.327.882-.08 1.136.331.765.56 1.136.331.674-.037.674.428.489.656 1.086.427 1.086-.082 1.086.327.303.556.674.327.882-.08 1.136.331.765.56 1.136.331.674-.052.674.393.303.622.674.393.882-.08 1.136.331.765.56 1.136.331.674-.052.674.393.303.622.674.393.882-.08 1.136.331.765.56 1.136.331.674-.052.674.393.326.608.724.362.724-.083.724.362.326.608.724.362.724-.083.724.362.303.622.674.393.882-.08 1.136.331.765.56 1.136.331.674-.052.674.393.326.608.724.362.724-.083.724.362.326.608.724.362.724-.083.724.362.326.608.724.362.724-.083.724.362.326.608.724.362.724-.083.724.362.326.608.724.362.724-.083.724.362.326.608.724.362.724-.083.724.362.292.629.648.409.843.107 1.081.727.761.925 1.162.677.729-.086.729.359.326.608.724.362.724-.083.724.362.326.608.724.362.724-.083.724.362.292.629.648.409.843.107 1.081.727.761.925 1.162.677.729-.086.729.359.292.629.648.409.843.107 1.081.727.761.925 1.162.677.729-.086.729.359.328.606.729.359.924.057 1.162.677.69.968 1.005.774.767.154 1.005.774.727.946 1.086.724.848.104 1.086.724.727.946 1.086.724.841.086 1.071.685.729 1.004 1.11.901 1.229.464 1.883 1.26.979.959.721.362.057-.434.701.362 1.445 1.448 1.782 1.448 1.324.814 2.195 1.809 1.368 1.321 1.104.724.181-.271.989.724 1.745 1.809 2.083 1.809 1.701 1.14 3.031 2.533 1.999 1.882 1.487 1.086.735.344 2.769 2.533 3.713 3.669 3.731 3.287 1.483.731 3.257 2.472 3.076 3.408 2.894 3.703 1.379 2.062 3.469 3.926 3.313 3.17 2.716 2.903-.109.414 1.086 1.513 2.093 2.255 1.998 2.57.484.924 1.287 1.354 1.28 1.075 1.058 1.433.267 1.01 1.086 1.448 1.296 1.108 1.06 1.489.079.887.699 1.125.946.727.724 1.086.104.848.724 1.086.96.704.754 1.036.204.939.909 1.35.975.756.601.768-.049.535.724 1.161.916.928.319.67c-.724-.313-.668-.127.17.561.69.566 1.043 1.242.784 1.501s-.072.471.416.471.684.328.437.729.057.924.677 1.162.947.724.727 1.081-.036.648.409.648.608.326.362.724-.083.724.362.724.608.326.362.724-.083.724.362.724.608.326.362.724-.083.724.362.724.622.303.393.674-.08.882.331 1.136.56.765.331 1.136-.052.674.393.674.608.326.362.724-.083.724.362.724.622.303.393.674-.08.882.331 1.136.56.765.331 1.136-.082.674.327.674.556.489.327 1.086-.066 1.086.362 1.086.591.489.362 1.086-.066 1.086.362 1.086.591.489.362 1.086-.066 1.086.362 1.086.604.456.39 1.012-.055 1.219.353 1.471.558.936.334 1.521-.025 1.063.442 1.063c.508 0 .673.558.41 1.387-.242.763-.132 1.577.245 1.81s.515 1.075.307 1.87c-.214.819-.022 1.447.444 1.447.505 0 .655.667.388 1.731-.239.952-.093 1.942.324 2.199s.574 1.394.348 2.524c-.232 1.161-.064 2.27.387 2.549.49.303.628 1.559.357 3.254-.243 1.518-.162 2.933.179 3.144s.512 8.313.378 18.005c-.302 21.958-.416 24.551-1.14 26.127-.321.698-.371 2.113-.112 3.145.267 1.063.108 2.314-.365 2.884-.46.554-.635 1.806-.39 2.782.25.996.094 1.991-.354 2.269s-.621 1.387-.388 2.55c.226 1.131.07 2.267-.348 2.524s-.568 1.228-.336 2.155.07 1.905-.362 2.171-.595 1.244-.362 2.171.083 1.896-.333 2.153-.567 1.064-.335 1.793.069 1.543-.362 1.809-.593 1.08-.362 1.809.069 1.543-.362 1.809-.593 1.08-.362 1.809.069 1.543-.362 1.809-.585 1.108-.343 1.87c.257.81.099 1.387-.381 1.387s-.638.576-.381 1.387c.242.763.096 1.599-.325 1.86s-.569.79-.329 1.178.054 1.166-.412 1.728-.652 1.34-.412 1.728.083.924-.349 1.191-.614.93-.405 1.474.082 1.173-.281 1.398-.477.886-.253 1.471.025 1.063-.442 1.063c-.521 0-.672.561-.391 1.448s.13 1.448-.391 1.448c-.468 0-.667.478-.442 1.063s.111 1.246-.253 1.471-.477.886-.253 1.471.012 1.063-.471 1.063-.691.488-.462 1.086.066 1.086-.362 1.086-.595.478-.371 1.063.111 1.246-.253 1.471-.477.886-.253 1.471.012 1.063-.471 1.063-.691.488-.462 1.086.066 1.086-.362 1.086-.591.489-.362 1.086.066 1.086-.362 1.086-.591.489-.362 1.086.066 1.086-.362 1.086-.591.489-.362 1.086.066 1.086-.362 1.086-.591.489-.362 1.086.066 1.086-.362 1.086-.591.489-.362 1.086.066 1.086-.362 1.086-.591.489-.362 1.086.111 1.086-.262 1.086-.491.489-.262 1.086.037 1.086-.427 1.086-.657.303-.428.674.08.882-.331 1.136-.56.765-.331 1.136.037.674-.428.674-.656.489-.427 1.086.082 1.086-.327 1.086-.542.326-.296.724.068.724-.397.724-.656.489-.427 1.086.082 1.086-.327 1.086-.542.326-.296.724.068.724-.397.724-.656.489-.427 1.086.082 1.086-.327 1.086-.556.303-.327.674.08.882-.331 1.136-.56.765-.331 1.136.052.674-.393.674-.608.326-.362.724.083.724-.362.724-.608.326-.362.724.068.724-.397.724-.656.489-.427 1.086.082 1.086-.327 1.086-.542.326-.296.724.083.724-.362.724-.625.298-.4.662.067.776-.351.915-.815.982-.882 1.871-.397 1.618-.734 1.618-.411.326-.165.724.083.724-.362.724-.608.326-.362.724.083.724-.362.724-.608.326-.362.724.083.724-.362.724-.608.326-.362.724.083.724-.362.724-.608.326-.362.724.083.724-.362.724-.608.326-.362.724.083.724-.362.724-.608.326-.362.724.083.724-.362.724-.608.326-.362.724.083.724-.362.724-.608.326-.362.724.083.724-.362.724-.608.326-.362.724.083.724-.362.724-.608.326-.362.724.083.724-.362.724-.608.326-.362.724.083.724-.362.724-.629.292-.409.648-.107.843-.727 1.081-.925.761-.677 1.162.086.729-.359.729-.608.326-.362.724.083.724-.362.724-.608.326-.362.724.083.724-.362.724-.607.328-.359.729-.057.924-.677 1.162-.947.724-.727 1.081.036.648-.409.648-.607.328-.359.729-.057.924-.677 1.162-.947.724-.727 1.081.056.648-.366.648-.767.489-.767 1.086-.345 1.086-.767 1.086-.586.292-.366.648-.107.843-.727 1.081-.946.727-.724 1.086-.104.848-.724 1.086-.946.727-.724 1.086-.104.848-.724 1.086-.946.727-.724 1.086-.104.848-.724 1.086-.946.727-.724 1.086-.104.848-.724 1.086-.935.744-.699 1.125-.242 1.051-1.06 1.489-1.307 1.089-1.086 1.448-.255 1.003-1.058 1.433-1.382 1.055-1.287 1.388-.641 1.326-1.636 2.205-1.321 1.378-.724 1.109-.217.707-1.809 2.169-2.407 2.441-1.809 2.176-.3.717-1.994 2.182-2.931 2.905-2.749 3.199-1.844 2.627-4.502 5.184-4.19 3.811-3.403 2.786-.319-.047-2.456 2.171-3.659 3.546-3.383 2.949-.21-.271-1.081.724-1.885 1.809-2.253 1.809-.971.489-1.34 1.086-.995 1.086-1.39 1.086-1.246.651-1.89 1.448-.959.959-.701.362c.313-.724.127-.668-.561.17-.566.69-1.234 1.051-1.484.801s-.659.079-.909.731-.746 1.005-1.103.785-.648-.036-.648.409-.328.607-.729.359-.924.057-1.162.677-.724.947-1.081.727-.648-.036-.648.409-.326.608-.724.362-.724-.083-.724.362-.326.608-.724.362-.724-.083-.724.362-.326.608-.724.362-.724-.172-.724.165-.704.665-1.563.73-1.832.541-2.16 1.059-.602.657-.608.31-.448-.269-.982.175-1.186.592-1.448.33-.476-.106-.476.345-.489.634-1.086.405-1.086-.022-1.086.462-.478.695-1.063.471-1.258-.091-1.498.296a.83.83 0 0 1-1.141.268c-.388-.24-1.139-.077-1.668.363s-1.459.608-2.066.375-1.313-.087-1.567.326-1.388.564-2.519.338c-1.159-.232-2.27-.064-2.548.386-.652 1.054-12.459 1.067-13.11.014zm70.244-31.788c.721-.796 1.147-1.448.948-1.448s-.951.651-1.672 1.448-1.147 1.448-.948 1.448.951-.651 1.672-1.448zm-19.812-9.952c.9-1.148.875-1.174-.273-.273-.697.546-1.267 1.116-1.267 1.267 0 .596.594.212 1.54-.993zm-95.139-91.515c-.231-.577-.403-.406-.437.437-.031.763.14 1.19.38.95s.266-.865.057-1.387zm169.353-101.377c-.201-.498-.365-.09-.365.905s.164 1.402.365.905.201-1.312 0-1.809zm.039-8.324c-.166-1.095-.302-.199-.302 1.99s.136 3.085.302 1.99a15.99 15.99 0 0 0 0-3.981zm-234.549-83.598c-.201-.498-.365-.09-.365.905s.164 1.402.365.905.201-1.312 0-1.809zm0-4.343c-.201-.498-.365-.09-.365.905s.164 1.402.365.905.201-1.312 0-1.809zm218.831-2.205c0-.118-1.384-1.503-3.076-3.076l-3.076-2.861 2.861 3.076c2.661 2.861 3.291 3.409 3.291 2.861zm104.529 328.723c-.291-.471-1.674-.587-3.581-.301-2.001.3-3.287.175-3.612-.351-.278-.449-1.264-.627-2.191-.394s-1.905.07-2.171-.362-1.264-.59-2.216-.351c-1.064.267-1.731.118-1.731-.388 0-.466-.627-.658-1.447-.444-.796.208-1.643.061-1.883-.327s-.881-.534-1.425-.326-1.173.082-1.398-.281-.886-.477-1.471-.253-1.063.012-1.063-.471-.478-.695-1.063-.471-1.246.11-1.471-.253-.886-.477-1.471-.253-1.063.028-1.063-.436-.303-.657-.674-.428-.882.08-1.136-.331-.765-.56-1.136-.331-.674.037-.674-.428-.489-.656-1.086-.427-1.086.082-1.086-.327-.326-.542-.724-.296-.724.083-.724-.362-.326-.608-.724-.362-.724.083-.724-.362-.326-.608-.724-.362-.724.083-.724-.362-.326-.608-.724-.362-.724.083-.724-.362-.326-.608-.724-.362-.724.083-.724-.362-.326-.608-.724-.362-.724.083-.724-.362-.292-.629-.648-.409-.843-.107-1.081-.727-.761-.925-1.162-.677-.729.086-.729-.359-.309-.618-.687-.384-1.039-.232-1.469-1.036-1.055-1.382-1.388-1.287-1.326-.641-2.205-1.636-1.383-1.321-1.12-.724-.477-.022-1.644-1.377a53.07 53.07 0 0 0-4.585-4.585c-1.354-1.167-1.974-1.907-1.377-1.644s.271-.241-.724-1.12-1.725-1.89-1.622-2.247-.302-.836-.901-1.066-.908-.709-.688-1.066.056-.648-.366-.648-.767-.489-.767-1.086-.345-1.086-.767-1.086-.565-.326-.319-.724.172-.724-.165-.724-.665-.704-.73-1.563-.541-1.832-1.059-2.16-.657-.602-.31-.608.226-.5-.27-1.097-.658-1.086-.362-1.086.176-.437-.267-.971-.6-1.178-.347-1.43.089-.904-.362-1.448-.62-1.189-.376-1.434.201-1.029-.098-1.743c-.749-1.789-.86-16.188-.129-16.64.326-.201.402-.863.168-1.47s-.064-1.537.375-2.066.602-1.28.363-1.668a.83.83 0 0 1 .268-1.141c.387-.239.521-.913.296-1.498s-.057-1.063.371-1.063.591-.489.362-1.086-.037-1.086.427-1.086.643-.326.397-.724-.068-.724.397-.724.656-.489.427-1.086-.082-1.086.327-1.086.543-.326.296-.724-.083-.724.362-.724.608-.326.362-.724-.083-.724.362-.724.629-.292.409-.648.107-.843.727-1.081.925-.761.677-1.162-.106-.729.316-.729.685-.303.586-.673.47-1.208 1.267-1.863.959-.968.362-.695-.109-.379 1.086-1.446 1.683-1.731 1.086-1.475.18-.653 1.727-2.021a74.05 74.05 0 0 0 5.3-5.3c1.368-1.547 2.276-2.324 2.018-1.727s.25.271 1.129-.724 1.89-1.725 2.247-1.622.836-.302 1.066-.901.711-.907 1.071-.685.848-.104 1.086-.724.727-.946 1.086-.724.848-.104 1.086-.724.724-.947 1.081-.727.648.036.648-.409.326-.608.724-.362.724.083.724-.362.326-.608.724-.362.724.083.724-.362.326-.608.724-.362.724.083.724-.362.326-.608.724-.362.724.083.724-.362.326-.608.724-.362.724.113.724-.296.489-.556 1.086-.327 1.086.037 1.086-.427.303-.657.674-.428.882.08 1.136-.331.743-.574 1.086-.362.832.049 1.086-.362.743-.574 1.086-.362.82.069 1.059-.318.913-.521 1.498-.296 1.063.025 1.063-.442c0-.508.558-.673 1.387-.41.763.242 1.587.115 1.833-.282s.928-.537 1.518-.31 1.515.044 2.056-.406 1.515-.614 2.162-.365 1.747.215 2.444-.074 5.664-.468 11.038-.397c12.282.162 13.901.269 15.019.992.498.322 1.245.375 1.66.119s1.216-.085 1.778.381 1.34.652 1.728.412.924-.083 1.191.349.941.61 1.498.396 1.012-.038 1.012.39.478.595 1.063.371 1.258-.091 1.498.296.716.531 1.059.318.832-.049 1.086.362.765.56 1.136.331.674-.037.674.428.489.656 1.086.427 1.086-.082 1.086.327.326.542.724.296.724-.083.724.362.303.622.674.393.882-.08 1.136.331.765.56 1.136.331.674-.052.674.393.326.608.724.362.724-.083.724.362.326.608.724.362.724-.102.724.319.489.767 1.086.767 1.086.345 1.086.767.326.565.724.319.724-.083.724.362.328.606.729.359.924.057 1.162.677.69.968 1.005.774.767.154 1.005.774.744.935 1.125.699 1.044.229 1.474 1.033 1.018 1.382 1.308 1.287 1.795 1.129 3.347 2.721 2.232 2.162 1.512 1.267c-2.196-2.733-.846-1.82 2.565 1.733 1.775 1.849 2.738 3.124 2.141 2.834s.054.545 1.448 1.856 2.533 2.628 2.533 2.926.651 1.033 1.448 1.635 1.141 1.104.766 1.117-.049.536.724 1.162.916.928.319.67c-.724-.313-.668-.127.17.561.69.566 1.043 1.242.784 1.501s-.091.471.373.471.844.489.844 1.086.345 1.086.767 1.086.565.326.319.724-.083.724.362.724.622.303.393.674-.08.882.331 1.136.56.765.331 1.136-.052.674.393.674.608.326.362.724-.068.724.397.724.656.489.427 1.086-.066 1.086.362 1.086.591.489.362 1.086-.079 1.086.333 1.086c.42 0 .548.636.29 1.448-.281.887-.13 1.448.391 1.448.48 0 .658.502.408 1.151-.243.633-.196 1.529.104 1.99s.621 1.979.713 3.373.367 4.417.611 6.719c.293 2.767.153 4.536-.413 5.218-.517.622-.664 1.905-.373 3.233.328 1.495.206 2.201-.382 2.201-.509 0-.71.596-.487 1.447.208.796.098 1.62-.246 1.833s-.441.864-.217 1.448.012 1.063-.471 1.063-.691.488-.462 1.086.082 1.086-.327 1.086-.556.303-.327.674.08.882-.331 1.136-.56.765-.331 1.136.052.674-.393.674-.608.326-.362.724.083.724-.362.724-.608.326-.362.724.083.724-.362.724-.62.306-.389.679-.157 1.015-.862 1.426-.956.763-.558.784-.09.711-1.086 1.532-1.321 1.267-.724.989-.45.85-2.327 2.505-4.271 4.053-5.321 5.328-1.688 1.829-1.418 1.232-.145-.367-.922.512-1.609 1.402-1.848 1.163-.639.099-.889.75-.712 1.026-1.027.832-.767.154-1.005.774-.761.925-1.162.677-.729-.086-.729.359-.326.608-.724.362-.724-.083-.724.362-.326.608-.724.362-.724-.083-.724.362-.303.622-.674.393-.882-.08-1.136.331-.765.56-1.136.331-.674-.052-.674.393-.303.622-.674.393-.882-.08-1.136.331-.765.56-1.136.331-.674-.037-.674.428-.489.656-1.086.427-1.086-.079-1.086.333c0 .42-.636.548-1.448.29-.867-.275-1.448-.13-1.448.362s-.581.637-1.448.362-1.448-.13-1.448.362c0 .48-.576.638-1.387.381-.763-.242-1.597-.1-1.854.316s-1.243.561-2.191.323-2.15-.168-2.67.156c-1.966 1.223-24.916 2.029-25.614.9zm73.886-132.372c-1.194-.384-3.8-.691-5.79-.682-5.311.025-8.852-.32-9.455-.921-.292-.291-1.297-.337-2.233-.102-1.088.273-1.702.11-1.702-.454 0-.578-.622-.725-1.809-.427-1.098.276-1.809.145-1.809-.332 0-.445-.601-.596-1.387-.346-.763.242-1.587.115-1.833-.282s-.924-.538-1.509-.314-1.063.025-1.063-.442c0-.521-.561-.672-1.448-.391-.812.258-1.448.13-1.448-.29 0-.412-.489-.562-1.086-.333s-1.086.022-1.086-.462-.488-.691-1.086-.462-1.086.111-1.086-.262-.489-.491-1.086-.262-1.086.037-1.086-.427-.303-.657-.674-.428-.882.08-1.136-.331-.765-.56-1.136-.331-.674.052-.674-.393-.303-.622-.674-.393-.882.08-1.136-.331-.765-.56-1.136-.331-.674.052-.674-.393-.326-.608-.724-.362-.724.083-.724-.362-.326-.608-.724-.362-.724.083-.724-.362-.326-.608-.724-.362-.724.083-.724-.362-.326-.608-.724-.362-.724.083-.724-.362-.326-.608-.724-.362-.724.083-.724-.362-.292-.629-.648-.409-.843-.107-1.081-.727-.761-.925-1.162-.677-.729.086-.729-.359-.328-.607-.729-.359-.924-.057-1.162-.677-.69-.968-1.005-.774-.767-.154-1.005-.774-.744-.935-1.125-.699-1.044-.229-1.474-1.033-1.028-1.382-1.328-1.287-1.636-.966-2.968-2.36-2.014-1.963-1.515-1.267c1.606 2.244.391 1.355-2.92-2.135-1.775-1.871-2.575-2.968-1.779-2.439s.308-.127-1.086-1.459-2.455-2.668-2.36-2.968-.484-.898-1.287-1.328-1.291-1.057-1.083-1.393-.129-.806-.749-1.044-.925-.761-.677-1.162.086-.729-.359-.729-.608-.326-.362-.724.083-.724-.362-.724-.608-.326-.362-.724.083-.724-.362-.724-.608-.326-.362-.724.083-.724-.362-.724-.608-.326-.362-.724.083-.724-.362-.724-.608-.326-.362-.724.068-.724-.397-.724-.656-.489-.427-1.086.111-1.086-.262-1.086-.491-.489-.262-1.086.022-1.086-.462-1.086-.695-.478-.471-1.063.074-1.269-.334-1.521-.555-.943-.328-1.536.201-1.421-.058-1.841c-.638-1.033-.603-16.057.04-17.097.282-.456.302-1.168.045-1.584s-.085-1.216.381-1.778.652-1.34.412-1.728a.83.83 0 0 1 .268-1.141c.387-.239.521-.913.296-1.498s-.028-1.063.436-1.063.643-.326.397-.724-.068-.724.397-.724.656-.489.427-1.086-.082-1.086.327-1.086.543-.326.296-.724-.083-.724.362-.724.608-.326.362-.724-.083-.724.362-.724.608-.326.362-.724-.083-.724.362-.724.608-.326.362-.724-.083-.724.362-.724.629-.292.409-.648.107-.843.727-1.081.946-.727.724-1.086.104-.848.724-1.086.946-.727.724-1.086.086-.841.685-1.071 1.004-.694.901-1.032.789-1.513 1.984-2.612 1.683-1.762 1.086-1.474.531-1.152 2.506-3.199c3.676-3.809 4.878-4.706 3.293-2.455-.491.697.484-.199 2.167-1.99s2.833-2.769 2.558-2.171.135.367.912-.512 1.59-1.421 1.806-1.205.762-.295 1.212-1.137 1.128-1.339 1.506-1.105.687.061.687-.384.328-.607.729-.359.924-.057 1.162-.677.724-.947 1.081-.727.648.036.648-.409.328-.607.729-.359.924-.057 1.162-.677.724-.947 1.081-.727.648.036.648-.409.326-.608.724-.362.724.083.724-.362.326-.608.724-.362.724.083.724-.362.326-.608.724-.362.724.113.724-.296.489-.556 1.086-.327 1.086.037 1.086-.427.326-.643.724-.397.724.083.724-.362.303-.622.674-.393.882.08 1.136-.331.765-.56 1.136-.331.674.082.674-.327.489-.556 1.086-.327 1.086.066 1.086-.362.489-.591 1.086-.362 1.086.066 1.086-.362.489-.591 1.086-.362 1.086.022 1.086-.462.478-.695 1.063-.471 1.246.111 1.471-.253.853-.49 1.398-.281 1.208.026 1.474-.405.803-.589 1.191-.349 1.166.054 1.728-.412 1.377-.629 1.809-.362 1.22.127 1.749-.312 1.476-.601 2.105-.36 1.566.173 2.082-.151c1.167-.733 2.241-.798 18.199-1.102 7.104-.135 13.086.027 13.292.362s1.453.406 2.769.159c1.447-.271 2.591-.131 2.891.356.274.443 1.256.614 2.183.381s1.896-.083 2.153.333 1.091.558 1.854.316c.81-.257 1.387-.099 1.387.381s.576.638 1.387.381c.763-.242 1.587-.115 1.833.282s.924.538 1.509.314 1.063-.012 1.063.471.478.695 1.063.471 1.246-.111 1.471.253.886.477 1.471.253 1.063-.057 1.063.371.489.591 1.086.362 1.086-.037 1.086.427.303.657.674.428.882-.08 1.136.331.765.56 1.136.331.674-.052.674.393.303.622.674.393.882-.08 1.136.331.765.56 1.136.331.674-.052.674.393.326.608.724.362.724-.083.724.362.326.608.724.362.724-.083.724.362.326.608.724.362.724-.083.724.362.326.608.724.362.724-.083.724.362.326.608.724.362.724-.083.724.362.326.608.724.362.724-.083.724.362.328.606.729.359.924.057 1.162.677.69.968 1.005.774.767.154 1.005.774.727.946 1.086.724.848.104 1.086.724.727.946 1.086.724.841.086 1.071.685.694 1.004 1.032.901 1.513.789 2.612 1.984 1.746 1.683 1.439 1.086 1.538 1.031 4.101 3.619 4.661 4.968 4.662 5.289.817 1.245 1.812 2.053 1.321 1.253.724.989-.367.156.512.933 1.402 1.609 1.163 1.848.099.639.75.889 1.005.746.785 1.103-.036.648.409.648.608.326.362.724-.102.724.319.724.767.612.767 1.359.485 1.761 1.078 2.253.899 1.183.681 1.536-.033.642.413.642.622.303.393.674-.08.882.331 1.136.56.765.331 1.136-.037.674.428.674.66.478.436 1.063-.091 1.258.296 1.498a.83.83 0 0 1 .268 1.141c-.24.388-.054 1.166.412 1.728s.638 1.362.381 1.778-.235 1.131.049 1.59c.674 1.091.671 15.34-.004 16.432-.286.463-.314 1.49-.063 2.282.274.861.127 1.441-.364 1.441s-.637.581-.362 1.448c.281.887.13 1.448-.391 1.448-.468 0-.663.489-.433 1.086s.066 1.086-.362 1.086-.591.489-.362 1.086.066 1.086-.362 1.086-.591.489-.362 1.086.082 1.086-.327 1.086-.542.326-.296.724.083.724-.362.724-.608.326-.362.724.083.724-.362.724-.608.326-.362.724.083.724-.362.724-.608.326-.362.724.083.724-.362.724-.62.306-.389.679-.157 1.015-.862 1.426-.956.761-.558.779.235.342-.362.719-1.086.987-1.086 1.355-.814 1.382-1.809 2.253-1.321 1.359-.724 1.083-.319.758-2.036 2.297-4.265 4.101-5.662 5.693-2.329 2.407-2.07 1.809-.25-.271-1.129.724-1.89 1.725-2.247 1.622-.836.302-1.066.901-.711.907-1.071.685-.848.104-1.086.724-.727.946-1.086.724-.848.104-1.086.724-.724.947-1.081.727-.648-.036-.648.409-.326.608-.724.362-.724-.102-.724.319-.244.724-.543.672c-.971-.169-5.248 1.842-5.248 2.467 0 .334-.326.407-.724.161s-.724-.083-.724.362-.326.608-.724.362-.724-.083-.724.362-.303.622-.674.393-.882-.08-1.136.331-.765.56-1.136.331-.674-.082-.674.327-.489.556-1.086.327-1.086-.066-1.086.362-.489.591-1.086.362-1.086-.066-1.086.362-.489.591-1.086.362-1.086-.066-1.086.362-.456.604-1.012.39-1.219-.055-1.471.353-.936.558-1.521.334-1.063-.025-1.063.442c0 .521-.561.672-1.448.391-.841-.267-1.448-.13-1.448.327 0 .477-.711.608-1.809.332-1.162-.292-1.809-.149-1.809.397 0 .52-.56.673-1.441.394-.793-.252-1.851-.192-2.352.132-.934.605-2.069.751-9.597 1.241l-9.409.701c-2.787.23-6.044.105-7.238-.28zm-66.45-67.106c-.184-.704-.346-.303-.36.891s.135 1.77.334 1.28.21-1.467.027-2.171zm72.421-46.312a15.99 15.99 0 0 0-3.981 0c-1.095.166-.199.302 1.99.302s3.085-.136 1.99-.302zm-78.363-38.586c-.32-.517-1.425-.663-2.909-.385-1.447.272-2.591.131-2.891-.356-.275-.446-1.269-.611-2.228-.37-1.029.258-1.731.116-1.731-.352 0-.457-.606-.594-1.448-.327-.887.281-1.448.13-1.448-.391 0-.468-.478-.667-1.063-.442s-1.246.111-1.471-.253-.886-.477-1.471-.253-1.063.028-1.063-.436-.303-.657-.674-.428-.882.08-1.136-.331-.765-.56-1.136-.331-.674.052-.674-.393-.326-.608-.724-.362-.724.174-.724-.161c0-.625-4.277-2.636-5.248-2.467-.299.052-.543-.286-.543-.75s-.212-.632-.471-.373-.935-.094-1.501-.784c-.687-.838-.874-.894-.561-.17.258.597-.057.434-.701-.362s-1.445-1.448-1.782-1.448-1.324-.814-2.195-1.809-1.351-1.321-1.065-.724-1.318-.695-3.564-2.87c-4.169-4.04-4.776-4.803-3.178-3.996.498.251-.072-.417-1.267-1.484s-1.683-1.719-1.086-1.446c.705.321.645.133-.17-.535-.69-.566-1.051-1.234-.801-1.484s-.079-.659-.731-.909-1.005-.746-.785-1.103.036-.648-.409-.648-.608-.326-.362-.724.083-.724-.362-.724-.608-.326-.362-.724.083-.724-.362-.724-.608-.326-.362-.724.083-.724-.362-.724-.608-.326-.362-.724.113-.724-.296-.724-.556-.489-.327-1.086.066-1.086-.362-1.086-.591-.489-.362-1.086.066-1.086-.362-1.086-.591-.489-.362-1.086.034-1.086-.433-1.086c-.508 0-.673-.558-.41-1.387.242-.763.1-1.597-.316-1.854s-.565-1.226-.333-2.153.153-1.853-.178-2.058c-.762-.471-.718-13.626.049-14.868.314-.508.377-1.7.139-2.648s-.093-1.934.323-2.191.558-1.091.316-1.854c-.257-.81-.099-1.387.381-1.387.492 0 .637-.581.362-1.448-.281-.887-.13-1.448.391-1.448.468 0 .667-.478.442-1.063s-.091-1.258.296-1.498.531-.716.318-1.059-.049-.832.362-1.086.56-.765.331-1.136-.037-.674.428-.674.656-.489.427-1.086-.082-1.086.327-1.086.542-.326.296-.724-.083-.724.362-.724.622-.303.393-.674-.08-.882.331-1.136.56-.765.331-1.136-.052-.674.393-.674.608-.326.362-.724-.083-.724.362-.724.608-.326.362-.724-.083-.724.362-.724.629-.292.409-.648.107-.843.727-1.081.925-.761.677-1.162-.086-.729.359-.729.629-.292.409-.648.107-.843.727-1.081.925-.761.677-1.162-.086-.729.359-.729.607-.328.359-.729.057-.924.677-1.162.957-.708.749-1.044.292-.97 1.11-1.408 1.307-1.089 1.086-1.448.255-1.003 1.058-1.433 1.382-1.028 1.287-1.328.966-1.621 2.36-2.935 2.045-2.154 1.448-1.866 1.349-1.965 4.325-5.005c5.466-5.585 6.267-6.265 5.437-4.623-.251.498.739-.398 2.201-1.99s2.438-2.407 2.169-1.809.23.271 1.109-.724 1.871-1.731 2.205-1.636.958-.484 1.388-1.287 1.093-1.268 1.474-1.033.887-.079 1.125-.699.726-.946 1.086-.724.848-.104 1.086-.724.727-.946 1.086-.724.848-.104 1.086-.724.724-.947 1.081-.727.648.036.648-.409.328-.607.729-.359.924-.057 1.162-.677.724-.947 1.081-.727.648.036.648-.409.326-.608.724-.362.724.083.724-.362.326-.608.724-.362.724.128.724-.262.977-.924 2.171-1.186 2.171-.796 2.171-1.186.326-.508.724-.262.724.083.724-.362.326-.608.724-.362.724.083.724-.362.326-.608.724-.362.724.083.724-.362.303-.622.674-.393.882.08 1.136-.331.765-.56 1.136-.331.674.052.674-.393.303-.622.674-.393.882.08 1.136-.331.743-.574 1.086-.362.832.049 1.086-.362.765-.56 1.136-.331.674.037.674-.428.478-.66 1.063-.436 1.246.11 1.471-.253.886-.477 1.471-.253 1.063.057 1.063-.371.456-.604 1.012-.39 1.231.035 1.498-.396.803-.589 1.191-.349 1.166.054 1.728-.412 1.377-.629 1.809-.362 1.22.127 1.749-.312 1.476-.601 2.105-.36 1.566.165 2.082-.168c1.26-.814 4.475-1.058 13.968-1.058 9.432 0 12.709.244 13.933 1.036.498.322 1.245.375 1.66.119s1.216-.085 1.778.381 1.34.652 1.728.412.924-.083 1.191.349.941.61 1.498.396 1.012-.038 1.012.39.489.591 1.086.362 1.086-.066 1.086.362.489.591 1.086.362 1.086-.066 1.086.362.489.591 1.086.362 1.086-.082 1.086.327.326.543.724.296.724-.083.724.362.326.608.724.362.724-.083.724.362.326.608.724.362.724-.083.724.362.326.608.724.362.724-.083.724.362.326.608.724.362.724-.083.724.362.328.607.729.359.924.057 1.162.677.708.957 1.044.749.963.279 1.393 1.083 1.016 1.402 1.303 1.33c.709-.178 10.605 9.772 10.424 10.479-.08.31.345.751.944.981s.907.711.685 1.071.104.848.724 1.086.947.724.727 1.081-.036.648.409.648.607.328.359.729.057.924.677 1.162.947.724.727 1.081-.066.648.343.648.556.489.327 1.086-.037 1.086.427 1.086.643.326.397.724-.113.724.296.724.556.489.327 1.086-.066 1.086.362 1.086.591.489.362 1.086-.037 1.086.427 1.086.634.34.377.756-.085 1.216.381 1.778.638 1.362.381 1.778-.211 1.163.102 1.66c1.433 2.281 1.447 19.143.017 21.352-.322.498-.375 1.245-.119 1.66s.108 1.189-.332 1.718a2.38 2.38 0 0 0-.347 2.14c.264.689.087 1.177-.427 1.177-.483 0-.695.478-.471 1.063s.091 1.258-.296 1.498-.531.716-.318 1.059.049.832-.362 1.086-.574.743-.362 1.086.049.832-.362 1.086-.56.765-.331 1.136.052.674-.393.674-.622.303-.393.674.08.882-.331 1.136-.56.765-.331 1.136.052.674-.393.674-.608.326-.362.724.083.724-.362.724-.608.326-.362.724.083.724-.362.724-.608.326-.362.724.083.724-.362.724-.608.326-.362.724.083.724-.362.724-.608.326-.362.724.083.724-.362.724-.629.292-.409.648-.107.843-.727 1.081-.925.761-.677 1.162.086.729-.359.729-.62.306-.389.679-.157 1.015-.862 1.426-.956.763-.558.784-.09.711-1.086 1.532-1.321 1.279-.724 1.016.434.048-.362.692-1.448 1.445-1.448 1.782-.814 1.324-1.809 2.195-1.321 1.37-.724 1.108-.38.843-2.171 2.457-2.945 2.943-2.564 2.955-.731 1.473-2.472 3.247-3.409 3.075-3.707 2.891-1.74 1.052-3.205 2.746-2.446 2.591-2.179 1.994-.228-.271-1.099.724-1.885 1.809-2.253 1.809-.971.489-1.34 1.086-.995 1.086-1.39 1.086-1.246.651-1.89 1.448-.959.959-.701.362-.066-.434-.721.362-1.493 1.366-1.863 1.267-.673.164-.673.586-.328.564-.729.316-.924.057-1.162.677-.724.947-1.081.727-.648-.036-.648.409-.328.607-.729.359-.924.057-1.162.677-.724.947-1.081.727-.648-.036-.648.409-.326.608-.724.362-.724-.083-.724.362-.326.608-.724.362-.724-.083-.724.362-.326.608-.724.362-.724-.083-.724.362-.326.608-.724.362-.724-.083-.724.362-.326.608-.724.362-.724-.083-.724.362-.326.608-.724.362-.724-.083-.724.362-.326.608-.724.362-.724-.068-.724.397-.489.656-1.086.427-1.086-.082-1.086.327-.326.542-.724.296-.724-.113-.724.296-.489.556-1.086.327-1.086-.066-1.086.362-.489.591-1.086.362-1.086-.037-1.086.427-.303.657-.674.428-.87-.1-1.109.288-.913.521-1.498.296-1.063-.057-1.063.371-.489.591-1.086.362-1.086-.022-1.086.462-.478.695-1.063.471-1.263-.083-1.508.314-1.07.524-1.833.282c-.81-.257-1.387-.099-1.387.381s-.576.638-1.387.381c-.763-.242-1.604-.088-1.87.343s-1.105.586-1.864.345-1.79-.173-2.291.152c-1.022.661-2.67.828-13.688 1.379-5.413.271-7.864.138-8.226-.448zm87.592-34.722c1.555-1.592 2.664-2.895 2.465-2.895s-1.634 1.303-3.189 2.895-2.664 2.895-2.465 2.895 1.634-1.303 3.189-2.895zm-14.838-14.838c1.35-1.393 2.293-2.533 2.093-2.533s-1.467 1.14-2.817 2.533-2.293 2.533-2.093 2.533 1.467-1.14 2.817-2.533zm13.752-67.925c0-.137-.733-.87-1.629-1.629l-1.629-1.379 1.379 1.629c1.296 1.53 1.878 1.958 1.878 1.379zm-214.012 23.925c-.194-.315-.95-.383-1.679-.152s-1.526.096-1.772-.301-.924-.538-1.508-.314-1.063.012-1.063-.471-.488-.691-1.086-.462-1.086.066-1.086-.362-.489-.591-1.086-.362-1.086.082-1.086-.327-.326-.542-.724-.296-.724.083-.724-.362-.326-.608-.724-.362-.724.083-.724-.362-.326-.608-.724-.362-.724.083-.724-.362-.326-.608-.724-.362-.724.083-.724-.362-.292-.629-.648-.409-.843-.107-1.081-.727-.744-.935-1.125-.699-1.044-.229-1.474-1.033-1.016-1.388-1.303-1.299c-.681.211-8.508-7.616-8.297-8.297.089-.287-.496-.873-1.299-1.303s-1.268-1.093-1.033-1.474-.079-.887-.699-1.125-.946-.727-.724-1.086-.104-.848-.724-1.086-.947-.724-.727-1.081.056-.648-.366-.648-.694-.244-.605-.543c.251-.844-1.891-5.248-2.552-5.248-.324 0-.389-.326-.142-.724s.083-.724-.362-.724-.608-.326-.362-.724.068-.724-.397-.724-.656-.489-.427-1.086.111-1.086-.262-1.086-.491-.489-.262-1.086.066-1.086-.362-1.086-.604-.456-.39-1.012.035-1.231-.396-1.498-.589-.803-.349-1.191.077-1.139-.363-1.668-.601-1.476-.36-2.105.204-1.523-.083-1.987c-.699-1.131-.75-16.779-.059-17.898.3-.485.34-1.531.088-2.324-.273-.861-.127-1.441.364-1.441.48 0 .638-.576.381-1.387-.242-.763-.115-1.587.282-1.833s.538-.924.314-1.509-.012-1.063.471-1.063.691-.488.462-1.086-.111-1.086.262-1.086.491-.489.262-1.086-.037-1.086.427-1.086.643-.326.397-.724-.068-.724.397-.724.656-.489.427-1.086-.082-1.086.327-1.086.542-.326.296-.724-.083-.724.362-.724.608-.326.362-.724-.083-.724.362-.724.608-.326.362-.724-.083-.724.362-.724.629-.292.409-.648.107-.843.727-1.081.925-.761.677-1.162-.086-.729.359-.729.629-.292.409-.648.089-.836.688-1.066 1.004-.729.901-1.11.464-1.229 1.26-1.883.959-.975.362-.712-.271-.183.724-.991 1.828-1.732 1.85-2.053 2.612-3.19 5.755-6.375 5.462-5.302 5.152-4.705.157.271 1.036-.724 1.871-1.731 2.205-1.636.958-.484 1.388-1.287 1.093-1.268 1.474-1.033.887-.079 1.125-.699.69-.968 1.005-.774.767-.154 1.005-.774.761-.925 1.162-.677.729.086.729-.359.326-.608.724-.362.724.102.724-.319.489-.767 1.086-.767 1.086-.345 1.086-.767.326-.565.724-.319.724.083.724-.362.326-.608.724-.362.724.083.724-.362.326-.608.724-.362.724.083.724-.362.326-.608.724-.362.724.083.724-.362.326-.608.724-.362.724.113.724-.296.489-.556 1.086-.327 1.086.037 1.086-.427.326-.643.724-.397.724.083.724-.362.303-.622.674-.393.882.08 1.136-.331.765-.56 1.136-.331.674.037.674-.428.489-.656 1.086-.427 1.086.111 1.086-.262.489-.491 1.086-.262 1.086.022 1.086-.462.488-.691 1.086-.462 1.086.066 1.086-.362.478-.595 1.063-.371 1.246.11 1.471-.253.853-.49 1.398-.281 1.208.026 1.474-.405.803-.589 1.191-.349 1.139.077 1.668-.363 1.459-.608 2.066-.375 1.32.075 1.584-.352 1.255-.581 2.203-.343 2.15.158 2.67-.178c2.32-1.499 22.569-1.445 26.063.069.678.294 1.588.314 2.022.046s1.25-.107 1.812.36 1.34.652 1.728.412.924-.083 1.191.349.941.61 1.498.396 1.012-.038 1.012.39.489.591 1.086.362 1.086-.066 1.086.362.489.591 1.086.362 1.086-.082 1.086.327.298.56.662.335.776-.067.915.351.973.815 1.852.881 1.768.561 1.975 1.099.704.776 1.105.528.729-.086.729.359.292.629.648.409.853.133 1.103.785.65.99.889.75 1.071.284 1.848 1.163 1.16 1.109.852.512 1.205.706 3.364 2.895 3.855 4.215 3.77 4.502.502.873 1.306 1.303 1.269 1.091 1.036 1.469-.061.687.384.687.606.328.359.729.057.924.677 1.162.947.724.727 1.081-.036.648.409.648.622.303.393.674-.08.882.331 1.136.56.765.331 1.136-.052.674.393.674.622.303.393.674-.08.882.331 1.136.56.765.331 1.136-.05.674.399.674c.486 0 .63.585.356 1.448s-.13 1.448.362 1.448c.48 0 .638.576.381 1.387-.242.763-.159 1.561.185 1.773.777.48.697 16.405-.088 17.656-.315.501-.366 1.56-.115 2.352.273.861.127 1.441-.364 1.441s-.637.581-.362 1.448c.281.887.13 1.448-.391 1.448-.468 0-.663.489-.433 1.086s.066 1.086-.362 1.086-.591.489-.362 1.086.111 1.086-.262 1.086-.491.489-.262 1.086.037 1.086-.427 1.086-.643.326-.397.724.083.724-.362.724-.625.298-.4.662.067.776-.351.915-.815.982-.882 1.871-.378 1.618-.692 1.618-.57.489-.57 1.086-.345 1.086-.767 1.086-.565.326-.319.724.083.724-.362.724-.629.292-.409.648-.133.853-.785 1.103-.981.659-.731.909-.111.918-.801 1.484c-.83.681-.887.868-.17.552.597-.263.271.194-.724 1.016s-1.529 1.502-1.186 1.51-.146.692-1.086 1.519-1.22 1.288-.623 1.025-.054.554-1.448 1.815-2.045 2.068-1.448 1.793-.666 1.089-2.808 3.032-5.687 5.479-7.88 7.858-3.575 3.674-3.073 2.878.003-.47-1.108.724-2.311 2.171-2.665 2.171-1.305.814-2.113 1.809-1.254 1.321-.991.724-.048-.434-.692.362-1.494 1.448-1.89 1.448-1.028.489-1.405 1.086-.702.76-.72.362-.512-.092-1.097.681-1.063 1.118-1.063.766-.513-.007-1.139.766-.928.916-.67.319c.313-.724.127-.668-.561.17-.566.69-1.234 1.051-1.484.801s-.659.079-.909.731-.746 1.005-1.103.785-.648-.036-.648.409-.326.608-.724.362-.724-.083-.724.362-.326.608-.724.362-.724-.102-.724.319-.244.722-.543.668c-1.014-.184-6.695 2.486-6.695 3.146 0 .361-.326.455-.724.209s-.724-.083-.724.362-.326.608-.724.362-.724-.083-.724.362-.303.622-.674.393-.882-.08-1.136.331-.765.56-1.136.331-.674-.052-.674.393-.303.622-.674.393-.882-.08-1.136.331-.743.574-1.086.362-.832-.049-1.086.362-.765.56-1.136.331-.674-.037-.674.428-.478.66-1.063.436-1.246-.111-1.471.253-.853.49-1.398.281-1.208-.026-1.474.405-.803.589-1.191.349-1.139-.077-1.668.363-1.476.601-2.105.36-1.545-.19-2.037.114c-1.194.738-16.588.818-17.039.089zm227.357-40.503l-2.126-2.352 2.352 2.126c1.294 1.169 2.352 2.228 2.352 2.352 0 .559-.597.067-2.579-2.126z" fill="#00b2fd"/><path d="M371.994 528.412c-32.64-5.487-54.81-35.107-62.741-83.821-1.132-6.955-1.298-12.995-1.307-47.771-.011-38.871-.05-39.987-1.679-47.361-3.443-15.592-8.347-25.432-25.815-51.799-13.082-19.747-16.384-25.168-21.299-34.963-17.629-35.131-21.135-69.88-9.48-93.96 7.158-14.788 19.505-25.282 36.381-30.92 37.631-12.572 92.786-5.609 139.863 17.655 22.22 10.981 37.496 21.825 53.941 38.29 26.386 26.418 37.095 50.226 39.043 86.797 2.509 47.093-12.213 110.162-37.458 160.472-25.223 50.267-57.052 81.109-89.55 86.776-5.87 1.024-15.637 1.32-19.899.604zm18.428-21.581c6.319-1.339 18-7.063 24.638-12.073 41.39-31.241 78.449-117.065 82.914-192.019 1.59-26.692-1.648-47.044-10.201-64.106-26.438-52.744-108.962-92.811-175.135-85.03-23.746 2.792-37.398 10.17-43.766 23.651-3.933 8.327-4.964 13.381-4.928 24.142.036 10.48 1.586 19.506 5.39 31.382 4.942 15.428 10.358 25.623 27.353 51.493 17.731 26.989 22.087 34.9 26.447 48.028 5.545 16.698 6.211 24.327 5.981 68.503-.163 31.215-.027 36.713 1.053 42.704 4.344 24.099 11.731 40.833 23.008 52.118 11.036 11.045 22.182 14.399 37.246 11.207zm194.006 17.238c-1.592-.142-6.398-.912-10.68-1.71-30.992-5.781-52.804-22.634-58.039-44.845-1.593-6.761-1.452-18.034.314-24.937 5.614-21.951 23.883-39.005 49.075-45.81 6.478-1.75 8.153-1.898 21.501-1.9 13.467-.002 14.965.133 21.49 1.934 15.196 4.195 27.672 11.183 37.632 21.079 8.821 8.764 14.136 17.706 17.394 29.265 2.034 7.216 2.205 20.618.351 27.618-4.653 17.571-18.463 30.632-38.27 36.196-10.733 3.015-27.507 4.295-40.769 3.111zm31.485-22.272c17.027-4 26.87-13.535 28.01-27.134 1.878-22.406-18.129-43.579-45.864-48.536-3.248-.58-8.631-.785-14.797-.562-8.448.305-10.574.648-16.567 2.674-13.202 4.462-22.692 12.257-28.006 23.005-2.711 5.484-2.755 5.707-2.755 13.948 0 7.994.107 8.593 2.365 13.183 2.734 5.558 8.315 11.103 15.276 15.178 5.83 3.413 18.155 7.482 26.872 8.871 9.212 1.468 27.958 1.137 35.466-.627zm37.999-110.473c-34.586-3.148-64.323-20.294-75.202-43.359-3.662-7.763-4.779-12.847-4.767-21.685.013-8.916 1.234-14.766 4.609-22.071 10.577-22.892 34.81-39.223 66.149-44.581 9.549-1.632 27.33-1.96 36.715-.675 31.649 4.331 58.129 21.093 69.031 43.696 8.709 18.057 6.36 40.358-5.965 56.646-17.499 23.125-52.481 35.497-90.57 32.029zm33.609-22.36c21.294-4.339 37.427-14.859 43.993-28.684 2.422-5.1 2.731-6.413 2.983-12.687.233-5.79.007-7.824-1.311-11.782-11.025-33.131-69.443-47.904-109.674-27.735-20.031 10.043-31.093 26.484-28.546 42.428 1.771 11.083 9.282 20.586 22.372 28.304 9.147 5.393 23.658 9.969 36.574 11.532 8.596 1.041 25.057.366 33.609-1.377zM584.49 239.368c-24.936-3.926-42.213-17.944-49.032-39.781-2.369-7.586-2.396-23.541-.056-32.227 5.319-19.739 17.539-37.742 35.23-51.906 38.88-31.127 89.282-35.526 116.26-10.148 21.974 20.671 22.868 53.326 2.301 84.058-7.894 11.795-23.534 26.377-36.86 34.365-10.624 6.368-23.84 11.609-36.057 14.299-7.512 1.654-25.084 2.394-31.786 1.339zm24.631-21.359c32.939-5.744 63.001-30.648 72.039-59.678 2.195-7.052 2.369-18.646.367-24.437-7.612-22.013-36.029-30.119-67.361-19.213-14.62 5.089-26.719 12.702-37.699 23.72-14.425 14.476-22.076 30.283-22.076 45.609 0 17.985 11.304 30.435 31.173 34.332 5.242 1.028 16.679.867 23.557-.333zm-151.718-72.396c-2.189-.573-6.745-2.397-10.124-4.054-13.517-6.627-25.068-22.694-28.718-39.949-1.38-6.521-.959-22.059.765-28.22 5.95-21.271 21.256-38.741 43.506-49.654 24.568-12.05 51.493-14.803 71.911-7.351 27.542 10.052 38.125 38.425 25.446 68.22-4.946 11.622-16.789 26.482-28.874 36.231-14.81 11.946-34.111 21.743-48.82 24.781-6.8 1.404-19.717 1.403-25.09-.003zm28.59-22.715c17.87-6.388 36.819-19.952 47.452-33.966 7.492-9.874 12.168-22.783 11.234-31.013-1.469-12.942-9.57-21.008-23.827-23.724-16.53-3.149-36.141.922-54.581 11.331-8.16 4.606-18.493 15.068-22.413 22.692-1.637 3.185-3.494 7.792-4.125 10.238-1.3 5.033-1.488 15.628-.366 20.524 1.939 8.454 8.949 18.886 15.458 23.003 4.982 3.151 8.027 3.791 16.692 3.506 6.721-.221 8.977-.625 14.476-2.591z" fill="#fff"/><text xml:space="preserve" x="-40.461" y="986.89" font-size="192" font-family="sans-serif" fill="#fff"><tspan x="22.625" y="780.144" font-weight="normal" font-family="Segoe Print">enpasos.ai</tspan></text></svg>