<?xml version="1.0" encoding="UTF-8" standalone="no"?>
<svg
   xmlns:dc="http://purl.org/dc/elements/1.1/"
   xmlns:cc="http://creativecommons.org/ns#"
   xmlns:rdf="http://www.w3.org/1999/02/22-rdf-syntax-ns#"
   xmlns:svg="http://www.w3.org/2000/svg"
   xmlns="http://www.w3.org/2000/svg"
   xmlns:sodipodi="http://sodipodi.sourceforge.net/DTD/sodipodi-0.dtd"
   xmlns:inkscape="http://www.inkscape.org/namespaces/inkscape"
   version="1.1"
   id="svg874"
   width="840"
   height="840"
   viewBox="0 0 840 840"
   sodipodi:docname="logo.svg"
   inkscape:version="1.0.2-2 (e86c870879, 2021-01-15)">
  <metadata
     id="metadata880">
    <rdf:RDF>
      <cc:Work
         rdf:about="">
        <dc:format>image/svg+xml</dc:format>
        <dc:type
           rdf:resource="http://purl.org/dc/dcmitype/StillImage" />
        <dc:title></dc:title>
      </cc:Work>
    </rdf:RDF>
  </metadata>
  <defs
     id="defs878" />
  <sodipodi:namedview
     pagecolor="#ffffff"
     bordercolor="#666666"
     borderopacity="1"
     objecttolerance="10"
     gridtolerance="10"
     guidetolerance="10"
     inkscape:pageopacity="0"
     inkscape:pageshadow="2"
     inkscape:window-width="3840"
     inkscape:window-height="2054"
     id="namedview876"
     showgrid="false"
     inkscape:zoom="1.1369048"
     inkscape:cx="261.2356"
     inkscape:cy="455.18325"
     inkscape:window-x="-11"
     inkscape:window-y="-11"
     inkscape:window-maximized="1"
     inkscape:current-layer="g882" />
  <g
     inkscape:groupmode="layer"
     inkscape:label="Image"
     id="g882">
    <g
       id="g886">
      <path
         style="fill:#fefefe"
         d="M 0,420 V 0 H 420 840 V 420 840 H 420 0 Z"
         id="path892" />
      <path
         style="fill:#00b2fd"
         d="m 248.44992,756.91897 c -0.36746,-0.59456 -1.71644,-0.81791 -2.99773,-0.49633 -1.28129,0.32159 -2.62007,0.11474 -2.97506,-0.45965 -0.35499,-0.57439 -1.50757,-0.77072 -2.56129,-0.43628 C 238.79636,755.88202 238,755.66308 238,755 c 0,-0.6797 -0.80205,-0.88021 -2,-0.5 -1.12148,0.35594 -2,0.1797 -2,-0.40123 0,-0.5698 -0.675,-0.77698 -1.5,-0.4604 -0.825,0.31659 -1.5,0.0509 -1.5,-0.5904 0,-0.6413 -0.41891,-0.90711 -0.9309,-0.59068 -0.512,0.31644 -1.21809,0.11065 -1.5691,-0.45729 -0.35101,-0.56794 -1.0571,-0.77373 -1.5691,-0.45729 C 226.41891,751.85914 226,751.61492 226,751 c 0,-0.61492 -0.45,-0.83992 -1,-0.5 -0.55,0.33992 -1,0.11492 -1,-0.5 0,-0.61492 -0.45,-0.83992 -1,-0.5 -0.55,0.33992 -1,0.11492 -1,-0.5 0,-0.61492 -0.45,-0.83992 -1,-0.5 -0.55,0.33992 -1,0.11492 -1,-0.5 0,-0.61492 -0.45,-0.83992 -1,-0.5 -0.55,0.33992 -1,0.11492 -1,-0.5 0,-0.61492 -0.42234,-0.85701 -0.93854,-0.53798 -0.5162,0.31902 -1.40251,-0.21692 -1.96959,-1.19099 -0.56708,-0.97407 -1.05163,-1.32103 -1.07677,-0.77103 -0.0251,0.55 -0.47242,0.325 -0.99394,-0.5 -0.52152,-0.825 -1.3639,-1.5 -1.87196,-1.5 -0.50805,0 -1.90875,-1.125 -3.11266,-2.5 -1.2039,-1.375 -1.86292,-1.87254 -1.46449,-1.10564 0.39843,0.7669 -2.58434,-1.9331 -6.62838,-6 -4.04404,-4.0669 -7.37325,-7.75757 -7.39824,-8.20148 -0.025,-0.44392 -1.17043,-1.72047 -2.54543,-2.83678 -1.375,-1.11631 -1.825,-1.73223 -1,-1.36872 0.825,0.36351 0.6,-0.0668 -0.5,-0.95627 -1.1,-0.88946 -2,-2.06425 -2,-2.61063 0,-0.54639 -0.675,-1.42012 -1.5,-1.94164 -0.825,-0.52152 -1.05,-0.96879 -0.5,-0.99394 0.55,-0.0251 0.20304,-0.50969 -0.77103,-1.07677 -0.97407,-0.56708 -1.51001,-1.45339 -1.19099,-1.96959 C 182.85701,710.42234 182.61492,710 182,710 c -0.61492,0 -0.83992,-0.45 -0.5,-1 0.33992,-0.55 0.14148,-1 -0.44098,-1 C 180.47656,708 180,707.325 180,706.5 c 0,-0.825 -0.47656,-1.5 -1.05902,-1.5 -0.58246,0 -0.7809,-0.45 -0.44098,-1 0.33992,-0.55 0.11492,-1 -0.5,-1 -0.61492,0 -0.83992,-0.45 -0.5,-1 0.33992,-0.55 0.11492,-1 -0.5,-1 -0.61492,0 -0.83992,-0.45 -0.5,-1 0.33992,-0.55 0.11492,-1 -0.5,-1 -0.61492,0 -0.83992,-0.45 -0.5,-1 0.33992,-0.55 0.1556,-1 -0.4096,-1 -0.5652,0 -0.76861,-0.675 -0.45203,-1.5 0.31659,-0.825 0.0509,-1.5 -0.5904,-1.5 -0.6413,0 -0.88789,-0.45 -0.54797,-1 0.33992,-0.55 0.11492,-1 -0.5,-1 -0.61492,0 -0.83992,-0.45 -0.5,-1 0.33992,-0.55 0.1556,-1 -0.4096,-1 -0.5652,0 -0.76861,-0.675 -0.45203,-1.5 0.31659,-0.825 0.0509,-1.5 -0.5904,-1.5 -0.6413,0 -0.90711,-0.41891 -0.59068,-0.9309 0.31644,-0.512 0.11065,-1.21809 -0.45729,-1.5691 -0.56794,-0.35101 -0.77373,-1.0571 -0.45729,-1.5691 0.31643,-0.51199 0.11289,-0.9309 -0.45231,-0.9309 -0.5652,0 -0.76861,-0.675 -0.45203,-1.5 0.31659,-0.825 0.0916,-1.5 -0.5,-1.5 -0.59158,0 -0.81658,-0.675 -0.5,-1.5 0.31685,-0.82569 0.0299,-1.5 -0.63837,-1.5 -0.66769,0 -0.96049,-0.66059 -0.65066,-1.46797 0.30982,-0.80739 0.12563,-1.73849 -0.40933,-2.0691 -0.53495,-0.33062 -0.73295,-0.98894 -0.44001,-1.46293 0.29294,-0.47399 0.0949,-1.13231 -0.44001,-1.46293 -0.53496,-0.33061 -0.73662,-1.21619 -0.44814,-1.96794 0.28847,-0.75176 0.0635,-1.65176 -0.5,-2 -0.56348,-0.34825 -0.78848,-1.24825 -0.5,-2 0.28847,-0.75176 0.0635,-1.65176 -0.5,-2 -0.56348,-0.34825 -0.78848,-1.24825 -0.5,-2 0.28847,-0.75176 0.0255,-1.67522 -0.58435,-2.05214 -0.60987,-0.37692 -0.84725,-1.50956 -0.5275,-2.51699 0.31975,-1.00743 0.1114,-2.12214 -0.46299,-2.47713 -0.57439,-0.35499 -0.76892,-1.74286 -0.43227,-3.08416 C 160.99622,647.87893 160.7887,647 160.02895,647 c -0.79095,0 -0.97468,-0.9706 -0.54986,-2.9048 0.38045,-1.73219 0.18705,-3.1835 -0.47909,-3.5952 -0.66305,-0.40979 -0.85995,-1.86114 -0.48445,-3.5708 0.34795,-1.58422 0.2618,-3.45388 -0.19145,-4.1548 -1.03,-1.59281 -1.23407,-6.81036 -1.32097,-33.7744 -0.0908,-28.16656 -0.17268,-73.57243 -0.14062,-77.96513 0.0139,-1.90582 -0.43664,-4.02173 -1.00123,-4.70201 -0.56458,-0.68029 -0.74603,-2.12061 -0.40322,-3.20072 0.34281,-1.0801 0.13669,-2.26457 -0.45806,-2.63214 -0.59475,-0.36757 -0.81975,-1.49257 -0.5,-2.5 0.31975,-1.00743 0.1327,-2.10897 -0.41565,-2.44787 -0.54835,-0.3389 -0.76098,-1.23125 -0.4725,-1.983 0.28847,-0.75176 0.0635,-1.65176 -0.5,-2 -0.56348,-0.34825 -0.77101,-1.29377 -0.46119,-2.10116 0.30983,-0.80738 0.0793,-1.46797 -0.51229,-1.46797 -0.59158,0 -0.81658,-0.675 -0.5,-1.5 0.31659,-0.825 0.0916,-1.5 -0.5,-1.5 -0.59158,0 -0.81658,-0.675 -0.5,-1.5 0.31659,-0.825 0.0509,-1.5 -0.5904,-1.5 -0.6413,0 -0.90711,-0.41891 -0.59068,-0.9309 0.31644,-0.512 0.11065,-1.21809 -0.45729,-1.5691 -0.56794,-0.35101 -0.77373,-1.0571 -0.45729,-1.5691 C 148.85914,487.41891 148.61492,487 148,487 c -0.61492,0 -0.83992,-0.45 -0.5,-1 0.33992,-0.55 0.1556,-1 -0.4096,-1 -0.5652,0 -0.79087,-0.61698 -0.5015,-1.37106 0.28936,-0.75408 -0.15333,-2.05051 -0.98377,-2.88095 -0.83044,-0.83044 -1.23132,-1.78847 -0.89084,-2.12894 0.34047,-0.34048 0.0675,-0.61905 -0.60664,-0.61905 -0.67413,0 -0.94757,-0.45 -0.60765,-1 0.33992,-0.55 0.11492,-1 -0.5,-1 -0.61492,0 -0.83992,-0.45 -0.5,-1 0.33992,-0.55 0.14148,-1 -0.44098,-1 C 141.47656,474 141,473.325 141,472.5 c 0,-0.825 -0.47656,-1.5 -1.05902,-1.5 -0.58246,0 -0.7809,-0.45 -0.44098,-1 0.33992,-0.55 0.11492,-1 -0.5,-1 -0.61492,0 -0.83992,-0.45 -0.5,-1 0.33992,-0.55 0.11492,-1 -0.5,-1 -0.61492,0 -0.83795,-0.45318 -0.49563,-1.00706 0.34231,-0.55389 -0.0785,-1.27604 -0.93524,-1.60479 -0.85671,-0.32874 -1.30867,-1.00057 -1.00437,-1.49293 C 135.86906,462.40285 135.61492,462 135,462 c -0.61492,0 -0.83795,-0.45318 -0.49563,-1.00706 0.34231,-0.55389 -0.0785,-1.27604 -0.93524,-1.60479 -0.85671,-0.32874 -1.33781,-0.95341 -1.06913,-1.38815 0.26868,-0.43474 -0.21242,-1.05941 -1.06913,-1.38815 -0.8567,-0.32875 -1.3067,-1.00375 -1,-1.5 0.30671,-0.49626 -0.14329,-1.17126 -1,-1.5 -0.8567,-0.32875 -1.27755,-1.0509 -0.93524,-1.60479 0.34232,-0.55388 0.14585,-1.00706 -0.43661,-1.00706 -0.58246,0 -0.94652,-0.41824 -0.80902,-0.92942 0.1375,-0.51118 -0.65,-1.66955 -1.75,-2.57416 -1.1,-0.9046 -1.325,-1.34731 -0.5,-0.9838 0.825,0.36351 0.375,-0.31717 -1,-1.51262 -1.375,-1.19545 -1.825,-1.87045 -1,-1.5 0.825,0.37045 0.375,-0.30455 -1,-1.5 -1.375,-1.19545 -1.825,-1.87045 -1,-1.5 0.825,0.37045 0.375,-0.30455 -1,-1.5 -1.375,-1.19545 -1.825,-1.87045 -1,-1.5 0.825,0.37045 0.375,-0.25549 -1,-1.39099 -1.375,-1.13549 -2.05,-2.08823 -1.5,-2.11718 0.55,-0.029 0.20304,-0.51662 -0.77103,-1.0837 -0.97407,-0.56708 -1.53915,-1.40624 -1.25575,-1.86481 0.28341,-0.45856 -0.18564,-1.10273 -1.04235,-1.43147 -0.8567,-0.32875 -1.3067,-1.00375 -1,-1.5 0.30671,-0.49626 -0.14329,-1.17126 -1,-1.5 -0.8567,-0.32875 -1.3067,-1.00375 -1,-1.5 0.30671,-0.49626 -0.14329,-1.17126 -1,-1.5 -0.8567,-0.32875 -1.27755,-1.0509 -0.93524,-1.60479 C 108.83795,421.45318 108.61492,421 108,421 c -0.61492,0 -0.83795,-0.45318 -0.49563,-1.00706 0.34231,-0.55389 -0.0785,-1.27604 -0.93524,-1.60479 -0.85671,-0.32874 -1.30671,-1.00374 -1,-1.5 0.3067,-0.49625 -0.1433,-1.17125 -1,-1.5 -0.85671,-0.32874 -1.30867,-1.00057 -1.00437,-1.49293 C 103.86906,413.40285 103.61492,413 103,413 c -0.61492,0 -0.83795,-0.45318 -0.49563,-1.00706 0.34231,-0.55389 -0.0785,-1.27604 -0.93524,-1.60479 -0.85671,-0.32874 -1.33781,-0.95341 -1.06913,-1.38815 0.26868,-0.43474 -0.21242,-1.05941 -1.069126,-1.38815 -0.856701,-0.32875 -1.277559,-1.0509 -0.935239,-1.60479 C 98.837954,405.45318 98.614919,405 98,405 c -0.614919,0 -0.839919,-0.45 -0.5,-1 0.339919,-0.55 0.114919,-1 -0.5,-1 -0.614919,0 -0.869061,-0.40285 -0.564761,-0.89522 0.304301,-0.49236 -0.147663,-1.16419 -1.004365,-1.49293 -0.856701,-0.32875 -1.277559,-1.0509 -0.935239,-1.60479 C 94.837954,398.45318 94.614919,398 94,398 c -0.614919,0 -0.839919,-0.45 -0.5,-1 0.339919,-0.55 0.114919,-1 -0.5,-1 -0.614919,0 -0.839919,-0.45 -0.5,-1 0.339919,-0.55 0.114919,-1 -0.5,-1 -0.614919,0 -0.839919,-0.45 -0.5,-1 0.339919,-0.55 0.114919,-1 -0.5,-1 -0.614919,0 -0.839919,-0.45 -0.5,-1 0.339919,-0.55 0.114919,-1 -0.5,-1 -0.614919,0 -0.839919,-0.45 -0.5,-1 0.339919,-0.55 0.114919,-1 -0.5,-1 -0.614919,0 -0.839919,-0.45 -0.5,-1 0.339919,-0.55 0.114919,-1 -0.5,-1 -0.614919,0 -0.839919,-0.45 -0.5,-1 0.339919,-0.55 0.114919,-1 -0.5,-1 -0.614919,0 -0.839919,-0.45 -0.5,-1 0.339919,-0.55 0.114919,-1 -0.5,-1 -0.614919,0 -0.839919,-0.45 -0.5,-1 0.339919,-0.55 0.237238,-1 -0.228179,-1 -0.465417,0 -0.92198,-1.00584 -1.014584,-2.23519 -0.0926,-1.22935 -0.64117,-2.39279 -1.219035,-2.58541 -0.577865,-0.19262 -0.796302,-0.76179 -0.485416,-1.26481 C 82.863673,373.41157 82.655599,373 82.090402,373 c -0.565198,0 -0.768611,-0.675 -0.452028,-1.5 0.316582,-0.825 0.0509,-1.5 -0.590402,-1.5 -0.641303,0 -0.887891,-0.45 -0.547972,-1 0.339919,-0.55 0.155599,-1 -0.409598,-1 -0.565198,0 -0.768611,-0.675 -0.452028,-1.5 0.316582,-0.825 0.0509,-1.5 -0.590402,-1.5 -0.641303,0 -0.907108,-0.41891 -0.590677,-0.9309 0.316431,-0.512 0.110648,-1.21809 -0.457295,-1.5691 -0.567943,-0.35101 -0.792943,-1.02601 -0.5,-1.5 0.292943,-0.47399 0.06794,-1.14899 -0.5,-1.5 -0.567943,-0.35101 -0.792943,-1.02601 -0.5,-1.5 0.292943,-0.47399 0.09494,-1.13231 -0.440014,-1.46293 -0.534951,-0.33061 -0.719146,-1.26171 -0.409323,-2.0691 C 75.960486,353.66059 75.729956,353 75.138374,353 c -0.591583,0 -0.816583,-0.675 -0.5,-1.5 0.316582,-0.825 0.04713,-1.5 -0.598773,-1.5 -0.719301,0 -0.928399,-0.77501 -0.539601,-2 0.388798,-1.22499 0.1797,-2 -0.539601,-2 -0.645907,0 -0.920885,-0.66059 -0.611062,-1.46797 0.309823,-0.80739 0.114664,-1.74526 -0.433688,-2.08416 -0.548352,-0.3389 -0.723374,-1.47831 -0.388939,-2.53203 C 71.882022,338.79636 71.663085,338 71,338 70.336915,338 70.117978,337.20364 70.47329,336.08416 70.807725,335.03044 70.594745,333.86757 70,333.5 69.405255,333.13243 69.199128,331.94796 69.541941,330.86786 69.884754,329.78775 69.64088,328.27221 69,327.5 c -0.64088,-0.77221 -0.874012,-2.32159 -0.518071,-3.44306 0.355941,-1.12148 0.295591,-2.60557 -0.134112,-3.29799 -1.103256,-1.77778 -1.132096,-30.99731 -0.03207,-32.49622 0.499405,-0.68049 0.6249,-1.97503 0.27888,-2.87674 -0.346021,-0.90172 -0.121021,-2.25172 0.5,-3 0.62102,-0.74829 0.873438,-2.02684 0.560927,-2.84123 -0.312511,-0.81439 -0.107177,-1.76564 0.456298,-2.11389 0.563474,-0.34824 0.788474,-1.24824 0.5,-2 -0.288475,-0.75175 -0.08681,-1.63733 0.448138,-1.96794 0.534947,-0.33062 0.732953,-0.98894 0.44001,-1.46293 -0.292943,-0.47399 -0.06794,-1.14899 0.5,-1.5 0.567943,-0.35101 0.792943,-1.02601 0.5,-1.5 -0.292943,-0.47399 -0.06794,-1.14899 0.5,-1.5 0.567943,-0.35101 0.773726,-1.0571 0.457295,-1.5691 C 73.140864,265.41891 73.406669,265 74.047972,265 c 0.641303,0 0.906984,-0.675 0.590402,-1.5 -0.316583,-0.825 -0.11317,-1.5 0.452028,-1.5 0.565197,0 0.749517,-0.45 0.409598,-1 -0.339919,-0.55 -0.114919,-1 0.5,-1 0.614919,0 0.839919,-0.45 0.5,-1 -0.339919,-0.55 -0.114919,-1 0.5,-1 0.614919,0 0.839919,-0.45 0.5,-1 -0.339919,-0.55 -0.114919,-1 0.5,-1 0.614919,0 0.869061,-0.40285 0.564761,-0.89522 -0.304301,-0.49236 0.147663,-1.16419 1.004365,-1.49293 0.856701,-0.32875 1.277559,-1.0509 0.935239,-1.60479 C 80.162046,251.45318 80.358524,251 80.940983,251 c 0.582459,0 0.946517,-0.41824 0.809017,-0.92942 -0.1375,-0.51118 0.65,-1.66955 1.75,-2.57416 1.1,-0.9046 1.325,-1.32704 0.5,-0.93874 -0.825,0.3883 0.075,-0.73415 2,-2.49433 1.925,-1.76018 2.825,-2.88038 2,-2.48932 -0.825,0.39105 0.733084,-1.60313 3.462408,-4.43152 5.082133,-5.26658 6.138733,-6.08653 5.015935,-3.89251 -0.351831,0.6875 0.475327,0.0412 1.838128,-1.43619 1.362801,-1.4774 2.712649,-2.45136 2.999659,-2.16435 0.287,0.28701 1.03087,-0.42931 1.65302,-1.59182 0.62216,-1.16251 1.55862,-1.8495 2.08102,-1.52663 0.52241,0.32286 0.94983,0.11047 0.94983,-0.47199 0,-0.58246 0.675,-1.05902 1.5,-1.05902 0.825,0 1.5,-0.47656 1.5,-1.05902 0,-0.58246 0.45,-0.7809 1,-0.44098 0.55,0.33992 1,0.11492 1,-0.5 0,-0.61492 0.45,-0.83992 1,-0.5 0.55,0.33992 1,0.11492 1,-0.5 0,-0.61492 0.45,-0.83992 1,-0.5 0.55,0.33992 1,0.11492 1,-0.5 0,-0.61492 0.45,-0.83992 1,-0.5 0.55,0.33992 1,0.11492 1,-0.5 0,-0.61492 0.45,-0.83992 1,-0.5 0.55,0.33992 1,0.1556 1,-0.4096 0,-0.5652 0.675,-0.76861 1.5,-0.45203 0.825,0.31659 1.5,0.0916 1.5,-0.5 0,-0.59158 0.675,-0.81658 1.5,-0.5 0.825,0.31659 1.5,0.0509 1.5,-0.5904 0,-0.6413 0.41891,-0.90711 0.9309,-0.59068 0.512,0.31644 1.20141,0.13765 1.53203,-0.3973 0.33061,-0.53496 1.26171,-0.71915 2.0691,-0.40933 C 130.33941,215.96049 131,215.66769 131,215 c 0,-0.66769 0.66059,-0.96049 1.46797,-0.65066 0.80739,0.30982 1.7218,0.15262 2.03203,-0.34934 0.31023,-0.50196 1.17912,-0.67663 1.93087,-0.38815 0.75176,0.28847 1.63779,0.0861 1.96898,-0.4498 0.33118,-0.53586 1.50169,-0.73905 2.60115,-0.45154 1.13208,0.29605 1.999,0.0302 1.999,-0.61293 0,-0.69823 0.92095,-0.90454 2.39091,-0.5356 1.33261,0.33446 2.69776,0.10357 3.08415,-0.52163 0.38129,-0.61694 1.57698,-0.84122 2.65708,-0.49841 1.08011,0.34281 2.59565,0.0989 3.36786,-0.54194 0.77221,-0.64088 2.32159,-0.87401 3.44306,-0.51807 1.12148,0.35594 2.60557,0.28062 3.29799,-0.16738 3.12746,-2.02349 48.39583,-2.01366 51.53335,0.0112 0.70092,0.45235 2.63185,0.52431 4.29096,0.1599 1.80008,-0.39536 3.58559,-0.19029 4.42761,0.50853 0.77608,0.64409 2.35424,0.87171 3.50703,0.50583 1.15279,-0.36588 2.72779,-0.14088 3.5,0.5 0.77221,0.64088 2.28775,0.88475 3.36786,0.54194 1.0801,-0.34281 2.26457,-0.13669 2.63214,0.45806 0.36757,0.59475 1.49257,0.81975 2.5,0.5 1.00743,-0.31975 2.13243,-0.0948 2.5,0.5 0.36757,0.59475 1.49257,0.81975 2.5,0.5 1.00743,-0.31975 2.13243,-0.0948 2.5,0.5 0.36757,0.59475 1.53044,0.80773 2.58416,0.47329 C 248.20364,214.11798 249,214.33692 249,215 c 0,0.66308 0.79636,0.88202 1.91584,0.52671 1.05372,-0.33444 2.22423,-0.10908 2.60115,0.50079 0.37692,0.60986 1.30038,0.87282 2.05214,0.58435 0.75175,-0.28848 1.62064,-0.11381 1.93087,0.38815 0.31023,0.50196 1.22464,0.65916 2.03203,0.34934 C 260.33941,217.03951 261,217.33231 261,218 c 0,0.66769 0.66059,0.96049 1.46797,0.65066 0.80739,-0.30982 1.75291,-0.10229 2.10116,0.46119 0.34824,0.56347 1.26265,0.78294 2.03202,0.48771 0.76937,-0.29524 1.39885,-0.0528 1.39885,0.53881 0,0.59159 0.66059,0.82212 1.46797,0.51229 0.80739,-0.30982 1.73849,-0.12563 2.0691,0.40933 0.33062,0.53495 0.98894,0.73295 1.46293,0.44001 0.47399,-0.29294 1.13231,-0.0949 1.46293,0.44001 0.33061,0.53496 1.26171,0.71915 2.0691,0.40933 C 277.33941,222.03951 278,222.33231 278,223 c 0,0.66825 0.67431,0.95522 1.5,0.63837 0.825,-0.31658 1.5,-0.0916 1.5,0.5 0,0.59159 0.675,0.81659 1.5,0.5 0.825,-0.31658 1.5,-0.11317 1.5,0.45203 0,0.5652 0.41891,0.76874 0.9309,0.45231 0.512,-0.31644 1.21809,-0.11065 1.5691,0.45729 0.35101,0.56794 1.0571,0.77373 1.5691,0.45729 0.51199,-0.31643 0.9309,-0.0506 0.9309,0.59068 0,0.6413 0.675,0.90699 1.5,0.5904 0.825,-0.31658 1.5,-0.11317 1.5,0.45203 0,0.5652 0.41891,0.76874 0.9309,0.45231 0.512,-0.31644 1.21809,-0.11065 1.5691,0.45729 0.35101,0.56794 1.0571,0.77373 1.5691,0.45729 C 296.58109,229.14086 297,229.38508 297,230 c 0,0.61492 0.41891,0.85914 0.9309,0.54271 0.512,-0.31644 1.21809,-0.11065 1.5691,0.45729 0.35101,0.56794 1.0571,0.77373 1.5691,0.45729 C 301.58109,231.14086 302,231.38508 302,232 c 0,0.61492 0.41891,0.85914 0.9309,0.54271 0.512,-0.31644 1.21809,-0.11065 1.5691,0.45729 0.35101,0.56794 1.0571,0.77373 1.5691,0.45729 C 306.58109,233.14086 307,233.38508 307,234 c 0,0.61492 0.45,0.83992 1,0.5 0.55,-0.33992 1,-0.11492 1,0.5 0,0.61492 0.45,0.83992 1,0.5 0.55,-0.33992 1,-0.11492 1,0.5 0,0.61492 0.41891,0.85914 0.9309,0.54271 0.512,-0.31644 1.21809,-0.11065 1.5691,0.45729 0.35101,0.56794 1.0571,0.77373 1.5691,0.45729 C 315.58109,237.14086 316,237.38508 316,238 c 0,0.61492 0.45,0.83992 1,0.5 0.55,-0.33992 1,-0.11492 1,0.5 0,0.61492 0.45,0.83992 1,0.5 0.55,-0.33992 1,-0.11492 1,0.5 0,0.61492 0.45,0.83992 1,0.5 0.55,-0.33992 1,-0.11492 1,0.5 0,0.61492 0.45,0.83992 1,0.5 0.55,-0.33992 1,-0.11492 1,0.5 0,0.61492 0.45,0.83992 1,0.5 0.55,-0.33992 1,-0.11492 1,0.5 0,0.61492 0.45,0.83992 1,0.5 0.55,-0.33992 1,-0.11492 1,0.5 0,0.61492 0.40285,0.86906 0.89522,0.56476 0.49236,-0.3043 1.16419,0.14766 1.49293,1.00437 0.32875,0.8567 1.0509,1.27755 1.60479,0.93524 C 332.54682,246.16205 333,246.38508 333,247 c 0,0.61492 0.45,0.83992 1,0.5 0.55,-0.33992 1,-0.11492 1,0.5 0,0.61492 0.45,0.83992 1,0.5 0.55,-0.33992 1,-0.11492 1,0.5 0,0.61492 0.40285,0.86906 0.89522,0.56476 0.49236,-0.3043 1.16419,0.14766 1.49293,1.00437 0.32875,0.8567 1.0509,1.27755 1.60479,0.93524 C 341.54682,251.16205 342,251.38508 342,252 c 0,0.61492 0.40285,0.86906 0.89522,0.56476 0.49236,-0.3043 1.16419,0.14766 1.49293,1.00437 0.32875,0.8567 1.0509,1.27755 1.60479,0.93524 C 346.54682,254.16205 347,254.38508 347,255 c 0,0.61492 0.45318,0.83795 1.00706,0.49563 0.55389,-0.34231 1.27604,0.0785 1.60479,0.93524 0.32874,0.85671 0.95341,1.33781 1.38815,1.06913 0.43474,-0.26868 1.05941,0.21242 1.38815,1.06913 0.32875,0.8567 1.00375,1.3067 1.5,1 0.49626,-0.30671 1.17126,0.14329 1.5,1 0.32875,0.8567 1.00375,1.3067 1.5,1 0.49626,-0.30671 1.16191,0.11895 1.47924,0.94589 0.31733,0.82694 1.00772,1.38686 1.5342,1.24426 0.52649,-0.14261 1.69738,0.64072 2.60199,1.74072 0.9046,1.1 1.35299,1.325 0.99642,0.5 -0.35657,-0.825 0.0794,-0.6 0.96889,0.5 0.88946,1.1 1.9971,2 2.46143,2 0.46432,0 1.82923,1.125 3.03314,2.5 1.2039,1.375 1.89058,1.825 1.52595,1 -0.36463,-0.825 0.25038,-0.375 1.36669,1 1.11631,1.375 2.41118,2.5 2.8775,2.5 0.46631,0 2.35071,1.575 4.18754,3.5 1.83684,1.925 2.7616,2.6 2.05503,1.5 -0.70657,-1.1 1.01526,0.475 3.82629,3.5 2.81102,3.025 5.13043,5.06881 5.15425,4.54179 0.0238,-0.52701 2.04878,1.01003 4.49993,3.41565 2.45115,2.40563 4.25016,4.70795 3.9978,5.11628 -0.25236,0.40833 1.90465,2.84906 4.79336,5.42384 2.88871,2.57478 4.5772,4.37984 3.7522,4.01125 -0.825,-0.36859 -0.15,0.57186 1.5,2.08988 1.65,1.51802 2.89198,3.11589 2.75995,3.55082 -0.13202,0.43493 0.66808,1.27679 1.77801,1.87081 1.10993,0.59401 1.76785,1.48487 1.46204,1.97968 -0.30581,0.49481 0.36919,1.39481 1.5,2 1.13081,0.60519 1.78989,1.53095 1.46463,2.05724 -0.32527,0.52629 0.10954,1.22586 0.96624,1.55461 0.85671,0.32874 1.30671,1.00374 1,1.5 -0.3067,0.49625 0.1433,1.17125 1,1.5 0.85671,0.32874 1.32576,0.97291 1.04235,1.43147 -0.2834,0.45857 0.28168,1.29773 1.25575,1.86481 0.97407,0.56708 1.34752,1.04474 0.8299,1.06146 -0.51762,0.0167 -0.0676,0.73878 1,1.60457 1.06762,0.86578 1.26613,1.28241 0.44113,0.92584 -1.00089,-0.4326 -0.92288,-0.17482 0.23446,0.77472 0.95395,0.78267 1.44145,1.71604 1.08333,2.07416 -0.35812,0.35811 -0.0996,0.65112 0.57456,0.65112 0.67413,0 0.9456,0.45318 0.60328,1.00706 -0.34231,0.55389 0.0785,1.27604 0.93524,1.60479 0.85671,0.32874 1.30867,1.00057 1.00437,1.49293 C 430.13094,339.59715 430.38508,340 431,340 c 0.61492,0 0.83992,0.45 0.5,1 -0.33992,0.55 -0.11492,1 0.5,1 0.61492,0 0.83992,0.45 0.5,1 -0.33992,0.55 -0.11492,1 0.5,1 0.61492,0 0.83992,0.45 0.5,1 -0.33992,0.55 -0.11492,1 0.5,1 0.61492,0 0.85914,0.41891 0.54271,0.9309 -0.31644,0.512 -0.11065,1.21809 0.45729,1.5691 0.56794,0.35101 0.77373,1.0571 0.45729,1.5691 C 435.14086,350.58109 435.38508,351 436,351 c 0.61492,0 0.83992,0.45 0.5,1 -0.33992,0.55 -0.11492,1 0.5,1 0.61492,0 0.85914,0.41891 0.54271,0.9309 -0.31644,0.512 -0.11065,1.21809 0.45729,1.5691 0.56794,0.35101 0.77373,1.0571 0.45729,1.5691 -0.31643,0.51199 -0.11289,0.9309 0.45231,0.9309 0.5652,0 0.76861,0.675 0.45203,1.5 -0.31659,0.825 -0.0916,1.5 0.5,1.5 0.59158,0 0.81658,0.675 0.5,1.5 -0.31659,0.825 -0.0916,1.5 0.5,1.5 0.59158,0 0.81658,0.675 0.5,1.5 -0.31659,0.825 -0.0916,1.5 0.5,1.5 0.59158,0 0.83405,0.62948 0.53881,1.39885 -0.29523,0.76937 -0.0758,1.68378 0.48771,2.03202 0.56348,0.34825 0.77101,1.29377 0.46119,2.10116 -0.30983,0.80738 -0.0349,1.46797 0.61106,1.46797 0.7021,0 0.92984,0.77045 0.56631,1.91584 -0.33444,1.05372 -0.18201,2.17916 0.33873,2.501 0.52074,0.32183 0.71156,1.4847 0.42405,2.58416 -0.29605,1.13208 -0.0302,1.999 0.61293,1.999 0.69823,0 0.90454,0.92095 0.5356,2.39091 -0.33004,1.31499 -0.12835,2.68244 0.4482,3.03877 0.57655,0.35633 0.79268,1.92584 0.48028,3.48781 -0.32087,1.60434 -0.0881,3.13652 0.53492,3.52159 0.67699,0.4184 0.86738,2.15455 0.49302,4.49568 -0.33544,2.09773 -0.22391,4.05259 0.24784,4.34414 0.47174,0.29155 0.70682,11.48556 0.52238,24.87559 -0.41788,30.33755 -0.57417,33.91918 -1.57521,36.09775 -0.44283,0.96373 -0.51224,2.91927 -0.15424,4.34565 0.36849,1.46818 0.14989,3.1971 -0.50382,3.98478 -0.6351,0.76525 -0.87782,2.49462 -0.53939,3.84306 0.34522,1.37545 0.13053,2.75133 -0.48907,3.13426 -0.62455,0.386 -0.85763,1.91651 -0.53643,3.52252 0.3124,1.56197 0.0963,3.13148 -0.48028,3.48781 -0.57655,0.35633 -0.78516,1.6962 -0.46358,2.97749 0.32159,1.28129 0.0966,2.63129 -0.5,3 -0.59658,0.36871 -0.82158,1.71871 -0.5,3 0.32159,1.28129 0.11474,2.62007 -0.45965,2.97506 -0.57439,0.35499 -0.78274,1.4697 -0.46299,2.47713 0.31975,1.00743 0.0947,2.13243 -0.5,2.5 -0.59475,0.36757 -0.81975,1.49257 -0.5,2.5 0.31975,1.00743 0.0947,2.13243 -0.5,2.5 -0.59475,0.36757 -0.81975,1.49257 -0.5,2.5 0.31975,1.00743 0.0947,2.13243 -0.5,2.5 -0.59475,0.36757 -0.80773,1.53044 -0.47329,2.58416 C 439.88202,518.20364 439.66308,519 439,519 c -0.66308,0 -0.88202,0.79636 -0.52671,1.91584 0.33444,1.05372 0.13242,2.20981 -0.44892,2.5691 -0.58135,0.35929 -0.78591,1.09187 -0.45459,1.62796 0.33132,0.53609 0.0749,1.61029 -0.56978,2.3871 -0.6447,0.77681 -0.9011,1.85101 -0.56978,2.3871 0.33132,0.53609 0.11439,1.27632 -0.48208,1.64495 -0.59647,0.36864 -0.84846,1.28532 -0.55999,2.03708 0.28848,0.75175 0.11381,1.62064 -0.38815,1.93087 -0.50196,0.31023 -0.65916,1.22464 -0.34934,2.03203 0.30983,0.80738 0.0349,1.46797 -0.61106,1.46797 -0.7193,0 -0.9284,0.77501 -0.5396,2 0.3888,1.22499 0.1797,2 -0.5396,2 -0.64591,0 -0.92089,0.66059 -0.61106,1.46797 0.30982,0.80739 0.15262,1.7218 -0.34934,2.03203 -0.50196,0.31023 -0.65916,1.22464 -0.34934,2.03203 C 431.96049,549.33941 431.66769,550 431,550 c -0.66825,0 -0.95522,0.67431 -0.63837,1.5 0.31658,0.825 0.0916,1.5 -0.5,1.5 -0.59159,0 -0.82212,0.66059 -0.51229,1.46797 0.30982,0.80739 0.15262,1.7218 -0.34934,2.03203 -0.50196,0.31023 -0.65916,1.22464 -0.34934,2.03203 C 428.96049,559.33941 428.66769,560 428,560 c -0.66825,0 -0.95522,0.67431 -0.63837,1.5 0.31658,0.825 0.0916,1.5 -0.5,1.5 -0.59159,0 -0.81659,0.675 -0.5,1.5 0.31658,0.825 0.0916,1.5 -0.5,1.5 -0.59159,0 -0.81659,0.675 -0.5,1.5 0.31658,0.825 0.0916,1.5 -0.5,1.5 -0.59159,0 -0.81659,0.675 -0.5,1.5 0.31658,0.825 0.0916,1.5 -0.5,1.5 -0.59159,0 -0.81659,0.675 -0.5,1.5 0.31658,0.825 0.0916,1.5 -0.5,1.5 -0.59159,0 -0.81659,0.675 -0.5,1.5 0.31658,0.825 0.0916,1.5 -0.5,1.5 -0.59159,0 -0.81659,0.675 -0.5,1.5 0.31658,0.825 0.15385,1.5 -0.36163,1.5 -0.51548,0 -0.67821,0.675 -0.36163,1.5 0.31659,0.825 0.0509,1.5 -0.5904,1.5 -0.6413,0 -0.90711,0.41891 -0.59068,0.9309 0.31644,0.512 0.11065,1.21809 -0.45729,1.5691 -0.56794,0.35101 -0.77373,1.0571 -0.45729,1.5691 0.31643,0.51199 0.0506,0.9309 -0.59068,0.9309 -0.6413,0 -0.90699,0.675 -0.5904,1.5 0.31658,0.825 0.11317,1.5 -0.45203,1.5 -0.5652,0 -0.74952,0.45 -0.4096,1 0.33992,0.55 0.0933,1 -0.54797,1 -0.6413,0 -0.90699,0.675 -0.5904,1.5 0.31658,0.825 0.11317,1.5 -0.45203,1.5 -0.5652,0 -0.74952,0.45 -0.4096,1 0.33992,0.55 0.0933,1 -0.54797,1 -0.6413,0 -0.90699,0.675 -0.5904,1.5 0.31658,0.825 0.11317,1.5 -0.45203,1.5 -0.5652,0 -0.76874,0.41891 -0.45231,0.9309 0.31644,0.512 0.11065,1.21809 -0.45729,1.5691 -0.56794,0.35101 -0.77373,1.0571 -0.45729,1.5691 0.31643,0.51199 0.0722,0.9309 -0.54271,0.9309 -0.61492,0 -0.83992,0.45 -0.5,1 0.33992,0.55 0.11492,1 -0.5,1 -0.61492,0 -0.83992,0.45 -0.5,1 0.33992,0.55 0.0933,1 -0.54797,1 -0.6413,0 -0.90699,0.675 -0.5904,1.5 0.31658,0.825 0.11317,1.5 -0.45203,1.5 -0.5652,0 -0.74952,0.45 -0.4096,1 0.33992,0.55 0.11492,1 -0.5,1 -0.61492,0 -0.86367,0.41157 -0.55279,0.91459 0.31089,0.50302 0.0925,1.07219 -0.48541,1.26481 -0.57787,0.19262 -1.12643,1.35606 -1.21904,2.58541 -0.0926,1.22935 -0.54916,2.23519 -1.01458,2.23519 -0.46542,0 -0.5681,0.45 -0.22818,1 0.33992,0.55 0.11492,1 -0.5,1 -0.61492,0 -0.83992,0.45 -0.5,1 0.33992,0.55 0.11492,1 -0.5,1 -0.61492,0 -0.83992,0.45 -0.5,1 0.33992,0.55 0.11492,1 -0.5,1 -0.61492,0 -0.83992,0.45 -0.5,1 0.33992,0.55 0.11492,1 -0.5,1 -0.61492,0 -0.83992,0.45 -0.5,1 0.33992,0.55 0.11492,1 -0.5,1 -0.61492,0 -0.83992,0.45 -0.5,1 0.33992,0.55 0.11492,1 -0.5,1 -0.61492,0 -0.83992,0.45 -0.5,1 0.33992,0.55 0.11492,1 -0.5,1 -0.61492,0 -0.83992,0.45 -0.5,1 0.33992,0.55 0.11492,1 -0.5,1 -0.61492,0 -0.83992,0.45 -0.5,1 0.33992,0.55 0.11492,1 -0.5,1 -0.61492,0 -0.83992,0.45 -0.5,1 0.33992,0.55 0.11492,1 -0.5,1 -0.61492,0 -0.83992,0.45 -0.5,1 0.33992,0.55 0.11492,1 -0.5,1 -0.61492,0 -0.83992,0.45 -0.5,1 0.33992,0.55 0.11492,1 -0.5,1 -0.61492,0 -0.86906,0.40285 -0.56476,0.89522 0.3043,0.49236 -0.14766,1.16419 -1.00437,1.49293 -0.8567,0.32875 -1.27755,1.0509 -0.93524,1.60479 C 389.83795,651.54682 389.61492,652 389,652 c -0.61492,0 -0.83992,0.45 -0.5,1 0.33992,0.55 0.11492,1 -0.5,1 -0.61492,0 -0.83992,0.45 -0.5,1 0.33992,0.55 0.11492,1 -0.5,1 -0.61492,0 -0.83795,0.45318 -0.49563,1.00706 0.34231,0.55389 -0.0785,1.27604 -0.93524,1.60479 -0.85671,0.32874 -1.30867,1.00057 -1.00437,1.49293 C 384.86906,660.59715 384.61492,661 384,661 c -0.61492,0 -0.83795,0.45318 -0.49563,1.00706 0.34231,0.55389 -0.0785,1.27604 -0.93524,1.60479 -0.85671,0.32874 -1.30867,1.00057 -1.00437,1.49293 0.3043,0.49237 0.0767,0.89522 -0.50574,0.89522 -0.58246,0 -1.05902,0.675 -1.05902,1.5 0,0.825 -0.47656,1.5 -1.05902,1.5 -0.58246,0 -0.81004,0.40285 -0.50574,0.89522 0.3043,0.49236 -0.14766,1.16419 -1.00437,1.49293 -0.8567,0.32875 -1.3067,1.00375 -1,1.5 0.30671,0.49626 -0.14329,1.17126 -1,1.5 -0.8567,0.32875 -1.3067,1.00375 -1,1.5 0.30671,0.49626 -0.14329,1.17126 -1,1.5 -0.8567,0.32875 -1.3067,1.00375 -1,1.5 0.30671,0.49626 -0.14329,1.17126 -1,1.5 -0.8567,0.32875 -1.3067,1.00375 -1,1.5 0.30671,0.49626 -0.14329,1.17126 -1,1.5 -0.8567,0.32875 -1.29151,1.02832 -0.96624,1.55461 0.32526,0.52629 -0.33382,1.45205 -1.46463,2.05724 -1.13081,0.60519 -1.80581,1.50519 -1.5,2 0.30581,0.49481 -0.35211,1.38567 -1.46204,1.97968 -1.10993,0.59402 -1.91003,1.4571 -1.77801,1.91795 0.13203,0.46085 -0.88495,1.8317 -2.25995,3.04633 -1.375,1.21463 -1.825,1.90417 -1,1.53231 0.825,-0.37185 -0.3,0.97647 -2.5,2.99628 -2.2,2.01981 -3.325,3.37256 -2.5,3.00613 0.825,-0.36644 -0.41481,0.99019 -2.75513,3.01473 -2.34032,2.02454 -4.04948,4.01371 -3.79814,4.42039 0.25134,0.40668 -2.54795,3.62994 -6.22064,7.16281 -3.67268,3.53286 -5.78852,5.2652 -4.70185,3.84964 1.08667,-1.41556 -0.44011,-0.0656 -3.39283,3 -2.95273,3.06556 -5.05594,4.89875 -4.67381,4.07375 0.38212,-0.825 -0.29024,-0.375 -1.49414,1 -1.20391,1.375 -2.60461,2.5 -3.11266,2.5 -0.50806,0 -1.34092,0.675 -1.8508,1.5 -0.50988,0.825 -1.37409,1.5 -1.92048,1.5 -0.54638,0 -1.72117,0.9 -2.61063,2 -0.88946,1.1 -1.32546,1.325 -0.96889,0.5 0.4326,-1.00089 0.17482,-0.92288 -0.77472,0.23446 -0.78267,0.95395 -1.70545,1.45204 -2.05062,1.10687 -0.34517,-0.34517 -0.91033,0.10924 -1.25591,1.0098 -0.34557,0.90056 -1.03117,1.38841 -1.52353,1.08411 C 310.40285,741.13094 310,741.38508 310,742 c 0,0.61492 -0.45318,0.83795 -1.00706,0.49563 -0.55389,-0.34231 -1.27604,0.0785 -1.60479,0.93524 -0.32874,0.85671 -1.00057,1.30867 -1.49293,1.00437 C 305.40285,744.13094 305,744.38508 305,745 c 0,0.61492 -0.45,0.83992 -1,0.5 -0.55,-0.33992 -1,-0.11492 -1,0.5 0,0.61492 -0.45,0.83992 -1,0.5 -0.55,-0.33992 -1,-0.11492 -1,0.5 0,0.61492 -0.45,0.83992 -1,0.5 -0.55,-0.33992 -1,-0.23724 -1,0.22818 0,0.46542 -0.97201,0.91943 -2.16002,1.00892 -1.18802,0.0895 -2.53112,0.74775 -2.98469,1.46281 -0.45357,0.71505 -0.83156,0.90749 -0.83998,0.42765 -0.008,-0.47985 -0.61921,-0.37125 -1.35732,0.24132 -0.7381,0.61257 -1.6381,0.81767 -2,0.45578 C 289.2961,750.96276 289,751.17754 289,751.80195 c 0,0.6244 -0.675,0.87626 -1.5,0.55968 -0.82569,-0.31685 -1.5,-0.0299 -1.5,0.63837 0,0.66769 -0.66059,0.96049 -1.46797,0.65066 -0.80739,-0.30982 -1.73849,-0.12563 -2.0691,0.40933 -0.33062,0.53495 -1.03974,0.70155 -1.57583,0.37023 -0.53609,-0.33132 -1.57296,-0.1059 -2.30416,0.50094 -0.73119,0.60684 -2.01596,0.8399 -2.85504,0.51792 -0.83908,-0.32199 -1.81356,-0.11949 -2.16552,0.44999 -0.35196,0.56948 -1.9179,0.77983 -3.47987,0.46743 -1.60194,-0.32039 -3.13651,-0.0881 -3.52025,0.53276 -0.90018,1.45652 -17.21337,1.47428 -18.11234,0.0197 z M 345.5,713 c 0.99549,-1.1 1.58498,-2 1.30998,-2 -0.275,0 -1.31449,0.9 -2.30998,2 -0.99549,1.1 -1.58498,2 -1.30998,2 0.275,0 1.31449,-0.9 2.30998,-2 z m -27.37244,-13.75 c 1.24387,-1.58606 1.2085,-1.62143 -0.37756,-0.37756 -0.9625,0.75485 -1.75,1.54235 -1.75,1.75 0,0.82304 0.82119,0.29331 2.12756,-1.37244 z M 186.68311,572.8125 c -0.31922,-0.79773 -0.55618,-0.56078 -0.60416,0.60417 -0.0434,1.05416 0.19292,1.64479 0.52522,1.3125 0.33229,-0.33229 0.36781,-1.1948 0.0789,-1.91667 z M 420.66228,432.75 c -0.27741,-0.6875 -0.50439,-0.125 -0.50439,1.25 0,1.375 0.22698,1.9375 0.50439,1.25 0.27741,-0.6875 0.27741,-1.8125 0,-2.5 z m 0.054,-11.5 c -0.22912,-1.5125 -0.41659,-0.275 -0.41659,2.75 0,3.025 0.18747,4.2625 0.41659,2.75 0.22913,-1.5125 0.22913,-3.9875 0,-5.5 z M 96.662281,305.75 c -0.277413,-0.6875 -0.504386,-0.125 -0.504386,1.25 0,1.375 0.226973,1.9375 0.504386,1.25 0.277412,-0.6875 0.277412,-1.8125 0,-2.5 z m 0,-6 c -0.277413,-0.6875 -0.504386,-0.125 -0.504386,1.25 0,1.375 0.226973,1.9375 0.504386,1.25 0.277412,-0.6875 0.277412,-1.8125 0,-2.5 z M 399,296.70295 c 0,-0.16338 -1.9125,-2.07588 -4.25,-4.25 L 390.5,288.5 l 3.95295,4.25 c 3.6762,3.95246 4.54705,4.70953 4.54705,3.95295 z m 144.41839,454.16501 c -0.40203,-0.6505 -2.31233,-0.81103 -4.94796,-0.4158 -2.76482,0.41461 -4.54149,0.24189 -4.99086,-0.48521 -0.38377,-0.62095 -1.74609,-0.86589 -3.02738,-0.54431 -1.28129,0.32159 -2.63129,0.0966 -3,-0.5 -0.36871,-0.59658 -1.74629,-0.81466 -3.06128,-0.48462 -1.46996,0.36894 -2.39091,0.16263 -2.39091,-0.5356 0,-0.64316 -0.86692,-0.90898 -1.999,-0.61293 -1.09946,0.28751 -2.26997,0.0843 -2.60115,-0.45154 -0.33119,-0.53587 -1.21722,-0.73827 -1.96898,-0.4498 -0.75175,0.28848 -1.62064,0.11381 -1.93087,-0.38815 -0.31023,-0.50196 -1.22464,-0.65916 -2.03203,-0.34934 C 510.66059,745.96049 510,745.66769 510,745 c 0,-0.66769 -0.66059,-0.96049 -1.46797,-0.65066 -0.80739,0.30982 -1.7218,0.15262 -2.03203,-0.34934 -0.31023,-0.50196 -1.22464,-0.65916 -2.03203,-0.34934 -0.80738,0.30983 -1.46797,0.0386 -1.46797,-0.60269 0,-0.6413 -0.41891,-0.90711 -0.9309,-0.59068 -0.512,0.31644 -1.21809,0.11065 -1.5691,-0.45729 -0.35101,-0.56794 -1.0571,-0.77373 -1.5691,-0.45729 -0.51199,0.31643 -0.9309,0.0506 -0.9309,-0.59068 0,-0.6413 -0.675,-0.90699 -1.5,-0.5904 -0.825,0.31658 -1.5,0.11317 -1.5,-0.45203 0,-0.5652 -0.45,-0.74952 -1,-0.4096 -0.55,0.33992 -1,0.11492 -1,-0.5 0,-0.61492 -0.45,-0.83992 -1,-0.5 -0.55,0.33992 -1,0.11492 -1,-0.5 0,-0.61492 -0.45,-0.83992 -1,-0.5 -0.55,0.33992 -1,0.11492 -1,-0.5 0,-0.61492 -0.45,-0.83992 -1,-0.5 -0.55,0.33992 -1,0.11492 -1,-0.5 0,-0.61492 -0.45,-0.83992 -1,-0.5 -0.55,0.33992 -1,0.11492 -1,-0.5 0,-0.61492 -0.45,-0.83992 -1,-0.5 -0.55,0.33992 -1,0.11492 -1,-0.5 0,-0.61492 -0.40285,-0.86906 -0.89522,-0.56476 -0.49236,0.3043 -1.16419,-0.14766 -1.49293,-1.00437 -0.32875,-0.8567 -1.0509,-1.27755 -1.60479,-0.93524 C 478.45318,731.83795 478,731.61492 478,731 c 0,-0.61492 -0.42742,-0.85387 -0.94983,-0.53101 -0.5224,0.32287 -1.43584,-0.3211 -2.02985,-1.43103 -0.59402,-1.10993 -1.4571,-1.91003 -1.91795,-1.77801 -0.46085,0.13203 -1.8317,-0.88495 -3.04633,-2.25995 -1.21463,-1.375 -1.91124,-1.825 -1.54803,-1 0.36321,0.825 -0.65918,-0.0308 -2.27197,-1.90184 -1.6128,-1.87101 -4.46319,-4.7214 -6.3342,-6.3342 -1.87101,-1.61279 -2.72684,-2.63518 -1.90184,-2.27197 0.825,0.36321 0.375,-0.3334 -1,-1.54803 -1.375,-1.21463 -2.38333,-2.61144 -2.24072,-3.10402 0.1426,-0.49257 -0.41732,-1.15522 -1.24426,-1.47255 -0.82694,-0.31733 -1.25456,-0.97981 -0.95026,-1.47217 C 452.86906,705.40285 452.64148,705 452.05902,705 451.47656,705 451,704.325 451,703.5 c 0,-0.825 -0.47656,-1.5 -1.05902,-1.5 -0.58246,0 -0.7809,-0.45 -0.44098,-1 0.33992,-0.55 0.23724,-1 -0.22818,-1 -0.46542,0 -0.91943,-0.97201 -1.00892,-2.16002 -0.0895,-1.18802 -0.74775,-2.53112 -1.46281,-2.98469 -0.71505,-0.45357 -0.90749,-0.83156 -0.42765,-0.83998 0.47985,-0.008 0.31225,-0.69031 -0.37244,-1.51531 -0.68469,-0.825 -0.90969,-1.5 -0.5,-1.5 0.40969,0 0.24369,-0.6039 -0.36888,-1.34201 -0.61257,-0.7381 -0.82855,-1.62723 -0.47994,-1.97583 0.3486,-0.34861 0.1236,-1.24861 -0.5,-2 -0.62361,-0.7514 -0.85714,-1.64287 -0.51897,-1.98104 0.33818,-0.33818 0.27718,-1.42177 -0.13554,-2.40799 -1.03436,-2.47162 -1.18881,-22.3657 -0.1785,-22.98993 0.45,-0.27802 0.55474,-1.19202 0.23275,-2.0311 -0.32198,-0.83908 -0.0889,-2.12385 0.51792,-2.85504 0.60684,-0.7312 0.83226,-1.76807 0.50094,-2.30416 -0.33132,-0.53609 -0.16472,-1.24521 0.37023,-1.57583 0.53496,-0.33061 0.71915,-1.26171 0.40933,-2.0691 -0.30983,-0.80738 -0.0793,-1.46797 0.51229,-1.46797 0.59158,0 0.81658,-0.675 0.5,-1.5 -0.31659,-0.825 -0.0509,-1.5 0.5904,-1.5 0.6413,0 0.88789,-0.45 0.54797,-1 -0.33992,-0.55 -0.0933,-1 0.54797,-1 0.6413,0 0.90699,-0.675 0.5904,-1.5 -0.31658,-0.825 -0.11317,-1.5 0.45203,-1.5 0.5652,0 0.74952,-0.45 0.4096,-1 -0.33992,-0.55 -0.11492,-1 0.5,-1 0.61492,0 0.83992,-0.45 0.5,-1 -0.33992,-0.55 -0.11492,-1 0.5,-1 0.61492,0 0.86906,-0.40285 0.56476,-0.89522 -0.3043,-0.49236 0.14766,-1.16419 1.00437,-1.49293 0.8567,-0.32875 1.27755,-1.0509 0.93524,-1.60479 C 453.16205,629.45318 453.35852,629 453.94098,629 c 0.58246,0 0.94652,-0.41824 0.80902,-0.92942 -0.1375,-0.51118 0.65,-1.66955 1.75,-2.57416 1.1,-0.9046 1.325,-1.33698 0.5,-0.96083 -0.825,0.37615 -0.15,-0.52303 1.5,-1.99818 1.65,-1.47514 2.325,-2.39192 1.5,-2.03728 -0.825,0.35464 0.24869,-0.90163 2.38597,-2.7917 2.13729,-1.89007 5.43239,-5.18517 7.32246,-7.32246 1.89007,-2.13728 3.1446,-3.21097 2.78785,-2.38597 -0.35676,0.825 0.34513,0.375 1.55976,-1 1.21463,-1.375 2.61144,-2.38333 3.10402,-2.24072 0.49257,0.1426 1.15522,-0.41732 1.47255,-1.24426 0.31733,-0.82694 0.98298,-1.2526 1.47924,-0.94589 0.49625,0.3067 1.17125,-0.1433 1.5,-1 0.32874,-0.85671 1.00374,-1.30671 1.5,-1 0.49625,0.3067 1.17125,-0.1433 1.5,-1 0.32874,-0.85671 1.00057,-1.30867 1.49293,-1.00437 C 486.59715,598.86906 487,598.61492 487,598 c 0,-0.61492 0.45,-0.83992 1,-0.5 0.55,0.33992 1,0.11492 1,-0.5 0,-0.61492 0.45,-0.83992 1,-0.5 0.55,0.33992 1,0.11492 1,-0.5 0,-0.61492 0.45,-0.83992 1,-0.5 0.55,0.33992 1,0.11492 1,-0.5 0,-0.61492 0.45,-0.83992 1,-0.5 0.55,0.33992 1,0.11492 1,-0.5 0,-0.61492 0.45,-0.83992 1,-0.5 0.55,0.33992 1,0.1556 1,-0.4096 0,-0.5652 0.675,-0.76861 1.5,-0.45203 0.825,0.31659 1.5,0.0509 1.5,-0.5904 0,-0.6413 0.41891,-0.90711 0.9309,-0.59068 0.512,0.31644 1.21809,0.11065 1.5691,-0.45729 0.35101,-0.56794 1.02601,-0.79294 1.5,-0.5 0.47399,0.29294 1.14899,0.0679 1.5,-0.5 0.35101,-0.56794 1.02601,-0.79294 1.5,-0.5 0.47399,0.29294 1.13231,0.0949 1.46293,-0.44001 0.33061,-0.53496 1.26171,-0.71915 2.0691,-0.40933 0.80738,0.30983 1.46797,0.0349 1.46797,-0.61106 0,-0.7021 0.77045,-0.92984 1.91584,-0.56631 1.05372,0.33444 2.19313,0.15941 2.53203,-0.38894 0.3389,-0.54835 1.2825,-0.74131 2.09689,-0.4288 0.81439,0.31251 2.09294,0.0601 2.84123,-0.56093 0.74828,-0.62102 2.09255,-0.84822 2.98726,-0.50488 0.89471,0.34333 2.41425,0.29707 3.37675,-0.10281 0.9625,-0.39988 7.825,-0.64687 15.25,-0.54887 16.96951,0.22396 19.20612,0.37174 20.75,1.37096 0.6875,0.44496 1.71971,0.51872 2.2938,0.16391 0.5741,-0.35481 1.67939,-0.11763 2.4562,0.52707 0.77681,0.6447 1.85101,0.9011 2.3871,0.56978 0.53609,-0.33132 1.27632,-0.11439 1.64495,0.48208 0.36864,0.59647 1.29973,0.84293 2.0691,0.5477 0.76937,-0.29524 1.39885,-0.0528 1.39885,0.53881 0,0.59159 0.66059,0.82212 1.46797,0.51229 0.80739,-0.30982 1.73849,-0.12563 2.0691,0.40933 0.33062,0.53495 0.98894,0.73295 1.46293,0.44001 0.47399,-0.29294 1.14899,-0.0679 1.5,0.5 0.35101,0.56794 1.0571,0.77373 1.5691,0.45729 0.51199,-0.31643 0.9309,-0.0506 0.9309,0.59068 0,0.6413 0.675,0.90699 1.5,0.5904 0.825,-0.31658 1.5,-0.11317 1.5,0.45203 0,0.5652 0.45,0.74952 1,0.4096 0.55,-0.33992 1,-0.11492 1,0.5 0,0.61492 0.41891,0.85914 0.9309,0.54271 0.512,-0.31644 1.21809,-0.11065 1.5691,0.45729 0.35101,0.56794 1.0571,0.77373 1.5691,0.45729 C 594.58109,595.14086 595,595.38508 595,596 c 0,0.61492 0.45,0.83992 1,0.5 0.55,-0.33992 1,-0.11492 1,0.5 0,0.61492 0.45,0.83992 1,0.5 0.55,-0.33992 1,-0.14148 1,0.44098 0,0.58246 0.675,1.05902 1.5,1.05902 0.825,0 1.5,0.47656 1.5,1.05902 0,0.58246 0.45,0.7809 1,0.44098 0.55,-0.33992 1,-0.11492 1,0.5 0,0.61492 0.45318,0.83795 1.00706,0.49563 0.55389,-0.34231 1.27604,0.0785 1.60479,0.93524 0.32874,0.85671 0.95341,1.33781 1.38815,1.06913 0.43474,-0.26868 1.05941,0.21242 1.38815,1.06913 0.32875,0.8567 1.02832,1.29151 1.55461,0.96624 0.52629,-0.32526 1.44291,0.31674 2.03692,1.42667 0.59402,1.10993 1.40692,1.91003 1.80646,1.77801 0.39953,-0.13203 2.48017,1.55995 4.62364,3.75995 2.14347,2.2 3.0834,2.9875 2.08873,1.75 -3.03455,-3.77539 -1.16903,-2.51472 3.54328,2.39445 2.45202,2.55445 3.78321,4.31616 2.95821,3.91491 -0.825,-0.40125 0.075,0.75292 2,2.56482 1.925,1.81191 3.5,3.63083 3.5,4.04205 0,0.41122 0.9,1.42774 2,2.25892 1.1,0.83118 1.57649,1.52555 1.05887,1.54305 -0.51762,0.0175 -0.0676,0.74017 1,1.60596 1.06762,0.86578 1.26613,1.28241 0.44113,0.92584 -1.00089,-0.4326 -0.92288,-0.17482 0.23446,0.77472 0.95395,0.78267 1.44145,1.71604 1.08333,2.07416 -0.35812,0.35811 -0.12612,0.65112 0.51554,0.65112 0.64167,0 1.16667,0.675 1.16667,1.5 0,0.825 0.47656,1.5 1.05902,1.5 0.58246,0 0.7809,0.45 0.44098,1 -0.33992,0.55 -0.11492,1 0.5,1 0.61492,0 0.85914,0.41891 0.54271,0.9309 -0.31644,0.512 -0.11065,1.21809 0.45729,1.5691 0.56794,0.35101 0.77373,1.0571 0.45729,1.5691 C 644.14086,646.58109 644.38508,647 645,647 c 0.61492,0 0.83992,0.45 0.5,1 -0.33992,0.55 -0.0933,1 0.54797,1 0.6413,0 0.90699,0.675 0.5904,1.5 -0.31658,0.825 -0.0916,1.5 0.5,1.5 0.59159,0 0.81659,0.675 0.5,1.5 -0.31658,0.825 -0.1094,1.5 0.4604,1.5 0.58093,0 0.75717,0.87852 0.40123,2 -0.3888,1.22499 -0.1797,2 0.5396,2 0.66267,0 0.90848,0.69291 0.56414,1.59024 -0.33562,0.87464 -0.27127,2.11214 0.14302,2.75 0.41428,0.63787 0.85766,2.73476 0.98528,4.65976 0.12762,1.925 0.50765,6.10265 0.8445,9.28367 0.40488,3.82342 0.21153,6.26677 -0.57049,7.20904 -0.71374,0.86 -0.91803,2.63156 -0.51505,4.46633 0.45361,2.06527 0.28415,3.04096 -0.52818,3.04096 -0.70355,0 -0.98082,0.82316 -0.67333,1.999 0.28751,1.09946 0.13465,2.23887 -0.3397,2.53203 -0.47434,0.29316 -0.60895,1.19361 -0.29913,2.001 C 648.96049,699.33941 648.66769,700 648,700 c -0.66825,0 -0.95522,0.67431 -0.63837,1.5 0.31658,0.825 0.11317,1.5 -0.45203,1.5 -0.5652,0 -0.76874,0.41891 -0.45231,0.9309 0.31644,0.512 0.11065,1.21809 -0.45729,1.5691 -0.56794,0.35101 -0.77373,1.0571 -0.45729,1.5691 0.31643,0.51199 0.0722,0.9309 -0.54271,0.9309 -0.61492,0 -0.83992,0.45 -0.5,1 0.33992,0.55 0.11492,1 -0.5,1 -0.61492,0 -0.83992,0.45 -0.5,1 0.33992,0.55 0.11492,1 -0.5,1 -0.61492,0 -0.85701,0.42234 -0.53798,0.93854 0.31902,0.5162 -0.21692,1.40251 -1.19099,1.96959 -0.97407,0.56708 -1.32103,1.05474 -0.77103,1.0837 0.55,0.0289 -0.125,0.98169 -1.5,2.11718 -1.375,1.1355 -1.825,1.75059 -1,1.36687 0.825,-0.38372 -0.62175,1.17378 -3.215,3.46112 -2.59325,2.28733 -5.90148,5.59973 -7.35161,7.36089 -1.45014,1.76116 -2.3316,2.52711 -1.95881,1.70211 0.37279,-0.825 -0.20063,-0.50664 -1.27425,0.70748 -1.07363,1.21411 -2.22232,1.9372 -2.55265,1.60687 -0.33033,-0.33033 -0.88335,0.13622 -1.22893,1.03678 -0.34557,0.90056 -0.98401,1.41755 -1.41875,1.14887 -0.43474,-0.26868 -1.05941,0.21242 -1.38815,1.06913 -0.32875,0.8567 -1.0509,1.27755 -1.60479,0.93524 C 615.45318,738.16205 615,738.38508 615,739 c 0,0.61492 -0.45,0.83992 -1,0.5 -0.55,-0.33992 -1,-0.11492 -1,0.5 0,0.61492 -0.45,0.83992 -1,0.5 -0.55,-0.33992 -1,-0.11492 -1,0.5 0,0.61492 -0.41891,0.85914 -0.9309,0.54271 -0.512,-0.31644 -1.21809,-0.11065 -1.5691,0.45729 -0.35101,0.56794 -1.0571,0.77373 -1.5691,0.45729 C 606.41891,742.14086 606,742.38508 606,743 c 0,0.61492 -0.41891,0.85914 -0.9309,0.54271 -0.512,-0.31644 -1.21809,-0.11065 -1.5691,0.45729 -0.35101,0.56794 -1.0571,0.77373 -1.5691,0.45729 -0.51199,-0.31643 -0.9309,-0.0506 -0.9309,0.59068 0,0.6413 -0.675,0.90699 -1.5,0.5904 -0.825,-0.31658 -1.5,-0.1094 -1.5,0.4604 0,0.58093 -0.87852,0.75717 -2,0.40123 -1.19795,-0.38021 -2,-0.1797 -2,0.5 0,0.6797 -0.80205,0.88021 -2,0.5 -1.19795,-0.38021 -2,-0.1797 -2,0.5 0,0.66308 -0.79636,0.88202 -1.91584,0.52671 -1.05372,-0.33444 -2.2063,-0.13811 -2.56129,0.43628 -0.35499,0.57439 -1.71729,0.77533 -3.02732,0.44654 -1.31003,-0.3288 -2.96996,-0.23199 -3.68871,0.21513 -2.71556,1.68926 -34.42432,2.80328 -35.38845,1.2433 z M 645.5,567.98255 c -1.65,-0.53091 -5.25,-0.95477 -8,-0.94191 -7.33832,0.0343 -12.23005,-0.44219 -13.06286,-1.27243 -0.40373,-0.40249 -1.79225,-0.4662 -3.0856,-0.14159 C 619.84782,566.00403 619,565.77811 619,565 c 0,-0.79859 -0.85926,-1.00116 -2.5,-0.58936 -1.51763,0.3809 -2.5,0.20055 -2.5,-0.45898 0,-0.61545 -0.83054,-0.82283 -1.91584,-0.47837 -1.05372,0.33444 -2.19313,0.15941 -2.53203,-0.38894 -0.3389,-0.54835 -1.27677,-0.74351 -2.08416,-0.43369 -0.80738,0.30983 -1.46797,0.0349 -1.46797,-0.61106 0,-0.7193 -0.77501,-0.9284 -2,-0.5396 -1.12148,0.35594 -2,0.1797 -2,-0.40123 0,-0.5698 -0.675,-0.77698 -1.5,-0.4604 -0.82569,0.31685 -1.5,0.0299 -1.5,-0.63837 0,-0.66825 -0.67431,-0.95522 -1.5,-0.63837 -0.825,0.31658 -1.5,0.15385 -1.5,-0.36163 0,-0.51548 -0.675,-0.67821 -1.5,-0.36163 -0.825,0.31659 -1.5,0.0509 -1.5,-0.5904 0,-0.6413 -0.41891,-0.90711 -0.9309,-0.59068 -0.512,0.31644 -1.21809,0.11065 -1.5691,-0.45729 -0.35101,-0.56794 -1.0571,-0.77373 -1.5691,-0.45729 C 588.41891,556.85914 588,556.61492 588,556 c 0,-0.61492 -0.41891,-0.85914 -0.9309,-0.54271 -0.512,0.31644 -1.21809,0.11065 -1.5691,-0.45729 -0.35101,-0.56794 -1.0571,-0.77373 -1.5691,-0.45729 C 583.41891,554.85914 583,554.61492 583,554 c 0,-0.61492 -0.45,-0.83992 -1,-0.5 -0.55,0.33992 -1,0.11492 -1,-0.5 0,-0.61492 -0.45,-0.83992 -1,-0.5 -0.55,0.33992 -1,0.11492 -1,-0.5 0,-0.61492 -0.45,-0.83992 -1,-0.5 -0.55,0.33992 -1,0.11492 -1,-0.5 0,-0.61492 -0.45,-0.83992 -1,-0.5 -0.55,0.33992 -1,0.11492 -1,-0.5 0,-0.61492 -0.45,-0.83992 -1,-0.5 -0.55,0.33992 -1,0.11492 -1,-0.5 0,-0.61492 -0.40285,-0.86906 -0.89522,-0.56476 -0.49236,0.3043 -1.16419,-0.14766 -1.49293,-1.00437 -0.32875,-0.8567 -1.0509,-1.27755 -1.60479,-0.93524 C 568.45318,546.83795 568,546.61492 568,546 c 0,-0.61492 -0.45318,-0.83795 -1.00706,-0.49563 -0.55389,0.34231 -1.27604,-0.0785 -1.60479,-0.93524 -0.32874,-0.85671 -0.95341,-1.33781 -1.38815,-1.06913 -0.43474,0.26868 -1.05941,-0.21242 -1.38815,-1.06913 -0.32875,-0.8567 -1.02832,-1.29151 -1.55461,-0.96624 -0.52629,0.32526 -1.44291,-0.31674 -2.03692,-1.42667 -0.59402,-1.10993 -1.41963,-1.91003 -1.83469,-1.77801 -0.41506,0.13203 -2.26032,-1.33495 -4.10056,-3.25995 -1.84025,-1.925 -2.78212,-2.7125 -2.09305,-1.75 2.21928,3.09988 0.54012,1.87199 -4.03381,-2.94972 -2.45202,-2.58485 -3.55821,-4.10116 -2.45821,-3.36958 1.1,0.73158 0.425,-0.17552 -1.5,-2.01577 -1.925,-1.84024 -3.39198,-3.6855 -3.25995,-4.10056 0.13202,-0.41506 -0.66808,-1.24067 -1.77801,-1.83469 -1.10993,-0.59401 -1.78304,-1.4603 -1.49579,-1.92507 0.28724,-0.46477 -0.17867,-1.11402 -1.03538,-1.44276 -0.8567,-0.32875 -1.27755,-1.0509 -0.93524,-1.60479 C 534.83795,513.45318 534.61492,513 534,513 c -0.61492,0 -0.83992,-0.45 -0.5,-1 0.33992,-0.55 0.11492,-1 -0.5,-1 -0.61492,0 -0.83992,-0.45 -0.5,-1 0.33992,-0.55 0.11492,-1 -0.5,-1 -0.61492,0 -0.83992,-0.45 -0.5,-1 0.33992,-0.55 0.11492,-1 -0.5,-1 -0.61492,0 -0.83992,-0.45 -0.5,-1 0.33992,-0.55 0.11492,-1 -0.5,-1 -0.61492,0 -0.83992,-0.45 -0.5,-1 0.33992,-0.55 0.0933,-1 -0.54797,-1 -0.6413,0 -0.90699,-0.675 -0.5904,-1.5 0.31658,-0.825 0.15385,-1.5 -0.36163,-1.5 -0.51548,0 -0.67821,-0.675 -0.36163,-1.5 0.31685,-0.82569 0.0299,-1.5 -0.63837,-1.5 -0.66769,0 -0.96049,-0.66059 -0.65066,-1.46797 0.30982,-0.80739 0.10229,-1.75291 -0.46119,-2.10116 -0.56347,-0.34824 -0.76736,-1.30326 -0.45308,-2.12226 0.31428,-0.819 0.27829,-1.96338 -0.08,-2.54307 -0.88169,-1.42659 -0.83268,-22.18379 0.0558,-23.62132 0.38894,-0.62932 0.41687,-1.61393 0.0621,-2.18802 -0.35481,-0.5741 -0.11763,-1.67939 0.52707,-2.4562 0.6447,-0.77681 0.9011,-1.85101 0.56978,-2.3871 -0.33132,-0.53609 -0.16472,-1.24521 0.37023,-1.57583 0.53496,-0.33061 0.71915,-1.26171 0.40933,-2.0691 -0.30983,-0.80738 -0.0386,-1.46797 0.60269,-1.46797 0.6413,0 0.88789,-0.45 0.54797,-1 -0.33992,-0.55 -0.0933,-1 0.54797,-1 0.6413,0 0.90699,-0.675 0.5904,-1.5 -0.31658,-0.825 -0.11317,-1.5 0.45203,-1.5 0.5652,0 0.74952,-0.45 0.4096,-1 -0.33992,-0.55 -0.11492,-1 0.5,-1 0.61492,0 0.83992,-0.45 0.5,-1 -0.33992,-0.55 -0.11492,-1 0.5,-1 0.61492,0 0.83992,-0.45 0.5,-1 -0.33992,-0.55 -0.11492,-1 0.5,-1 0.61492,0 0.83992,-0.45 0.5,-1 -0.33992,-0.55 -0.11492,-1 0.5,-1 0.61492,0 0.86906,-0.40285 0.56476,-0.89522 -0.3043,-0.49236 0.14766,-1.16419 1.00437,-1.49293 0.8567,-0.32875 1.3067,-1.00375 1,-1.5 -0.30671,-0.49626 0.14329,-1.17126 1,-1.5 0.8567,-0.32875 1.3067,-1.00375 1,-1.5 -0.30671,-0.49626 0.11895,-1.16191 0.94589,-1.47924 0.82694,-0.31733 1.38686,-0.95877 1.24426,-1.42542 -0.14261,-0.46665 1.09072,-2.09048 2.74072,-3.6085 1.65,-1.51802 2.325,-2.4346 1.5,-2.03685 -0.825,0.39775 0.73308,-1.59094 3.46241,-4.41933 5.07889,-5.26322 6.73935,-6.50125 4.55007,-3.39251 -0.67782,0.9625 0.66918,-0.275 2.99334,-2.75 2.32415,-2.475 3.91435,-3.825 3.53377,-3 -0.38058,0.825 0.18646,0.50664 1.26008,-0.70748 1.07363,-1.21411 2.19645,-1.96307 2.49517,-1.66435 0.29871,0.29872 1.05216,-0.40802 1.67431,-1.57053 0.62216,-1.16251 1.55862,-1.8495 2.08102,-1.52663 C 567.57258,405.85387 568,405.61492 568,405 c 0,-0.61492 0.45318,-0.83795 1.00706,-0.49563 0.55389,0.34231 1.27604,-0.0785 1.60479,-0.93524 0.32874,-0.85671 1.00057,-1.30867 1.49293,-1.00437 C 572.59715,402.86906 573,402.61492 573,402 c 0,-0.61492 0.45318,-0.83795 1.00706,-0.49563 0.55389,0.34231 1.27604,-0.0785 1.60479,-0.93524 0.32874,-0.85671 1.00057,-1.30867 1.49293,-1.00437 C 577.59715,399.86906 578,399.61492 578,399 c 0,-0.61492 0.45,-0.83992 1,-0.5 0.55,0.33992 1,0.11492 1,-0.5 0,-0.61492 0.45,-0.83992 1,-0.5 0.55,0.33992 1,0.11492 1,-0.5 0,-0.61492 0.45,-0.83992 1,-0.5 0.55,0.33992 1,0.1556 1,-0.4096 0,-0.5652 0.675,-0.76861 1.5,-0.45203 0.825,0.31659 1.5,0.0509 1.5,-0.5904 0,-0.6413 0.45,-0.88789 1,-0.54797 0.55,0.33992 1,0.11492 1,-0.5 0,-0.61492 0.41891,-0.85914 0.9309,-0.54271 0.512,0.31644 1.21809,0.11065 1.5691,-0.45729 0.35101,-0.56794 1.0571,-0.77373 1.5691,-0.45729 0.51199,0.31643 0.9309,0.11289 0.9309,-0.45231 0,-0.5652 0.675,-0.76861 1.5,-0.45203 0.825,0.31659 1.5,0.0916 1.5,-0.5 0,-0.59158 0.675,-0.81658 1.5,-0.5 0.825,0.31659 1.5,0.0916 1.5,-0.5 0,-0.59158 0.675,-0.81658 1.5,-0.5 0.82569,0.31685 1.5,0.0299 1.5,-0.63837 0,-0.66769 0.66059,-0.96049 1.46797,-0.65066 0.80739,0.30982 1.7218,0.15262 2.03203,-0.34934 0.31023,-0.50196 1.17912,-0.67663 1.93087,-0.38815 0.75176,0.28847 1.66844,0.0365 2.03708,-0.55999 0.36863,-0.59647 1.10886,-0.8134 1.64495,-0.48208 0.53609,0.33132 1.61029,0.0749 2.3871,-0.56978 0.77681,-0.6447 1.90181,-0.8697 2.5,-0.5 0.59819,0.3697 1.68586,0.17568 2.41706,-0.43116 0.73119,-0.60684 2.03993,-0.83071 2.9083,-0.49748 0.86838,0.33323 2.16292,0.2391 2.87675,-0.20917 1.6122,-1.01241 3.09606,-1.10224 25.14369,-1.52224 9.81519,-0.18697 18.07922,0.038 18.36452,0.49986 0.2853,0.46189 2.0071,0.56058 3.82622,0.21931 1.99946,-0.3751 3.57922,-0.18083 3.99457,0.49122 0.3779,0.61144 1.73541,0.8486 3.0167,0.52702 1.28129,-0.32159 2.62007,-0.11474 2.97506,0.45965 0.35499,0.57439 1.50757,0.77072 2.56129,0.43628 C 686.20364,385.11798 687,385.33692 687,386 c 0,0.66308 0.79636,0.88202 1.91584,0.52671 1.05372,-0.33444 2.19313,-0.15941 2.53203,0.38894 0.3389,0.54835 1.27677,0.74351 2.08416,0.43369 C 694.33941,387.03951 695,387.33231 695,388 c 0,0.66769 0.66059,0.96049 1.46797,0.65066 0.80739,-0.30982 1.7218,-0.15262 2.03203,0.34934 0.31023,0.50196 1.22464,0.65916 2.03203,0.34934 0.80738,-0.30983 1.46797,-0.0793 1.46797,0.51229 0,0.59158 0.675,0.81658 1.5,0.5 0.825,-0.31659 1.5,-0.0509 1.5,0.5904 0,0.6413 0.41891,0.90711 0.9309,0.59068 0.512,-0.31644 1.21809,-0.11065 1.5691,0.45729 0.35101,0.56794 1.0571,0.77373 1.5691,0.45729 C 709.58109,392.14086 710,392.38508 710,393 c 0,0.61492 0.41891,0.85914 0.9309,0.54271 0.512,-0.31644 1.21809,-0.11065 1.5691,0.45729 0.35101,0.56794 1.0571,0.77373 1.5691,0.45729 C 714.58109,394.14086 715,394.38508 715,395 c 0,0.61492 0.45,0.83992 1,0.5 0.55,-0.33992 1,-0.11492 1,0.5 0,0.61492 0.45,0.83992 1,0.5 0.55,-0.33992 1,-0.11492 1,0.5 0,0.61492 0.45,0.83992 1,0.5 0.55,-0.33992 1,-0.11492 1,0.5 0,0.61492 0.45,0.83992 1,0.5 0.55,-0.33992 1,-0.11492 1,0.5 0,0.61492 0.45,0.83992 1,0.5 0.55,-0.33992 1,-0.11492 1,0.5 0,0.61492 0.45,0.83992 1,0.5 0.55,-0.33992 1,-0.11492 1,0.5 0,0.61492 0.45318,0.83795 1.00706,0.49563 0.55389,-0.34231 1.27604,0.0785 1.60479,0.93524 0.32874,0.85671 0.95341,1.33781 1.38815,1.06913 0.43474,-0.26868 1.05941,0.21242 1.38815,1.06913 0.32875,0.8567 1.00375,1.3067 1.5,1 0.49626,-0.30671 1.17126,0.14329 1.5,1 0.32875,0.8567 1.00375,1.3067 1.5,1 0.49626,-0.30671 1.16191,0.11895 1.47924,0.94589 0.31733,0.82694 0.95877,1.38686 1.42542,1.24426 0.46665,-0.14261 2.09048,1.09072 3.6085,2.74072 1.51802,1.65 2.41254,2.325 1.98781,1.5 -0.42472,-0.825 2.1249,1.425 5.66583,5 3.54094,3.575 6.43963,6.86321 6.44156,7.30712 0.002,0.44392 1.12849,1.72047 2.50349,2.83678 1.375,1.11631 1.825,1.73132 1,1.36669 -0.825,-0.36463 -0.50664,0.21546 0.70748,1.28908 1.21411,1.07363 1.9372,2.22232 1.60687,2.55265 -0.33033,0.33033 0.13622,0.88335 1.03678,1.22893 0.90056,0.34557 1.38841,1.03117 1.08411,1.52353 C 765.13094,437.59715 765.38508,438 766,438 c 0.61492,0 0.83992,0.45 0.5,1 -0.33992,0.55 -0.14148,1 0.44098,1 0.58246,0 1.05902,0.8449 1.05902,1.87756 0,1.03265 0.67005,2.43364 1.48899,3.1133 0.81894,0.67967 1.24239,1.63477 0.94098,2.12245 C 770.12857,447.60099 770.38508,448 771,448 c 0.61492,0 0.85914,0.41891 0.54271,0.9309 -0.31644,0.512 -0.11065,1.21809 0.45729,1.5691 0.56794,0.35101 0.77373,1.0571 0.45729,1.5691 -0.31643,0.51199 -0.0506,0.9309 0.59068,0.9309 0.6413,0 0.91252,0.66059 0.60269,1.46797 -0.30982,0.80739 -0.12563,1.73849 0.40933,2.0691 0.53495,0.33062 0.70155,1.03974 0.37023,1.57583 -0.33132,0.53609 -0.0749,1.61029 0.56978,2.3871 0.6447,0.77681 0.88188,1.8821 0.52707,2.4562 -0.35481,0.57409 -0.32432,1.56285 0.0678,2.19724 0.9318,1.50768 0.927,21.1932 -0.006,22.70207 -0.39512,0.63931 -0.43402,2.05836 -0.0865,3.15344 C 775.88041,492.19855 775.678,493 775,493 c -0.6797,0 -0.88021,0.80205 -0.5,2 0.3888,1.22499 0.1797,2 -0.5396,2 -0.64591,0 -0.91536,0.675 -0.59877,1.5 0.31658,0.825 0.0916,1.5 -0.5,1.5 -0.59159,0 -0.81659,0.675 -0.5,1.5 0.31658,0.825 0.0916,1.5 -0.5,1.5 -0.59159,0 -0.81659,0.675 -0.5,1.5 0.31658,0.825 0.11317,1.5 -0.45203,1.5 -0.5652,0 -0.74952,0.45 -0.4096,1 0.33992,0.55 0.11492,1 -0.5,1 -0.61492,0 -0.83992,0.45 -0.5,1 0.33992,0.55 0.11492,1 -0.5,1 -0.61492,0 -0.83992,0.45 -0.5,1 0.33992,0.55 0.11492,1 -0.5,1 -0.61492,0 -0.83992,0.45 -0.5,1 0.33992,0.55 0.11492,1 -0.5,1 -0.61492,0 -0.85701,0.42234 -0.53798,0.93854 0.31902,0.5162 -0.21692,1.40251 -1.19099,1.96959 -0.97407,0.56708 -1.32103,1.05163 -0.77103,1.07677 0.55,0.0251 0.325,0.47242 -0.5,0.99394 -0.825,0.52152 -1.5,1.3639 -1.5,1.87196 0,0.50805 -1.125,1.90875 -2.5,3.11266 -1.375,1.2039 -1.825,1.87753 -1,1.49695 0.825,-0.38058 -0.44106,1.04763 -2.81347,3.17381 -2.37241,2.12618 -5.89251,5.66578 -7.82246,7.86578 -1.92995,2.2 -3.2171,3.325 -2.86035,2.5 0.35676,-0.825 -0.34513,-0.375 -1.55976,1 -1.21463,1.375 -2.61144,2.38333 -3.10402,2.24072 -0.49257,-0.1426 -1.15522,0.41732 -1.47255,1.24426 -0.31733,0.82694 -0.98298,1.2526 -1.47924,0.94589 -0.49625,-0.3067 -1.17125,0.1433 -1.5,1 -0.32874,0.85671 -1.00374,1.30671 -1.5,1 -0.49625,-0.3067 -1.17125,0.1433 -1.5,1 -0.32874,0.85671 -1.00057,1.30867 -1.49293,1.00437 C 731.40285,548.13094 731,548.38508 731,549 c 0,0.61492 -0.45,0.83992 -1,0.5 -0.55,-0.33992 -1,-0.14148 -1,0.44098 0,0.58246 -0.3375,1.00032 -0.75,0.92858 -1.34093,-0.23321 -7.25,2.54503 -7.25,3.40869 0,0.46188 -0.45,0.56167 -1,0.22175 -0.55,-0.33992 -1,-0.11492 -1,0.5 0,0.61492 -0.45,0.83992 -1,0.5 -0.55,-0.33992 -1,-0.11492 -1,0.5 0,0.61492 -0.41891,0.85914 -0.9309,0.54271 -0.512,-0.31644 -1.21809,-0.11065 -1.5691,0.45729 -0.35101,0.56794 -1.0571,0.77373 -1.5691,0.45729 C 712.41891,557.14086 712,557.3444 712,557.9096 c 0,0.5652 -0.675,0.76861 -1.5,0.45203 -0.825,-0.31659 -1.5,-0.0916 -1.5,0.5 0,0.59158 -0.675,0.81658 -1.5,0.5 -0.825,-0.31659 -1.5,-0.0916 -1.5,0.5 0,0.59158 -0.675,0.81658 -1.5,0.5 -0.825,-0.31659 -1.5,-0.0916 -1.5,0.5 0,0.59158 -0.62948,0.83405 -1.39885,0.53881 -0.76937,-0.29523 -1.68378,-0.0758 -2.03202,0.48771 -0.34825,0.56348 -1.29377,0.77101 -2.10116,0.46119 C 696.66059,562.03951 696,562.31449 696,562.9604 c 0,0.7193 -0.77501,0.9284 -2,0.5396 -1.16226,-0.36889 -2,-0.1797 -2,0.45166 0,0.65953 -0.98237,0.83988 -2.5,0.45898 -1.60495,-0.40281 -2.5,-0.2065 -2.5,0.54834 0,0.71896 -0.77359,0.93027 -1.99105,0.54386 -1.09508,-0.34756 -2.55758,-0.26539 -3.25,0.18261 -1.29084,0.83519 -2.85847,1.03788 -13.25895,1.71435 -3.3,0.21464 -9.15,0.65076 -13,0.96915 -3.85,0.31839 -8.35,0.14451 -10,-0.3864 z m -91.80701,-92.71352 c -0.25354,-0.97297 -0.47766,-0.41903 -0.49804,1.23097 -0.0204,1.65 0.18706,2.44606 0.46099,1.76903 0.27392,-0.67703 0.29059,-2.02703 0.0371,-3 z M 653.75,411.28375 c -1.5125,-0.22913 -3.9875,-0.22913 -5.5,0 -1.5125,0.22912 -0.275,0.41659 2.75,0.41659 3.025,0 4.2625,-0.18747 2.75,-0.41659 z M 545.48307,357.9726 c -0.44142,-0.71422 -1.96939,-0.91635 -4.01961,-0.53172 -1.99946,0.3751 -3.57922,0.18083 -3.99457,-0.49122 -0.38058,-0.61579 -1.75365,-0.84402 -3.07798,-0.51164 C 532.96859,356.795 532,356.59797 532,355.95166 c 0,-0.63136 -0.83774,-0.82055 -2,-0.45166 -1.22499,0.3888 -2,0.1797 -2,-0.5396 0,-0.64591 -0.66059,-0.92089 -1.46797,-0.61106 -0.80739,0.30982 -1.7218,0.15262 -2.03203,-0.34934 -0.31023,-0.50196 -1.22464,-0.65916 -2.03203,-0.34934 -0.80738,0.30983 -1.46797,0.0386 -1.46797,-0.60269 0,-0.6413 -0.41891,-0.90711 -0.9309,-0.59068 -0.512,0.31644 -1.21809,0.11065 -1.5691,-0.45729 -0.35101,-0.56794 -1.0571,-0.77373 -1.5691,-0.45729 C 516.41891,351.85914 516,351.61492 516,351 c 0,-0.61492 -0.45,-0.83992 -1,-0.5 -0.55,0.33992 -1,0.24013 -1,-0.22175 0,-0.86366 -5.90907,-3.6419 -7.25,-3.40869 -0.4125,0.0717 -0.75,-0.39456 -0.75,-1.03623 0,-0.64166 -0.29301,-0.87366 -0.65112,-0.51554 -0.35812,0.35812 -1.29149,-0.12938 -2.07416,-1.08333 C 502.32518,343.07712 502.0674,342.99911 502.5,344 c 0.35657,0.825 -0.0794,0.6 -0.96889,-0.5 -0.88946,-1.1 -1.9971,-2 -2.46143,-2 -0.46432,0 -1.82923,-1.125 -3.03314,-2.5 -1.2039,-1.375 -1.8662,-1.825 -1.47178,-1 0.39443,0.825 -1.82129,-0.95963 -4.92381,-3.96584 -5.7598,-5.581 -6.59892,-6.63605 -4.39095,-5.52084 0.6875,0.34724 -0.1,-0.57559 -1.75,-2.05073 -1.65,-1.47515 -2.325,-2.37433 -1.5,-1.99818 0.97339,0.4438 0.89108,0.18431 -0.23446,-0.73913 -0.95395,-0.78267 -1.45204,-1.70545 -1.10687,-2.05062 0.34517,-0.34517 -0.10924,-0.91033 -1.0098,-1.25591 -0.90056,-0.34557 -1.38841,-1.03117 -1.08411,-1.52353 C 478.86906,318.40285 478.61492,318 478,318 c -0.61492,0 -0.83992,-0.45 -0.5,-1 0.33992,-0.55 0.11492,-1 -0.5,-1 -0.61492,0 -0.83992,-0.45 -0.5,-1 0.33992,-0.55 0.11492,-1 -0.5,-1 -0.61492,0 -0.83992,-0.45 -0.5,-1 0.33992,-0.55 0.11492,-1 -0.5,-1 -0.61492,0 -0.83992,-0.45 -0.5,-1 0.33992,-0.55 0.1556,-1 -0.4096,-1 -0.5652,0 -0.76861,-0.675 -0.45203,-1.5 0.31659,-0.825 0.0916,-1.5 -0.5,-1.5 -0.59158,0 -0.81658,-0.675 -0.5,-1.5 0.31659,-0.825 0.0916,-1.5 -0.5,-1.5 -0.59158,0 -0.81658,-0.675 -0.5,-1.5 0.31659,-0.825 0.0471,-1.5 -0.59877,-1.5 -0.7021,0 -0.92984,-0.77045 -0.56631,-1.91584 0.33444,-1.05372 0.13811,-2.2063 -0.43628,-2.56129 -0.57439,-0.35499 -0.78124,-1.69377 -0.45965,-2.97506 0.32158,-1.28129 0.21073,-2.56072 -0.24633,-2.84318 -1.0522,-0.65023 -0.99214,-18.82592 0.0679,-20.54105 0.43416,-0.70249 0.52037,-2.3491 0.19157,-3.65913 -0.32879,-1.31003 -0.12785,-2.67233 0.44654,-3.02732 0.57439,-0.35499 0.77072,-1.50757 0.43628,-2.56129 C 470.11798,259.79636 470.33692,259 471,259 c 0.6797,0 0.88021,-0.80205 0.5,-2 -0.3888,-1.22499 -0.1797,-2 0.5396,-2 0.64591,0 0.92089,-0.66059 0.61106,-1.46797 -0.30982,-0.80739 -0.12563,-1.73849 0.40933,-2.0691 0.53495,-0.33062 0.73295,-0.98894 0.44001,-1.46293 -0.29294,-0.47399 -0.0679,-1.14899 0.5,-1.5 0.56794,-0.35101 0.77373,-1.0571 0.45729,-1.5691 -0.31643,-0.51199 -0.0506,-0.9309 0.59068,-0.9309 0.6413,0 0.90699,-0.675 0.5904,-1.5 -0.31658,-0.825 -0.11317,-1.5 0.45203,-1.5 0.5652,0 0.74952,-0.45 0.4096,-1 -0.33992,-0.55 -0.11492,-1 0.5,-1 0.61492,0 0.85914,-0.41891 0.54271,-0.9309 -0.31644,-0.512 -0.11065,-1.21809 0.45729,-1.5691 0.56794,-0.35101 0.77373,-1.0571 0.45729,-1.5691 C 478.14086,236.41891 478.38508,236 479,236 c 0.61492,0 0.83992,-0.45 0.5,-1 -0.33992,-0.55 -0.11492,-1 0.5,-1 0.61492,0 0.83992,-0.45 0.5,-1 -0.33992,-0.55 -0.11492,-1 0.5,-1 0.61492,0 0.86906,-0.40285 0.56476,-0.89522 -0.3043,-0.49236 0.14766,-1.16419 1.00437,-1.49293 0.8567,-0.32875 1.27755,-1.0509 0.93524,-1.60479 C 483.16205,227.45318 483.38508,227 484,227 c 0.61492,0 0.86906,-0.40285 0.56476,-0.89522 -0.3043,-0.49236 0.14766,-1.16419 1.00437,-1.49293 0.8567,-0.32875 1.27755,-1.0509 0.93524,-1.60479 C 486.16205,222.45318 486.38508,222 487,222 c 0.61492,0 0.83795,-0.45318 0.49563,-1.00706 -0.34231,-0.55389 0.0785,-1.27604 0.93524,-1.60479 0.85671,-0.32874 1.32262,-0.97799 1.03538,-1.44276 C 489.179,217.48062 489.86919,216.60519 491,216 c 1.13081,-0.60519 1.80581,-1.50519 1.5,-2 -0.30581,-0.49481 0.35211,-1.38567 1.46204,-1.97968 1.10993,-0.59402 1.91003,-1.41963 1.77801,-1.83469 -0.13203,-0.41506 1.33495,-2.23992 3.25995,-4.05524 1.925,-1.81532 2.825,-2.97569 2,-2.57861 -0.825,0.39708 1.86374,-2.71462 5.97497,-6.91491 7.55209,-7.71566 8.65783,-8.65583 7.51158,-6.38687 -0.34731,0.6875 1.02109,-0.55 3.0409,-2.75 2.01981,-2.2 3.36813,-3.325 2.99628,-2.5 -0.37186,0.825 0.31768,0.375 1.53231,-1 1.21463,-1.375 2.58548,-2.39198 3.04633,-2.25995 0.46085,0.13202 1.32393,-0.66808 1.91795,-1.77801 0.59401,-1.10993 1.51063,-1.75193 2.03692,-1.42667 0.52629,0.32527 1.22586,-0.10954 1.55461,-0.96624 0.32874,-0.85671 1.00374,-1.30671 1.5,-1 0.49625,0.3067 1.17125,-0.1433 1.5,-1 0.32874,-0.85671 1.00374,-1.30671 1.5,-1 0.49625,0.3067 1.17125,-0.1433 1.5,-1 0.32874,-0.85671 1.00057,-1.30867 1.49293,-1.00437 C 538.59715,172.86906 539,172.61492 539,172 c 0,-0.61492 0.45318,-0.83795 1.00706,-0.49563 0.55389,0.34231 1.27604,-0.0785 1.60479,-0.93524 0.32874,-0.85671 1.00057,-1.30867 1.49293,-1.00437 C 543.59715,169.86906 544,169.61492 544,169 c 0,-0.61492 0.45,-0.83992 1,-0.5 0.55,0.33992 1,0.11492 1,-0.5 0,-0.61492 0.45,-0.83992 1,-0.5 0.55,0.33992 1,0.17723 1,-0.36153 0,-0.53876 1.35,-1.27607 3,-1.63847 1.65,-0.3624 3,-1.09971 3,-1.63847 0,-0.53876 0.45,-0.70145 1,-0.36153 0.55,0.33992 1,0.11492 1,-0.5 0,-0.61492 0.45,-0.83992 1,-0.5 0.55,0.33992 1,0.11492 1,-0.5 0,-0.61492 0.45,-0.83992 1,-0.5 0.55,0.33992 1,0.11492 1,-0.5 0,-0.61492 0.41891,-0.85914 0.9309,-0.54271 0.512,0.31644 1.21809,0.11065 1.5691,-0.45729 0.35101,-0.56794 1.0571,-0.77373 1.5691,-0.45729 0.51199,0.31643 0.9309,0.0722 0.9309,-0.54271 0,-0.61492 0.41891,-0.85914 0.9309,-0.54271 0.512,0.31644 1.21809,0.11065 1.5691,-0.45729 0.35101,-0.56794 1.02601,-0.79294 1.5,-0.5 0.47399,0.29294 1.14899,0.0679 1.5,-0.5 0.35101,-0.56794 1.0571,-0.77373 1.5691,-0.45729 0.51199,0.31643 0.9309,0.0506 0.9309,-0.59068 0,-0.6413 0.66059,-0.91252 1.46797,-0.60269 0.80739,0.30982 1.7218,0.15262 2.03203,-0.34934 0.31023,-0.50196 1.22464,-0.65916 2.03203,-0.34934 0.80738,0.30983 1.46797,0.0793 1.46797,-0.51229 0,-0.59158 0.62948,-0.83405 1.39885,-0.53881 0.76937,0.29523 1.70046,0.0488 2.0691,-0.5477 0.36863,-0.59647 1.10886,-0.8134 1.64495,-0.48208 0.53609,0.33132 1.61029,0.0749 2.3871,-0.56978 0.77681,-0.6447 1.90181,-0.8697 2.5,-0.5 0.59819,0.3697 1.68586,0.17568 2.41706,-0.43116 0.73119,-0.60684 2.03993,-0.83071 2.9083,-0.49748 0.86838,0.33323 2.16292,0.22849 2.87675,-0.23275 1.74082,-1.1248 6.1831,-1.46116 19.29789,-1.46116 13.03074,0 17.55835,0.33671 19.25,1.43157 0.6875,0.44496 1.71971,0.51872 2.2938,0.16391 0.5741,-0.35481 1.67939,-0.11763 2.4562,0.52707 0.77681,0.6447 1.85101,0.9011 2.3871,0.56978 0.53609,-0.33132 1.27632,-0.11439 1.64495,0.48208 0.36864,0.59647 1.29973,0.84293 2.0691,0.5477 0.76937,-0.29524 1.39885,-0.0528 1.39885,0.53881 0,0.59159 0.675,0.81659 1.5,0.5 0.825,-0.31658 1.5,-0.0916 1.5,0.5 0,0.59159 0.675,0.81659 1.5,0.5 0.825,-0.31658 1.5,-0.0916 1.5,0.5 0,0.59159 0.675,0.81659 1.5,0.5 0.825,-0.31658 1.5,-0.11317 1.5,0.45203 0,0.5652 0.45,0.74952 1,0.4096 0.55,-0.33992 1,-0.11492 1,0.5 0,0.61492 0.45,0.83992 1,0.5 0.55,-0.33992 1,-0.11492 1,0.5 0,0.61492 0.45,0.83992 1,0.5 0.55,-0.33992 1,-0.11492 1,0.5 0,0.61492 0.45,0.83992 1,0.5 0.55,-0.33992 1,-0.11492 1,0.5 0,0.61492 0.45,0.83992 1,0.5 0.55,-0.33992 1,-0.11492 1,0.5 0,0.61492 0.45318,0.83795 1.00706,0.49563 0.55389,-0.34231 1.27604,0.0785 1.60479,0.93524 0.32874,0.85671 0.97799,1.32262 1.44276,1.03538 0.46477,-0.28725 1.33106,0.38586 1.92507,1.49579 0.59402,1.10993 1.4041,1.93682 1.80018,1.83753 0.97895,-0.2454 14.65231,13.50098 14.40134,14.47826 -0.10986,0.4278 0.47684,1.03745 1.30378,1.35478 0.82694,0.31733 1.2526,0.98298 0.94589,1.47924 -0.3067,0.49625 0.1433,1.17125 1,1.5 0.85671,0.32874 1.30867,1.00057 1.00437,1.49293 C 694.13094,187.59715 694.38508,188 695,188 c 0.61492,0 0.83795,0.45318 0.49563,1.00706 -0.34231,0.55389 0.0785,1.27604 0.93524,1.60479 0.85671,0.32874 1.30867,1.00057 1.00437,1.49293 -0.3043,0.49237 -0.0908,0.89522 0.47436,0.89522 0.5652,0 0.76861,0.675 0.45203,1.5 -0.31659,0.825 -0.0509,1.5 0.5904,1.5 0.6413,0 0.88789,0.45 0.54797,1 -0.33992,0.55 -0.1556,1 0.4096,1 0.5652,0 0.76861,0.675 0.45203,1.5 -0.31659,0.825 -0.0916,1.5 0.5,1.5 0.59158,0 0.81658,0.675 0.5,1.5 -0.31659,0.825 -0.0509,1.5 0.5904,1.5 0.6413,0 0.87571,0.46971 0.5209,1.0438 -0.35481,0.5741 -0.11763,1.67939 0.52707,2.4562 0.6447,0.77681 0.88188,1.8821 0.52707,2.4562 -0.35481,0.57409 -0.29166,1.6063 0.14033,2.2938 1.98039,3.15173 1.99901,26.4478 0.0236,29.5 -0.44496,0.6875 -0.51872,1.71971 -0.16391,2.2938 0.35481,0.5741 0.14861,1.64206 -0.45823,2.37326 -0.60684,0.73119 -0.82244,2.06148 -0.4791,2.95619 C 702.95497,250.32505 702.71029,251 702,251 c -0.66769,0 -0.96049,0.66059 -0.65066,1.46797 0.30982,0.80739 0.12563,1.73849 -0.40933,2.0691 -0.53495,0.33062 -0.73295,0.98894 -0.44001,1.46293 0.29294,0.47399 0.0679,1.14899 -0.5,1.5 -0.56794,0.35101 -0.79294,1.02601 -0.5,1.5 0.29294,0.47399 0.0679,1.14899 -0.5,1.5 -0.56794,0.35101 -0.77373,1.0571 -0.45729,1.5691 0.31643,0.51199 0.0722,0.9309 -0.54271,0.9309 -0.61492,0 -0.85914,0.41891 -0.54271,0.9309 0.31644,0.512 0.11065,1.21809 -0.45729,1.5691 -0.56794,0.35101 -0.77373,1.0571 -0.45729,1.5691 0.31643,0.51199 0.0722,0.9309 -0.54271,0.9309 -0.61492,0 -0.83992,0.45 -0.5,1 0.33992,0.55 0.11492,1 -0.5,1 -0.61492,0 -0.83992,0.45 -0.5,1 0.33992,0.55 0.11492,1 -0.5,1 -0.61492,0 -0.83992,0.45 -0.5,1 0.33992,0.55 0.11492,1 -0.5,1 -0.61492,0 -0.83992,0.45 -0.5,1 0.33992,0.55 0.11492,1 -0.5,1 -0.61492,0 -0.83992,0.45 -0.5,1 0.33992,0.55 0.11492,1 -0.5,1 -0.61492,0 -0.86906,0.40285 -0.56476,0.89522 0.3043,0.49236 -0.14766,1.16419 -1.00437,1.49293 -0.8567,0.32875 -1.27755,1.0509 -0.93524,1.60479 C 688.83795,282.54682 688.61492,283 688,283 c -0.61492,0 -0.85701,0.42234 -0.53798,0.93854 0.31902,0.5162 -0.21692,1.40251 -1.19099,1.96959 -0.97407,0.56708 -1.32103,1.05474 -0.77103,1.0837 0.55,0.029 -0.125,0.98169 -1.5,2.11718 -1.375,1.1355 -1.825,1.76712 -1,1.40361 0.825,-0.36351 0.6,0.0668 -0.5,0.95627 -1.1,0.88946 -2,1.9971 -2,2.46143 0,0.46432 -1.125,1.82923 -2.5,3.03314 -1.375,1.2039 -1.825,1.89253 -1,1.53029 0.825,-0.36225 -0.525,1.16504 -3,3.39397 -2.475,2.22893 -4.06881,4.06603 -3.54179,4.08244 0.52701,0.0164 -1.01003,2.03533 -3.41565,4.48648 -2.40563,2.45115 -4.71008,4.24884 -5.12102,3.99487 -0.41093,-0.25397 -2.40359,1.45304 -4.42813,3.79336 -2.02454,2.34032 -3.37949,3.58013 -3.01101,2.75513 0.36849,-0.825 -0.31504,-0.375 -1.51894,1 -1.20391,1.375 -2.60461,2.5 -3.11266,2.5 -0.50806,0 -1.34092,0.675 -1.8508,1.5 -0.50988,0.825 -1.37409,1.5 -1.92048,1.5 -0.54638,0 -1.72117,0.9 -2.61063,2 -0.88946,1.1 -1.32546,1.325 -0.96889,0.5 0.35657,-0.825 -0.0918,-0.6 -0.99642,0.5 -0.90461,1.1 -2.06298,1.8875 -2.57416,1.75 -0.51118,-0.1375 -0.92942,0.22656 -0.92942,0.80902 0,0.58246 -0.45318,0.77893 -1.00706,0.43661 -0.55389,-0.34231 -1.27604,0.0785 -1.60479,0.93524 -0.32874,0.85671 -1.00057,1.30867 -1.49293,1.00437 C 633.40285,335.13094 633,335.38508 633,336 c 0,0.61492 -0.45318,0.83795 -1.00706,0.49563 -0.55389,-0.34231 -1.27604,0.0785 -1.60479,0.93524 -0.32874,0.85671 -1.00057,1.30867 -1.49293,1.00437 C 628.40285,338.13094 628,338.38508 628,339 c 0,0.61492 -0.45,0.83992 -1,0.5 -0.55,-0.33992 -1,-0.11492 -1,0.5 0,0.61492 -0.45,0.83992 -1,0.5 -0.55,-0.33992 -1,-0.11492 -1,0.5 0,0.61492 -0.45,0.83992 -1,0.5 -0.55,-0.33992 -1,-0.11492 -1,0.5 0,0.61492 -0.45,0.83992 -1,0.5 -0.55,-0.33992 -1,-0.11492 -1,0.5 0,0.61492 -0.45,0.83992 -1,0.5 -0.55,-0.33992 -1,-0.11492 -1,0.5 0,0.61492 -0.45,0.83992 -1,0.5 -0.55,-0.33992 -1,-0.11492 -1,0.5 0,0.61492 -0.45,0.83992 -1,0.5 -0.55,-0.33992 -1,-0.0933 -1,0.54797 0,0.6413 -0.675,0.90699 -1.5,0.5904 -0.825,-0.31658 -1.5,-0.11317 -1.5,0.45203 0,0.5652 -0.45,0.74952 -1,0.4096 -0.55,-0.33992 -1,-0.1556 -1,0.4096 0,0.5652 -0.675,0.76861 -1.5,0.45203 -0.825,-0.31659 -1.5,-0.0916 -1.5,0.5 0,0.59158 -0.675,0.81658 -1.5,0.5 -0.825,-0.31659 -1.5,-0.0509 -1.5,0.5904 0,0.6413 -0.41891,0.90711 -0.9309,0.59068 -0.512,-0.31644 -1.20141,-0.13765 -1.53203,0.3973 -0.33061,0.53496 -1.26171,0.71915 -2.0691,0.40933 -0.80738,-0.30983 -1.46797,-0.0793 -1.46797,0.51229 0,0.59158 -0.675,0.81658 -1.5,0.5 -0.82569,-0.31685 -1.5,-0.0299 -1.5,0.63837 0,0.66769 -0.66059,0.96049 -1.46797,0.65066 -0.80739,-0.30982 -1.74526,-0.11466 -2.08416,0.43369 -0.3389,0.54835 -1.47831,0.72338 -2.53203,0.38894 C 586.79636,354.11798 586,354.33692 586,355 c 0,0.66308 -0.79636,0.88202 -1.91584,0.52671 -1.05372,-0.33444 -2.21659,-0.12146 -2.58416,0.47329 -0.36757,0.59475 -1.52642,0.809 -2.57521,0.47613 -1.04879,-0.33287 -2.47342,-0.23868 -3.16584,0.20932 -1.41245,0.91386 -3.6894,1.14332 -18.91136,1.90579 -7.47802,0.37457 -10.86462,0.19022 -11.36452,-0.61864 z M 666.5,310 c 2.14824,-2.2 3.6809,-4 3.4059,-4 -0.275,0 -2.25766,1.8 -4.4059,4 -2.14824,2.2 -3.6809,4 -3.4059,4 0.275,0 2.25766,-1.8 4.4059,-4 z M 646,289.5 c 1.86578,-1.925 3.16733,-3.5 2.89233,-3.5 -0.275,0 -2.02655,1.575 -3.89233,3.5 -1.86578,1.925 -3.16733,3.5 -2.89233,3.5 0.275,0 2.02655,-1.575 3.89233,-3.5 z m 19,-93.84501 c 0,-0.18976 -1.0125,-1.20226 -2.25,-2.25 L 660.5,191.5 l 1.90499,2.25 C 664.19521,195.86444 665,196.45524 665,195.65499 Z M 369.32017,228.70932 C 369.0515,228.27445 368.00743,228.18025 367,228.5 c -1.00743,0.31975 -2.10897,0.1327 -2.44787,-0.41565 -0.3389,-0.54835 -1.27677,-0.74351 -2.08416,-0.43369 C 361.66059,227.96049 361,227.66769 361,227 c 0,-0.66825 -0.67431,-0.95522 -1.5,-0.63837 -0.825,0.31658 -1.5,0.0916 -1.5,-0.5 0,-0.59159 -0.675,-0.81659 -1.5,-0.5 -0.825,0.31658 -1.5,0.11317 -1.5,-0.45203 0,-0.5652 -0.45,-0.74952 -1,-0.4096 -0.55,0.33992 -1,0.11492 -1,-0.5 0,-0.61492 -0.45,-0.83992 -1,-0.5 -0.55,0.33992 -1,0.11492 -1,-0.5 0,-0.61492 -0.45,-0.83992 -1,-0.5 -0.55,0.33992 -1,0.11492 -1,-0.5 0,-0.61492 -0.45,-0.83992 -1,-0.5 -0.55,0.33992 -1,0.11492 -1,-0.5 0,-0.61492 -0.40285,-0.86906 -0.89522,-0.56476 -0.49236,0.3043 -1.16419,-0.14766 -1.49293,-1.00437 -0.32875,-0.8567 -1.02832,-1.29151 -1.55461,-0.96624 -0.52629,0.32526 -1.44291,-0.31674 -2.03692,-1.42667 -0.59402,-1.10993 -1.4041,-1.91769 -1.80018,-1.79501 -0.94023,0.2912 -11.75429,-10.52286 -11.46309,-11.46309 0.12268,-0.39608 -0.68508,-1.20616 -1.79501,-1.80018 -1.10993,-0.59401 -1.75193,-1.51063 -1.42667,-2.03692 0.32527,-0.52629 -0.10954,-1.22586 -0.96624,-1.55461 -0.85671,-0.32874 -1.30671,-1.00374 -1,-1.5 0.3067,-0.49625 -0.1433,-1.17125 -1,-1.5 -0.85671,-0.32874 -1.30867,-1.00057 -1.00437,-1.49293 0.3043,-0.49237 0.0767,-0.89522 -0.50574,-0.89522 -0.58246,0 -0.95855,-0.3375 -0.83576,-0.75 0.34704,-1.16582 -2.6123,-7.25 -3.52639,-7.25 -0.4482,0 -0.53679,-0.45 -0.19687,-1 0.33992,-0.55 0.11492,-1 -0.5,-1 -0.61492,0 -0.83992,-0.45 -0.5,-1 0.33992,-0.55 0.0933,-1 -0.54797,-1 -0.6413,0 -0.90699,-0.675 -0.5904,-1.5 0.31658,-0.825 0.15385,-1.5 -0.36163,-1.5 -0.51548,0 -0.67821,-0.675 -0.36163,-1.5 0.31659,-0.825 0.0916,-1.5 -0.5,-1.5 -0.59158,0 -0.83405,-0.62948 -0.53881,-1.39885 0.29523,-0.76937 0.0488,-1.70046 -0.5477,-2.0691 -0.59647,-0.36863 -0.8134,-1.10886 -0.48208,-1.64495 0.33132,-0.53609 0.1059,-1.57296 -0.50094,-2.30416 -0.60684,-0.73119 -0.83071,-2.03993 -0.49748,-2.9083 0.33323,-0.86838 0.28152,-2.10366 -0.11489,-2.74508 -0.96568,-1.56249 -1.03642,-23.18216 -0.0809,-24.7282 0.41445,-0.67059 0.46917,-2.11523 0.12161,-3.21031 C 309.11959,132.80145 309.322,132 310,132 c 0.66308,0 0.88202,-0.79636 0.52671,-1.91584 -0.33444,-1.05372 -0.15941,-2.19313 0.38894,-2.53203 0.54835,-0.3389 0.74351,-1.27677 0.43369,-2.08416 C 311.03951,124.66059 311.33231,124 312,124 c 0.66825,0 0.95522,-0.67431 0.63837,-1.5 -0.31658,-0.825 -0.15385,-1.5 0.36163,-1.5 0.51548,0 0.67821,-0.675 0.36163,-1.5 -0.31659,-0.825 -0.0509,-1.5 0.5904,-1.5 0.6413,0 0.88789,-0.45 0.54797,-1 -0.33992,-0.55 -0.0933,-1 0.54797,-1 0.6413,0 0.90699,-0.675 0.5904,-1.5 -0.31658,-0.825 -0.11317,-1.5 0.45203,-1.5 0.5652,0 0.74952,-0.45 0.4096,-1 -0.33992,-0.55 -0.11492,-1 0.5,-1 0.61492,0 0.83992,-0.45 0.5,-1 -0.33992,-0.55 -0.11492,-1 0.5,-1 0.61492,0 0.83992,-0.45 0.5,-1 -0.33992,-0.55 -0.11492,-1 0.5,-1 0.61492,0 0.86906,-0.40285 0.56476,-0.89522 -0.3043,-0.49236 0.14766,-1.16419 1.00437,-1.49293 0.8567,-0.32875 1.27755,-1.0509 0.93524,-1.60479 C 321.16205,102.45318 321.38508,102 322,102 c 0.61492,0 0.86906,-0.40285 0.56476,-0.89522 -0.3043,-0.49236 0.12332,-1.154842 0.95026,-1.47217 0.82694,-0.317327 1.38686,-1.007718 1.24426,-1.534202 -0.14261,-0.526484 0.64072,-1.697377 1.74072,-2.601983 1.1,-0.904607 1.325,-1.34732 0.5,-0.983806 -0.825,0.363514 -0.375,-0.252409 1,-1.368719 1.375,-1.116309 2.52489,-2.392859 2.55532,-2.836777 0.0304,-0.443918 3.60822,-4.407123 7.95066,-8.807123 4.34244,-4.4 7.54576,-7.325 7.11849,-6.5 -0.42726,0.825 0.21694,0.375 1.43157,-1 1.21463,-1.375 2.58548,-2.391979 3.04633,-2.259952 0.46085,0.132026 1.32393,-0.668078 1.91795,-1.778009 0.59401,-1.10993 1.51063,-1.75193 2.03692,-1.426665 0.52629,0.325264 1.22586,-0.109547 1.55461,-0.966248 C 355.94059,66.712424 356.56526,66.231318 357,66.5 c 0.43474,0.268682 1.05941,-0.212424 1.38815,-1.069126 0.32875,-0.856701 1.0509,-1.277559 1.60479,-0.935239 C 360.54682,64.837954 361,64.614919 361,64 c 0,-0.614919 0.45,-0.839919 1,-0.5 0.55,0.339919 1,0.141476 1,-0.440983 C 363,62.476558 363.675,62 364.5,62 c 0.825,0 1.5,-0.476558 1.5,-1.059017 0,-0.582459 0.45,-0.780902 1,-0.440983 0.55,0.339919 1,0.114919 1,-0.5 0,-0.614919 0.45,-0.839919 1,-0.5 0.55,0.339919 1,0.114919 1,-0.5 0,-0.614919 0.45,-0.839919 1,-0.5 0.55,0.339919 1,0.114919 1,-0.5 0,-0.614919 0.45,-0.839919 1,-0.5 0.55,0.339919 1,0.114919 1,-0.5 0,-0.614919 0.45,-0.839919 1,-0.5 0.55,0.339919 1,0.155599 1,-0.409598 0,-0.565198 0.675,-0.768611 1.5,-0.452028 0.825,0.316582 1.5,0.0509 1.5,-0.590402 0,-0.641303 0.45,-0.887891 1,-0.547972 0.55,0.339919 1,0.114919 1,-0.5 0,-0.614919 0.41891,-0.859136 0.9309,-0.542705 0.512,0.316431 1.21809,0.110648 1.5691,-0.457295 0.35101,-0.567943 1.0571,-0.773726 1.5691,-0.457295 0.51199,0.316431 0.9309,0.05063 0.9309,-0.590677 0,-0.641303 0.675,-0.906984 1.5,-0.590402 0.825,0.316583 1.5,0.153851 1.5,-0.361626 0,-0.515477 0.675,-0.678209 1.5,-0.361626 0.82569,0.316848 1.5,0.02988 1.5,-0.638374 0,-0.668249 0.67431,-0.955222 1.5,-0.638374 0.825,0.316583 1.5,0.09158 1.5,-0.5 0,-0.591582 0.66059,-0.822112 1.46797,-0.512289 0.80739,0.309823 1.7218,0.152622 2.03203,-0.349337 0.31023,-0.501959 1.17912,-0.676627 1.93087,-0.388152 0.75176,0.288474 1.66844,0.03648 2.03708,-0.559986 0.36863,-0.596467 1.10886,-0.813405 1.64495,-0.482084 0.53609,0.331321 1.57296,0.105897 2.30416,-0.500941 0.73119,-0.606839 2.01596,-0.839901 2.85504,-0.517916 0.83908,0.321984 1.82369,0.103097 2.18803,-0.486418 0.36434,-0.589514 1.73429,-0.802828 3.04432,-0.47403 1.31003,0.328797 2.96996,0.217949 3.68871,-0.24633 3.20587,-2.070808 31.1812,-1.996637 36.00895,0.09547 0.93617,0.405686 2.19338,0.433995 2.79381,0.06291 0.60043,-0.371087 1.72727,-0.147222 2.50408,0.497477 0.77681,0.644699 1.85101,0.901099 2.3871,0.569778 0.53609,-0.331321 1.27632,-0.114383 1.64495,0.482084 0.36864,0.596467 1.29973,0.84293 2.0691,0.547696 0.76937,-0.295233 1.39885,-0.05277 1.39885,0.538816 0,0.591582 0.675,0.816582 1.5,0.5 0.825,-0.316583 1.5,-0.09158 1.5,0.5 0,0.591582 0.675,0.816582 1.5,0.5 0.825,-0.316583 1.5,-0.11317 1.5,0.452028 0,0.565197 0.41157,0.773271 0.91459,0.462384 0.50302,-0.310886 1.07219,-0.09245 1.26481,0.485416 0.19262,0.577865 1.34432,1.125546 2.55933,1.21707 1.21501,0.09152 2.44266,0.775051 2.72813,1.51895 0.28546,0.743898 0.97219,1.072463 1.52608,0.730143 C 482.54682,53.162046 483,53.385081 483,54 c 0,0.614919 0.40285,0.869061 0.89522,0.564761 0.49236,-0.304301 1.17796,0.183549 1.52353,1.084111 0.34558,0.900561 0.8986,1.367113 1.22893,1.036781 0.33033,-0.330332 1.47902,0.39276 2.55265,1.606872 1.07362,1.214111 1.6032,1.532475 1.17683,0.707475 -0.42637,-0.825 1.66518,0.975 4.64788,4 2.9827,3.025 5.32674,5.824064 5.20898,6.220143 -0.11776,0.396078 0.69401,1.206156 1.80394,1.800173 1.10993,0.594017 1.7539,1.507453 1.43103,2.029857 C 503.14613,73.572578 503.38508,74 504,74 c 0.61492,0 0.83795,0.453178 0.49563,1.007063 -0.34231,0.553884 0.0785,1.276038 0.93524,1.604785 0.85671,0.328747 1.30867,1.000568 1.00437,1.492937 C 506.13094,78.597153 506.38508,79 507,79 c 0.61492,0 0.85914,0.418906 0.54271,0.930902 -0.31644,0.511996 -0.11065,1.21809 0.45729,1.569098 0.56794,0.351008 0.77373,1.057102 0.45729,1.569098 C 508.14086,83.581094 508.38508,84 509,84 c 0.61492,0 0.85914,0.418906 0.54271,0.930902 -0.31644,0.511996 -0.11065,1.21809 0.45729,1.569098 0.56794,0.351008 0.77373,1.057102 0.45729,1.569098 C 510.14086,88.581094 510.38885,89 511.00837,89 c 0.67133,0 0.86995,0.808013 0.49163,2 -0.38021,1.197947 -0.1797,2 0.5,2 0.66308,0 0.88202,0.796356 0.52671,1.915843 -0.33444,1.053714 -0.21939,2.156057 0.25566,2.449652 1.07289,0.663082 0.96364,22.665515 -0.12112,24.393455 -0.43469,0.69242 -0.50597,2.15492 -0.15841,3.25 C 512.88041,126.19855 512.678,127 512,127 c -0.6797,0 -0.88021,0.80205 -0.5,2 0.3888,1.22499 0.1797,2 -0.5396,2 -0.64591,0 -0.91536,0.675 -0.59877,1.5 0.31658,0.825 0.0916,1.5 -0.5,1.5 -0.59159,0 -0.81659,0.675 -0.5,1.5 0.31658,0.825 0.15385,1.5 -0.36163,1.5 -0.51548,0 -0.67821,0.675 -0.36163,1.5 0.31659,0.825 0.0509,1.5 -0.5904,1.5 -0.6413,0 -0.88789,0.45 -0.54797,1 0.33992,0.55 0.11492,1 -0.5,1 -0.61492,0 -0.86367,0.41157 -0.55279,0.91459 0.31089,0.50302 0.0925,1.07219 -0.48541,1.26481 -0.57787,0.19262 -1.12643,1.35606 -1.21904,2.58541 -0.0926,1.22935 -0.52261,2.23519 -0.95556,2.23519 -0.43296,0 -0.7872,0.675 -0.7872,1.5 0,0.825 -0.47656,1.5 -1.05902,1.5 -0.58246,0 -0.7809,0.45 -0.44098,1 0.33992,0.55 0.11492,1 -0.5,1 -0.61492,0 -0.86906,0.40285 -0.56476,0.89522 0.3043,0.49236 -0.18355,1.17796 -1.08411,1.52353 -0.90056,0.34558 -1.35497,0.91074 -1.0098,1.25591 0.34517,0.34517 -0.15292,1.26795 -1.10687,2.05062 -1.14652,0.94066 -1.22599,1.19899 -0.23446,0.7621 0.825,-0.36351 0.375,0.26811 -1,1.40361 -1.375,1.13549 -2.11265,2.07454 -1.63922,2.08677 0.47344,0.0122 -0.20156,0.95652 -1.5,2.09843 -1.29843,1.1419 -1.68578,1.77901 -0.86078,1.4158 0.825,-0.36321 -0.075,0.76539 -2,2.50801 -1.925,1.74262 -2.825,2.85748 -2,2.47748 0.825,-0.38001 -0.92083,1.50524 -3.87963,4.18943 -2.9588,2.6842 -7.85785,7.56972 -10.88678,10.85672 -3.02893,3.28701 -4.93945,5.07637 -4.24559,3.97637 0.69385,-1.1 0.005,-0.65 -1.5303,1 -1.53552,1.65 -3.19237,3 -3.6819,3 -0.48952,0 -1.80339,1.125 -2.9197,2.5 -1.11631,1.375 -1.73223,1.825 -1.36872,1 0.36351,-0.825 -0.0668,-0.6 -0.95627,0.5 -0.88946,1.1 -2.06425,2 -2.61063,2 -0.54639,0 -1.42012,0.675 -1.94164,1.5 -0.52152,0.825 -0.96942,1.05 -0.99533,0.5 -0.0259,-0.55 -0.70781,-0.12649 -1.51531,0.94113 C 450.66069,205.50875 450,205.98524 450,205.5 c 0,-0.48524 -0.70837,-0.009 -1.57416,1.05887 -0.86578,1.06762 -1.28241,1.26613 -0.92584,0.44113 0.4326,-1.00089 0.17482,-0.92288 -0.77472,0.23446 -0.78267,0.95395 -1.70545,1.45204 -2.05062,1.10687 -0.34517,-0.34517 -0.91033,0.10924 -1.25591,1.0098 -0.34557,0.90056 -1.03117,1.38841 -1.52353,1.08411 C 441.40285,210.13094 441,210.38508 441,211 c 0,0.61492 -0.45,0.83992 -1,0.5 -0.55,-0.33992 -1,-0.11492 -1,0.5 0,0.61492 -0.45,0.83992 -1,0.5 -0.55,-0.33992 -1,-0.14148 -1,0.44098 0,0.58246 -0.3375,0.99778 -0.75,0.92293 -1.40061,-0.25415 -9.25,3.43447 -9.25,4.3468 0,0.49903 -0.45,0.62921 -1,0.28929 -0.55,-0.33992 -1,-0.11492 -1,0.5 0,0.61492 -0.45,0.83992 -1,0.5 -0.55,-0.33992 -1,-0.11492 -1,0.5 0,0.61492 -0.41891,0.85914 -0.9309,0.54271 -0.512,-0.31644 -1.21809,-0.11065 -1.5691,0.45729 -0.35101,0.56794 -1.0571,0.77373 -1.5691,0.45729 C 418.41891,221.14086 418,221.38508 418,222 c 0,0.61492 -0.41891,0.85914 -0.9309,0.54271 -0.512,-0.31644 -1.21809,-0.11065 -1.5691,0.45729 -0.35101,0.56794 -1.02601,0.79294 -1.5,0.5 -0.47399,-0.29294 -1.14899,-0.0679 -1.5,0.5 -0.35101,0.56794 -1.0571,0.77373 -1.5691,0.45729 -0.51199,-0.31643 -0.9309,-0.0506 -0.9309,0.59068 0,0.6413 -0.66059,0.91252 -1.46797,0.60269 -0.80739,-0.30982 -1.7218,-0.15262 -2.03203,0.34934 -0.31023,0.50196 -1.17912,0.67663 -1.93087,0.38815 -0.75176,-0.28847 -1.66844,-0.0365 -2.03708,0.55999 -0.36863,0.59647 -1.10886,0.8134 -1.64495,0.48208 -0.53609,-0.33132 -1.57296,-0.1059 -2.30416,0.50094 -0.73119,0.60684 -2.03993,0.83071 -2.9083,0.49748 -0.86838,-0.33323 -2.13459,-0.26241 -2.8138,0.15737 -1.64927,1.0193 -22.91829,1.13072 -23.54067,0.12331 z M 683.43709,172.75 680.5,169.5 l 3.25,2.93709 c 1.7875,1.6154 3.25,3.0779 3.25,3.25 0,0.77256 -0.82513,0.0924 -3.56291,-2.93709 z"
         id="path890" />
      <path
         style="fill:#000000"
         d="M 246,756.30739 C 200.90495,748.72692 170.27373,707.80387 159.3173,640.5 c -1.56427,-9.60911 -1.79266,-17.95446 -1.80623,-66 -0.0152,-53.70472 -0.0698,-55.24572 -2.31966,-65.43362 C 150.43416,487.52438 143.6588,473.92906 119.52558,437.5 101.45173,410.21752 96.888959,402.72785 90.098152,389.19559 65.741208,340.65871 60.897634,292.64952 77.001214,259.37957 86.890197,238.94896 103.9501,224.44978 127.26486,216.66059 179.25562,199.29108 255.45913,208.9105 320.5,241.0533 c 30.69896,15.17124 51.80508,30.15343 74.52554,52.90197 36.45481,36.49987 51.25055,69.39244 53.94205,119.9192 3.46589,65.06394 -16.87403,152.20069 -51.7523,221.70825 -34.84886,69.44895 -78.82282,112.06073 -123.72329,119.89071 -8.11007,1.41428 -21.60458,1.82363 -27.492,0.83396 z m 25.4597,-29.8164 c 8.72997,-1.84928 24.86911,-9.75759 34.0403,-16.68001 57.18478,-43.16317 108.38545,-161.73753 114.55479,-265.29456 2.19695,-36.87753 -2.27739,-64.99676 -14.09324,-88.56971 -36.52657,-72.87149 -150.54276,-128.22747 -241.96768,-117.47767 -32.80723,3.85749 -51.66986,14.05097 -60.46685,32.67665 -5.433495,11.50421 -6.858868,18.4871 -6.808413,33.35431 0.04914,14.47972 2.190888,26.94996 7.446493,43.35689 6.82782,21.31505 14.30997,35.40039 37.79129,71.14311 24.49703,37.28881 30.51554,48.21866 36.53871,66.35573 7.66131,23.06988 8.58153,33.60995 8.26313,94.64427 -0.22498,43.12712 -0.0378,50.72308 1.45425,59 6.00195,33.29595 16.20775,56.41465 31.78752,72.0067 15.24731,15.25934 30.6469,19.89309 51.4597,15.48429 z M 539.5,750.30668 c -2.2,-0.19641 -8.83993,-1.25981 -14.7554,-2.36313 -42.81938,-7.98636 -72.95386,-31.27071 -80.18664,-61.95872 -2.20154,-9.34093 -2.0054,-24.91545 0.43391,-34.45302 7.75655,-30.32786 32.99706,-53.88908 67.80232,-63.29135 8.94952,-2.41762 11.26424,-2.62215 29.70581,-2.62487 18.60548,-0.003 20.67568,0.18357 29.69053,2.67203 20.99446,5.79533 38.23116,15.45017 51.99292,29.12295 12.18724,12.10845 19.53033,24.4627 24.03231,40.43276 2.81047,9.96972 3.04586,28.48602 0.48505,38.15667 -6.42821,24.27561 -25.508,42.32129 -52.87444,50.00868 -14.82867,4.16546 -38.0035,5.93382 -56.32637,4.298 z M 583,719.53595 c 23.52427,-5.5263 37.12414,-18.70068 38.69924,-37.4885 2.59529,-30.95653 -25.04722,-60.20928 -63.36598,-67.05723 -4.48763,-0.80198 -11.9251,-1.08453 -20.44356,-0.77665 -11.67146,0.42185 -14.6088,0.89593 -22.8897,3.69438 -18.24058,6.16422 -31.35181,16.93397 -38.69325,31.78321 -3.74602,7.57692 -3.80675,7.88434 -3.80675,19.27029 0,11.04492 0.14844,11.87231 3.2677,18.21322 3.77728,7.67856 11.48868,15.34054 21.10576,20.97052 8.05422,4.71505 25.08334,10.3369 37.12654,12.25664 12.72716,2.02877 38.62628,1.57111 49,-0.86588 z M 635.5,566.90569 C 587.71644,562.55592 546.63132,538.8673 531.60066,507 c -5.05901,-10.72589 -6.603,-17.74971 -6.58588,-29.9601 0.0173,-12.31854 1.70513,-20.4004 6.3684,-30.49343 14.61261,-31.62707 48.09298,-54.19118 91.39171,-61.59346 13.1923,-2.25534 37.75975,-2.70731 50.72511,-0.93321 43.72597,5.98322 80.31172,29.14194 95.3733,60.37116 12.03188,24.94734 8.78724,55.75824 -8.24173,78.26288 -24.17613,31.94998 -72.50802,49.0422 -125.13157,44.25185 z m 46.43491,-30.89243 c 29.41962,-5.99533 51.70982,-20.52899 60.78108,-39.63049 3.34596,-7.04564 3.77268,-8.86071 4.1208,-17.5279 0.32128,-7.99886 0.009,-10.80968 -1.81116,-16.27785 C 729.7931,416.80326 649.08218,396.39236 593.5,424.25786 c -27.67547,13.87478 -42.95889,36.59037 -39.4398,58.61895 2.44614,15.31225 12.82364,28.44152 30.90898,39.10502 12.63778,7.4515 32.68588,13.77304 50.53082,15.9333 11.87566,1.43763 34.61865,0.50613 46.43491,-1.90187 z M 539.58475,356.96199 C 505.13297,351.53761 481.26267,332.17086 471.84186,302 c -3.2725,-10.48046 -3.3106,-32.52502 -0.0769,-44.52442 7.34934,-27.27176 24.2314,-52.14467 48.67414,-71.71328 53.71711,-43.00536 123.35247,-49.08341 160.6251,-14.01999 30.35926,28.55981 31.59433,73.675 3.17932,116.13544 -10.9057,16.29634 -32.51523,36.44319 -50.92637,47.47933 -14.67785,8.7983 -32.93801,16.03948 -49.81712,19.75529 -10.37888,2.28483 -34.65669,3.30736 -43.91525,1.84962 z m 34.02988,-29.50994 c 45.50933,-7.93616 87.0427,-42.3432 99.52939,-82.45205 3.03316,-9.7429 3.27354,-25.7614 0.50666,-33.76273 -10.51721,-30.4139 -49.77822,-41.61205 -93.06595,-26.54458 -20.19901,7.03082 -36.91526,17.54874 -52.08473,32.77191 -19.92989,20.00044 -30.5,41.83859 -30.5,63.01386 0,24.84782 15.61796,42.04847 43.06869,47.43317 7.24215,1.42061 23.04365,1.19748 32.54594,-0.45958 z M 364,227.42901 c -3.025,-0.79165 -9.31942,-3.31182 -13.9876,-5.60036 -18.67503,-9.15532 -34.63359,-31.35449 -39.67761,-55.19358 -1.90625,-9.00933 -1.3245,-30.47656 1.05658,-38.98923 8.22032,-29.388669 29.36788,-53.524608 60.10863,-68.602625 33.94295,-16.648662 71.14311,-20.451545 99.35213,-10.156527 38.05212,13.887306 52.67368,53.087782 35.15606,94.253592 -6.83298,16.05725 -23.19517,36.58821 -39.89247,50.05629 -20.46119,16.50404 -47.1275,30.03972 -67.45057,34.23756 -9.3943,1.94045 -27.24096,1.93781 -34.66515,-0.005 z m 39.5,-31.38342 c 24.68865,-8.82638 50.86923,-27.56631 65.55978,-46.92736 10.35067,-13.64141 16.81156,-31.47734 15.5211,-42.84758 -2.02929,-17.880173 -13.22169,-29.024448 -32.91885,-32.7773 -22.83791,-4.351254 -49.93302,1.27358 -75.40984,15.654777 -11.27363,6.363754 -25.55017,20.818103 -30.96621,31.351873 -2.2623,4.4 -4.82713,10.76496 -5.69963,14.14434 -1.79547,6.95431 -2.05649,21.59204 -0.50564,28.35566 2.6783,11.68068 12.36329,26.09272 21.35751,31.78167 6.88327,4.35376 11.09078,5.23743 23.06178,4.84348 9.28577,-0.30558 12.40255,-0.86342 20,-3.57956 z"
         id="path888" />
    </g>
  </g>
</svg>
