<svg xmlns="http://www.w3.org/2000/svg" width="256" height="256"><path fill="#1976D2" fill-opacity=".016" fill-rule="evenodd" d="M0 128.004v128.004l128.25-.254 128.25-.254.254-127.75L257.008 0H0v128.004m.485.496c0 70.4.119 99.053.265 63.672.146-35.38.146-92.98 0-128C.604 29.153.485 58.1.485 128.5"/><path fill="#1976D2" fill-opacity=".418" fill-rule="evenodd" d="M119.656 14.917c-11.312 3.726-20.934 12.189-24.33 21.399-3.483 9.447-.262 21.918 7.457 28.877 10.218 9.211 27.945 5.232 42.812-9.61 10.549-10.532 13.802-20.827 9.503-30.083-4.056-8.735-9.256-11.738-21.098-12.186-6.379-.241-9.959.159-14.344 1.603m57.449 31.666c-14.248 3.831-28.183 16.037-32.717 28.656-2.047 5.698-2.031 14.346.036 19.261 4.853 11.541 17.878 17.132 32.707 14.04 9.946-2.074 16.863-5.668 24.301-12.625 15.461-14.464 18.02-32.791 6.11-43.769-7.275-6.706-18.535-8.764-30.437-5.563M43.369 64.423c-10.683 2.444-16.897 7.107-20.745 15.566-2.951 6.486-2.846 19.125.237 28.461 2.929 8.87 3.815 10.564 13.109 25.05 11.466 17.873 11.353 17.471 11.557 41 .235 27.12 2.836 37.241 12.258 47.693 14.889 16.516 37.458 9.552 54.907-16.942 14.371-21.821 22.966-51.948 22.098-77.462-.482-14.159-2.207-20.098-8.545-29.422-9.993-14.698-28.958-26.996-50.099-32.488-10.026-2.605-26.706-3.303-34.777-1.456m144.033 53.063c-7.884 1.715-14.928 5.34-19.75 10.164C162.013 133.292 160 137.856 160 145c0 14.58 12.043 25.1 31.877 27.849C215.78 176.162 237 162.839 237 144.518c0-8.932-8.084-19.454-18.477-24.05-9.896-4.377-20.181-5.362-31.121-2.982m-33.006 61.875c-6.712 2.194-13.146 7.273-16.398 12.945-3.89 6.781-4.192 16.027-.726 22.147 5.062 8.937 17.449 14.551 32.083 14.541 9.938-.006 14.078-1.084 20.253-5.271 15.127-10.258 10.71-32.814-8.263-42.195-4.789-2.369-7.38-2.946-14.345-3.2-5.236-.19-10.076.206-12.604 1.033"/><path fill="#1976D2" fill-opacity=".678" fill-rule="evenodd" d="M124 14.036c-16.706 3.494-30 17.66-30 31.967 0 9.397 7.349 20.307 15.489 22.993 12.555 4.144 35.922-8.12 43.4-22.779 6.349-12.444 3.445-24.945-7.036-30.292-4.689-2.392-15.131-3.295-21.853-1.889m-2 10.179c-8.545 3.004-13.333 6.806-16.451 13.063-3.007 6.035-3.171 9.771-.668 15.222 2.852 6.21 5.465 8.008 11.556 7.95 12.158-.115 28.013-12.645 30.618-24.195 1.013-4.492-.842-9.414-4.436-11.769-4.25-2.785-13.136-2.902-20.619-.271m57.263 22.257c-8.551 1.915-17.63 6.968-24.308 13.528-17.558 17.249-15.172 41.616 4.659 47.584 18.617 5.603 42.846-6.247 52.056-25.46 5.002-10.436 3.374-23.101-3.835-29.825-6.153-5.739-18.093-8.174-28.572-5.827m.761 9.08c-11.161 3.104-20.296 10.303-24.988 19.691-5.257 10.521-3.332 18.905 5.235 22.793 17.223 7.818 44.893-9.774 45.157-28.71.052-3.732-.503-5.961-1.993-8-4.373-5.986-14.058-8.375-23.411-5.774M47.041 64.123c-17.613 2.642-26.183 12.114-26.146 28.898.028 12.721 3.744 22.291 15.854 40.833 10.515 16.097 10.592 16.389 11.327 42.646.588 21.001.86 23.617 3.135 30.103 4.667 13.307 12.135 21.212 22.158 23.455 21 4.7 43.942-18.915 56.405-58.058 5.303-16.656 6.669-25.104 6.629-41-.041-16.293-1.448-21.957-7.855-31.619-15.536-23.43-52.828-39.561-81.507-35.258m3.459 8.528c-12.225 1.811-17.882 5.839-20.075 14.293-2.633 10.148 1.19 22.592 12.015 39.114C55.877 146.564 56.966 150.149 57.005 174c.033 19.244 1.3 27.735 5.319 35.631 7.993 15.704 22.666 15.869 36.972.416 17.295-18.68 30.33-57.851 28.303-85.047-1.436-19.265-15.19-35.72-37.795-45.218C77.207 74.49 59.625 71.3 50.5 72.651m132.987 46.148c-14.798 5.117-23.413 14.896-23.465 26.635-.102 22.805 36.732 35.71 62.262 21.815 6.5-3.538 11.43-9.456 13.335-16.009 3.949-13.586-5.356-26.945-22.474-32.265-8.243-2.561-22.515-2.646-29.658-.176m8.741 7.222c-14.685 2.133-25.271 12.703-22.756 22.722 1.028 4.097 8.303 10.474 14.553 12.757 8.158 2.98 23.561 2.776 30.717-.407 11.446-5.092 15.599-14.84 10.127-23.775-4.953-8.089-19.667-13.181-32.641-11.297m-35.081 52.993c-9.146 1.926-18.634 9.994-20.986 17.844-4.976 16.607 7.657 30.117 29.742 31.811 13.089 1.003 23.413-2.854 29.515-11.028 1.508-2.019 2.141-4.642 2.4-9.942.313-6.38.025-7.824-2.533-12.695-3.281-6.25-10.243-12.105-17.285-14.537-5.713-1.973-15.232-2.636-20.853-1.453m-.02 9.424c-14.702 4.787-17.651 21.257-4.909 27.425 13.048 6.317 30.084 4.711 35.353-3.332 2.454-3.745 1.502-11.436-1.982-16.003-5.6-7.343-19.032-11.16-28.462-8.09"/><path fill="#1976D2" fill-opacity=".957" fill-rule="evenodd" d="M124.467 14.431C104.143 18.996 91.354 34.599 94.91 50.49c2.668 11.918 10.811 19.021 21.697 18.923 12.233-.11 30.284-12.063 36.455-24.141 3.582-7.012 3.481-17.343-.227-22.945-4.855-7.337-16.469-10.57-28.368-7.896m-2.243 9.038c-15.259 4.765-23.258 18.702-17.365 30.255 2.929 5.741 6.256 7.597 12.663 7.066 13.625-1.13 30.369-16.024 30.456-27.09.034-4.316-2.747-8.706-6.512-10.279-4.203-1.756-13.54-1.733-19.242.048m54.223 23.934c-16.85 5.278-30.85 20.032-32.974 34.75C141.391 96.584 153.414 109 169.471 109c15.898 0 34.355-11.777 41.636-26.566 7.18-14.584 1.821-30.204-11.976-34.905-5.365-1.828-17.042-1.893-22.684-.126m.553 8.631c-7.859 2.802-15.733 8.707-20.385 15.287-3.46 4.892-4.077 6.57-4.424 12.026-.645 10.122 3.455 15.14 13.92 17.037 11.912 2.159 31.687-8.893 37.368-20.884 2.864-6.046 3.113-14.233.555-18.308-4.283-6.827-16.056-9.073-27.034-5.158M43.223 64.999c-10.347 2.191-18.579 9.414-21.107 18.52-3.693 13.305.767 28.69 14.278 49.246 11.115 16.91 10.939 16.278 11.719 42.235.69 22.991 1.381 27.547 5.643 37.181 2.682 6.064 9.683 13.636 14.744 15.948 6.553 2.993 15.877 2.522 23.278-1.176 14.852-7.422 28.196-26.702 37.262-53.841 7.6-22.749 9.642-46.464 5.222-60.654-6.269-20.126-26.221-37.098-52.974-45.06-6.929-2.062-11.432-2.688-21.288-2.96-6.875-.189-14.425.063-16.777.561m.923 8.573c-9.822 2.642-13.855 7.21-14.846 16.812-1.018 9.858 3.249 21.426 13.874 37.616 12.238 18.648 13.121 21.783 13.372 47.5.211 21.529 1.008 26.116 6.21 35.754 3.564 6.603 8.323 10.005 14.741 10.537 14.694 1.219 31.121-16.862 41.993-46.22 6.717-18.138 10.103-39.261 8.445-52.677-1.774-14.353-10.194-26.573-25.191-36.558-17.347-11.549-42.637-17.058-58.598-12.764m142.836 44.465c-13.712 3.257-23.924 12.296-26.152 23.149-2.105 10.254 2.932 19.555 13.814 25.513 20.726 11.348 50.405 5.885 58.723-10.809 9.81-19.686-8.39-39.206-36.166-38.79-3.686.056-8.284.477-10.219.937m1.402 8.311c-11.972 3.054-19.76 10.711-19.631 19.296.235 15.534 28.569 24.283 47.944 14.804 9.006-4.407 13.362-13.063 10.297-20.463-1.761-4.251-9.198-10.519-14.799-12.472-6.358-2.217-17.543-2.764-23.811-1.165M161.5 179.047c-22.142 1.861-33.9 23.611-20.945 38.746 8.094 9.456 28.67 13.567 42.856 8.562 12.834-4.528 18.098-17.412 12.199-29.855-5.808-12.249-18.535-18.761-34.11-17.453m-5 9.16c-4.35 1.52-9.275 5.458-11.001 8.795-.824 1.594-1.499 5.016-1.499 7.603 0 4.188.439 5.123 4.002 8.512 4.991 4.747 11.84 6.89 21.93 6.861 9.228-.027 15.115-2.366 18.044-7.17 6.751-11.073-6.212-25.907-22.476-25.719-3.3.038-7.35.541-9 1.118"/></svg>